<svg width="13" height="13" viewBox="0 0 13 13" fill="none" xmlns="http://www.w3.org/2000/svg">
<path d="M6.36705 8.37293L10.3496 4.19318C10.416 4.12344 10.4531 4.03079 10.4531 3.93443C10.4531 3.83808 10.416 3.74542 10.3496 3.67568L10.3451 3.67118C10.3128 3.63726 10.274 3.61024 10.231 3.59178C10.188 3.57332 10.1417 3.5638 10.0949 3.5638C10.0481 3.5638 10.0018 3.57332 9.95883 3.59178C9.91583 3.61024 9.87703 3.63726 9.8448 3.67118L6.0948 7.60718L2.3463 3.67118C2.31407 3.63726 2.27528 3.61024 2.23228 3.59178C2.18928 3.57332 2.14297 3.5638 2.09618 3.5638C2.04938 3.5638 2.00308 3.57332 1.96008 3.59178C1.91708 3.61024 1.87828 3.63726 1.84605 3.67118L1.84155 3.67568C1.77507 3.74542 1.73798 3.83808 1.73798 3.93443C1.73798 4.03079 1.77507 4.12344 1.84155 4.19318L5.82405 8.37293C5.85908 8.40969 5.9012 8.43896 5.94787 8.45895C5.99454 8.47895 6.04478 8.48926 6.09555 8.48926C6.14633 8.48926 6.19657 8.47895 6.24324 8.45895C6.28991 8.43896 6.33203 8.40969 6.36705 8.37293Z" fill="#6A6A6A"/>
</svg>
