<svg width="25" height="25" viewBox="0 0 25 25" fill="none" xmlns="http://www.w3.org/2000/svg">
<path d="M13.1453 16.5325L20.956 8.33489C21.0864 8.19811 21.1592 8.01639 21.1592 7.82741C21.1592 7.63844 21.0864 7.45671 20.956 7.31993L20.9472 7.31111C20.884 7.24457 20.8079 7.19159 20.7236 7.15538C20.6393 7.11917 20.5484 7.1005 20.4567 7.1005C20.3649 7.1005 20.2741 7.11917 20.1897 7.15538C20.1054 7.19159 20.0293 7.24457 19.9661 7.31111L12.6113 15.0307L5.25951 7.31111C5.1963 7.24457 5.12021 7.19159 5.03588 7.15538C4.95155 7.11917 4.86073 7.1005 4.76895 7.1005C4.67717 7.1005 4.58636 7.11917 4.50202 7.15538C4.41769 7.19159 4.3416 7.24457 4.27839 7.31111L4.26956 7.31993C4.13917 7.45671 4.06643 7.63844 4.06643 7.82741C4.06643 8.01639 4.13917 8.19811 4.26956 8.33489L12.0803 16.5325C12.149 16.6046 12.2316 16.662 12.3232 16.7012C12.4147 16.7404 12.5132 16.7607 12.6128 16.7607C12.7124 16.7607 12.8109 16.7404 12.9025 16.7012C12.994 16.662 13.0766 16.6046 13.1453 16.5325Z" fill="#6A6A6A"/>
</svg>
