<svg width="25" height="25" viewBox="0 0 25 25" fill="none" xmlns="http://www.w3.org/2000/svg">
<path d="M13.1452 16.5325L20.9559 8.33492C21.0863 8.19814 21.1591 8.01642 21.1591 7.82744C21.1591 7.63847 21.0863 7.45675 20.9559 7.31996L20.9471 7.31114C20.8839 7.2446 20.8078 7.19162 20.7235 7.15541C20.6391 7.1192 20.5483 7.10053 20.4565 7.10053C20.3648 7.10053 20.2739 7.1192 20.1896 7.15541C20.1053 7.19162 20.0292 7.2446 19.966 7.31114L12.6112 15.0307L5.25939 7.31114C5.19618 7.2446 5.12009 7.19162 5.03576 7.15541C4.95142 7.1192 4.86061 7.10053 4.76883 7.10053C4.67705 7.10053 4.58623 7.1192 4.5019 7.15541C4.41757 7.19162 4.34148 7.2446 4.27827 7.31114L4.26944 7.31996C4.13905 7.45675 4.06631 7.63847 4.06631 7.82744C4.06631 8.01642 4.13905 8.19814 4.26944 8.33492L12.0802 16.5325C12.1489 16.6046 12.2315 16.662 12.323 16.7012C12.4146 16.7405 12.5131 16.7607 12.6127 16.7607C12.7123 16.7607 12.8108 16.7405 12.9023 16.7012C12.9939 16.662 13.0765 16.6046 13.1452 16.5325Z" fill="#1CB8CE"/>
</svg>
