<svg width="57" height="47" viewBox="0 0 57 47" fill="none" xmlns="http://www.w3.org/2000/svg">
<path d="M6.56787 41.2861V29.5208H9.77098C11.3665 29.5208 12.5722 29.8346 13.388 30.462C14.2157 31.079 14.6296 31.994 14.6296 33.2072C14.6296 34.4307 14.2097 35.372 13.37 36.0308C12.5422 36.6792 11.3425 37.0033 9.77098 37.0033H9.21311V41.2861H6.56787ZM9.21311 35.0895H9.96892C10.6167 35.0895 11.1146 34.9328 11.4625 34.6189C11.8104 34.2949 11.9843 33.8398 11.9843 33.2542C11.9843 32.041 11.3125 31.4345 9.96892 31.4345H9.21311V35.0895Z" fill="#2B3D83"/>
<path d="M16.164 41.286V32.7052L18.5753 32.4542V34.6347C18.7193 33.955 19.0072 33.3954 19.4391 32.9562C19.883 32.517 20.3808 32.2974 20.9327 32.2974C21.4005 32.2974 21.7484 32.3967 21.9764 32.5954L21.4365 34.7287C21.1846 34.5719 20.8787 34.4935 20.5188 34.4935C20.0029 34.4935 19.565 34.7236 19.2051 35.1838C18.8572 35.644 18.6833 36.2609 18.6833 37.0347V41.286H16.164Z" fill="#2B3D83"/>
<path d="M26.1797 41.4898C24.9681 41.4898 24.0262 41.0871 23.3547 40.282C22.6947 39.4768 22.3648 38.3524 22.3648 36.9093C22.3648 35.989 22.5088 35.1889 22.7967 34.5091C23.0966 33.8293 23.5284 33.3012 24.0925 32.9248C24.6681 32.5379 25.364 32.3444 26.1797 32.3444C26.9956 32.3444 27.6853 32.5326 28.249 32.9092C28.825 33.2857 29.2628 33.8138 29.5628 34.4935C29.8747 35.1733 30.0306 35.9785 30.0306 36.9093C30.0306 38.3629 29.6887 39.4924 29.005 40.2978C28.3331 41.0925 27.3915 41.4898 26.1797 41.4898ZM26.1797 39.7957C26.5397 39.7957 26.8097 39.6545 26.9896 39.3721C27.1815 39.0794 27.3075 38.7132 27.3675 38.274C27.4275 37.8243 27.4575 37.3695 27.4575 36.9093C27.4575 36.6164 27.4393 36.3028 27.4034 35.968C27.3675 35.6335 27.3075 35.3196 27.2234 35.0267C27.1394 34.7341 27.0134 34.4986 26.8456 34.3209C26.6775 34.1327 26.4556 34.0385 26.1797 34.0385C25.9159 34.0385 25.7 34.1327 25.5319 34.3209C25.364 34.4986 25.2381 34.7341 25.154 35.0267C25.07 35.3196 25.01 35.6335 24.974 35.968C24.95 36.2924 24.9381 36.6059 24.9381 36.9093C24.9381 37.3695 24.9681 37.8243 25.0281 38.274C25.0881 38.7132 25.2081 39.0794 25.3881 39.3721C25.5678 39.6545 25.8319 39.7957 26.1797 39.7957Z" fill="#2B3D83"/>
<path d="M36.0319 41.4901C35.4441 41.4901 34.9822 41.3594 34.6463 41.0979C34.3103 40.8262 34.0644 40.4967 33.9085 40.1096V41.2863H31.605V29.6309L34.1244 29.3643V33.2859C34.3284 32.9825 34.5982 32.742 34.9341 32.5643C35.27 32.3865 35.6778 32.2977 36.1578 32.2977C37.1894 32.2977 37.9453 32.7159 38.4253 33.5525C38.9172 34.3786 39.1631 35.4977 39.1631 36.9096C39.1631 37.7671 39.055 38.5409 38.8391 39.2311C38.6231 39.9214 38.2813 40.4704 37.8134 40.8782C37.3575 41.2863 36.7638 41.4901 36.0319 41.4901ZM35.276 39.796C35.756 39.796 36.0919 39.5345 36.2838 39.0115C36.4878 38.4888 36.5897 37.7932 36.5897 36.9252C36.5897 36.0467 36.4878 35.3409 36.2838 34.8074C36.0919 34.2637 35.756 33.9918 35.276 33.9918C34.8441 33.9918 34.5444 34.1958 34.3763 34.6036C34.2085 35.0114 34.1244 35.5554 34.1244 36.2349V37.5684C34.1244 38.2273 34.2085 38.7659 34.3763 39.1841C34.5444 39.592 34.8441 39.796 35.276 39.796Z" fill="#2B3D83"/>
<path d="M43.0683 41.4272C42.3605 41.4272 41.7908 41.2181 41.3589 40.7998C40.9389 40.3711 40.7289 39.6966 40.7289 38.7763V32.4388H43.2483V37.8978C43.2483 38.5253 43.3261 38.9594 43.4824 39.2C43.6383 39.4298 43.8902 39.5449 44.238 39.5449C44.658 39.5449 44.9998 39.2993 45.2636 38.8077C45.5277 38.3056 45.6595 37.6833 45.6595 36.941V32.4388H48.1789V41.1292L45.7677 41.3961V39.3409C45.5758 40.0626 45.2398 40.5907 44.7599 40.9255C44.2799 41.26 43.7161 41.4272 43.0683 41.4272Z" fill="#2B3D83"/>
<path d="M53.0187 41.5214C51.999 41.5214 51.1893 41.2757 50.5893 40.7841C50.0015 40.2821 49.6956 39.5972 49.6715 38.7292L51.7412 38.5251C51.7771 38.9644 51.9149 39.3096 52.1549 39.5604C52.4068 39.8009 52.7309 39.9212 53.1265 39.9212C53.4387 39.9212 53.6784 39.8533 53.8465 39.7174C54.0265 39.5708 54.1165 39.3776 54.1165 39.137C54.1165 38.9278 54.0502 38.7501 53.9184 38.6035C53.7865 38.4572 53.5524 38.3055 53.2165 38.1487L51.5071 37.3328C50.9552 37.0716 50.5293 36.7317 50.2293 36.3134C49.9296 35.8948 49.7796 35.4296 49.7796 34.917C49.7796 34.4048 49.9174 33.9551 50.1934 33.5682C50.4815 33.1706 50.8712 32.8621 51.3631 32.6425C51.8671 32.4124 52.4427 32.2975 53.0906 32.2975C54.0384 32.2975 54.7881 32.5222 55.3399 32.9719C55.904 33.4216 56.2099 34.0386 56.2577 34.8231L54.1884 35.1839C54.1524 34.3264 53.7684 33.8976 53.0368 33.8976C52.7368 33.8976 52.5087 33.9655 52.3527 34.1014C52.1968 34.227 52.119 34.4048 52.119 34.6349C52.119 34.8335 52.1849 35.0113 52.3168 35.1681C52.4609 35.3251 52.7009 35.4819 53.0368 35.6387L54.5483 36.3604C55.208 36.674 55.688 37.0297 55.9877 37.427C56.2996 37.8139 56.4558 38.2741 56.4558 38.8076C56.4558 39.3408 56.3118 39.8114 56.024 40.2192C55.7359 40.6273 55.334 40.9463 54.818 41.1764C54.3024 41.4062 53.7024 41.5214 53.0187 41.5214Z" fill="#2B3D83"/>
<mask id="mask0_1263_2770" style="mask-type:luminance" maskUnits="userSpaceOnUse" x="6" y="29" width="51" height="13">
<path d="M56.6601 29.0807H6.2843V41.8161H56.6601V29.0807Z" fill="white"/>
<path d="M6.56763 41.2862V29.5209H9.77074C11.3663 29.5209 12.5719 29.8347 13.3877 30.4622C14.2155 31.0791 14.6294 31.9941 14.6294 33.2074C14.6294 34.4308 14.2095 35.3721 13.3697 36.031C12.5419 36.6793 11.3423 37.0034 9.77074 37.0034H9.21287V41.2862H6.56763ZM9.21287 35.0897H9.96867C10.6165 35.0897 11.1144 34.9329 11.4623 34.619C11.8102 34.295 11.9841 33.8399 11.9841 33.2543C11.9841 32.0411 11.3123 31.4346 9.96867 31.4346H9.21287V35.0897Z" fill="black"/>
<path d="M16.1639 41.2862V32.7053L18.5753 32.4543V34.6349C18.7192 33.9551 19.0071 33.3956 19.439 32.9563C19.8829 32.5171 20.3808 32.2975 20.9326 32.2975C21.4005 32.2975 21.7484 32.3968 21.9763 32.5955L21.4365 34.7288C21.1845 34.572 20.8786 34.4936 20.5187 34.4936C20.0029 34.4936 19.565 34.7237 19.2051 35.1839C18.8572 35.6441 18.6832 36.261 18.6832 37.0348V41.2862H16.1639Z" fill="black"/>
<path d="M26.1793 41.4898C24.9677 41.4898 24.0259 41.0871 23.3543 40.282C22.6944 39.4768 22.3644 38.3524 22.3644 36.9093C22.3644 35.989 22.5084 35.1889 22.7963 34.5091C23.0962 33.8293 23.5281 33.3012 24.0921 32.9248C24.6677 32.5379 25.3637 32.3444 26.1793 32.3444C26.9952 32.3444 27.6849 32.5326 28.2487 32.9092C28.8246 33.2857 29.2624 33.8138 29.5624 34.4935C29.8743 35.1733 30.0302 35.9785 30.0302 36.9093C30.0302 38.3629 29.6883 39.4924 29.0046 40.2978C28.3327 41.0925 27.3912 41.4898 26.1793 41.4898ZM26.1793 39.7957C26.5393 39.7957 26.8093 39.6545 26.9893 39.3721C27.1812 39.0794 27.3071 38.7132 27.3671 38.274C27.4271 37.8243 27.4571 37.3695 27.4571 36.9093C27.4571 36.6164 27.439 36.3028 27.403 35.968C27.3671 35.6335 27.3071 35.3196 27.223 35.0267C27.139 34.7341 27.0131 34.4986 26.8452 34.3209C26.6771 34.1327 26.4552 34.0385 26.1793 34.0385C25.9155 34.0385 25.6996 34.1327 25.5315 34.3209C25.3637 34.4986 25.2377 34.7341 25.1537 35.0267C25.0696 35.3196 25.0096 35.6335 24.9737 35.968C24.9496 36.2924 24.9377 36.6059 24.9377 36.9093C24.9377 37.3695 24.9677 37.8243 25.0277 38.274C25.0877 38.7132 25.2077 39.0794 25.3877 39.3721C25.5674 39.6545 25.8315 39.7957 26.1793 39.7957Z" fill="black"/>
<path d="M36.0318 41.49C35.444 41.49 34.9821 41.3592 34.6461 41.0977C34.3102 40.826 34.0643 40.4966 33.9083 40.1095V41.2862H31.6049V29.6307L34.1243 29.3641V33.2858C34.3283 32.9824 34.598 32.7419 34.934 32.5641C35.2699 32.3864 35.6777 32.2975 36.1577 32.2975C37.1893 32.2975 37.9452 32.7158 38.4252 33.5524C38.9171 34.3785 39.163 35.4975 39.163 36.9095C39.163 37.767 39.0549 38.5407 38.8389 39.231C38.623 39.9213 38.2811 40.4703 37.8133 40.8781C37.3574 41.2862 36.7636 41.49 36.0318 41.49ZM35.2758 39.7959C35.7558 39.7959 36.0918 39.5344 36.2836 39.0114C36.4877 38.4887 36.5896 37.793 36.5896 36.925C36.5896 36.0466 36.4877 35.3407 36.2836 34.8073C36.0918 34.2636 35.7558 33.9916 35.2758 33.9916C34.844 33.9916 34.5443 34.1957 34.3762 34.6035C34.2083 35.0113 34.1243 35.5553 34.1243 36.2348V37.5683C34.1243 38.2272 34.2083 38.7657 34.3762 39.184C34.5443 39.5918 34.844 39.7959 35.2758 39.7959Z" fill="black"/>
<path d="M43.0681 41.427C42.3603 41.427 41.7906 41.2179 41.3587 40.7996C40.9388 40.3708 40.7288 39.6964 40.7288 38.776V32.4386H43.2481V37.8976C43.2481 38.525 43.3259 38.9592 43.4822 39.1997C43.6381 39.4295 43.89 39.5447 44.2378 39.5447C44.6578 39.5447 44.9997 39.299 45.2634 38.8075C45.5275 38.3054 45.6594 37.6831 45.6594 36.9407V32.4386H48.1787V41.129L45.7675 41.3959V39.3407C45.5756 40.0623 45.2397 40.5904 44.7597 40.9252C44.2797 41.2597 43.7159 41.427 43.0681 41.427Z" fill="black"/>
<path d="M53.0183 41.5215C51.9986 41.5215 51.1889 41.2758 50.5889 40.7842C50.0011 40.2822 49.6952 39.5973 49.6711 38.7293L51.7408 38.5252C51.7767 38.9645 51.9146 39.3098 52.1546 39.5605C52.4064 39.8011 52.7305 39.9213 53.1261 39.9213C53.4383 39.9213 53.678 39.8534 53.8461 39.7176C54.0261 39.571 54.1161 39.3777 54.1161 39.1371C54.1161 38.928 54.0499 38.7502 53.918 38.6036C53.7861 38.4573 53.5521 38.3056 53.2161 38.1488L51.5067 37.3329C50.9549 37.0717 50.5289 36.7318 50.229 36.3135C49.9292 35.895 49.7793 35.4297 49.7793 34.9171C49.7793 34.4049 49.9171 33.9552 50.193 33.5683C50.4811 33.1707 50.8708 32.8622 51.3627 32.6426C51.8667 32.4125 52.4424 32.2976 53.0902 32.2976C54.038 32.2976 54.7877 32.5223 55.3396 32.972C55.9036 33.4217 56.2095 34.0387 56.2574 34.8232L54.188 35.184C54.152 34.3265 53.768 33.8977 53.0364 33.8977C52.7364 33.8977 52.5083 33.9657 52.3524 34.1015C52.1964 34.2272 52.1186 34.4049 52.1186 34.635C52.1186 34.8337 52.1846 35.0114 52.3164 35.1682C52.4605 35.3253 52.7005 35.482 53.0364 35.6388L54.548 36.3605C55.2077 36.6741 55.6877 37.0298 55.9874 37.4272C56.2992 37.814 56.4555 38.2742 56.4555 38.8077C56.4555 39.3409 56.3114 39.8115 56.0236 40.2193C55.7355 40.6274 55.3336 40.9464 54.8177 41.1765C54.302 41.4063 53.7021 41.5215 53.0183 41.5215Z" fill="black"/>
</mask>
<g mask="url(#mask0_1263_2770)">
<path d="M6.56763 41.2862V29.5209H9.77074C11.3663 29.5209 12.5719 29.8347 13.3877 30.4622C14.2155 31.0791 14.6294 31.9941 14.6294 33.2074C14.6294 34.4308 14.2095 35.3721 13.3697 36.031C12.5419 36.6793 11.3423 37.0034 9.77074 37.0034H9.21287V41.2862H6.56763ZM9.21287 35.0897H9.96867C10.6165 35.0897 11.1144 34.9329 11.4623 34.619C11.8102 34.295 11.9841 33.8399 11.9841 33.2543C11.9841 32.0411 11.3123 31.4346 9.96867 31.4346H9.21287V35.0897Z" stroke="#2B3D83" stroke-width="0.273684"/>
</g>
<mask id="mask1_1263_2770" style="mask-type:luminance" maskUnits="userSpaceOnUse" x="6" y="29" width="51" height="13">
<path d="M56.6601 29.0807H6.2843V41.8161H56.6601V29.0807Z" fill="white"/>
<path d="M6.56763 41.2862V29.5209H9.77074C11.3663 29.5209 12.5719 29.8347 13.3877 30.4622C14.2155 31.0791 14.6294 31.9941 14.6294 33.2074C14.6294 34.4308 14.2095 35.3721 13.3697 36.031C12.5419 36.6793 11.3423 37.0034 9.77074 37.0034H9.21287V41.2862H6.56763ZM9.21287 35.0897H9.96867C10.6165 35.0897 11.1144 34.9329 11.4623 34.619C11.8102 34.295 11.9841 33.8399 11.9841 33.2543C11.9841 32.0411 11.3123 31.4346 9.96867 31.4346H9.21287V35.0897Z" fill="black"/>
<path d="M16.1639 41.2862V32.7053L18.5753 32.4543V34.6349C18.7192 33.9551 19.0071 33.3956 19.439 32.9563C19.8829 32.5171 20.3808 32.2975 20.9326 32.2975C21.4005 32.2975 21.7484 32.3968 21.9763 32.5955L21.4365 34.7288C21.1845 34.572 20.8786 34.4936 20.5187 34.4936C20.0029 34.4936 19.565 34.7237 19.2051 35.1839C18.8572 35.6441 18.6832 36.261 18.6832 37.0348V41.2862H16.1639Z" fill="black"/>
<path d="M26.1793 41.4898C24.9677 41.4898 24.0259 41.0871 23.3543 40.282C22.6944 39.4768 22.3644 38.3524 22.3644 36.9093C22.3644 35.989 22.5084 35.1889 22.7963 34.5091C23.0962 33.8293 23.5281 33.3012 24.0921 32.9248C24.6677 32.5379 25.3637 32.3444 26.1793 32.3444C26.9952 32.3444 27.6849 32.5326 28.2487 32.9092C28.8246 33.2857 29.2624 33.8138 29.5624 34.4935C29.8743 35.1733 30.0302 35.9785 30.0302 36.9093C30.0302 38.3629 29.6883 39.4924 29.0046 40.2978C28.3327 41.0925 27.3912 41.4898 26.1793 41.4898ZM26.1793 39.7957C26.5393 39.7957 26.8093 39.6545 26.9893 39.3721C27.1812 39.0794 27.3071 38.7132 27.3671 38.274C27.4271 37.8243 27.4571 37.3695 27.4571 36.9093C27.4571 36.6164 27.439 36.3028 27.403 35.968C27.3671 35.6335 27.3071 35.3196 27.223 35.0267C27.139 34.7341 27.0131 34.4986 26.8452 34.3209C26.6771 34.1327 26.4552 34.0385 26.1793 34.0385C25.9155 34.0385 25.6996 34.1327 25.5315 34.3209C25.3637 34.4986 25.2377 34.7341 25.1537 35.0267C25.0696 35.3196 25.0096 35.6335 24.9737 35.968C24.9496 36.2924 24.9377 36.6059 24.9377 36.9093C24.9377 37.3695 24.9677 37.8243 25.0277 38.274C25.0877 38.7132 25.2077 39.0794 25.3877 39.3721C25.5674 39.6545 25.8315 39.7957 26.1793 39.7957Z" fill="black"/>
<path d="M36.0318 41.49C35.444 41.49 34.9821 41.3592 34.6461 41.0977C34.3102 40.826 34.0643 40.4966 33.9083 40.1095V41.2862H31.6049V29.6307L34.1243 29.3641V33.2858C34.3283 32.9824 34.598 32.7419 34.934 32.5641C35.2699 32.3864 35.6777 32.2975 36.1577 32.2975C37.1893 32.2975 37.9452 32.7158 38.4252 33.5524C38.9171 34.3785 39.163 35.4975 39.163 36.9095C39.163 37.767 39.0549 38.5407 38.8389 39.231C38.623 39.9213 38.2811 40.4703 37.8133 40.8781C37.3574 41.2862 36.7636 41.49 36.0318 41.49ZM35.2758 39.7959C35.7558 39.7959 36.0918 39.5344 36.2836 39.0114C36.4877 38.4887 36.5896 37.793 36.5896 36.925C36.5896 36.0466 36.4877 35.3407 36.2836 34.8073C36.0918 34.2636 35.7558 33.9916 35.2758 33.9916C34.844 33.9916 34.5443 34.1957 34.3762 34.6035C34.2083 35.0113 34.1243 35.5553 34.1243 36.2348V37.5683C34.1243 38.2272 34.2083 38.7657 34.3762 39.184C34.5443 39.5918 34.844 39.7959 35.2758 39.7959Z" fill="black"/>
<path d="M43.0681 41.427C42.3603 41.427 41.7906 41.2179 41.3587 40.7996C40.9388 40.3708 40.7288 39.6964 40.7288 38.776V32.4386H43.2481V37.8976C43.2481 38.525 43.3259 38.9592 43.4822 39.1997C43.6381 39.4295 43.89 39.5447 44.2378 39.5447C44.6578 39.5447 44.9997 39.299 45.2634 38.8075C45.5275 38.3054 45.6594 37.6831 45.6594 36.9407V32.4386H48.1787V41.129L45.7675 41.3959V39.3407C45.5756 40.0623 45.2397 40.5904 44.7597 40.9252C44.2797 41.2597 43.7159 41.427 43.0681 41.427Z" fill="black"/>
<path d="M53.0183 41.5215C51.9986 41.5215 51.1889 41.2758 50.5889 40.7842C50.0011 40.2822 49.6952 39.5973 49.6711 38.7293L51.7408 38.5252C51.7767 38.9645 51.9146 39.3098 52.1546 39.5605C52.4064 39.8011 52.7305 39.9213 53.1261 39.9213C53.4383 39.9213 53.678 39.8534 53.8461 39.7176C54.0261 39.571 54.1161 39.3777 54.1161 39.1371C54.1161 38.928 54.0499 38.7502 53.918 38.6036C53.7861 38.4573 53.5521 38.3056 53.2161 38.1488L51.5067 37.3329C50.9549 37.0717 50.5289 36.7318 50.229 36.3135C49.9292 35.895 49.7793 35.4297 49.7793 34.9171C49.7793 34.4049 49.9171 33.9552 50.193 33.5683C50.4811 33.1707 50.8708 32.8622 51.3627 32.6426C51.8667 32.4125 52.4424 32.2976 53.0902 32.2976C54.038 32.2976 54.7877 32.5223 55.3396 32.972C55.9036 33.4217 56.2095 34.0387 56.2574 34.8232L54.188 35.184C54.152 34.3265 53.768 33.8977 53.0364 33.8977C52.7364 33.8977 52.5083 33.9657 52.3524 34.1015C52.1964 34.2272 52.1186 34.4049 52.1186 34.635C52.1186 34.8337 52.1846 35.0114 52.3164 35.1682C52.4605 35.3253 52.7005 35.482 53.0364 35.6388L54.548 36.3605C55.2077 36.6741 55.6877 37.0298 55.9874 37.4272C56.2992 37.814 56.4555 38.2742 56.4555 38.8077C56.4555 39.3409 56.3114 39.8115 56.0236 40.2193C55.7355 40.6274 55.3336 40.9464 54.8177 41.1765C54.302 41.4063 53.7021 41.5215 53.0183 41.5215Z" fill="black"/>
</mask>
<g mask="url(#mask1_1263_2770)">
<path d="M16.1639 41.2863V32.7054L18.5753 32.4544V34.635C18.7192 33.9552 19.0071 33.3957 19.439 32.9565C19.8829 32.5172 20.3808 32.2976 20.9326 32.2976C21.4005 32.2976 21.7484 32.3969 21.9763 32.5956L21.4365 34.7289C21.1845 34.5722 20.8786 34.4938 20.5187 34.4938C20.0029 34.4938 19.565 34.7239 19.2051 35.184C18.8572 35.6442 18.6832 36.2612 18.6832 37.0349V41.2863H16.1639Z" stroke="#2B3D83" stroke-width="0.273684"/>
</g>
<mask id="mask2_1263_2770" style="mask-type:luminance" maskUnits="userSpaceOnUse" x="6" y="29" width="51" height="13">
<path d="M56.6601 29.0807H6.2843V41.8161H56.6601V29.0807Z" fill="white"/>
<path d="M6.56763 41.2862V29.5209H9.77074C11.3663 29.5209 12.5719 29.8347 13.3877 30.4622C14.2155 31.0791 14.6294 31.9941 14.6294 33.2074C14.6294 34.4308 14.2095 35.3721 13.3697 36.031C12.5419 36.6793 11.3423 37.0034 9.77074 37.0034H9.21287V41.2862H6.56763ZM9.21287 35.0897H9.96867C10.6165 35.0897 11.1144 34.9329 11.4623 34.619C11.8102 34.295 11.9841 33.8399 11.9841 33.2543C11.9841 32.0411 11.3123 31.4346 9.96867 31.4346H9.21287V35.0897Z" fill="black"/>
<path d="M16.1639 41.2862V32.7053L18.5753 32.4543V34.6349C18.7192 33.9551 19.0071 33.3956 19.439 32.9563C19.8829 32.5171 20.3808 32.2975 20.9326 32.2975C21.4005 32.2975 21.7484 32.3968 21.9763 32.5955L21.4365 34.7288C21.1845 34.572 20.8786 34.4936 20.5187 34.4936C20.0029 34.4936 19.565 34.7237 19.2051 35.1839C18.8572 35.6441 18.6832 36.261 18.6832 37.0348V41.2862H16.1639Z" fill="black"/>
<path d="M26.1793 41.4898C24.9677 41.4898 24.0259 41.0871 23.3543 40.282C22.6944 39.4768 22.3644 38.3524 22.3644 36.9093C22.3644 35.989 22.5084 35.1889 22.7963 34.5091C23.0962 33.8293 23.5281 33.3012 24.0921 32.9248C24.6677 32.5379 25.3637 32.3444 26.1793 32.3444C26.9952 32.3444 27.6849 32.5326 28.2487 32.9092C28.8246 33.2857 29.2624 33.8138 29.5624 34.4935C29.8743 35.1733 30.0302 35.9785 30.0302 36.9093C30.0302 38.3629 29.6883 39.4924 29.0046 40.2978C28.3327 41.0925 27.3912 41.4898 26.1793 41.4898ZM26.1793 39.7957C26.5393 39.7957 26.8093 39.6545 26.9893 39.3721C27.1812 39.0794 27.3071 38.7132 27.3671 38.274C27.4271 37.8243 27.4571 37.3695 27.4571 36.9093C27.4571 36.6164 27.439 36.3028 27.403 35.968C27.3671 35.6335 27.3071 35.3196 27.223 35.0267C27.139 34.7341 27.0131 34.4986 26.8452 34.3209C26.6771 34.1327 26.4552 34.0385 26.1793 34.0385C25.9155 34.0385 25.6996 34.1327 25.5315 34.3209C25.3637 34.4986 25.2377 34.7341 25.1537 35.0267C25.0696 35.3196 25.0096 35.6335 24.9737 35.968C24.9496 36.2924 24.9377 36.6059 24.9377 36.9093C24.9377 37.3695 24.9677 37.8243 25.0277 38.274C25.0877 38.7132 25.2077 39.0794 25.3877 39.3721C25.5674 39.6545 25.8315 39.7957 26.1793 39.7957Z" fill="black"/>
<path d="M36.0318 41.49C35.444 41.49 34.9821 41.3592 34.6461 41.0977C34.3102 40.826 34.0643 40.4966 33.9083 40.1095V41.2862H31.6049V29.6307L34.1243 29.3641V33.2858C34.3283 32.9824 34.598 32.7419 34.934 32.5641C35.2699 32.3864 35.6777 32.2975 36.1577 32.2975C37.1893 32.2975 37.9452 32.7158 38.4252 33.5524C38.9171 34.3785 39.163 35.4975 39.163 36.9095C39.163 37.767 39.0549 38.5407 38.8389 39.231C38.623 39.9213 38.2811 40.4703 37.8133 40.8781C37.3574 41.2862 36.7636 41.49 36.0318 41.49ZM35.2758 39.7959C35.7558 39.7959 36.0918 39.5344 36.2836 39.0114C36.4877 38.4887 36.5896 37.793 36.5896 36.925C36.5896 36.0466 36.4877 35.3407 36.2836 34.8073C36.0918 34.2636 35.7558 33.9916 35.2758 33.9916C34.844 33.9916 34.5443 34.1957 34.3762 34.6035C34.2083 35.0113 34.1243 35.5553 34.1243 36.2348V37.5683C34.1243 38.2272 34.2083 38.7657 34.3762 39.184C34.5443 39.5918 34.844 39.7959 35.2758 39.7959Z" fill="black"/>
<path d="M43.0681 41.427C42.3603 41.427 41.7906 41.2179 41.3587 40.7996C40.9388 40.3708 40.7288 39.6964 40.7288 38.776V32.4386H43.2481V37.8976C43.2481 38.525 43.3259 38.9592 43.4822 39.1997C43.6381 39.4295 43.89 39.5447 44.2378 39.5447C44.6578 39.5447 44.9997 39.299 45.2634 38.8075C45.5275 38.3054 45.6594 37.6831 45.6594 36.9407V32.4386H48.1787V41.129L45.7675 41.3959V39.3407C45.5756 40.0623 45.2397 40.5904 44.7597 40.9252C44.2797 41.2597 43.7159 41.427 43.0681 41.427Z" fill="black"/>
<path d="M53.0183 41.5215C51.9986 41.5215 51.1889 41.2758 50.5889 40.7842C50.0011 40.2822 49.6952 39.5973 49.6711 38.7293L51.7408 38.5252C51.7767 38.9645 51.9146 39.3098 52.1546 39.5605C52.4064 39.8011 52.7305 39.9213 53.1261 39.9213C53.4383 39.9213 53.678 39.8534 53.8461 39.7176C54.0261 39.571 54.1161 39.3777 54.1161 39.1371C54.1161 38.928 54.0499 38.7502 53.918 38.6036C53.7861 38.4573 53.5521 38.3056 53.2161 38.1488L51.5067 37.3329C50.9549 37.0717 50.5289 36.7318 50.229 36.3135C49.9292 35.895 49.7793 35.4297 49.7793 34.9171C49.7793 34.4049 49.9171 33.9552 50.193 33.5683C50.4811 33.1707 50.8708 32.8622 51.3627 32.6426C51.8667 32.4125 52.4424 32.2976 53.0902 32.2976C54.038 32.2976 54.7877 32.5223 55.3396 32.972C55.9036 33.4217 56.2095 34.0387 56.2574 34.8232L54.188 35.184C54.152 34.3265 53.768 33.8977 53.0364 33.8977C52.7364 33.8977 52.5083 33.9657 52.3524 34.1015C52.1964 34.2272 52.1186 34.4049 52.1186 34.635C52.1186 34.8337 52.1846 35.0114 52.3164 35.1682C52.4605 35.3253 52.7005 35.482 53.0364 35.6388L54.548 36.3605C55.2077 36.6741 55.6877 37.0298 55.9874 37.4272C56.2992 37.814 56.4555 38.2742 56.4555 38.8077C56.4555 39.3409 56.3114 39.8115 56.0236 40.2193C55.7355 40.6274 55.3336 40.9464 54.8177 41.1765C54.302 41.4063 53.7021 41.5215 53.0183 41.5215Z" fill="black"/>
</mask>
<g mask="url(#mask2_1263_2770)">
<path d="M26.1793 41.4898C24.9677 41.4898 24.0259 41.0871 23.3543 40.282C22.6944 39.4768 22.3644 38.3524 22.3644 36.9093C22.3644 35.989 22.5084 35.1889 22.7963 34.5091C23.0962 33.8293 23.5281 33.3012 24.0921 32.9248C24.6677 32.5379 25.3637 32.3444 26.1793 32.3444C26.9952 32.3444 27.6849 32.5326 28.2487 32.9092C28.8246 33.2857 29.2624 33.8138 29.5624 34.4935C29.8743 35.1733 30.0302 35.9785 30.0302 36.9093C30.0302 38.3629 29.6883 39.4924 29.0046 40.2978C28.3327 41.0925 27.3912 41.4898 26.1793 41.4898ZM26.1793 39.7957C26.5393 39.7957 26.8093 39.6545 26.9893 39.3721C27.1812 39.0794 27.3071 38.7132 27.3671 38.274C27.4271 37.8243 27.4571 37.3695 27.4571 36.9093C27.4571 36.6164 27.439 36.3028 27.403 35.968C27.3671 35.6335 27.3071 35.3196 27.223 35.0267C27.139 34.7341 27.0131 34.4986 26.8452 34.3209C26.6771 34.1327 26.4552 34.0385 26.1793 34.0385C25.9155 34.0385 25.6996 34.1327 25.5315 34.3209C25.3637 34.4986 25.2377 34.7341 25.1537 35.0267C25.0696 35.3196 25.0096 35.6335 24.9737 35.968C24.9496 36.2924 24.9377 36.6059 24.9377 36.9093C24.9377 37.3695 24.9677 37.8243 25.0277 38.274C25.0877 38.7132 25.2077 39.0794 25.3877 39.3721C25.5674 39.6545 25.8315 39.7957 26.1793 39.7957Z" stroke="#2B3D83" stroke-width="0.273684"/>
</g>
<mask id="mask3_1263_2770" style="mask-type:luminance" maskUnits="userSpaceOnUse" x="6" y="29" width="51" height="13">
<path d="M56.6601 29.0807H6.2843V41.8161H56.6601V29.0807Z" fill="white"/>
<path d="M6.56763 41.2862V29.5209H9.77074C11.3663 29.5209 12.5719 29.8347 13.3877 30.4622C14.2155 31.0791 14.6294 31.9941 14.6294 33.2074C14.6294 34.4308 14.2095 35.3721 13.3697 36.031C12.5419 36.6793 11.3423 37.0034 9.77074 37.0034H9.21287V41.2862H6.56763ZM9.21287 35.0897H9.96867C10.6165 35.0897 11.1144 34.9329 11.4623 34.619C11.8102 34.295 11.9841 33.8399 11.9841 33.2543C11.9841 32.0411 11.3123 31.4346 9.96867 31.4346H9.21287V35.0897Z" fill="black"/>
<path d="M16.1639 41.2862V32.7053L18.5753 32.4543V34.6349C18.7192 33.9551 19.0071 33.3956 19.439 32.9563C19.8829 32.5171 20.3808 32.2975 20.9326 32.2975C21.4005 32.2975 21.7484 32.3968 21.9763 32.5955L21.4365 34.7288C21.1845 34.572 20.8786 34.4936 20.5187 34.4936C20.0029 34.4936 19.565 34.7237 19.2051 35.1839C18.8572 35.6441 18.6832 36.261 18.6832 37.0348V41.2862H16.1639Z" fill="black"/>
<path d="M26.1793 41.4898C24.9677 41.4898 24.0259 41.0871 23.3543 40.282C22.6944 39.4768 22.3644 38.3524 22.3644 36.9093C22.3644 35.989 22.5084 35.1889 22.7963 34.5091C23.0962 33.8293 23.5281 33.3012 24.0921 32.9248C24.6677 32.5379 25.3637 32.3444 26.1793 32.3444C26.9952 32.3444 27.6849 32.5326 28.2487 32.9092C28.8246 33.2857 29.2624 33.8138 29.5624 34.4935C29.8743 35.1733 30.0302 35.9785 30.0302 36.9093C30.0302 38.3629 29.6883 39.4924 29.0046 40.2978C28.3327 41.0925 27.3912 41.4898 26.1793 41.4898ZM26.1793 39.7957C26.5393 39.7957 26.8093 39.6545 26.9893 39.3721C27.1812 39.0794 27.3071 38.7132 27.3671 38.274C27.4271 37.8243 27.4571 37.3695 27.4571 36.9093C27.4571 36.6164 27.439 36.3028 27.403 35.968C27.3671 35.6335 27.3071 35.3196 27.223 35.0267C27.139 34.7341 27.0131 34.4986 26.8452 34.3209C26.6771 34.1327 26.4552 34.0385 26.1793 34.0385C25.9155 34.0385 25.6996 34.1327 25.5315 34.3209C25.3637 34.4986 25.2377 34.7341 25.1537 35.0267C25.0696 35.3196 25.0096 35.6335 24.9737 35.968C24.9496 36.2924 24.9377 36.6059 24.9377 36.9093C24.9377 37.3695 24.9677 37.8243 25.0277 38.274C25.0877 38.7132 25.2077 39.0794 25.3877 39.3721C25.5674 39.6545 25.8315 39.7957 26.1793 39.7957Z" fill="black"/>
<path d="M36.0318 41.49C35.444 41.49 34.9821 41.3592 34.6461 41.0977C34.3102 40.826 34.0643 40.4966 33.9083 40.1095V41.2862H31.6049V29.6307L34.1243 29.3641V33.2858C34.3283 32.9824 34.598 32.7419 34.934 32.5641C35.2699 32.3864 35.6777 32.2975 36.1577 32.2975C37.1893 32.2975 37.9452 32.7158 38.4252 33.5524C38.9171 34.3785 39.163 35.4975 39.163 36.9095C39.163 37.767 39.0549 38.5407 38.8389 39.231C38.623 39.9213 38.2811 40.4703 37.8133 40.8781C37.3574 41.2862 36.7636 41.49 36.0318 41.49ZM35.2758 39.7959C35.7558 39.7959 36.0918 39.5344 36.2836 39.0114C36.4877 38.4887 36.5896 37.793 36.5896 36.925C36.5896 36.0466 36.4877 35.3407 36.2836 34.8073C36.0918 34.2636 35.7558 33.9916 35.2758 33.9916C34.844 33.9916 34.5443 34.1957 34.3762 34.6035C34.2083 35.0113 34.1243 35.5553 34.1243 36.2348V37.5683C34.1243 38.2272 34.2083 38.7657 34.3762 39.184C34.5443 39.5918 34.844 39.7959 35.2758 39.7959Z" fill="black"/>
<path d="M43.0681 41.427C42.3603 41.427 41.7906 41.2179 41.3587 40.7996C40.9388 40.3708 40.7288 39.6964 40.7288 38.776V32.4386H43.2481V37.8976C43.2481 38.525 43.3259 38.9592 43.4822 39.1997C43.6381 39.4295 43.89 39.5447 44.2378 39.5447C44.6578 39.5447 44.9997 39.299 45.2634 38.8075C45.5275 38.3054 45.6594 37.6831 45.6594 36.9407V32.4386H48.1787V41.129L45.7675 41.3959V39.3407C45.5756 40.0623 45.2397 40.5904 44.7597 40.9252C44.2797 41.2597 43.7159 41.427 43.0681 41.427Z" fill="black"/>
<path d="M53.0183 41.5215C51.9986 41.5215 51.1889 41.2758 50.5889 40.7842C50.0011 40.2822 49.6952 39.5973 49.6711 38.7293L51.7408 38.5252C51.7767 38.9645 51.9146 39.3098 52.1546 39.5605C52.4064 39.8011 52.7305 39.9213 53.1261 39.9213C53.4383 39.9213 53.678 39.8534 53.8461 39.7176C54.0261 39.571 54.1161 39.3777 54.1161 39.1371C54.1161 38.928 54.0499 38.7502 53.918 38.6036C53.7861 38.4573 53.5521 38.3056 53.2161 38.1488L51.5067 37.3329C50.9549 37.0717 50.5289 36.7318 50.229 36.3135C49.9292 35.895 49.7793 35.4297 49.7793 34.9171C49.7793 34.4049 49.9171 33.9552 50.193 33.5683C50.4811 33.1707 50.8708 32.8622 51.3627 32.6426C51.8667 32.4125 52.4424 32.2976 53.0902 32.2976C54.038 32.2976 54.7877 32.5223 55.3396 32.972C55.9036 33.4217 56.2095 34.0387 56.2574 34.8232L54.188 35.184C54.152 34.3265 53.768 33.8977 53.0364 33.8977C52.7364 33.8977 52.5083 33.9657 52.3524 34.1015C52.1964 34.2272 52.1186 34.4049 52.1186 34.635C52.1186 34.8337 52.1846 35.0114 52.3164 35.1682C52.4605 35.3253 52.7005 35.482 53.0364 35.6388L54.548 36.3605C55.2077 36.6741 55.6877 37.0298 55.9874 37.4272C56.2992 37.814 56.4555 38.2742 56.4555 38.8077C56.4555 39.3409 56.3114 39.8115 56.0236 40.2193C55.7355 40.6274 55.3336 40.9464 54.8177 41.1765C54.302 41.4063 53.7021 41.5215 53.0183 41.5215Z" fill="black"/>
</mask>
<g mask="url(#mask3_1263_2770)">
<path d="M36.0318 41.49C35.444 41.49 34.9821 41.3592 34.6461 41.0977C34.3102 40.826 34.0643 40.4966 33.9083 40.1095V41.2862H31.6049V29.6307L34.1243 29.3641V33.2858C34.3283 32.9824 34.598 32.7419 34.934 32.5641C35.2699 32.3864 35.6777 32.2975 36.1577 32.2975C37.1893 32.2975 37.9452 32.7158 38.4252 33.5524C38.9171 34.3785 39.163 35.4975 39.163 36.9095C39.163 37.767 39.0549 38.5407 38.8389 39.231C38.623 39.9213 38.2811 40.4703 37.8133 40.8781C37.3574 41.2862 36.7636 41.49 36.0318 41.49ZM35.2758 39.7959C35.7558 39.7959 36.0918 39.5344 36.2836 39.0114C36.4877 38.4887 36.5896 37.793 36.5896 36.925C36.5896 36.0466 36.4877 35.3407 36.2836 34.8073C36.0918 34.2636 35.7558 33.9916 35.2758 33.9916C34.844 33.9916 34.5443 34.1957 34.3762 34.6035C34.2083 35.0113 34.1243 35.5553 34.1243 36.2348V37.5683C34.1243 38.2272 34.2083 38.7657 34.3762 39.184C34.5443 39.5918 34.844 39.7959 35.2758 39.7959Z" stroke="#2B3D83" stroke-width="0.273684"/>
</g>
<mask id="mask4_1263_2770" style="mask-type:luminance" maskUnits="userSpaceOnUse" x="6" y="29" width="51" height="13">
<path d="M56.6601 29.0807H6.2843V41.8161H56.6601V29.0807Z" fill="white"/>
<path d="M6.56763 41.2862V29.5209H9.77074C11.3663 29.5209 12.5719 29.8347 13.3877 30.4622C14.2155 31.0791 14.6294 31.9941 14.6294 33.2074C14.6294 34.4308 14.2095 35.3721 13.3697 36.031C12.5419 36.6793 11.3423 37.0034 9.77074 37.0034H9.21287V41.2862H6.56763ZM9.21287 35.0897H9.96867C10.6165 35.0897 11.1144 34.9329 11.4623 34.619C11.8102 34.295 11.9841 33.8399 11.9841 33.2543C11.9841 32.0411 11.3123 31.4346 9.96867 31.4346H9.21287V35.0897Z" fill="black"/>
<path d="M16.1639 41.2862V32.7053L18.5753 32.4543V34.6349C18.7192 33.9551 19.0071 33.3956 19.439 32.9563C19.8829 32.5171 20.3808 32.2975 20.9326 32.2975C21.4005 32.2975 21.7484 32.3968 21.9763 32.5955L21.4365 34.7288C21.1845 34.572 20.8786 34.4936 20.5187 34.4936C20.0029 34.4936 19.565 34.7237 19.2051 35.1839C18.8572 35.6441 18.6832 36.261 18.6832 37.0348V41.2862H16.1639Z" fill="black"/>
<path d="M26.1793 41.4898C24.9677 41.4898 24.0259 41.0871 23.3543 40.282C22.6944 39.4768 22.3644 38.3524 22.3644 36.9093C22.3644 35.989 22.5084 35.1889 22.7963 34.5091C23.0962 33.8293 23.5281 33.3012 24.0921 32.9248C24.6677 32.5379 25.3637 32.3444 26.1793 32.3444C26.9952 32.3444 27.6849 32.5326 28.2487 32.9092C28.8246 33.2857 29.2624 33.8138 29.5624 34.4935C29.8743 35.1733 30.0302 35.9785 30.0302 36.9093C30.0302 38.3629 29.6883 39.4924 29.0046 40.2978C28.3327 41.0925 27.3912 41.4898 26.1793 41.4898ZM26.1793 39.7957C26.5393 39.7957 26.8093 39.6545 26.9893 39.3721C27.1812 39.0794 27.3071 38.7132 27.3671 38.274C27.4271 37.8243 27.4571 37.3695 27.4571 36.9093C27.4571 36.6164 27.439 36.3028 27.403 35.968C27.3671 35.6335 27.3071 35.3196 27.223 35.0267C27.139 34.7341 27.0131 34.4986 26.8452 34.3209C26.6771 34.1327 26.4552 34.0385 26.1793 34.0385C25.9155 34.0385 25.6996 34.1327 25.5315 34.3209C25.3637 34.4986 25.2377 34.7341 25.1537 35.0267C25.0696 35.3196 25.0096 35.6335 24.9737 35.968C24.9496 36.2924 24.9377 36.6059 24.9377 36.9093C24.9377 37.3695 24.9677 37.8243 25.0277 38.274C25.0877 38.7132 25.2077 39.0794 25.3877 39.3721C25.5674 39.6545 25.8315 39.7957 26.1793 39.7957Z" fill="black"/>
<path d="M36.0318 41.49C35.444 41.49 34.9821 41.3592 34.6461 41.0977C34.3102 40.826 34.0643 40.4966 33.9083 40.1095V41.2862H31.6049V29.6307L34.1243 29.3641V33.2858C34.3283 32.9824 34.598 32.7419 34.934 32.5641C35.2699 32.3864 35.6777 32.2975 36.1577 32.2975C37.1893 32.2975 37.9452 32.7158 38.4252 33.5524C38.9171 34.3785 39.163 35.4975 39.163 36.9095C39.163 37.767 39.0549 38.5407 38.8389 39.231C38.623 39.9213 38.2811 40.4703 37.8133 40.8781C37.3574 41.2862 36.7636 41.49 36.0318 41.49ZM35.2758 39.7959C35.7558 39.7959 36.0918 39.5344 36.2836 39.0114C36.4877 38.4887 36.5896 37.793 36.5896 36.925C36.5896 36.0466 36.4877 35.3407 36.2836 34.8073C36.0918 34.2636 35.7558 33.9916 35.2758 33.9916C34.844 33.9916 34.5443 34.1957 34.3762 34.6035C34.2083 35.0113 34.1243 35.5553 34.1243 36.2348V37.5683C34.1243 38.2272 34.2083 38.7657 34.3762 39.184C34.5443 39.5918 34.844 39.7959 35.2758 39.7959Z" fill="black"/>
<path d="M43.0681 41.427C42.3603 41.427 41.7906 41.2179 41.3587 40.7996C40.9388 40.3708 40.7288 39.6964 40.7288 38.776V32.4386H43.2481V37.8976C43.2481 38.525 43.3259 38.9592 43.4822 39.1997C43.6381 39.4295 43.89 39.5447 44.2378 39.5447C44.6578 39.5447 44.9997 39.299 45.2634 38.8075C45.5275 38.3054 45.6594 37.6831 45.6594 36.9407V32.4386H48.1787V41.129L45.7675 41.3959V39.3407C45.5756 40.0623 45.2397 40.5904 44.7597 40.9252C44.2797 41.2597 43.7159 41.427 43.0681 41.427Z" fill="black"/>
<path d="M53.0183 41.5215C51.9986 41.5215 51.1889 41.2758 50.5889 40.7842C50.0011 40.2822 49.6952 39.5973 49.6711 38.7293L51.7408 38.5252C51.7767 38.9645 51.9146 39.3098 52.1546 39.5605C52.4064 39.8011 52.7305 39.9213 53.1261 39.9213C53.4383 39.9213 53.678 39.8534 53.8461 39.7176C54.0261 39.571 54.1161 39.3777 54.1161 39.1371C54.1161 38.928 54.0499 38.7502 53.918 38.6036C53.7861 38.4573 53.5521 38.3056 53.2161 38.1488L51.5067 37.3329C50.9549 37.0717 50.5289 36.7318 50.229 36.3135C49.9292 35.895 49.7793 35.4297 49.7793 34.9171C49.7793 34.4049 49.9171 33.9552 50.193 33.5683C50.4811 33.1707 50.8708 32.8622 51.3627 32.6426C51.8667 32.4125 52.4424 32.2976 53.0902 32.2976C54.038 32.2976 54.7877 32.5223 55.3396 32.972C55.9036 33.4217 56.2095 34.0387 56.2574 34.8232L54.188 35.184C54.152 34.3265 53.768 33.8977 53.0364 33.8977C52.7364 33.8977 52.5083 33.9657 52.3524 34.1015C52.1964 34.2272 52.1186 34.4049 52.1186 34.635C52.1186 34.8337 52.1846 35.0114 52.3164 35.1682C52.4605 35.3253 52.7005 35.482 53.0364 35.6388L54.548 36.3605C55.2077 36.6741 55.6877 37.0298 55.9874 37.4272C56.2992 37.814 56.4555 38.2742 56.4555 38.8077C56.4555 39.3409 56.3114 39.8115 56.0236 40.2193C55.7355 40.6274 55.3336 40.9464 54.8177 41.1765C54.302 41.4063 53.7021 41.5215 53.0183 41.5215Z" fill="black"/>
</mask>
<g mask="url(#mask4_1263_2770)">
<path d="M43.0682 41.4272C42.3604 41.4272 41.7907 41.2181 41.3588 40.7998C40.9388 40.3711 40.7288 39.6966 40.7288 38.7763V32.4388H43.2482V37.8978C43.2482 38.5253 43.326 38.9594 43.4822 39.2C43.6382 39.4298 43.89 39.5449 44.2379 39.5449C44.6579 39.5449 44.9997 39.2993 45.2635 38.8077C45.5275 38.3056 45.6594 37.6833 45.6594 36.941V32.4388H48.1788V41.1292L45.7675 41.3961V39.3409C45.5757 40.0626 45.2397 40.5907 44.7597 40.9255C44.2797 41.26 43.716 41.4272 43.0682 41.4272Z" stroke="#2B3D83" stroke-width="0.273684"/>
</g>
<mask id="mask5_1263_2770" style="mask-type:luminance" maskUnits="userSpaceOnUse" x="6" y="29" width="51" height="13">
<path d="M56.6601 29.0807H6.2843V41.8161H56.6601V29.0807Z" fill="white"/>
<path d="M6.56763 41.2862V29.5209H9.77074C11.3663 29.5209 12.5719 29.8347 13.3877 30.4622C14.2155 31.0791 14.6294 31.9941 14.6294 33.2074C14.6294 34.4308 14.2095 35.3721 13.3697 36.031C12.5419 36.6793 11.3423 37.0034 9.77074 37.0034H9.21287V41.2862H6.56763ZM9.21287 35.0897H9.96867C10.6165 35.0897 11.1144 34.9329 11.4623 34.619C11.8102 34.295 11.9841 33.8399 11.9841 33.2543C11.9841 32.0411 11.3123 31.4346 9.96867 31.4346H9.21287V35.0897Z" fill="black"/>
<path d="M16.1639 41.2862V32.7053L18.5753 32.4543V34.6349C18.7192 33.9551 19.0071 33.3956 19.439 32.9563C19.8829 32.5171 20.3808 32.2975 20.9326 32.2975C21.4005 32.2975 21.7484 32.3968 21.9763 32.5955L21.4365 34.7288C21.1845 34.572 20.8786 34.4936 20.5187 34.4936C20.0029 34.4936 19.565 34.7237 19.2051 35.1839C18.8572 35.6441 18.6832 36.261 18.6832 37.0348V41.2862H16.1639Z" fill="black"/>
<path d="M26.1793 41.4898C24.9677 41.4898 24.0259 41.0871 23.3543 40.282C22.6944 39.4768 22.3644 38.3524 22.3644 36.9093C22.3644 35.989 22.5084 35.1889 22.7963 34.5091C23.0962 33.8293 23.5281 33.3012 24.0921 32.9248C24.6677 32.5379 25.3637 32.3444 26.1793 32.3444C26.9952 32.3444 27.6849 32.5326 28.2487 32.9092C28.8246 33.2857 29.2624 33.8138 29.5624 34.4935C29.8743 35.1733 30.0302 35.9785 30.0302 36.9093C30.0302 38.3629 29.6883 39.4924 29.0046 40.2978C28.3327 41.0925 27.3912 41.4898 26.1793 41.4898ZM26.1793 39.7957C26.5393 39.7957 26.8093 39.6545 26.9893 39.3721C27.1812 39.0794 27.3071 38.7132 27.3671 38.274C27.4271 37.8243 27.4571 37.3695 27.4571 36.9093C27.4571 36.6164 27.439 36.3028 27.403 35.968C27.3671 35.6335 27.3071 35.3196 27.223 35.0267C27.139 34.7341 27.0131 34.4986 26.8452 34.3209C26.6771 34.1327 26.4552 34.0385 26.1793 34.0385C25.9155 34.0385 25.6996 34.1327 25.5315 34.3209C25.3637 34.4986 25.2377 34.7341 25.1537 35.0267C25.0696 35.3196 25.0096 35.6335 24.9737 35.968C24.9496 36.2924 24.9377 36.6059 24.9377 36.9093C24.9377 37.3695 24.9677 37.8243 25.0277 38.274C25.0877 38.7132 25.2077 39.0794 25.3877 39.3721C25.5674 39.6545 25.8315 39.7957 26.1793 39.7957Z" fill="black"/>
<path d="M36.0318 41.49C35.444 41.49 34.9821 41.3592 34.6461 41.0977C34.3102 40.826 34.0643 40.4966 33.9083 40.1095V41.2862H31.6049V29.6307L34.1243 29.3641V33.2858C34.3283 32.9824 34.598 32.7419 34.934 32.5641C35.2699 32.3864 35.6777 32.2975 36.1577 32.2975C37.1893 32.2975 37.9452 32.7158 38.4252 33.5524C38.9171 34.3785 39.163 35.4975 39.163 36.9095C39.163 37.767 39.0549 38.5407 38.8389 39.231C38.623 39.9213 38.2811 40.4703 37.8133 40.8781C37.3574 41.2862 36.7636 41.49 36.0318 41.49ZM35.2758 39.7959C35.7558 39.7959 36.0918 39.5344 36.2836 39.0114C36.4877 38.4887 36.5896 37.793 36.5896 36.925C36.5896 36.0466 36.4877 35.3407 36.2836 34.8073C36.0918 34.2636 35.7558 33.9916 35.2758 33.9916C34.844 33.9916 34.5443 34.1957 34.3762 34.6035C34.2083 35.0113 34.1243 35.5553 34.1243 36.2348V37.5683C34.1243 38.2272 34.2083 38.7657 34.3762 39.184C34.5443 39.5918 34.844 39.7959 35.2758 39.7959Z" fill="black"/>
<path d="M43.0681 41.427C42.3603 41.427 41.7906 41.2179 41.3587 40.7996C40.9388 40.3708 40.7288 39.6964 40.7288 38.776V32.4386H43.2481V37.8976C43.2481 38.525 43.3259 38.9592 43.4822 39.1997C43.6381 39.4295 43.89 39.5447 44.2378 39.5447C44.6578 39.5447 44.9997 39.299 45.2634 38.8075C45.5275 38.3054 45.6594 37.6831 45.6594 36.9407V32.4386H48.1787V41.129L45.7675 41.3959V39.3407C45.5756 40.0623 45.2397 40.5904 44.7597 40.9252C44.2797 41.2597 43.7159 41.427 43.0681 41.427Z" fill="black"/>
<path d="M53.0183 41.5215C51.9986 41.5215 51.1889 41.2758 50.5889 40.7842C50.0011 40.2822 49.6952 39.5973 49.6711 38.7293L51.7408 38.5252C51.7767 38.9645 51.9146 39.3098 52.1546 39.5605C52.4064 39.8011 52.7305 39.9213 53.1261 39.9213C53.4383 39.9213 53.678 39.8534 53.8461 39.7176C54.0261 39.571 54.1161 39.3777 54.1161 39.1371C54.1161 38.928 54.0499 38.7502 53.918 38.6036C53.7861 38.4573 53.5521 38.3056 53.2161 38.1488L51.5067 37.3329C50.9549 37.0717 50.5289 36.7318 50.229 36.3135C49.9292 35.895 49.7793 35.4297 49.7793 34.9171C49.7793 34.4049 49.9171 33.9552 50.193 33.5683C50.4811 33.1707 50.8708 32.8622 51.3627 32.6426C51.8667 32.4125 52.4424 32.2976 53.0902 32.2976C54.038 32.2976 54.7877 32.5223 55.3396 32.972C55.9036 33.4217 56.2095 34.0387 56.2574 34.8232L54.188 35.184C54.152 34.3265 53.768 33.8977 53.0364 33.8977C52.7364 33.8977 52.5083 33.9657 52.3524 34.1015C52.1964 34.2272 52.1186 34.4049 52.1186 34.635C52.1186 34.8337 52.1846 35.0114 52.3164 35.1682C52.4605 35.3253 52.7005 35.482 53.0364 35.6388L54.548 36.3605C55.2077 36.6741 55.6877 37.0298 55.9874 37.4272C56.2992 37.814 56.4555 38.2742 56.4555 38.8077C56.4555 39.3409 56.3114 39.8115 56.0236 40.2193C55.7355 40.6274 55.3336 40.9464 54.8177 41.1765C54.302 41.4063 53.7021 41.5215 53.0183 41.5215Z" fill="black"/>
</mask>
<g mask="url(#mask5_1263_2770)">
<path d="M53.0184 41.5216C51.9987 41.5216 51.189 41.2759 50.589 40.7844C50.0012 40.2823 49.6953 39.5974 49.6712 38.7294L51.7409 38.5254C51.7768 38.9646 51.9146 39.3099 52.1546 39.5606C52.4065 39.8012 52.7305 39.9215 53.1262 39.9215C53.4384 39.9215 53.6781 39.8535 53.8462 39.7177C54.0262 39.5711 54.1162 39.3778 54.1162 39.1372C54.1162 38.9281 54.0499 38.7504 53.9181 38.6038C53.7862 38.4574 53.5521 38.3058 53.2162 38.149L51.5068 37.333C50.9549 37.0718 50.529 36.7319 50.229 36.3136C49.9293 35.8951 49.7793 35.4298 49.7793 34.9173C49.7793 34.405 49.9171 33.9553 50.1931 33.5684C50.4812 33.1708 50.8709 32.8623 51.3628 32.6427C51.8668 32.4126 52.4424 32.2977 53.0902 32.2977C54.038 32.2977 54.7877 32.5224 55.3396 32.9721C55.9037 33.4218 56.2096 34.0388 56.2574 34.8233L54.188 35.1841C54.1521 34.3266 53.7681 33.8979 53.0365 33.8979C52.7365 33.8979 52.5084 33.9658 52.3524 34.1016C52.1965 34.2273 52.1187 34.405 52.1187 34.6351C52.1187 34.8338 52.1846 35.0115 52.3165 35.1683C52.4606 35.3254 52.7005 35.4822 53.0365 35.6389L54.548 36.3606C55.2077 36.6742 55.6877 37.0299 55.9874 37.4273C56.2993 37.8142 56.4555 38.2743 56.4555 38.8078C56.4555 39.341 56.3115 39.8117 56.0236 40.2195C55.7355 40.6276 55.3337 40.9465 54.8177 41.1766C54.3021 41.4064 53.7021 41.5216 53.0184 41.5216Z" stroke="#2B3D83" stroke-width="0.273684"/>
</g>
<path d="M0.00012207 0.298218H6.42816V23.2854L0.00012207 29.9232V0.298218Z" fill="#00B0CB"/>
<path d="M18.446 6.86574V0.297974L5.45024 0.297974V6.86574L18.446 6.86574Z" fill="#00B0CB"/>
<path d="M18.1665 16.7874V23.3551L6.42834 23.2852L12.9961 16.7874H18.1665Z" fill="#00B0CB"/>
<path d="M17.8169 0.297974C20.8745 0.297973 23.8067 1.51258 25.9689 3.6746C28.1308 5.83662 29.3455 8.76895 29.3455 11.8265C29.3455 14.8841 28.1308 17.8164 25.9689 19.9784C23.8067 22.1404 20.8745 23.355 17.8169 23.355V16.7776C19.13 16.7776 20.3893 16.256 21.3178 15.3275C22.2464 14.399 22.768 13.1396 22.768 11.8265C22.768 10.5134 22.2464 9.25406 21.3178 8.32553C20.3893 7.39703 19.13 6.87538 17.8169 6.87538V0.297974Z" fill="#00B0CB"/>
<mask id="mask6_1263_2770" style="mask-type:alpha" maskUnits="userSpaceOnUse" x="6" y="43" width="22" height="4">
<path d="M6.43622 45.4733H6.05872L6.90695 43.1161H7.31783L8.16607 45.4733H7.78856L7.12218 43.5443H7.10376L6.43622 45.4733ZM6.49953 44.5501H7.72412V44.8493H6.49953V44.5501ZM9.01646 45.5124C8.90444 45.5124 8.80315 45.4917 8.71262 45.4501C8.62208 45.4079 8.55034 45.3471 8.49739 45.2673C8.44523 45.1875 8.41913 45.0896 8.41913 44.9738C8.41913 44.8739 8.43832 44.7918 8.47667 44.7273C8.51505 44.6631 8.56684 44.6118 8.63204 44.5742C8.69728 44.5368 8.77018 44.5083 8.85073 44.489C8.9313 44.4701 9.0134 44.4553 9.09703 44.4454C9.2029 44.4333 9.28885 44.4231 9.35485 44.4154C9.42082 44.4069 9.46879 44.3936 9.49871 44.3752C9.52862 44.3568 9.54359 44.3268 9.54359 44.2855V44.2773C9.54359 44.1769 9.5152 44.099 9.45843 44.0438C9.40243 43.9884 9.31877 43.9609 9.20752 43.9609C9.09165 43.9609 9.00035 43.9867 8.93359 44.0379C8.86762 44.0886 8.82197 44.1452 8.79664 44.2071L8.47322 44.1336C8.51159 44.026 8.5676 43.9394 8.64127 43.8735C8.7157 43.8067 8.80125 43.7583 8.89793 43.7283C8.99461 43.6977 9.09627 43.6824 9.2029 43.6824C9.27351 43.6824 9.34831 43.6909 9.42736 43.7076C9.50714 43.7238 9.58157 43.7538 9.65062 43.7973C9.72044 43.8412 9.77761 43.9037 9.82213 43.985C9.86662 44.0656 9.88886 44.1703 9.88886 44.2991V45.4733H9.55279V45.2316H9.53898C9.51673 45.2761 9.48337 45.3196 9.43885 45.3627C9.39436 45.4057 9.33719 45.4413 9.26737 45.4696C9.19755 45.4982 9.11392 45.5124 9.01646 45.5124ZM9.09128 45.2362C9.18643 45.2362 9.26774 45.2172 9.33527 45.1798C9.40356 45.1422 9.45535 45.093 9.49064 45.0324C9.52672 44.971 9.54475 44.9053 9.54475 44.8357V44.6076C9.53247 44.62 9.50867 44.6314 9.47338 44.6421C9.43885 44.6523 9.39934 44.6611 9.35485 44.6687C9.31033 44.6755 9.26698 44.682 9.22478 44.6883C9.18258 44.6936 9.14729 44.6982 9.11891 44.7021C9.05214 44.7106 8.99115 44.7248 8.93591 44.7446C8.88143 44.7647 8.83768 44.7932 8.80471 44.8309C8.77247 44.8677 8.75637 44.9169 8.75637 44.9783C8.75637 45.0635 8.78781 45.1281 8.85073 45.1716C8.91364 45.2147 8.99384 45.2362 9.09128 45.2362ZM10.3704 46.1361V43.7054H10.7065V43.992H10.7352C10.7552 43.9553 10.784 43.9125 10.8216 43.8641C10.8592 43.8157 10.9113 43.7736 10.9781 43.7376C11.0448 43.7008 11.1331 43.6824 11.2428 43.6824C11.3855 43.6824 11.5129 43.7184 11.6249 43.7905C11.7369 43.8627 11.8248 43.9666 11.8885 44.1024C11.9529 44.2383 11.9851 44.4016 11.9851 44.5926C11.9851 44.7839 11.9533 44.9475 11.8896 45.0842C11.8259 45.22 11.7385 45.3247 11.6272 45.3983C11.5159 45.4713 11.389 45.5078 11.2462 45.5078C11.1388 45.5078 11.051 45.4897 10.9827 45.4535C10.9152 45.4176 10.8622 45.3754 10.8238 45.327C10.7855 45.2786 10.756 45.2356 10.7352 45.1982H10.7145V46.1361H10.3704ZM10.7076 44.5892C10.7076 44.7137 10.7256 44.8224 10.7617 44.9161C10.7978 45.0098 10.8499 45.0831 10.9182 45.136C10.9865 45.188 11.0701 45.2144 11.1691 45.2144C11.272 45.2144 11.3579 45.1869 11.4269 45.1326C11.496 45.0774 11.5482 45.0024 11.5835 44.9082C11.6195 44.8136 11.6376 44.7075 11.6376 44.5892C11.6376 44.4726 11.6199 44.3679 11.5846 44.2751C11.5501 44.1822 11.4979 44.1089 11.4281 44.0552C11.359 44.0017 11.2727 43.9748 11.1691 43.9748C11.0694 43.9748 10.985 44.0003 10.9159 44.0518C10.8476 44.1033 10.7959 44.1749 10.7606 44.2671C10.7253 44.3591 10.7076 44.4667 10.7076 44.5892ZM12.7104 44.8736L12.7081 44.4534H12.7679L13.4723 43.7054H13.8843L13.081 44.5569H13.0269L12.7104 44.8736ZM12.3939 45.4733V43.1161H12.738V45.4733H12.3939ZM13.5103 45.4733L12.8773 44.6331L13.1144 44.3925L13.9327 45.4733H13.5103ZM14.7356 45.5124C14.6235 45.5124 14.5223 45.4917 14.4317 45.4501C14.3412 45.4079 14.2694 45.3471 14.2165 45.2673C14.1643 45.1875 14.1382 45.0896 14.1382 44.9738C14.1382 44.8739 14.1574 44.7918 14.1958 44.7273C14.2341 44.6631 14.2859 44.6118 14.3512 44.5742C14.4164 44.5368 14.4893 44.5083 14.5699 44.489C14.6504 44.4701 14.7325 44.4553 14.8161 44.4454C14.922 44.4333 15.008 44.4231 15.074 44.4154C15.1399 44.4069 15.1879 44.3936 15.2178 44.3752C15.2477 44.3568 15.2627 44.3268 15.2627 44.2855V44.2773C15.2627 44.1769 15.2343 44.099 15.1775 44.0438C15.1215 43.9884 15.0379 43.9609 14.9266 43.9609C14.8108 43.9609 14.7195 43.9867 14.6527 44.0379C14.5867 44.0886 14.5411 44.1452 14.5157 44.2071L14.1923 44.1336C14.2307 44.026 14.2867 43.9394 14.3604 43.8735C14.4348 43.8067 14.5204 43.7583 14.617 43.7283C14.7137 43.6977 14.8154 43.6824 14.922 43.6824C14.9926 43.6824 15.0674 43.6909 15.1465 43.7076C15.2263 43.7238 15.3007 43.7538 15.3698 43.7973C15.4396 43.8412 15.4967 43.9037 15.5412 43.985C15.5857 44.0656 15.608 44.1703 15.608 44.2991V45.4733H15.2719V45.2316H15.2581C15.2359 45.2761 15.2025 45.3196 15.158 45.3627C15.1135 45.4057 15.0563 45.4413 14.9865 45.4696C14.9167 45.4982 14.833 45.5124 14.7356 45.5124ZM14.8104 45.2362C14.9055 45.2362 14.9869 45.2172 15.0544 45.1798C15.1227 45.1422 15.1745 45.093 15.2098 45.0324C15.2458 44.971 15.2638 44.9053 15.2638 44.8357V44.6076C15.2516 44.62 15.2278 44.6314 15.1925 44.6421C15.158 44.6523 15.1184 44.6611 15.074 44.6687C15.0295 44.6755 14.9861 44.682 14.9439 44.6883C14.9017 44.6936 14.8664 44.6982 14.838 44.7021C14.7712 44.7106 14.7103 44.7248 14.655 44.7446C14.6005 44.7647 14.5568 44.7932 14.5238 44.8309C14.4916 44.8677 14.4755 44.9169 14.4755 44.9783C14.4755 45.0635 14.5069 45.1281 14.5699 45.1716C14.6328 45.2147 14.7129 45.2362 14.8104 45.2362ZM18.2836 43.7354C18.2713 43.6264 18.2207 43.5421 18.1317 43.4821C18.0427 43.4215 17.9307 43.3912 17.7956 43.3912C17.6989 43.3912 17.6153 43.4065 17.5447 43.4371C17.4741 43.4671 17.4193 43.5087 17.3801 43.5616C17.3418 43.6137 17.3226 43.6731 17.3226 43.7399C17.3226 43.7959 17.3356 43.8443 17.3617 43.8848C17.3886 43.9255 17.4235 43.9598 17.4664 43.9872C17.5102 44.0141 17.557 44.0368 17.6069 44.0552C17.6567 44.073 17.7047 44.0874 17.7507 44.099L17.9809 44.1587C18.0561 44.1771 18.1332 44.2023 18.2123 44.2337C18.2913 44.2652 18.3645 44.3065 18.4321 44.358C18.4996 44.4095 18.5541 44.4732 18.5955 44.549C18.6377 44.6249 18.6588 44.716 18.6588 44.8218C18.6588 44.9554 18.6243 45.0737 18.5552 45.1773C18.4869 45.2809 18.3876 45.3627 18.2571 45.4227C18.1275 45.4824 17.9706 45.5124 17.7864 45.5124C17.6099 45.5124 17.4572 45.4844 17.3283 45.4283C17.1994 45.3723 17.0985 45.2928 17.0256 45.19C16.9527 45.0864 16.9125 44.9636 16.9048 44.8218H17.2616C17.2685 44.907 17.2961 44.9781 17.3445 45.0347C17.3936 45.0907 17.4561 45.1326 17.532 45.16C17.6088 45.1869 17.6928 45.2005 17.7841 45.2005C17.8846 45.2005 17.974 45.1847 18.0523 45.1532C18.1313 45.121 18.1935 45.0765 18.2387 45.0197C18.284 44.9622 18.3066 44.8951 18.3066 44.8184C18.3066 44.7485 18.2867 44.6914 18.2468 44.6469C18.2076 44.6022 18.1543 44.5654 18.0868 44.5363C18.02 44.5071 17.9445 44.4814 17.8601 44.4593L17.5815 44.3832C17.3928 44.3319 17.2432 44.2564 17.1327 44.1565C17.023 44.0569 16.9681 43.9247 16.9681 43.7605C16.9681 43.6247 17.0049 43.5061 17.0786 43.4051C17.1522 43.3038 17.252 43.2251 17.3778 43.1691C17.5037 43.1122 17.6456 43.0839 17.8037 43.0839C17.9633 43.0839 18.1041 43.1119 18.2261 43.1679C18.3488 43.224 18.4455 43.3009 18.5161 43.3991C18.5867 43.4968 18.6235 43.6086 18.6266 43.7354H18.2836ZM19.5938 45.5124C19.4818 45.5124 19.3805 45.4917 19.29 45.4501C19.1994 45.4079 19.1277 45.3471 19.0747 45.2673C19.0225 45.1875 18.9964 45.0896 18.9964 44.9738C18.9964 44.8739 19.0156 44.7918 19.054 44.7273C19.0924 44.6631 19.1441 44.6118 19.2094 44.5742C19.2746 44.5368 19.3475 44.5083 19.4281 44.489C19.5086 44.4701 19.5907 44.4553 19.6744 44.4454C19.7802 44.4333 19.8662 44.4231 19.9322 44.4154C19.9982 44.4069 20.0461 44.3936 20.076 44.3752C20.106 44.3568 20.1209 44.3268 20.1209 44.2855V44.2773C20.1209 44.1769 20.0925 44.099 20.0357 44.0438C19.9797 43.9884 19.8961 43.9609 19.7849 43.9609C19.669 43.9609 19.5777 43.9867 19.5109 44.0379C19.4449 44.0886 19.3993 44.1452 19.374 44.2071L19.0506 44.1336C19.0889 44.026 19.1449 43.9394 19.2186 43.8735C19.293 43.8067 19.3786 43.7583 19.4752 43.7283C19.5719 43.6977 19.6736 43.6824 19.7802 43.6824C19.8508 43.6824 19.9257 43.6909 20.0047 43.7076C20.0845 43.7238 20.1589 43.7538 20.228 43.7973C20.2978 43.8412 20.3549 43.9037 20.3994 43.985C20.444 44.0656 20.4662 44.1703 20.4662 44.2991V45.4733H20.1301V45.2316H20.1163C20.0941 45.2761 20.0607 45.3196 20.0162 45.3627C19.9717 45.4057 19.9145 45.4413 19.8447 45.4696C19.7749 45.4982 19.6912 45.5124 19.5938 45.5124ZM19.6686 45.2362C19.7637 45.2362 19.8451 45.2172 19.9126 45.1798C19.9809 45.1422 20.0327 45.093 20.068 45.0324C20.104 44.971 20.1221 44.9053 20.1221 44.8357V44.6076C20.1098 44.62 20.086 44.6314 20.0507 44.6421C20.0162 44.6523 19.9767 44.6611 19.9322 44.6687C19.8877 44.6755 19.8443 44.682 19.8021 44.6883C19.7599 44.6936 19.7246 44.6982 19.6962 44.7021C19.6295 44.7106 19.5685 44.7248 19.5132 44.7446C19.4587 44.7647 19.415 44.7932 19.382 44.8309C19.3498 44.8677 19.3337 44.9169 19.3337 44.9783C19.3337 45.0635 19.3652 45.1281 19.4281 45.1716C19.491 45.2147 19.5712 45.2362 19.6686 45.2362ZM21.4622 45.5124C21.3502 45.5124 21.2489 45.4917 21.1583 45.4501C21.0678 45.4079 20.9961 45.3471 20.9431 45.2673C20.8909 45.1875 20.8648 45.0896 20.8648 44.9738C20.8648 44.8739 20.884 44.7918 20.9224 44.7273C20.9608 44.6631 21.0126 44.6118 21.0778 44.5742C21.143 44.5368 21.2159 44.5083 21.2964 44.489C21.377 44.4701 21.4591 44.4553 21.5427 44.4454C21.6486 44.4333 21.7346 44.4231 21.8006 44.4154C21.8665 44.4069 21.9145 44.3936 21.9444 44.3752C21.9743 44.3568 21.9893 44.3268 21.9893 44.2855V44.2773C21.9893 44.1769 21.9609 44.099 21.9041 44.0438C21.8481 43.9884 21.7645 43.9609 21.6532 43.9609C21.5374 43.9609 21.4461 43.9867 21.3793 44.0379C21.3133 44.0886 21.2677 44.1452 21.2424 44.2071L20.9189 44.1336C20.9573 44.026 21.0133 43.9394 21.087 43.8735C21.1614 43.8067 21.247 43.7583 21.3436 43.7283C21.4403 43.6977 21.542 43.6824 21.6486 43.6824C21.7192 43.6824 21.794 43.6909 21.8731 43.7076C21.9529 43.7238 22.0273 43.7538 22.0963 43.7973C22.1662 43.8412 22.2233 43.9037 22.2678 43.985C22.3123 44.0656 22.3346 44.1703 22.3346 44.2991V45.4733H21.9985V45.2316H21.9847C21.9624 45.2761 21.9291 45.3196 21.8846 45.3627C21.8401 45.4057 21.7829 45.4413 21.7131 45.4696C21.6433 45.4982 21.5596 45.5124 21.4622 45.5124ZM21.537 45.2362C21.6321 45.2362 21.7135 45.2172 21.781 45.1798C21.8493 45.1422 21.9011 45.093 21.9364 45.0324C21.9724 44.971 21.9905 44.9053 21.9905 44.8357V44.6076C21.9782 44.62 21.9544 44.6314 21.9191 44.6421C21.8846 44.6523 21.8451 44.6611 21.8006 44.6687C21.756 44.6755 21.7127 44.682 21.6705 44.6883C21.6283 44.6936 21.593 44.6982 21.5646 44.7021C21.4979 44.7106 21.4369 44.7248 21.3816 44.7446C21.3271 44.7647 21.2834 44.7932 21.2504 44.8309C21.2182 44.8677 21.2021 44.9169 21.2021 44.9783C21.2021 45.0635 21.2335 45.1281 21.2964 45.1716C21.3594 45.2147 21.4396 45.2362 21.537 45.2362ZM23.6413 43.7054V43.9816H22.6757V43.7054H23.6413ZM22.9346 43.2817H23.2788V44.954C23.2788 45.0208 23.2887 45.0712 23.3088 45.1048C23.3286 45.138 23.3543 45.1606 23.3858 45.1728C23.418 45.1844 23.4528 45.19 23.4905 45.19C23.5182 45.19 23.5423 45.188 23.5629 45.1844C23.5839 45.1804 23.6 45.1773 23.6113 45.175L23.6736 45.4595C23.6535 45.4671 23.6252 45.4747 23.5884 45.4824C23.5516 45.4909 23.5055 45.4954 23.4503 45.4962C23.3597 45.4977 23.2754 45.4815 23.197 45.4479C23.1189 45.4142 23.0555 45.3618 23.0071 45.2913C22.9587 45.2209 22.9346 45.132 22.9346 45.0256V43.2817ZM24.4272 44.4236V45.4733H24.0831V43.1161H24.4227V43.9932H24.4445C24.4858 43.8981 24.5492 43.8222 24.6344 43.7665C24.7196 43.7105 24.8308 43.6824 24.9681 43.6824C25.0895 43.6824 25.1953 43.7073 25.2859 43.7571C25.377 43.807 25.4478 43.8814 25.4976 43.9804C25.5482 44.0786 25.5737 44.2015 25.5737 44.3486V45.4733H25.2296V44.3902C25.2296 44.2606 25.1962 44.1599 25.1294 44.0886C25.0626 44.0164 24.9698 43.9804 24.8509 43.9804C24.7694 43.9804 24.6967 43.9977 24.6321 44.0322C24.5685 44.0668 24.5181 44.1174 24.4813 44.1842C24.4454 44.2501 24.4272 44.33 24.4272 44.4236ZM26.056 45.4733V43.7054H26.4001V45.4733H26.056ZM26.2297 43.4325C26.17 43.4325 26.1185 43.4127 26.0755 43.3728C26.0333 43.3321 26.0121 43.2837 26.0121 43.2276C26.0121 43.171 26.0333 43.1226 26.0755 43.0827C26.1185 43.042 26.17 43.0216 26.2297 43.0216C26.2897 43.0216 26.3407 43.042 26.3828 43.0827C26.4259 43.1226 26.4474 43.171 26.4474 43.2276C26.4474 43.2837 26.4259 43.3321 26.3828 43.3728C26.3407 43.4127 26.2897 43.4325 26.2297 43.4325ZM27.334 45.151L27.3168 45.2763C27.3052 45.3683 27.2856 45.4643 27.2579 45.5642C27.231 45.6646 27.203 45.7577 27.1739 45.8438C27.1456 45.9298 27.1221 45.998 27.1037 46.0487H26.8597C26.8696 46.0011 26.8835 45.9366 26.9013 45.8554C26.9189 45.7747 26.9361 45.6844 26.9531 45.5848C26.9698 45.4852 26.9825 45.3833 26.991 45.2797L27.0024 45.151H27.334Z" fill="#00B0CB"/>
</mask>
<g mask="url(#mask6_1263_2770)">
<rect x="5.42566" y="42.5896" width="22.5998" height="3.54651" fill="#00B0CB"/>
</g>
<mask id="mask7_1263_2770" style="mask-type:alpha" maskUnits="userSpaceOnUse" x="28" y="43" width="23" height="4">
<path d="M28.9128 45.4732H28.5353L29.3835 43.116H29.7944L30.6426 45.4732H30.2653L29.5988 43.5442H29.5804L28.9128 45.4732ZM28.9762 44.55H30.2008V44.8492H28.9762V44.55ZM31.493 45.5123C31.3809 45.5123 31.2799 45.4916 31.1894 45.45C31.0988 45.4078 31.0269 45.347 30.974 45.2672C30.9219 45.1874 30.8959 45.0894 30.8959 44.9737C30.8959 44.8738 30.9148 44.7917 30.9533 44.7272C30.9918 44.6629 31.0436 44.6117 31.1087 44.5741C31.1738 44.5367 31.2468 44.5081 31.3275 44.4889C31.4078 44.4699 31.4899 44.4552 31.5737 44.4453C31.6795 44.4331 31.7656 44.4229 31.8315 44.4153C31.8974 44.4068 31.9456 44.3935 31.9753 44.3751C32.0053 44.3567 32.0203 44.3267 32.0203 44.2854V44.2772C32.0203 44.1767 31.992 44.0989 31.9351 44.0437C31.879 43.9882 31.7953 43.9608 31.684 43.9608C31.5683 43.9608 31.4769 43.9865 31.4101 44.0378C31.3442 44.0884 31.2986 44.145 31.2734 44.207L30.9499 44.1334C30.9881 44.0259 31.0442 43.9393 31.118 43.8733C31.1922 43.8066 31.2779 43.7582 31.3744 43.7282C31.4712 43.6976 31.5728 43.6823 31.6795 43.6823C31.7503 43.6823 31.825 43.6908 31.9039 43.7075C31.9838 43.7236 32.0582 43.7536 32.1272 43.7972C32.1971 43.8411 32.2543 43.9036 32.2987 43.9848C32.3432 44.0655 32.3655 44.1702 32.3655 44.299V45.4732H32.0293V45.2315H32.0157C31.9934 45.2759 31.96 45.3195 31.9156 45.3625C31.8711 45.4056 31.814 45.4412 31.744 45.4695C31.6741 45.4981 31.5907 45.5123 31.493 45.5123ZM31.568 45.236C31.6631 45.236 31.7443 45.2171 31.812 45.1797C31.8802 45.1421 31.932 45.0928 31.9673 45.0323C32.0033 44.9709 32.0214 44.9052 32.0214 44.8356V44.6075C32.0092 44.6199 31.9852 44.6312 31.9501 44.642C31.9156 44.6522 31.8759 44.661 31.8315 44.6686C31.7871 44.6754 31.7435 44.6819 31.7013 44.6881C31.6591 44.6935 31.6241 44.698 31.5955 44.702C31.5287 44.7105 31.4678 44.7246 31.4126 44.7444C31.358 44.7645 31.3144 44.7931 31.2813 44.8308C31.2491 44.8676 31.2329 44.9168 31.2329 44.9782C31.2329 45.0634 31.2643 45.1279 31.3275 45.1715C31.3903 45.2145 31.4704 45.236 31.568 45.236ZM32.8469 46.136V43.7052H33.1832V43.9919H33.2117C33.2318 43.9551 33.2607 43.9124 33.2981 43.864C33.3357 43.8156 33.3881 43.7734 33.4548 43.7375C33.5214 43.7007 33.6097 43.6823 33.7195 43.6823C33.8621 43.6823 33.9895 43.7183 34.1015 43.7904C34.2136 43.8626 34.3013 43.9665 34.365 44.1023C34.4295 44.2381 34.4618 44.4014 34.4618 44.5925C34.4618 44.7838 34.4298 44.9474 34.3661 45.0841C34.3025 45.2199 34.215 45.3246 34.1038 45.3982C33.9926 45.4712 33.8655 45.5077 33.7229 45.5077C33.6156 45.5077 33.5276 45.4896 33.4594 45.4534C33.3917 45.4174 33.3388 45.3753 33.3006 45.3269C33.2621 45.2785 33.2327 45.2355 33.2117 45.1981H33.1911V46.136H32.8469ZM33.1843 44.5891C33.1843 44.7136 33.2024 44.8223 33.2383 44.916C33.2743 45.0096 33.3266 45.0829 33.3948 45.1359C33.4631 45.1879 33.5468 45.2142 33.6459 45.2142C33.7486 45.2142 33.8346 45.1868 33.9037 45.1325C33.9728 45.0773 34.0248 45.0023 34.0602 44.908C34.0961 44.8135 34.1143 44.7074 34.1143 44.5891C34.1143 44.4725 34.0964 44.3678 34.0613 44.2749C34.0268 44.1821 33.9744 44.1088 33.9048 44.055C33.8358 44.0015 33.7495 43.9747 33.6459 43.9747C33.546 43.9747 33.4616 44.0001 33.3926 44.0516C33.3244 44.1031 33.2726 44.1747 33.2372 44.267C33.2018 44.359 33.1843 44.4665 33.1843 44.5891ZM35.1869 44.8735L35.1846 44.4532H35.2446L35.949 43.7052H36.3611L35.5576 44.5568H35.5036L35.1869 44.8735ZM34.8705 45.4732V43.116H35.2146V45.4732H34.8705ZM35.9869 45.4732L35.3538 44.6329L35.591 44.3924L36.4092 45.4732H35.9869ZM37.2121 45.5123C37.1003 45.5123 36.999 45.4916 36.9084 45.45C36.8179 45.4078 36.746 45.347 36.693 45.2672C36.641 45.1874 36.6149 45.0894 36.6149 44.9737C36.6149 44.8738 36.6342 44.7917 36.6724 44.7272C36.7109 44.6629 36.7627 44.6117 36.8278 44.5741C36.8931 44.5367 36.9659 44.5081 37.0465 44.4889C37.1269 44.4699 37.2093 44.4552 37.2927 44.4453C37.3986 44.4331 37.4846 44.4229 37.5506 44.4153C37.6165 44.4068 37.6646 44.3935 37.6943 44.3751C37.7243 44.3567 37.7393 44.3267 37.7393 44.2854V44.2772C37.7393 44.1767 37.711 44.0989 37.6541 44.0437C37.5981 43.9882 37.5146 43.9608 37.4034 43.9608C37.2874 43.9608 37.196 43.9865 37.1295 44.0378C37.0632 44.0884 37.0177 44.145 36.9925 44.207L36.669 44.1334C36.7072 44.0259 36.7632 43.9393 36.8371 43.8733C36.9115 43.8066 36.997 43.7582 37.0938 43.7282C37.1903 43.6976 37.2919 43.6823 37.3986 43.6823C37.4693 43.6823 37.5441 43.6908 37.623 43.7075C37.7028 43.7236 37.7773 43.7536 37.8463 43.7972C37.9162 43.8411 37.9734 43.9036 38.0178 43.9848C38.0623 44.0655 38.0846 44.1702 38.0846 44.299V45.4732H37.7487V45.2315H37.7348C37.7125 45.2759 37.6791 45.3195 37.6346 45.3625C37.5902 45.4056 37.533 45.4412 37.4631 45.4695C37.3932 45.4981 37.3097 45.5123 37.2121 45.5123ZM37.2871 45.236C37.3822 45.236 37.4634 45.2171 37.531 45.1797C37.5992 45.1421 37.651 45.0928 37.6864 45.0323C37.7224 44.9709 37.7405 44.9052 37.7405 44.8356V44.6075C37.7283 44.6199 37.7045 44.6312 37.6692 44.642C37.6346 44.6522 37.595 44.661 37.5506 44.6686C37.5061 44.6754 37.4628 44.6819 37.4207 44.6881C37.3782 44.6935 37.3431 44.698 37.3145 44.702C37.2477 44.7105 37.1869 44.7246 37.1317 44.7444C37.0771 44.7645 37.0335 44.7931 37.0004 44.8308C36.9681 44.8676 36.952 44.9168 36.952 44.9782C36.952 45.0634 36.9834 45.1279 37.0465 45.1715C37.1094 45.2145 37.1894 45.236 37.2871 45.236ZM40.7602 43.7352C40.748 43.6263 40.6974 43.5419 40.6082 43.4819C40.5193 43.4214 40.4073 43.3911 40.2723 43.3911C40.1755 43.3911 40.092 43.4064 40.0213 43.4369C39.9508 43.4669 39.8959 43.5085 39.8568 43.5615C39.8183 43.6135 39.7991 43.673 39.7991 43.7398C39.7991 43.7958 39.8124 43.8442 39.8384 43.8847C39.8653 43.9254 39.9001 43.9597 39.9431 43.9871C39.9867 44.014 40.0337 44.0366 40.0835 44.055C40.1333 44.0729 40.1814 44.0873 40.2273 44.0989L40.4577 44.1586C40.5326 44.177 40.6099 44.2022 40.6889 44.2336C40.7678 44.265 40.8411 44.3064 40.9088 44.3579C40.9761 44.4094 41.0307 44.473 41.0721 44.5489C41.1142 44.6247 41.1355 44.7159 41.1355 44.8217C41.1355 44.9553 41.1009 45.0736 41.0319 45.1772C40.9637 45.2808 40.8643 45.3625 40.7339 45.4225C40.604 45.4823 40.4472 45.5123 40.2629 45.5123C40.0866 45.5123 39.9338 45.4842 39.805 45.4282C39.676 45.3722 39.5752 45.2926 39.5022 45.1899C39.4295 45.0863 39.389 44.9635 39.3814 44.8217H39.7382C39.745 44.9069 39.7728 44.9779 39.8212 45.0345C39.8701 45.0906 39.9327 45.1325 40.0088 45.1599C40.0855 45.1868 40.1695 45.2004 40.2607 45.2004C40.3611 45.2004 40.4506 45.1845 40.529 45.1531C40.6079 45.1209 40.6702 45.0764 40.7155 45.0195C40.7608 44.9621 40.7831 44.895 40.7831 44.8183C40.7831 44.7484 40.7633 44.6912 40.7234 44.6468C40.6843 44.6021 40.6309 44.5653 40.5635 44.5362C40.4967 44.507 40.4211 44.4812 40.3368 44.4592L40.058 44.383C39.8696 44.3318 39.7198 44.2563 39.6092 44.1564C39.4997 44.0567 39.4448 43.9246 39.4448 43.7604C39.4448 43.6246 39.4815 43.506 39.5551 43.405C39.629 43.3036 39.7286 43.225 39.8546 43.1689C39.9802 43.112 40.1223 43.0837 40.2802 43.0837C40.4398 43.0837 40.5808 43.1118 40.7027 43.1678C40.8256 43.2238 40.9221 43.3008 40.9928 43.399C41.0633 43.4967 41.1001 43.6084 41.1032 43.7352H40.7602ZM42.0705 45.5123C41.9585 45.5123 41.8571 45.4916 41.7666 45.45C41.676 45.4078 41.6044 45.347 41.5515 45.2672C41.4991 45.1874 41.4731 45.0894 41.4731 44.9737C41.4731 44.8738 41.4923 44.7917 41.5305 44.7272C41.569 44.6629 41.6208 44.6117 41.6859 44.5741C41.7513 44.5367 41.824 44.5081 41.9047 44.4889C41.9853 44.4699 42.0674 44.4552 42.1509 44.4453C42.2567 44.4331 42.3428 44.4229 42.4087 44.4153C42.4747 44.4068 42.5228 44.3935 42.5528 44.3751C42.5825 44.3567 42.5975 44.3267 42.5975 44.2854V44.2772C42.5975 44.1767 42.5692 44.0989 42.5123 44.0437C42.4563 43.9882 42.3728 43.9608 42.2616 43.9608C42.1455 43.9608 42.0544 43.9865 41.9876 44.0378C41.9217 44.0884 41.8758 44.145 41.8506 44.207L41.5271 44.1334C41.5656 44.0259 41.6217 43.9393 41.6953 43.8733C41.7697 43.8066 41.8552 43.7582 41.9519 43.7282C42.0485 43.6976 42.1503 43.6823 42.2567 43.6823C42.3275 43.6823 42.4022 43.6908 42.4812 43.7075C42.561 43.7236 42.6354 43.7536 42.7045 43.7972C42.7744 43.8411 42.8315 43.9036 42.876 43.9848C42.9207 44.0655 42.9428 44.1702 42.9428 44.299V45.4732H42.6068V45.2315H42.593C42.5706 45.2759 42.5372 45.3195 42.4928 45.3625C42.4483 45.4056 42.3912 45.4412 42.3213 45.4695C42.2514 45.4981 42.1679 45.5123 42.0705 45.5123ZM42.1452 45.236C42.2403 45.236 42.3218 45.2171 42.3892 45.1797C42.4574 45.1421 42.5092 45.0928 42.5446 45.0323C42.5808 44.9709 42.5986 44.9052 42.5986 44.8356V44.6075C42.5865 44.6199 42.5627 44.6312 42.5273 44.642C42.4928 44.6522 42.4532 44.661 42.4087 44.6686C42.3643 44.6754 42.321 44.6819 42.2788 44.6881C42.2367 44.6935 42.2013 44.698 42.173 44.702C42.1062 44.7105 42.0451 44.7246 41.9899 44.7444C41.9352 44.7645 41.8917 44.7931 41.8586 44.8308C41.8263 44.8676 41.8104 44.9168 41.8104 44.9782C41.8104 45.0634 41.8419 45.1279 41.9047 45.1715C41.9675 45.2145 42.0479 45.236 42.1452 45.236ZM43.9387 45.5123C43.8269 45.5123 43.7256 45.4916 43.635 45.45C43.5444 45.4078 43.4726 45.347 43.4196 45.2672C43.3676 45.1874 43.3415 45.0894 43.3415 44.9737C43.3415 44.8738 43.3608 44.7917 43.399 44.7272C43.4375 44.6629 43.4893 44.6117 43.5543 44.5741C43.6197 44.5367 43.6925 44.5081 43.7731 44.4889C43.8538 44.4699 43.9358 44.4552 44.0193 44.4453C44.1252 44.4331 44.2112 44.4229 44.2772 44.4153C44.3431 44.4068 44.3912 44.3935 44.4209 44.3751C44.4509 44.3567 44.4659 44.3267 44.4659 44.2854V44.2772C44.4659 44.1767 44.4376 44.0989 44.3807 44.0437C44.3247 43.9882 44.2412 43.9608 44.13 43.9608C44.014 43.9608 43.9228 43.9865 43.856 44.0378C43.7898 44.0884 43.7442 44.145 43.7191 44.207L43.3956 44.1334C43.4341 44.0259 43.4898 43.9393 43.5637 43.8733C43.6381 43.8066 43.7236 43.7582 43.8204 43.7282C43.9169 43.6976 44.0185 43.6823 44.1252 43.6823C44.1959 43.6823 44.2706 43.6908 44.3496 43.7075C44.4294 43.7236 44.5038 43.7536 44.5729 43.7972C44.6428 43.8411 44.7 43.9036 44.7444 43.9848C44.7888 44.0655 44.8112 44.1702 44.8112 44.299V45.4732H44.4753V45.2315H44.4614C44.439 45.2759 44.4056 45.3195 44.3612 45.3625C44.3168 45.4056 44.2596 45.4412 44.1897 45.4695C44.1198 45.4981 44.0363 45.5123 43.9387 45.5123ZM44.0137 45.236C44.1088 45.236 44.19 45.2171 44.2576 45.1797C44.3258 45.1421 44.3776 45.0928 44.413 45.0323C44.4489 44.9709 44.4671 44.9052 44.4671 44.8356V44.6075C44.4549 44.6199 44.4311 44.6312 44.3957 44.642C44.3612 44.6522 44.3216 44.661 44.2772 44.6686C44.2327 44.6754 44.1894 44.6819 44.1473 44.6881C44.1048 44.6935 44.0697 44.698 44.0411 44.702C43.9746 44.7105 43.9135 44.7246 43.8583 44.7444C43.8037 44.7645 43.7601 44.7931 43.727 44.8308C43.6947 44.8676 43.6786 44.9168 43.6786 44.9782C43.6786 45.0634 43.7103 45.1279 43.7731 45.1715C43.8359 45.2145 43.916 45.236 44.0137 45.236ZM45.2926 45.4732V43.7052H45.6254V43.986H45.6438C45.6761 43.8909 45.7327 43.8162 45.8142 43.7616C45.8963 43.7064 45.9891 43.6786 46.0927 43.6786C46.1142 43.6786 46.1394 43.6795 46.1685 43.6812C46.1985 43.6826 46.222 43.6846 46.2387 43.6868V44.016C46.2251 44.012 46.2005 44.0081 46.1651 44.0032C46.1297 43.9979 46.0946 43.9953 46.0593 43.9953C45.978 43.9953 45.9053 44.0126 45.8416 44.0471C45.7788 44.0808 45.729 44.1281 45.6922 44.1886C45.6551 44.2486 45.6367 44.3168 45.6367 44.3935V45.4732H45.2926ZM47.4893 43.7052V43.9815H46.5237V43.7052H47.4893ZM46.7826 43.2816H47.1268V44.9539C47.1268 45.0207 47.137 45.071 47.1568 45.1047C47.1769 45.1378 47.2024 45.1605 47.234 45.1726C47.266 45.1842 47.3011 45.1899 47.3388 45.1899C47.3662 45.1899 47.3906 45.1879 47.4112 45.1842C47.4319 45.1803 47.448 45.1772 47.4596 45.1749L47.5216 45.4593C47.5018 45.467 47.4732 45.4746 47.4364 45.4823C47.3996 45.4907 47.3535 45.4953 47.2983 45.4961C47.2077 45.4975 47.1234 45.4814 47.0453 45.4477C46.9669 45.4141 46.9035 45.3617 46.8554 45.2912C46.807 45.2208 46.7826 45.1319 46.7826 45.0255V43.2816ZM48.2752 44.4235V45.4732H47.9311V43.116H48.2707V43.9931H48.2925C48.3341 43.898 48.3972 43.8221 48.4824 43.7664C48.5676 43.7103 48.6788 43.6823 48.8164 43.6823C48.9375 43.6823 49.0433 43.7072 49.1339 43.757C49.2253 43.8068 49.2958 43.8813 49.3456 43.9803C49.3962 44.0785 49.4217 44.2014 49.4217 44.3485V45.4732H49.0776V44.3901C49.0776 44.2605 49.0442 44.1597 48.9774 44.0884C48.9106 44.0163 48.8178 43.9803 48.6989 43.9803C48.6177 43.9803 48.5447 43.9976 48.4801 44.0321C48.4165 44.0666 48.3664 44.1173 48.3296 44.1841C48.2934 44.25 48.2752 44.3298 48.2752 44.4235ZM49.904 45.4732V43.7052H50.2481V45.4732H49.904ZM50.0777 43.4324C50.018 43.4324 49.9665 43.4126 49.9238 43.3727C49.8813 43.3319 49.8604 43.2836 49.8604 43.2275C49.8604 43.1709 49.8813 43.1225 49.9238 43.0826C49.9665 43.0419 50.018 43.0215 50.0777 43.0215C50.1377 43.0215 50.1887 43.0419 50.2308 43.0826C50.2739 43.1225 50.2954 43.1709 50.2954 43.2275C50.2954 43.2836 50.2739 43.3319 50.2308 43.3727C50.1887 43.4126 50.1377 43.4324 50.0777 43.4324Z" fill="#2B3D83"/>
</mask>
<g mask="url(#mask7_1263_2770)">
<rect x="28.3306" y="42.3905" width="22.9918" height="3.74546" fill="#2B3D83"/>
</g>
</svg>
