<svg width="43" height="43" viewBox="0 0 43 43" fill="none" xmlns="http://www.w3.org/2000/svg">
<path d="M11.1934 12.9849H19.9434C20.4075 12.9849 20.8526 13.1692 21.1808 13.4974C21.509 13.8256 21.6934 14.2707 21.6934 14.7349C21.6934 15.199 21.509 15.6441 21.1808 15.9723C20.8526 16.3005 20.4075 16.4849 19.9434 16.4849H11.1934C10.7292 16.4849 10.2841 16.3005 9.95592 15.9723C9.62773 15.6441 9.44336 15.199 9.44336 14.7349C9.44336 14.2707 9.62773 13.8256 9.95592 13.4974C10.2841 13.1692 10.7292 12.9849 11.1934 12.9849ZM23.4434 26.9849H32.1934C32.6575 26.9849 33.1026 27.1692 33.4308 27.4974C33.759 27.8256 33.9434 28.2707 33.9434 28.7349C33.9434 29.199 33.759 29.6441 33.4308 29.9723C33.1026 30.3005 32.6575 30.4849 32.1934 30.4849H23.4434C22.9792 30.4849 22.5341 30.3005 22.2059 29.9723C21.8777 29.6441 21.6934 29.199 21.6934 28.7349C21.6934 28.2707 21.8777 27.8256 22.2059 27.4974C22.5341 27.1692 22.9792 26.9849 23.4434 26.9849ZM11.1934 19.9849H32.1934C32.6575 19.9849 33.1026 20.1692 33.4308 20.4974C33.759 20.8256 33.9434 21.2707 33.9434 21.7349C33.9434 22.199 33.759 22.6441 33.4308 22.9723C33.1026 23.3005 32.6575 23.4849 32.1934 23.4849H11.1934C10.7292 23.4849 10.2841 23.3005 9.95592 22.9723C9.62773 22.6441 9.44336 22.199 9.44336 21.7349C9.44336 21.2707 9.62773 20.8256 9.95592 20.4974C10.2841 20.1692 10.7292 19.9849 11.1934 19.9849Z" fill="black"/>
</svg>
