<svg width="4" height="3" viewBox="0 0 4 3" fill="none" xmlns="http://www.w3.org/2000/svg">
<path d="M1.96497 1.67402L0.634266 0.20819C0.536083 0.100037 0.376898 0.100037 0.278715 0.20819C0.180532 0.316343 0.180532 0.491693 0.278715 0.599846L1.78719 2.2615C1.88537 2.36965 2.04456 2.36965 2.14274 2.2615L3.65122 0.599846C3.7494 0.491693 3.7494 0.316343 3.65122 0.20819C3.55303 0.100037 3.39385 0.100037 3.29567 0.20819L1.96497 1.67402Z" fill="white"/>
<mask id="mask0_83_834" style="mask-type:luminance" maskUnits="userSpaceOnUse" x="0" y="0" width="4" height="3">
<path d="M1.96497 1.67402L0.634266 0.20819C0.536083 0.100037 0.376898 0.100037 0.278715 0.20819C0.180532 0.316343 0.180532 0.491693 0.278715 0.599846L1.78719 2.2615C1.88537 2.36965 2.04456 2.36965 2.14274 2.2615L3.65122 0.599846C3.7494 0.491693 3.7494 0.316343 3.65122 0.20819C3.55303 0.100037 3.39385 0.100037 3.29567 0.20819L1.96497 1.67402Z" fill="white"/>
</mask>
<g mask="url(#mask0_83_834)">
</g>
</svg>
