<svg width="15" height="13" viewBox="0 0 15 13" fill="none" xmlns="http://www.w3.org/2000/svg">
<path d="M2.76953 0.809082H12.5195C13.1163 0.809082 13.6886 1.04613 14.1105 1.46809C14.5325 1.89005 14.7695 2.46234 14.7695 3.05908V9.80908C14.7695 10.4058 14.5325 10.9781 14.1105 11.4001C13.6886 11.822 13.1163 12.0591 12.5195 12.0591H2.76953C2.17279 12.0591 1.6005 11.822 1.17854 11.4001C0.756584 10.9781 0.519531 10.4058 0.519531 9.80908V3.05908C0.519531 2.46234 0.756584 1.89005 1.17854 1.46809C1.6005 1.04613 2.17279 0.809082 2.76953 0.809082ZM2.76953 1.55908C2.39453 1.55908 2.06453 1.68658 1.80953 1.91158L7.64453 5.68408L13.4795 1.91158C13.2245 1.68658 12.8945 1.55908 12.5195 1.55908H2.76953ZM7.64453 6.59158L1.36703 2.51908C1.30703 2.68408 1.26953 2.87158 1.26953 3.05908V9.80908C1.26953 10.2069 1.42757 10.5884 1.70887 10.8697C1.99018 11.151 2.37171 11.3091 2.76953 11.3091H12.5195C12.9174 11.3091 13.2989 11.151 13.5802 10.8697C13.8615 10.5884 14.0195 10.2069 14.0195 9.80908V3.05908C14.0195 2.87158 13.982 2.68408 13.922 2.51908L7.64453 6.59158Z" fill="#0028A3"/>
</svg>
