<svg width="19" height="19" viewBox="0 0 19 19" fill="none" xmlns="http://www.w3.org/2000/svg">
<g clip-path="url(#clip0_1419_3258)">
<path d="M17.6345 8.24653L9.55357 1.87224L1.47266 8.24653V7.25807L9.55357 0.883789L17.6345 7.25807V8.24653ZM9.55357 2.71452L2.33873 8.40564V18.3527H4.32773V10.597H14.7794V18.3527H16.7684V8.40564L9.55357 2.71452ZM12.2331 8.86943H13.579C13.6915 8.86943 13.7375 8.9492 13.6813 9.04665L13.4748 9.40433C13.441 9.45584 13.3957 9.49871 13.3424 9.52949C13.289 9.56027 13.2292 9.57811 13.1678 9.58155H12.0266C11.9651 9.5781 11.9053 9.56026 11.852 9.52948C11.7987 9.4987 11.7534 9.45583 11.7196 9.40433L11.413 8.87322H7.69412L7.38748 9.40433C7.35376 9.45583 7.30842 9.4987 7.25511 9.52948C7.20179 9.56026 7.142 9.5781 7.08053 9.58155H5.9395C5.87803 9.5781 5.81823 9.56026 5.76491 9.52947C5.71159 9.49868 5.66624 9.45581 5.63252 9.40429L5.42601 9.04661C5.36976 8.94916 5.41578 8.86936 5.52832 8.86939H6.87413L7.23821 8.23883L6.87413 7.60823H5.4779C5.393 7.60823 5.36959 7.52846 5.42587 7.43101L5.63238 7.07326C5.66611 7.02175 5.71145 6.97889 5.76477 6.94811C5.81809 6.91734 5.8779 6.89951 5.93936 6.89607H7.0805C7.14197 6.89953 7.20177 6.91736 7.25509 6.94814C7.3084 6.97892 7.35375 7.02179 7.38748 7.07329L7.69412 7.60443H11.413L11.7196 7.07329C11.7534 7.02179 11.7987 6.97892 11.852 6.94814C11.9054 6.91736 11.9652 6.89953 12.0266 6.89607H13.1676C13.2291 6.8995 13.2889 6.91733 13.3422 6.9481C13.3955 6.97888 13.4409 7.02175 13.4746 7.07326L13.6811 7.43101C13.7374 7.52846 13.714 7.60823 13.6291 7.60823H12.2331L11.8691 8.23883L12.2331 8.86943Z" fill="#0028A3"/>
<path d="M16.8772 8.26761L9.66245 2.57644C9.63143 2.55197 9.59307 2.53866 9.55357 2.53866C9.51406 2.53866 9.4757 2.55197 9.44469 2.57644L2.22975 8.26761C2.20891 8.28407 2.19207 8.30505 2.1805 8.32895C2.16894 8.35286 2.16293 8.37907 2.16295 8.40563V18.3527C2.16295 18.3993 2.18147 18.444 2.21443 18.477C2.2474 18.5099 2.29211 18.5285 2.33873 18.5285H16.7683C16.815 18.5285 16.8597 18.5099 16.8926 18.477C16.9256 18.444 16.9441 18.3993 16.9441 18.3527V8.40563C16.9441 8.37906 16.9381 8.35284 16.9265 8.32893C16.9149 8.30503 16.898 8.28406 16.8772 8.26761ZM14.6035 18.1769H4.50341V10.773H14.6035V18.1769ZM16.5926 18.1769H14.9551V10.5972C14.9551 10.5506 14.9366 10.5059 14.9036 10.4729C14.8706 10.4399 14.8259 10.4214 14.7793 10.4214H4.32763C4.281 10.4214 4.23629 10.4399 4.20333 10.4729C4.17036 10.5059 4.15184 10.5506 4.15184 10.5972V18.1769H2.51437V8.49082L9.55346 2.93855L16.5926 8.49082V18.1769ZM17.7432 7.12004L9.66245 0.745788C9.63143 0.721317 9.59307 0.708008 9.55357 0.708008C9.51406 0.708008 9.4757 0.721317 9.44469 0.745788L1.36367 7.12004C1.34283 7.1365 1.326 7.15748 1.31443 7.18138C1.30286 7.20529 1.29686 7.2315 1.29688 7.25806V8.24651C1.29686 8.27955 1.30614 8.31191 1.32367 8.33991C1.3412 8.3679 1.36626 8.39039 1.39599 8.4048C1.42571 8.41921 1.45889 8.42495 1.49173 8.42136C1.52456 8.41778 1.55572 8.40502 1.58164 8.38454L9.55346 2.0961L17.5255 8.38454C17.5514 8.40502 17.5826 8.41778 17.6154 8.42136C17.6483 8.42495 17.6815 8.41921 17.7112 8.4048C17.7409 8.39039 17.766 8.3679 17.7835 8.33991C17.801 8.31191 17.8103 8.27955 17.8103 8.24651V7.25806C17.8103 7.23148 17.8042 7.20526 17.7926 7.18135C17.781 7.15744 17.7641 7.13648 17.7432 7.12004ZM17.4585 7.88398L9.66245 1.73421C9.63143 1.70973 9.59307 1.69643 9.55357 1.69643C9.51406 1.69643 9.4757 1.70973 9.44469 1.73421L1.64833 7.88398V7.34332L9.55346 1.10769L17.4586 7.34332L17.4585 7.88398ZM7.5395 6.98532C7.49016 6.90724 7.42258 6.84232 7.34259 6.79614C7.2626 6.74996 7.17258 6.72392 7.08029 6.72024H5.93919C5.8469 6.72389 5.75689 6.74993 5.67691 6.79611C5.59693 6.84229 5.52938 6.90722 5.48008 6.98532L5.27354 7.34307C5.20896 7.4549 5.20168 7.57057 5.25354 7.66039C5.27661 7.69901 5.30954 7.73081 5.34895 7.75252C5.38835 7.77424 5.43282 7.78509 5.4778 7.78396H6.7726L7.03515 8.23875L6.7726 8.69363H5.52807C5.47493 8.68935 5.42167 8.70023 5.37447 8.72501C5.32727 8.74979 5.28807 8.78745 5.26142 8.83362C5.23477 8.87978 5.22177 8.93257 5.22392 8.98583C5.22607 9.03909 5.24329 9.09066 5.27357 9.13453L5.48012 9.49228C5.52942 9.57038 5.59698 9.63533 5.67698 9.68151C5.75697 9.72769 5.847 9.75372 5.93929 9.75735H7.08043C7.17273 9.75372 7.26277 9.72768 7.34277 9.6815C7.42277 9.63531 7.49034 9.57036 7.53964 9.49224L7.79565 9.04889H11.3113L11.5672 9.49214C11.6165 9.57025 11.684 9.63521 11.764 9.68139C11.844 9.72758 11.9341 9.75361 12.0264 9.75725H13.1675C13.2598 9.7536 13.3499 9.72756 13.4298 9.68137C13.5098 9.63518 13.5774 9.57022 13.6267 9.4921L13.8332 9.13442C13.8635 9.09056 13.8807 9.03902 13.8828 8.98578C13.885 8.93255 13.872 8.8798 13.8453 8.83365C13.8187 8.7875 13.7795 8.74985 13.7324 8.72507C13.6852 8.70029 13.632 8.68939 13.5789 8.69363H12.3343L12.0718 8.23882L12.3343 7.78403H13.6291C13.6741 7.78516 13.7186 7.77431 13.758 7.75259C13.7974 7.73088 13.8303 7.69908 13.8534 7.66046C13.9052 7.57064 13.898 7.45497 13.8334 7.34314L13.6268 6.98535C13.5775 6.90727 13.51 6.84235 13.43 6.79618C13.3501 6.75 13.2601 6.72397 13.1678 6.72031H12.0265C11.9342 6.724 11.8442 6.75005 11.7642 6.79623C11.6842 6.84242 11.6166 6.90734 11.5673 6.98542L11.3114 7.42867H7.79565L7.5395 6.98532ZM11.4128 7.78013C11.4437 7.78013 11.474 7.77201 11.5007 7.75658C11.5274 7.74115 11.5496 7.71896 11.5651 7.69224L11.8717 7.16114C11.8898 7.13633 11.913 7.11557 11.9396 7.10019C11.9662 7.08481 11.9958 7.07513 12.0264 7.07177H13.1676C13.1981 7.07511 13.2277 7.08478 13.2543 7.10015C13.2809 7.11552 13.3041 7.13627 13.3222 7.16107L13.4789 7.43237H12.233C12.2022 7.43237 12.1719 7.44049 12.1451 7.45592C12.1184 7.47135 12.0962 7.49354 12.0808 7.52026L11.7167 8.15082C11.7013 8.17754 11.6932 8.20785 11.6932 8.23871C11.6932 8.26957 11.7013 8.29988 11.7167 8.3266L12.0808 8.9573C12.0962 8.98403 12.1184 9.00622 12.1451 9.02164C12.1719 9.03707 12.2022 9.04519 12.233 9.04519H13.479L13.3224 9.31643C13.3042 9.34123 13.2811 9.36199 13.2544 9.37738C13.2278 9.39276 13.1983 9.40244 13.1677 9.40579H12.0265C11.996 9.40244 11.9664 9.39277 11.9398 9.3774C11.9132 9.36202 11.89 9.34126 11.8718 9.31646L11.5652 8.78532C11.5498 8.7586 11.5276 8.73641 11.5009 8.72098C11.4741 8.70555 11.4438 8.69743 11.413 8.69743H7.69401C7.66316 8.69743 7.63284 8.70555 7.60612 8.72098C7.5794 8.73641 7.55721 8.7586 7.54179 8.78532L7.23515 9.31646C7.21697 9.34126 7.19383 9.36202 7.1672 9.3774C7.14057 9.39277 7.11103 9.40244 7.08046 9.40579H5.9394C5.90883 9.40244 5.8793 9.39276 5.85267 9.37738C5.82604 9.36201 5.8029 9.34126 5.78471 9.31646L5.62791 9.04519H6.87389C6.90474 9.04519 6.93505 9.03707 6.96177 9.02164C6.9885 9.00622 7.01069 8.98403 7.02611 8.9573L7.39019 8.32671C7.40562 8.29998 7.41374 8.26967 7.41374 8.23882C7.41374 8.20796 7.40562 8.17765 7.39019 8.15093L7.02611 7.52036C7.01069 7.49364 6.9885 7.47145 6.96177 7.45602C6.93505 7.4406 6.90474 7.43247 6.87389 7.43247H5.62791L5.78454 7.16121C5.8027 7.13639 5.82584 7.11563 5.85247 7.10025C5.87911 7.08487 5.90865 7.07521 5.93922 7.07187H7.08032C7.11089 7.07524 7.14042 7.08492 7.16705 7.10029C7.19368 7.11567 7.21682 7.13641 7.23501 7.16121L7.54161 7.69235C7.55704 7.71907 7.57923 7.74126 7.60595 7.75669C7.63267 7.77211 7.66298 7.78024 7.69384 7.78024L11.4128 7.78013ZM5.77205 12.0973C5.77205 12.0507 5.79057 12.006 5.82354 11.973C5.85651 11.9401 5.90122 11.9215 5.94784 11.9215H13.1591C13.2057 11.9215 13.2504 11.9401 13.2834 11.973C13.3163 12.006 13.3349 12.0507 13.3349 12.0973C13.3349 12.1439 13.3163 12.1887 13.2834 12.2216C13.2504 12.2546 13.2057 12.2731 13.1591 12.2731H5.94784C5.90122 12.2731 5.85651 12.2546 5.82354 12.2216C5.79057 12.1887 5.77206 12.1439 5.77205 12.0973ZM5.77205 13.3396C5.77205 13.293 5.79057 13.2483 5.82354 13.2153C5.85651 13.1823 5.90122 13.1638 5.94784 13.1638H13.1591C13.2057 13.1638 13.2504 13.1823 13.2834 13.2153C13.3163 13.2483 13.3349 13.293 13.3349 13.3396C13.3349 13.3862 13.3163 13.4309 13.2834 13.4639C13.2504 13.4969 13.2057 13.5154 13.1591 13.5154H5.94784C5.90122 13.5154 5.85651 13.4969 5.82354 13.4639C5.79057 13.4309 5.77206 13.3862 5.77205 13.3396ZM5.77205 14.5819C5.77205 14.5353 5.79057 14.4906 5.82354 14.4576C5.85651 14.4246 5.90122 14.4061 5.94784 14.4061H13.1591C13.2057 14.4061 13.2504 14.4246 13.2834 14.4576C13.3163 14.4906 13.3349 14.5353 13.3349 14.5819C13.3349 14.6285 13.3163 14.6732 13.2834 14.7062C13.2504 14.7391 13.2057 14.7577 13.1591 14.7577H5.94784C5.90122 14.7577 5.85651 14.7391 5.82354 14.7062C5.79057 14.6732 5.77206 14.6285 5.77205 14.5819ZM5.77205 15.8242C5.77205 15.7775 5.79057 15.7328 5.82354 15.6999C5.85651 15.6669 5.90122 15.6484 5.94784 15.6484H13.1591C13.2057 15.6484 13.2504 15.6669 13.2834 15.6999C13.3163 15.7328 13.3349 15.7775 13.3349 15.8242C13.3349 15.8708 13.3163 15.9155 13.2834 15.9485C13.2504 15.9814 13.2057 15.9999 13.1591 15.9999H5.94784C5.92475 15.9999 5.90189 15.9954 5.88057 15.9866C5.85924 15.9777 5.83986 15.9648 5.82354 15.9485C5.80722 15.9321 5.79427 15.9128 5.78544 15.8914C5.7766 15.8701 5.77205 15.8472 5.77205 15.8242ZM5.77205 17.0664C5.77205 17.0198 5.79057 16.9751 5.82354 16.9422C5.85651 16.9092 5.90122 16.8907 5.94784 16.8907H13.1591C13.2057 16.8907 13.2504 16.9092 13.2834 16.9422C13.3163 16.9751 13.3349 17.0198 13.3349 17.0664C13.3349 17.1131 13.3163 17.1578 13.2834 17.1907C13.2504 17.2237 13.2057 17.2422 13.1591 17.2422H5.94784C5.90122 17.2422 5.85651 17.2237 5.82354 17.1907C5.79057 17.1578 5.77206 17.1131 5.77205 17.0664Z" fill="#0028A3"/>
</g>
<defs>
<clipPath id="clip0_1419_3258">
<rect width="18" height="18" fill="white" transform="translate(0.552734 0.618164)"/>
</clipPath>
</defs>
</svg>
