<svg width="18" height="20" viewBox="0 0 18 20" fill="none" xmlns="http://www.w3.org/2000/svg">
<path d="M16.663 18.9733C16.2579 19.3783 15.7086 19.6059 15.1357 19.6059C14.5629 19.6059 14.0135 19.3783 13.6084 18.9733L8.83662 13.5193L4.06482 18.9715C3.86485 19.1747 3.62661 19.3364 3.36385 19.4471C3.10109 19.5578 2.81901 19.6154 2.53388 19.6166C2.24874 19.6178 1.9662 19.5625 1.70255 19.4539C1.4389 19.3453 1.19935 19.1856 0.99773 18.984C0.796109 18.7823 0.636403 18.5428 0.527823 18.2791C0.419243 18.0155 0.363938 17.733 0.365099 17.4478C0.36626 17.1627 0.423864 16.8806 0.534587 16.6178C0.645311 16.3551 0.806963 16.1168 1.01022 15.9169L5.97462 10.2469L1.00842 4.57327C0.805163 4.3733 0.643511 4.13506 0.532787 3.8723C0.422064 3.60955 0.36446 3.32746 0.363299 3.04233C0.362138 2.7572 0.417443 2.47466 0.526023 2.211C0.634603 1.94735 0.794309 1.70781 0.995931 1.50618C1.19755 1.30456 1.4371 1.14486 1.70075 1.03628C1.9644 0.927697 2.24694 0.872392 2.53208 0.873553C2.81721 0.874714 3.09929 0.932318 3.36205 1.04304C3.62481 1.15376 3.86305 1.31542 4.06302 1.51867L8.83662 6.97447L13.6084 1.51867C13.8084 1.31542 14.0466 1.15376 14.3094 1.04304C14.5721 0.932318 14.8542 0.874714 15.1394 0.873553C15.4245 0.872392 15.707 0.927697 15.9707 1.03628C16.2343 1.14486 16.4739 1.30456 16.6755 1.50618C16.8771 1.70781 17.0368 1.94735 17.1454 2.211C17.254 2.47466 17.3093 2.7572 17.3081 3.04233C17.307 3.32746 17.2494 3.60955 17.1387 3.8723C17.0279 4.13506 16.8663 4.3733 16.663 4.57327L11.6986 10.2469L16.663 15.9169C16.8638 16.1175 17.0232 16.3557 17.1319 16.6179C17.2406 16.8801 17.2965 17.1612 17.2965 17.4451C17.2965 17.7289 17.2406 18.01 17.1319 18.2722C17.0232 18.5344 16.8638 18.7727 16.663 18.9733Z" fill="#F8FAFA"/>
</svg>
