<svg width="37" height="37" viewBox="0 0 37 37" fill="none" xmlns="http://www.w3.org/2000/svg">
<path d="M26.663 26.9733C26.2579 27.3783 25.7086 27.6059 25.1357 27.6059C24.5629 27.6059 24.0135 27.3783 23.6084 26.9733L18.8366 21.5193L14.0648 26.9715C13.8648 27.1747 13.6266 27.3364 13.3639 27.4471C13.1011 27.5578 12.819 27.6154 12.5339 27.6166C12.2487 27.6178 11.9662 27.5625 11.7025 27.4539C11.4389 27.3453 11.1994 27.1856 10.9977 26.984C10.7961 26.7823 10.6364 26.5428 10.5278 26.2791C10.4192 26.0155 10.3639 25.733 10.3651 25.4478C10.3663 25.1627 10.4239 24.8806 10.5346 24.6178C10.6453 24.3551 10.807 24.1168 11.0102 23.9169L15.9746 18.2469L11.0084 12.5733C10.8052 12.3733 10.6435 12.1351 10.5328 11.8723C10.4221 11.6095 10.3645 11.3275 10.3633 11.0423C10.3621 10.7572 10.4174 10.4747 10.526 10.211C10.6346 9.94735 10.7943 9.70781 10.9959 9.50618C11.1976 9.30456 11.4371 9.14486 11.7007 9.03628C11.9644 8.9277 12.2469 8.87239 12.5321 8.87355C12.8172 8.87471 13.0993 8.93232 13.3621 9.04304C13.6248 9.15376 13.863 9.31542 14.063 9.51867L18.8366 14.9745L23.6084 9.51867C23.8084 9.31542 24.0466 9.15376 24.3094 9.04304C24.5721 8.93232 24.8542 8.87471 25.1394 8.87355C25.4245 8.87239 25.707 8.9277 25.9707 9.03628C26.2343 9.14486 26.4739 9.30456 26.6755 9.50618C26.8771 9.70781 27.0368 9.94735 27.1454 10.211C27.254 10.4747 27.3093 10.7572 27.3081 11.0423C27.307 11.3275 27.2494 11.6095 27.1387 11.8723C27.0279 12.1351 26.8663 12.3733 26.663 12.5733L21.6986 18.2469L26.663 23.9169C26.8638 24.1175 27.0232 24.3557 27.1319 24.6179C27.2406 24.8801 27.2965 25.1612 27.2965 25.4451C27.2965 25.7289 27.2406 26.01 27.1319 26.2722C27.0232 26.5344 26.8638 26.7727 26.663 26.9733Z" fill="#F8FAFA"/>
</svg>
