<svg width="48" height="39" viewBox="0 0 48 39" fill="none" xmlns="http://www.w3.org/2000/svg">
<path d="M6.24414 34.2252V24.4717H8.89955C10.2223 24.4717 11.2218 24.7319 11.8981 25.252C12.5843 25.7635 12.9274 26.522 12.9274 27.5278C12.9274 28.5421 12.5793 29.3224 11.8831 29.8686C11.1969 30.4061 10.2024 30.6748 8.89955 30.6748H8.43707V34.2252H6.24414ZM8.43707 29.0883H9.06364C9.60069 29.0883 10.0134 28.9583 10.3018 28.6981C10.5903 28.4295 10.7345 28.0522 10.7345 27.5668C10.7345 26.561 10.1775 26.0582 9.06364 26.0582H8.43707V29.0883Z" fill="#F8FAFA"/>
<path d="M14.1992 34.2252V27.1115L16.1982 26.9034V28.7112C16.3176 28.1476 16.5563 27.6838 16.9143 27.3196C17.2823 26.9555 17.695 26.7734 18.1525 26.7734C18.5404 26.7734 18.8288 26.8558 19.0177 27.0205L18.5702 28.789C18.3614 28.6591 18.1078 28.5941 17.8094 28.5941C17.3817 28.5941 17.0187 28.7848 16.7204 29.1663C16.4319 29.5478 16.2877 30.0593 16.2877 30.7007V34.2252H14.1992Z" fill="#F8FAFA"/>
<path d="M22.5024 34.3942C21.498 34.3942 20.7172 34.0603 20.1604 33.3928C19.6134 32.7254 19.3398 31.7932 19.3398 30.5969C19.3398 29.8339 19.4592 29.1707 19.6979 28.6071C19.9465 28.0435 20.3045 27.6057 20.7721 27.2937C21.2493 26.973 21.8262 26.8125 22.5024 26.8125C23.1788 26.8125 23.7506 26.9685 24.2179 27.2808C24.6954 27.5928 25.0583 28.0306 25.307 28.5942C25.5656 29.1577 25.6949 29.8252 25.6949 30.5969C25.6949 31.8019 25.4114 32.7383 24.8446 33.406C24.2876 34.0648 23.507 34.3942 22.5024 34.3942ZM22.5024 32.9898C22.8008 32.9898 23.0247 32.8727 23.1739 32.6385C23.333 32.3959 23.4374 32.0924 23.4871 31.7282C23.5368 31.3554 23.5617 30.9784 23.5617 30.5969C23.5617 30.3541 23.5467 30.0941 23.5169 29.8166C23.4871 29.5392 23.4374 29.279 23.3677 29.0362C23.298 28.7936 23.1936 28.5984 23.0545 28.4511C22.9151 28.2951 22.7312 28.2169 22.5024 28.2169C22.2837 28.2169 22.1047 28.2951 21.9654 28.4511C21.8262 28.5984 21.7218 28.7936 21.6521 29.0362C21.5825 29.279 21.5327 29.5392 21.5029 29.8166C21.483 30.0854 21.4731 30.3454 21.4731 30.5969C21.4731 30.9784 21.498 31.3554 21.5477 31.7282C21.5975 32.0924 21.697 32.3959 21.8462 32.6385C21.9952 32.8727 22.2141 32.9898 22.5024 32.9898Z" fill="#F8FAFA"/>
<path d="M30.6699 34.3943C30.1826 34.3943 29.7997 34.2859 29.5212 34.0691C29.2427 33.8438 29.0388 33.5707 28.9096 33.2498V34.2253H27V24.5628L29.0886 24.3418V27.5929C29.2577 27.3414 29.4813 27.142 29.7598 26.9946C30.0383 26.8473 30.3764 26.7736 30.7743 26.7736C31.6295 26.7736 32.2562 27.1204 32.6541 27.8139C33.0618 28.4988 33.2657 29.4264 33.2657 30.597C33.2657 31.3079 33.1761 31.9493 32.9971 32.5215C32.8181 33.0938 32.5346 33.5489 32.1468 33.887C31.7689 34.2253 31.2766 34.3943 30.6699 34.3943ZM30.0432 32.9898C30.4411 32.9898 30.7196 32.773 30.8787 32.3395C31.0479 31.9061 31.1323 31.3294 31.1323 30.6099C31.1323 29.8816 31.0479 29.2965 30.8787 28.8542C30.7196 28.4035 30.4411 28.178 30.0432 28.178C29.6852 28.178 29.4367 28.3472 29.2974 28.6853C29.1583 29.0234 29.0886 29.4743 29.0886 30.0376V31.1431C29.0886 31.6893 29.1583 32.1358 29.2974 32.4826C29.4367 32.8207 29.6852 32.9898 30.0432 32.9898Z" fill="#F8FAFA"/>
<path d="M36.5019 34.3421C35.9151 34.3421 35.4428 34.1687 35.0848 33.822C34.7366 33.4665 34.5625 32.9074 34.5625 32.1444V26.8906H36.6511V31.4162C36.6511 31.9363 36.7156 32.2962 36.8451 32.4957C36.9744 32.6862 37.1832 32.7817 37.4715 32.7817C37.8197 32.7817 38.1031 32.578 38.3218 32.1705C38.5407 31.7543 38.65 31.2383 38.65 30.6229V26.8906H40.7386V34.0951L38.7396 34.3163V32.6125C38.5806 33.2108 38.3021 33.6486 37.9042 33.9261C37.5063 34.2034 37.0389 34.3421 36.5019 34.3421Z" fill="#F8FAFA"/>
<path d="M44.7533 34.4201C43.908 34.4201 43.2368 34.2165 42.7394 33.8089C42.2521 33.3927 41.9985 32.825 41.9785 32.1054L43.6943 31.9362C43.7241 32.3003 43.8383 32.5866 44.0373 32.7945C44.2461 32.9939 44.5147 33.0936 44.8427 33.0936C45.1015 33.0936 45.3002 33.0373 45.4396 32.9247C45.5888 32.8031 45.6634 32.6429 45.6634 32.4435C45.6634 32.2701 45.6085 32.1227 45.4992 32.0012C45.3899 31.8799 45.1958 31.7542 44.9173 31.6242L43.5003 30.9478C43.0427 30.7312 42.6896 30.4494 42.4409 30.1027C42.1925 29.7557 42.0681 29.37 42.0681 28.9451C42.0681 28.5204 42.1824 28.1476 42.4112 27.8269C42.65 27.4972 42.9731 27.2415 43.3808 27.0594C43.7987 26.8687 44.2759 26.7734 44.8129 26.7734C45.5987 26.7734 46.2202 26.9597 46.6777 27.3325C47.1453 27.7053 47.3989 28.2168 47.4386 28.8672L45.723 29.1663C45.6932 28.4554 45.3749 28.1 44.7684 28.1C44.5197 28.1 44.3306 28.1563 44.2013 28.2689C44.072 28.3731 44.0075 28.5204 44.0075 28.7112C44.0075 28.8759 44.0622 29.0232 44.1715 29.1532C44.2909 29.2834 44.4899 29.4134 44.7684 29.5433L46.0215 30.1416C46.5684 30.4016 46.9663 30.6965 47.2147 31.0259C47.4733 31.3466 47.6028 31.7281 47.6028 32.1704C47.6028 32.6124 47.4834 33.0026 47.2448 33.3406C47.0059 33.679 46.6728 33.9434 46.2451 34.1341C45.8176 34.3246 45.3202 34.4201 44.7533 34.4201Z" fill="#F8FAFA"/>
<mask id="mask0_1419_3156" style="mask-type:luminance" maskUnits="userSpaceOnUse" x="6" y="24" width="42" height="11">
<path d="M47.7699 24.1069H6.00781V34.6648H47.7699V24.1069Z" fill="white"/>
<path d="M6.24219 34.2257V24.4722H8.8976C10.2203 24.4722 11.2198 24.7324 11.8961 25.2525C12.5823 25.764 12.9255 26.5225 12.9255 27.5283C12.9255 28.5426 12.5774 29.3229 11.8812 29.8691C11.195 30.4066 10.2004 30.6752 8.8976 30.6752H8.43512V34.2257H6.24219ZM8.43512 29.0888H9.06169C9.59873 29.0888 10.0115 28.9588 10.2999 28.6986C10.5883 28.4299 10.7325 28.0527 10.7325 27.5673C10.7325 26.5614 10.1756 26.0587 9.06169 26.0587H8.43512V29.0888Z" fill="black"/>
<path d="M14.1973 34.2252V27.1115L16.1963 26.9034V28.7112C16.3156 28.1476 16.5543 27.6838 16.9123 27.3196C17.2803 26.9555 17.6931 26.7734 18.1505 26.7734C18.5384 26.7734 18.8268 26.8558 19.0158 27.0205L18.5683 28.789C18.3594 28.6591 18.1058 28.5941 17.8074 28.5941C17.3798 28.5941 17.0168 28.7848 16.7184 29.1663C16.43 29.5478 16.2858 30.0593 16.2858 30.7007V34.2252H14.1973Z" fill="black"/>
<path d="M22.5005 34.3937C21.4961 34.3937 20.7152 34.0598 20.1585 33.3924C19.6114 32.7249 19.3379 31.7927 19.3379 30.5964C19.3379 29.8334 19.4572 29.1702 19.6959 28.6066C19.9445 28.0431 20.3025 27.6053 20.7701 27.2932C21.2474 26.9725 21.8243 26.812 22.5005 26.812C23.1769 26.812 23.7486 26.968 24.216 27.2803C24.6934 27.5924 25.0564 28.0302 25.3051 28.5937C25.5636 29.1573 25.6929 29.8247 25.6929 30.5964C25.6929 31.8014 25.4095 32.7378 24.8426 33.4055C24.2857 34.0643 23.5051 34.3937 22.5005 34.3937ZM22.5005 32.9893C22.7989 32.9893 23.0227 32.8722 23.1719 32.6381C23.331 32.3955 23.4354 32.0919 23.4851 31.7277C23.5349 31.3549 23.5598 30.9779 23.5598 30.5964C23.5598 30.3536 23.5447 30.0936 23.5149 29.8161C23.4851 29.5387 23.4354 29.2786 23.3657 29.0357C23.296 28.7931 23.1916 28.5979 23.0525 28.4506C22.9131 28.2946 22.7292 28.2164 22.5005 28.2164C22.2818 28.2164 22.1028 28.2946 21.9634 28.4506C21.8243 28.5979 21.7199 28.7931 21.6502 29.0357C21.5805 29.2786 21.5308 29.5387 21.501 29.8161C21.481 30.0849 21.4712 30.3449 21.4712 30.5964C21.4712 30.9779 21.4961 31.3549 21.5458 31.7277C21.5955 32.0919 21.695 32.3955 21.8442 32.6381C21.9932 32.8722 22.2121 32.9893 22.5005 32.9893Z" fill="black"/>
<path d="M30.6679 34.3943C30.1806 34.3943 29.7977 34.2859 29.5193 34.0691C29.2408 33.8438 29.0369 33.5707 28.9076 33.2498V34.2253H26.998V24.5628L29.0866 24.3418V27.5929C29.2558 27.3414 29.4794 27.142 29.7579 26.9946C30.0364 26.8473 30.3744 26.7736 30.7724 26.7736C31.6275 26.7736 32.2542 27.1204 32.6521 27.8139C33.0599 28.4988 33.2638 29.4264 33.2638 30.597C33.2638 31.3079 33.1741 31.9493 32.9951 32.5215C32.8161 33.0938 32.5327 33.5489 32.1449 33.887C31.7669 34.2253 31.2747 34.3943 30.6679 34.3943ZM30.0413 32.9898C30.4392 32.9898 30.7177 32.773 30.8768 32.3395C31.0459 31.9061 31.1304 31.3294 31.1304 30.6099C31.1304 29.8816 31.0459 29.2965 30.8768 28.8542C30.7177 28.4035 30.4392 28.178 30.0413 28.178C29.6833 28.178 29.4348 28.3472 29.2954 28.6853C29.1563 29.0234 29.0866 29.4743 29.0866 30.0376V31.1431C29.0866 31.6893 29.1563 32.1358 29.2954 32.4826C29.4348 32.8207 29.6833 32.9898 30.0413 32.9898Z" fill="black"/>
<path d="M36.5019 34.3421C35.9151 34.3421 35.4428 34.1687 35.0848 33.822C34.7366 33.4665 34.5625 32.9074 34.5625 32.1444V26.8906H36.6511V31.4162C36.6511 31.9363 36.7156 32.2962 36.8451 32.4957C36.9744 32.6862 37.1832 32.7817 37.4715 32.7817C37.8197 32.7817 38.1031 32.578 38.3218 32.1705C38.5407 31.7543 38.65 31.2383 38.65 30.6229V26.8906H40.7386V34.0951L38.7396 34.3163V32.6125C38.5806 33.2108 38.3021 33.6486 37.9042 33.9261C37.5063 34.2034 37.0389 34.3421 36.5019 34.3421Z" fill="black"/>
<path d="M44.7514 34.4201C43.9061 34.4201 43.2348 34.2165 42.7374 33.8089C42.2501 33.3927 41.9965 32.825 41.9766 32.1054L43.6923 31.9362C43.7221 32.3003 43.8364 32.5866 44.0353 32.7945C44.2441 32.9939 44.5128 33.0936 44.8408 33.0936C45.0996 33.0936 45.2983 33.0373 45.4377 32.9247C45.5869 32.8031 45.6615 32.6429 45.6615 32.4435C45.6615 32.2701 45.6066 32.1227 45.4972 32.0012C45.3879 31.8799 45.1939 31.7542 44.9154 31.6242L43.4983 30.9478C43.0408 30.7312 42.6877 30.4494 42.439 30.1027C42.1905 29.7557 42.0662 29.37 42.0662 28.9451C42.0662 28.5204 42.1804 28.1476 42.4092 27.8269C42.648 27.4972 42.9711 27.2415 43.3789 27.0594C43.7967 26.8687 44.2739 26.7734 44.811 26.7734C45.5967 26.7734 46.2182 26.9597 46.6757 27.3325C47.1433 27.7053 47.397 28.2168 47.4366 28.8672L45.7211 29.1663C45.6913 28.4554 45.3729 28.1 44.7664 28.1C44.5177 28.1 44.3286 28.1563 44.1993 28.2689C44.0701 28.3731 44.0055 28.5204 44.0055 28.7112C44.0055 28.8759 44.0602 29.0232 44.1695 29.1532C44.289 29.2834 44.4879 29.4134 44.7664 29.5433L46.0195 30.1416C46.5664 30.4016 46.9643 30.6965 47.2128 31.0259C47.4713 31.3466 47.6008 31.7281 47.6008 32.1704C47.6008 32.6124 47.4814 33.0026 47.2428 33.3406C47.004 33.679 46.6708 33.9434 46.2431 34.1341C45.8156 34.3246 45.3182 34.4201 44.7514 34.4201Z" fill="black"/>
</mask>
<g mask="url(#mask0_1419_3156)">
<path d="M6.24414 34.2252V24.4717H8.89955C10.2223 24.4717 11.2218 24.7319 11.8981 25.252C12.5843 25.7635 12.9274 26.522 12.9274 27.5278C12.9274 28.5421 12.5793 29.3224 11.8831 29.8686C11.1969 30.4061 10.2024 30.6748 8.89955 30.6748H8.43707V34.2252H6.24414ZM8.43707 29.0883H9.06364C9.60069 29.0883 10.0134 28.9583 10.3018 28.6981C10.5903 28.4295 10.7345 28.0522 10.7345 27.5668C10.7345 26.561 10.1775 26.0582 9.06364 26.0582H8.43707V29.0883Z" stroke="#F8FAFA" stroke-width="0.226887"/>
</g>
<mask id="mask1_1419_3156" style="mask-type:luminance" maskUnits="userSpaceOnUse" x="6" y="24" width="42" height="11">
<path d="M47.7699 24.1069H6.00781V34.6648H47.7699V24.1069Z" fill="white"/>
<path d="M6.24219 34.2257V24.4722H8.8976C10.2203 24.4722 11.2198 24.7324 11.8961 25.2525C12.5823 25.764 12.9255 26.5225 12.9255 27.5283C12.9255 28.5426 12.5774 29.3229 11.8812 29.8691C11.195 30.4066 10.2004 30.6752 8.8976 30.6752H8.43512V34.2257H6.24219ZM8.43512 29.0888H9.06169C9.59873 29.0888 10.0115 28.9588 10.2999 28.6986C10.5883 28.4299 10.7325 28.0527 10.7325 27.5673C10.7325 26.5614 10.1756 26.0587 9.06169 26.0587H8.43512V29.0888Z" fill="black"/>
<path d="M14.1973 34.2252V27.1115L16.1963 26.9034V28.7112C16.3156 28.1476 16.5543 27.6838 16.9123 27.3196C17.2803 26.9555 17.6931 26.7734 18.1505 26.7734C18.5384 26.7734 18.8268 26.8558 19.0158 27.0205L18.5683 28.789C18.3594 28.6591 18.1058 28.5941 17.8074 28.5941C17.3798 28.5941 17.0168 28.7848 16.7184 29.1663C16.43 29.5478 16.2858 30.0593 16.2858 30.7007V34.2252H14.1973Z" fill="black"/>
<path d="M22.5005 34.3937C21.4961 34.3937 20.7152 34.0598 20.1585 33.3924C19.6114 32.7249 19.3379 31.7927 19.3379 30.5964C19.3379 29.8334 19.4572 29.1702 19.6959 28.6066C19.9445 28.0431 20.3025 27.6053 20.7701 27.2932C21.2474 26.9725 21.8243 26.812 22.5005 26.812C23.1769 26.812 23.7486 26.968 24.216 27.2803C24.6934 27.5924 25.0564 28.0302 25.3051 28.5937C25.5636 29.1573 25.6929 29.8247 25.6929 30.5964C25.6929 31.8014 25.4095 32.7378 24.8426 33.4055C24.2857 34.0643 23.5051 34.3937 22.5005 34.3937ZM22.5005 32.9893C22.7989 32.9893 23.0227 32.8722 23.1719 32.6381C23.331 32.3955 23.4354 32.0919 23.4851 31.7277C23.5349 31.3549 23.5598 30.9779 23.5598 30.5964C23.5598 30.3536 23.5447 30.0936 23.5149 29.8161C23.4851 29.5387 23.4354 29.2786 23.3657 29.0357C23.296 28.7931 23.1916 28.5979 23.0525 28.4506C22.9131 28.2946 22.7292 28.2164 22.5005 28.2164C22.2818 28.2164 22.1028 28.2946 21.9634 28.4506C21.8243 28.5979 21.7199 28.7931 21.6502 29.0357C21.5805 29.2786 21.5308 29.5387 21.501 29.8161C21.481 30.0849 21.4712 30.3449 21.4712 30.5964C21.4712 30.9779 21.4961 31.3549 21.5458 31.7277C21.5955 32.0919 21.695 32.3955 21.8442 32.6381C21.9932 32.8722 22.2121 32.9893 22.5005 32.9893Z" fill="black"/>
<path d="M30.6679 34.3943C30.1806 34.3943 29.7977 34.2859 29.5193 34.0691C29.2408 33.8438 29.0369 33.5707 28.9076 33.2498V34.2253H26.998V24.5628L29.0866 24.3418V27.5929C29.2558 27.3414 29.4794 27.142 29.7579 26.9946C30.0364 26.8473 30.3744 26.7736 30.7724 26.7736C31.6275 26.7736 32.2542 27.1204 32.6521 27.8139C33.0599 28.4988 33.2638 29.4264 33.2638 30.597C33.2638 31.3079 33.1741 31.9493 32.9951 32.5215C32.8161 33.0938 32.5327 33.5489 32.1449 33.887C31.7669 34.2253 31.2747 34.3943 30.6679 34.3943ZM30.0413 32.9898C30.4392 32.9898 30.7177 32.773 30.8768 32.3395C31.0459 31.9061 31.1304 31.3294 31.1304 30.6099C31.1304 29.8816 31.0459 29.2965 30.8768 28.8542C30.7177 28.4035 30.4392 28.178 30.0413 28.178C29.6833 28.178 29.4348 28.3472 29.2954 28.6853C29.1563 29.0234 29.0866 29.4743 29.0866 30.0376V31.1431C29.0866 31.6893 29.1563 32.1358 29.2954 32.4826C29.4348 32.8207 29.6833 32.9898 30.0413 32.9898Z" fill="black"/>
<path d="M36.5019 34.3421C35.9151 34.3421 35.4428 34.1687 35.0848 33.822C34.7366 33.4665 34.5625 32.9074 34.5625 32.1444V26.8906H36.6511V31.4162C36.6511 31.9363 36.7156 32.2962 36.8451 32.4957C36.9744 32.6862 37.1832 32.7817 37.4715 32.7817C37.8197 32.7817 38.1031 32.578 38.3218 32.1705C38.5407 31.7543 38.65 31.2383 38.65 30.6229V26.8906H40.7386V34.0951L38.7396 34.3163V32.6125C38.5806 33.2108 38.3021 33.6486 37.9042 33.9261C37.5063 34.2034 37.0389 34.3421 36.5019 34.3421Z" fill="black"/>
<path d="M44.7514 34.4201C43.9061 34.4201 43.2348 34.2165 42.7374 33.8089C42.2501 33.3927 41.9965 32.825 41.9766 32.1054L43.6923 31.9362C43.7221 32.3003 43.8364 32.5866 44.0353 32.7945C44.2441 32.9939 44.5128 33.0936 44.8408 33.0936C45.0996 33.0936 45.2983 33.0373 45.4377 32.9247C45.5869 32.8031 45.6615 32.6429 45.6615 32.4435C45.6615 32.2701 45.6066 32.1227 45.4972 32.0012C45.3879 31.8799 45.1939 31.7542 44.9154 31.6242L43.4983 30.9478C43.0408 30.7312 42.6877 30.4494 42.439 30.1027C42.1905 29.7557 42.0662 29.37 42.0662 28.9451C42.0662 28.5204 42.1804 28.1476 42.4092 27.8269C42.648 27.4972 42.9711 27.2415 43.3789 27.0594C43.7967 26.8687 44.2739 26.7734 44.811 26.7734C45.5967 26.7734 46.2182 26.9597 46.6757 27.3325C47.1433 27.7053 47.397 28.2168 47.4366 28.8672L45.7211 29.1663C45.6913 28.4554 45.3729 28.1 44.7664 28.1C44.5177 28.1 44.3286 28.1563 44.1993 28.2689C44.0701 28.3731 44.0055 28.5204 44.0055 28.7112C44.0055 28.8759 44.0602 29.0232 44.1695 29.1532C44.289 29.2834 44.4879 29.4134 44.7664 29.5433L46.0195 30.1416C46.5664 30.4016 46.9643 30.6965 47.2128 31.0259C47.4713 31.3466 47.6008 31.7281 47.6008 32.1704C47.6008 32.6124 47.4814 33.0026 47.2428 33.3406C47.004 33.679 46.6708 33.9434 46.2431 34.1341C45.8156 34.3246 45.3182 34.4201 44.7514 34.4201Z" fill="black"/>
</mask>
<g mask="url(#mask1_1419_3156)">
<path d="M14.1992 34.2252V27.1115L16.1982 26.9034V28.7112C16.3176 28.1476 16.5563 27.6838 16.9143 27.3196C17.2823 26.9555 17.695 26.7734 18.1525 26.7734C18.5404 26.7734 18.8288 26.8558 19.0177 27.0205L18.5702 28.789C18.3614 28.6591 18.1078 28.5941 17.8094 28.5941C17.3817 28.5941 17.0187 28.7848 16.7204 29.1663C16.4319 29.5478 16.2877 30.0593 16.2877 30.7007V34.2252H14.1992Z" stroke="#F8FAFA" stroke-width="0.226887"/>
</g>
<mask id="mask2_1419_3156" style="mask-type:luminance" maskUnits="userSpaceOnUse" x="6" y="24" width="42" height="11">
<path d="M47.7699 24.1069H6.00781V34.6648H47.7699V24.1069Z" fill="white"/>
<path d="M6.24219 34.2257V24.4722H8.8976C10.2203 24.4722 11.2198 24.7324 11.8961 25.2525C12.5823 25.764 12.9255 26.5225 12.9255 27.5283C12.9255 28.5426 12.5774 29.3229 11.8812 29.8691C11.195 30.4066 10.2004 30.6752 8.8976 30.6752H8.43512V34.2257H6.24219ZM8.43512 29.0888H9.06169C9.59873 29.0888 10.0115 28.9588 10.2999 28.6986C10.5883 28.4299 10.7325 28.0527 10.7325 27.5673C10.7325 26.5614 10.1756 26.0587 9.06169 26.0587H8.43512V29.0888Z" fill="black"/>
<path d="M14.1973 34.2252V27.1115L16.1963 26.9034V28.7112C16.3156 28.1476 16.5543 27.6838 16.9123 27.3196C17.2803 26.9555 17.6931 26.7734 18.1505 26.7734C18.5384 26.7734 18.8268 26.8558 19.0158 27.0205L18.5683 28.789C18.3594 28.6591 18.1058 28.5941 17.8074 28.5941C17.3798 28.5941 17.0168 28.7848 16.7184 29.1663C16.43 29.5478 16.2858 30.0593 16.2858 30.7007V34.2252H14.1973Z" fill="black"/>
<path d="M22.5005 34.3937C21.4961 34.3937 20.7152 34.0598 20.1585 33.3924C19.6114 32.7249 19.3379 31.7927 19.3379 30.5964C19.3379 29.8334 19.4572 29.1702 19.6959 28.6066C19.9445 28.0431 20.3025 27.6053 20.7701 27.2932C21.2474 26.9725 21.8243 26.812 22.5005 26.812C23.1769 26.812 23.7486 26.968 24.216 27.2803C24.6934 27.5924 25.0564 28.0302 25.3051 28.5937C25.5636 29.1573 25.6929 29.8247 25.6929 30.5964C25.6929 31.8014 25.4095 32.7378 24.8426 33.4055C24.2857 34.0643 23.5051 34.3937 22.5005 34.3937ZM22.5005 32.9893C22.7989 32.9893 23.0227 32.8722 23.1719 32.6381C23.331 32.3955 23.4354 32.0919 23.4851 31.7277C23.5349 31.3549 23.5598 30.9779 23.5598 30.5964C23.5598 30.3536 23.5447 30.0936 23.5149 29.8161C23.4851 29.5387 23.4354 29.2786 23.3657 29.0357C23.296 28.7931 23.1916 28.5979 23.0525 28.4506C22.9131 28.2946 22.7292 28.2164 22.5005 28.2164C22.2818 28.2164 22.1028 28.2946 21.9634 28.4506C21.8243 28.5979 21.7199 28.7931 21.6502 29.0357C21.5805 29.2786 21.5308 29.5387 21.501 29.8161C21.481 30.0849 21.4712 30.3449 21.4712 30.5964C21.4712 30.9779 21.4961 31.3549 21.5458 31.7277C21.5955 32.0919 21.695 32.3955 21.8442 32.6381C21.9932 32.8722 22.2121 32.9893 22.5005 32.9893Z" fill="black"/>
<path d="M30.6679 34.3943C30.1806 34.3943 29.7977 34.2859 29.5193 34.0691C29.2408 33.8438 29.0369 33.5707 28.9076 33.2498V34.2253H26.998V24.5628L29.0866 24.3418V27.5929C29.2558 27.3414 29.4794 27.142 29.7579 26.9946C30.0364 26.8473 30.3744 26.7736 30.7724 26.7736C31.6275 26.7736 32.2542 27.1204 32.6521 27.8139C33.0599 28.4988 33.2638 29.4264 33.2638 30.597C33.2638 31.3079 33.1741 31.9493 32.9951 32.5215C32.8161 33.0938 32.5327 33.5489 32.1449 33.887C31.7669 34.2253 31.2747 34.3943 30.6679 34.3943ZM30.0413 32.9898C30.4392 32.9898 30.7177 32.773 30.8768 32.3395C31.0459 31.9061 31.1304 31.3294 31.1304 30.6099C31.1304 29.8816 31.0459 29.2965 30.8768 28.8542C30.7177 28.4035 30.4392 28.178 30.0413 28.178C29.6833 28.178 29.4348 28.3472 29.2954 28.6853C29.1563 29.0234 29.0866 29.4743 29.0866 30.0376V31.1431C29.0866 31.6893 29.1563 32.1358 29.2954 32.4826C29.4348 32.8207 29.6833 32.9898 30.0413 32.9898Z" fill="black"/>
<path d="M36.5019 34.3421C35.9151 34.3421 35.4428 34.1687 35.0848 33.822C34.7366 33.4665 34.5625 32.9074 34.5625 32.1444V26.8906H36.6511V31.4162C36.6511 31.9363 36.7156 32.2962 36.8451 32.4957C36.9744 32.6862 37.1832 32.7817 37.4715 32.7817C37.8197 32.7817 38.1031 32.578 38.3218 32.1705C38.5407 31.7543 38.65 31.2383 38.65 30.6229V26.8906H40.7386V34.0951L38.7396 34.3163V32.6125C38.5806 33.2108 38.3021 33.6486 37.9042 33.9261C37.5063 34.2034 37.0389 34.3421 36.5019 34.3421Z" fill="black"/>
<path d="M44.7514 34.4201C43.9061 34.4201 43.2348 34.2165 42.7374 33.8089C42.2501 33.3927 41.9965 32.825 41.9766 32.1054L43.6923 31.9362C43.7221 32.3003 43.8364 32.5866 44.0353 32.7945C44.2441 32.9939 44.5128 33.0936 44.8408 33.0936C45.0996 33.0936 45.2983 33.0373 45.4377 32.9247C45.5869 32.8031 45.6615 32.6429 45.6615 32.4435C45.6615 32.2701 45.6066 32.1227 45.4972 32.0012C45.3879 31.8799 45.1939 31.7542 44.9154 31.6242L43.4983 30.9478C43.0408 30.7312 42.6877 30.4494 42.439 30.1027C42.1905 29.7557 42.0662 29.37 42.0662 28.9451C42.0662 28.5204 42.1804 28.1476 42.4092 27.8269C42.648 27.4972 42.9711 27.2415 43.3789 27.0594C43.7967 26.8687 44.2739 26.7734 44.811 26.7734C45.5967 26.7734 46.2182 26.9597 46.6757 27.3325C47.1433 27.7053 47.397 28.2168 47.4366 28.8672L45.7211 29.1663C45.6913 28.4554 45.3729 28.1 44.7664 28.1C44.5177 28.1 44.3286 28.1563 44.1993 28.2689C44.0701 28.3731 44.0055 28.5204 44.0055 28.7112C44.0055 28.8759 44.0602 29.0232 44.1695 29.1532C44.289 29.2834 44.4879 29.4134 44.7664 29.5433L46.0195 30.1416C46.5664 30.4016 46.9643 30.6965 47.2128 31.0259C47.4713 31.3466 47.6008 31.7281 47.6008 32.1704C47.6008 32.6124 47.4814 33.0026 47.2428 33.3406C47.004 33.679 46.6708 33.9434 46.2431 34.1341C45.8156 34.3246 45.3182 34.4201 44.7514 34.4201Z" fill="black"/>
</mask>
<g mask="url(#mask2_1419_3156)">
<path d="M22.5005 34.3937C21.4961 34.3937 20.7152 34.0598 20.1585 33.3924C19.6114 32.7249 19.3379 31.7927 19.3379 30.5964C19.3379 29.8334 19.4572 29.1702 19.6959 28.6066C19.9445 28.0431 20.3025 27.6053 20.7701 27.2932C21.2474 26.9725 21.8243 26.812 22.5005 26.812C23.1769 26.812 23.7486 26.968 24.216 27.2803C24.6934 27.5924 25.0564 28.0302 25.3051 28.5937C25.5636 29.1573 25.6929 29.8247 25.6929 30.5964C25.6929 31.8014 25.4095 32.7378 24.8426 33.4055C24.2857 34.0643 23.5051 34.3937 22.5005 34.3937ZM22.5005 32.9893C22.7989 32.9893 23.0227 32.8722 23.1719 32.6381C23.331 32.3955 23.4354 32.0919 23.4851 31.7277C23.5349 31.3549 23.5598 30.9779 23.5598 30.5964C23.5598 30.3536 23.5447 30.0936 23.5149 29.8161C23.4851 29.5387 23.4354 29.2786 23.3657 29.0357C23.296 28.7931 23.1916 28.5979 23.0525 28.4506C22.9131 28.2946 22.7292 28.2164 22.5005 28.2164C22.2818 28.2164 22.1028 28.2946 21.9634 28.4506C21.8243 28.5979 21.7199 28.7931 21.6502 29.0357C21.5805 29.2786 21.5308 29.5387 21.501 29.8161C21.481 30.0849 21.4712 30.3449 21.4712 30.5964C21.4712 30.9779 21.4961 31.3549 21.5458 31.7277C21.5955 32.0919 21.695 32.3955 21.8442 32.6381C21.9932 32.8722 22.2121 32.9893 22.5005 32.9893Z" stroke="#F8FAFA" stroke-width="0.226887"/>
</g>
<mask id="mask3_1419_3156" style="mask-type:luminance" maskUnits="userSpaceOnUse" x="6" y="24" width="42" height="11">
<path d="M47.7699 24.1069H6.00781V34.6648H47.7699V24.1069Z" fill="white"/>
<path d="M6.24219 34.2257V24.4722H8.8976C10.2203 24.4722 11.2198 24.7324 11.8961 25.2525C12.5823 25.764 12.9255 26.5225 12.9255 27.5283C12.9255 28.5426 12.5774 29.3229 11.8812 29.8691C11.195 30.4066 10.2004 30.6752 8.8976 30.6752H8.43512V34.2257H6.24219ZM8.43512 29.0888H9.06169C9.59873 29.0888 10.0115 28.9588 10.2999 28.6986C10.5883 28.4299 10.7325 28.0527 10.7325 27.5673C10.7325 26.5614 10.1756 26.0587 9.06169 26.0587H8.43512V29.0888Z" fill="black"/>
<path d="M14.1973 34.2252V27.1115L16.1963 26.9034V28.7112C16.3156 28.1476 16.5543 27.6838 16.9123 27.3196C17.2803 26.9555 17.6931 26.7734 18.1505 26.7734C18.5384 26.7734 18.8268 26.8558 19.0158 27.0205L18.5683 28.789C18.3594 28.6591 18.1058 28.5941 17.8074 28.5941C17.3798 28.5941 17.0168 28.7848 16.7184 29.1663C16.43 29.5478 16.2858 30.0593 16.2858 30.7007V34.2252H14.1973Z" fill="black"/>
<path d="M22.5005 34.3937C21.4961 34.3937 20.7152 34.0598 20.1585 33.3924C19.6114 32.7249 19.3379 31.7927 19.3379 30.5964C19.3379 29.8334 19.4572 29.1702 19.6959 28.6066C19.9445 28.0431 20.3025 27.6053 20.7701 27.2932C21.2474 26.9725 21.8243 26.812 22.5005 26.812C23.1769 26.812 23.7486 26.968 24.216 27.2803C24.6934 27.5924 25.0564 28.0302 25.3051 28.5937C25.5636 29.1573 25.6929 29.8247 25.6929 30.5964C25.6929 31.8014 25.4095 32.7378 24.8426 33.4055C24.2857 34.0643 23.5051 34.3937 22.5005 34.3937ZM22.5005 32.9893C22.7989 32.9893 23.0227 32.8722 23.1719 32.6381C23.331 32.3955 23.4354 32.0919 23.4851 31.7277C23.5349 31.3549 23.5598 30.9779 23.5598 30.5964C23.5598 30.3536 23.5447 30.0936 23.5149 29.8161C23.4851 29.5387 23.4354 29.2786 23.3657 29.0357C23.296 28.7931 23.1916 28.5979 23.0525 28.4506C22.9131 28.2946 22.7292 28.2164 22.5005 28.2164C22.2818 28.2164 22.1028 28.2946 21.9634 28.4506C21.8243 28.5979 21.7199 28.7931 21.6502 29.0357C21.5805 29.2786 21.5308 29.5387 21.501 29.8161C21.481 30.0849 21.4712 30.3449 21.4712 30.5964C21.4712 30.9779 21.4961 31.3549 21.5458 31.7277C21.5955 32.0919 21.695 32.3955 21.8442 32.6381C21.9932 32.8722 22.2121 32.9893 22.5005 32.9893Z" fill="black"/>
<path d="M30.6679 34.3943C30.1806 34.3943 29.7977 34.2859 29.5193 34.0691C29.2408 33.8438 29.0369 33.5707 28.9076 33.2498V34.2253H26.998V24.5628L29.0866 24.3418V27.5929C29.2558 27.3414 29.4794 27.142 29.7579 26.9946C30.0364 26.8473 30.3744 26.7736 30.7724 26.7736C31.6275 26.7736 32.2542 27.1204 32.6521 27.8139C33.0599 28.4988 33.2638 29.4264 33.2638 30.597C33.2638 31.3079 33.1741 31.9493 32.9951 32.5215C32.8161 33.0938 32.5327 33.5489 32.1449 33.887C31.7669 34.2253 31.2747 34.3943 30.6679 34.3943ZM30.0413 32.9898C30.4392 32.9898 30.7177 32.773 30.8768 32.3395C31.0459 31.9061 31.1304 31.3294 31.1304 30.6099C31.1304 29.8816 31.0459 29.2965 30.8768 28.8542C30.7177 28.4035 30.4392 28.178 30.0413 28.178C29.6833 28.178 29.4348 28.3472 29.2954 28.6853C29.1563 29.0234 29.0866 29.4743 29.0866 30.0376V31.1431C29.0866 31.6893 29.1563 32.1358 29.2954 32.4826C29.4348 32.8207 29.6833 32.9898 30.0413 32.9898Z" fill="black"/>
<path d="M36.5019 34.3421C35.9151 34.3421 35.4428 34.1687 35.0848 33.822C34.7366 33.4665 34.5625 32.9074 34.5625 32.1444V26.8906H36.6511V31.4162C36.6511 31.9363 36.7156 32.2962 36.8451 32.4957C36.9744 32.6862 37.1832 32.7817 37.4715 32.7817C37.8197 32.7817 38.1031 32.578 38.3218 32.1705C38.5407 31.7543 38.65 31.2383 38.65 30.6229V26.8906H40.7386V34.0951L38.7396 34.3163V32.6125C38.5806 33.2108 38.3021 33.6486 37.9042 33.9261C37.5063 34.2034 37.0389 34.3421 36.5019 34.3421Z" fill="black"/>
<path d="M44.7514 34.4201C43.9061 34.4201 43.2348 34.2165 42.7374 33.8089C42.2501 33.3927 41.9965 32.825 41.9766 32.1054L43.6923 31.9362C43.7221 32.3003 43.8364 32.5866 44.0353 32.7945C44.2441 32.9939 44.5128 33.0936 44.8408 33.0936C45.0996 33.0936 45.2983 33.0373 45.4377 32.9247C45.5869 32.8031 45.6615 32.6429 45.6615 32.4435C45.6615 32.2701 45.6066 32.1227 45.4972 32.0012C45.3879 31.8799 45.1939 31.7542 44.9154 31.6242L43.4983 30.9478C43.0408 30.7312 42.6877 30.4494 42.439 30.1027C42.1905 29.7557 42.0662 29.37 42.0662 28.9451C42.0662 28.5204 42.1804 28.1476 42.4092 27.8269C42.648 27.4972 42.9711 27.2415 43.3789 27.0594C43.7967 26.8687 44.2739 26.7734 44.811 26.7734C45.5967 26.7734 46.2182 26.9597 46.6757 27.3325C47.1433 27.7053 47.397 28.2168 47.4366 28.8672L45.7211 29.1663C45.6913 28.4554 45.3729 28.1 44.7664 28.1C44.5177 28.1 44.3286 28.1563 44.1993 28.2689C44.0701 28.3731 44.0055 28.5204 44.0055 28.7112C44.0055 28.8759 44.0602 29.0232 44.1695 29.1532C44.289 29.2834 44.4879 29.4134 44.7664 29.5433L46.0195 30.1416C46.5664 30.4016 46.9643 30.6965 47.2128 31.0259C47.4713 31.3466 47.6008 31.7281 47.6008 32.1704C47.6008 32.6124 47.4814 33.0026 47.2428 33.3406C47.004 33.679 46.6708 33.9434 46.2431 34.1341C45.8156 34.3246 45.3182 34.4201 44.7514 34.4201Z" fill="black"/>
</mask>
<g mask="url(#mask3_1419_3156)">
<path d="M30.6679 34.3943C30.1806 34.3943 29.7977 34.2859 29.5193 34.0691C29.2408 33.8438 29.0369 33.5707 28.9076 33.2498V34.2253H26.998V24.5628L29.0866 24.3418V27.5929C29.2558 27.3414 29.4794 27.142 29.7579 26.9946C30.0364 26.8473 30.3744 26.7736 30.7724 26.7736C31.6275 26.7736 32.2542 27.1204 32.6521 27.8139C33.0599 28.4988 33.2638 29.4264 33.2638 30.597C33.2638 31.3079 33.1741 31.9493 32.9951 32.5215C32.8161 33.0938 32.5327 33.5489 32.1449 33.887C31.7669 34.2253 31.2747 34.3943 30.6679 34.3943ZM30.0413 32.9898C30.4392 32.9898 30.7177 32.773 30.8768 32.3395C31.0459 31.9061 31.1304 31.3294 31.1304 30.6099C31.1304 29.8816 31.0459 29.2965 30.8768 28.8542C30.7177 28.4035 30.4392 28.178 30.0413 28.178C29.6833 28.178 29.4348 28.3472 29.2954 28.6853C29.1563 29.0234 29.0866 29.4743 29.0866 30.0376V31.1432C29.0866 31.6893 29.1563 32.1358 29.2954 32.4826C29.4348 32.8207 29.6833 32.9898 30.0413 32.9898Z" stroke="#F8FAFA" stroke-width="0.226887"/>
</g>
<mask id="mask4_1419_3156" style="mask-type:luminance" maskUnits="userSpaceOnUse" x="6" y="24" width="42" height="11">
<path d="M47.7699 24.1069H6.00781V34.6648H47.7699V24.1069Z" fill="white"/>
<path d="M6.24219 34.2257V24.4722H8.8976C10.2203 24.4722 11.2198 24.7324 11.8961 25.2525C12.5823 25.764 12.9255 26.5225 12.9255 27.5283C12.9255 28.5426 12.5774 29.3229 11.8812 29.8691C11.195 30.4066 10.2004 30.6752 8.8976 30.6752H8.43512V34.2257H6.24219ZM8.43512 29.0888H9.06169C9.59873 29.0888 10.0115 28.9588 10.2999 28.6986C10.5883 28.4299 10.7325 28.0527 10.7325 27.5673C10.7325 26.5614 10.1756 26.0587 9.06169 26.0587H8.43512V29.0888Z" fill="black"/>
<path d="M14.1973 34.2252V27.1115L16.1963 26.9034V28.7112C16.3156 28.1476 16.5543 27.6838 16.9123 27.3196C17.2803 26.9555 17.6931 26.7734 18.1505 26.7734C18.5384 26.7734 18.8268 26.8558 19.0158 27.0205L18.5683 28.789C18.3594 28.6591 18.1058 28.5941 17.8074 28.5941C17.3798 28.5941 17.0168 28.7848 16.7184 29.1663C16.43 29.5478 16.2858 30.0593 16.2858 30.7007V34.2252H14.1973Z" fill="black"/>
<path d="M22.5005 34.3937C21.4961 34.3937 20.7152 34.0598 20.1585 33.3924C19.6114 32.7249 19.3379 31.7927 19.3379 30.5964C19.3379 29.8334 19.4572 29.1702 19.6959 28.6066C19.9445 28.0431 20.3025 27.6053 20.7701 27.2932C21.2474 26.9725 21.8243 26.812 22.5005 26.812C23.1769 26.812 23.7486 26.968 24.216 27.2803C24.6934 27.5924 25.0564 28.0302 25.3051 28.5937C25.5636 29.1573 25.6929 29.8247 25.6929 30.5964C25.6929 31.8014 25.4095 32.7378 24.8426 33.4055C24.2857 34.0643 23.5051 34.3937 22.5005 34.3937ZM22.5005 32.9893C22.7989 32.9893 23.0227 32.8722 23.1719 32.6381C23.331 32.3955 23.4354 32.0919 23.4851 31.7277C23.5349 31.3549 23.5598 30.9779 23.5598 30.5964C23.5598 30.3536 23.5447 30.0936 23.5149 29.8161C23.4851 29.5387 23.4354 29.2786 23.3657 29.0357C23.296 28.7931 23.1916 28.5979 23.0525 28.4506C22.9131 28.2946 22.7292 28.2164 22.5005 28.2164C22.2818 28.2164 22.1028 28.2946 21.9634 28.4506C21.8243 28.5979 21.7199 28.7931 21.6502 29.0357C21.5805 29.2786 21.5308 29.5387 21.501 29.8161C21.481 30.0849 21.4712 30.3449 21.4712 30.5964C21.4712 30.9779 21.4961 31.3549 21.5458 31.7277C21.5955 32.0919 21.695 32.3955 21.8442 32.6381C21.9932 32.8722 22.2121 32.9893 22.5005 32.9893Z" fill="black"/>
<path d="M30.6679 34.3943C30.1806 34.3943 29.7977 34.2859 29.5193 34.0691C29.2408 33.8438 29.0369 33.5707 28.9076 33.2498V34.2253H26.998V24.5628L29.0866 24.3418V27.5929C29.2558 27.3414 29.4794 27.142 29.7579 26.9946C30.0364 26.8473 30.3744 26.7736 30.7724 26.7736C31.6275 26.7736 32.2542 27.1204 32.6521 27.8139C33.0599 28.4988 33.2638 29.4264 33.2638 30.597C33.2638 31.3079 33.1741 31.9493 32.9951 32.5215C32.8161 33.0938 32.5327 33.5489 32.1449 33.887C31.7669 34.2253 31.2747 34.3943 30.6679 34.3943ZM30.0413 32.9898C30.4392 32.9898 30.7177 32.773 30.8768 32.3395C31.0459 31.9061 31.1304 31.3294 31.1304 30.6099C31.1304 29.8816 31.0459 29.2965 30.8768 28.8542C30.7177 28.4035 30.4392 28.178 30.0413 28.178C29.6833 28.178 29.4348 28.3472 29.2954 28.6853C29.1563 29.0234 29.0866 29.4743 29.0866 30.0376V31.1431C29.0866 31.6893 29.1563 32.1358 29.2954 32.4826C29.4348 32.8207 29.6833 32.9898 30.0413 32.9898Z" fill="black"/>
<path d="M36.5019 34.3421C35.9151 34.3421 35.4428 34.1687 35.0848 33.822C34.7366 33.4665 34.5625 32.9074 34.5625 32.1444V26.8906H36.6511V31.4162C36.6511 31.9363 36.7156 32.2962 36.8451 32.4957C36.9744 32.6862 37.1832 32.7817 37.4715 32.7817C37.8197 32.7817 38.1031 32.578 38.3218 32.1705C38.5407 31.7543 38.65 31.2383 38.65 30.6229V26.8906H40.7386V34.0951L38.7396 34.3163V32.6125C38.5806 33.2108 38.3021 33.6486 37.9042 33.9261C37.5063 34.2034 37.0389 34.3421 36.5019 34.3421Z" fill="black"/>
<path d="M44.7514 34.4201C43.9061 34.4201 43.2348 34.2165 42.7374 33.8089C42.2501 33.3927 41.9965 32.825 41.9766 32.1054L43.6923 31.9362C43.7221 32.3003 43.8364 32.5866 44.0353 32.7945C44.2441 32.9939 44.5128 33.0936 44.8408 33.0936C45.0996 33.0936 45.2983 33.0373 45.4377 32.9247C45.5869 32.8031 45.6615 32.6429 45.6615 32.4435C45.6615 32.2701 45.6066 32.1227 45.4972 32.0012C45.3879 31.8799 45.1939 31.7542 44.9154 31.6242L43.4983 30.9478C43.0408 30.7312 42.6877 30.4494 42.439 30.1027C42.1905 29.7557 42.0662 29.37 42.0662 28.9451C42.0662 28.5204 42.1804 28.1476 42.4092 27.8269C42.648 27.4972 42.9711 27.2415 43.3789 27.0594C43.7967 26.8687 44.2739 26.7734 44.811 26.7734C45.5967 26.7734 46.2182 26.9597 46.6757 27.3325C47.1433 27.7053 47.397 28.2168 47.4366 28.8672L45.7211 29.1663C45.6913 28.4554 45.3729 28.1 44.7664 28.1C44.5177 28.1 44.3286 28.1563 44.1993 28.2689C44.0701 28.3731 44.0055 28.5204 44.0055 28.7112C44.0055 28.8759 44.0602 29.0232 44.1695 29.1532C44.289 29.2834 44.4879 29.4134 44.7664 29.5433L46.0195 30.1416C46.5664 30.4016 46.9643 30.6965 47.2128 31.0259C47.4713 31.3466 47.6008 31.7281 47.6008 32.1704C47.6008 32.6124 47.4814 33.0026 47.2428 33.3406C47.004 33.679 46.6708 33.9434 46.2431 34.1341C45.8156 34.3246 45.3182 34.4201 44.7514 34.4201Z" fill="black"/>
</mask>
<g mask="url(#mask4_1419_3156)">
<path d="M36.5019 34.3421C35.9151 34.3421 35.4428 34.1687 35.0848 33.822C34.7366 33.4665 34.5625 32.9074 34.5625 32.1444V26.8906H36.6511V31.4162C36.6511 31.9363 36.7156 32.2962 36.8451 32.4957C36.9744 32.6862 37.1832 32.7817 37.4715 32.7817C37.8197 32.7817 38.1031 32.578 38.3218 32.1705C38.5407 31.7543 38.65 31.2383 38.65 30.6229V26.8906H40.7386V34.0951L38.7396 34.3163V32.6125C38.5806 33.2108 38.3021 33.6486 37.9042 33.9261C37.5063 34.2034 37.0389 34.3421 36.5019 34.3421Z" stroke="#F8FAFA" stroke-width="0.226887"/>
</g>
<mask id="mask5_1419_3156" style="mask-type:luminance" maskUnits="userSpaceOnUse" x="6" y="24" width="42" height="11">
<path d="M47.7699 24.1069H6.00781V34.6648H47.7699V24.1069Z" fill="white"/>
<path d="M6.24219 34.2257V24.4722H8.8976C10.2203 24.4722 11.2198 24.7324 11.8961 25.2525C12.5823 25.764 12.9255 26.5225 12.9255 27.5283C12.9255 28.5426 12.5774 29.3229 11.8812 29.8691C11.195 30.4066 10.2004 30.6752 8.8976 30.6752H8.43512V34.2257H6.24219ZM8.43512 29.0888H9.06169C9.59873 29.0888 10.0115 28.9588 10.2999 28.6986C10.5883 28.4299 10.7325 28.0527 10.7325 27.5673C10.7325 26.5614 10.1756 26.0587 9.06169 26.0587H8.43512V29.0888Z" fill="black"/>
<path d="M14.1973 34.2252V27.1115L16.1963 26.9034V28.7112C16.3156 28.1476 16.5543 27.6838 16.9123 27.3196C17.2803 26.9555 17.6931 26.7734 18.1505 26.7734C18.5384 26.7734 18.8268 26.8558 19.0158 27.0205L18.5683 28.789C18.3594 28.6591 18.1058 28.5941 17.8074 28.5941C17.3798 28.5941 17.0168 28.7848 16.7184 29.1663C16.43 29.5478 16.2858 30.0593 16.2858 30.7007V34.2252H14.1973Z" fill="black"/>
<path d="M22.5005 34.3937C21.4961 34.3937 20.7152 34.0598 20.1585 33.3924C19.6114 32.7249 19.3379 31.7927 19.3379 30.5964C19.3379 29.8334 19.4572 29.1702 19.6959 28.6066C19.9445 28.0431 20.3025 27.6053 20.7701 27.2932C21.2474 26.9725 21.8243 26.812 22.5005 26.812C23.1769 26.812 23.7486 26.968 24.216 27.2803C24.6934 27.5924 25.0564 28.0302 25.3051 28.5937C25.5636 29.1573 25.6929 29.8247 25.6929 30.5964C25.6929 31.8014 25.4095 32.7378 24.8426 33.4055C24.2857 34.0643 23.5051 34.3937 22.5005 34.3937ZM22.5005 32.9893C22.7989 32.9893 23.0227 32.8722 23.1719 32.6381C23.331 32.3955 23.4354 32.0919 23.4851 31.7277C23.5349 31.3549 23.5598 30.9779 23.5598 30.5964C23.5598 30.3536 23.5447 30.0936 23.5149 29.8161C23.4851 29.5387 23.4354 29.2786 23.3657 29.0357C23.296 28.7931 23.1916 28.5979 23.0525 28.4506C22.9131 28.2946 22.7292 28.2164 22.5005 28.2164C22.2818 28.2164 22.1028 28.2946 21.9634 28.4506C21.8243 28.5979 21.7199 28.7931 21.6502 29.0357C21.5805 29.2786 21.5308 29.5387 21.501 29.8161C21.481 30.0849 21.4712 30.3449 21.4712 30.5964C21.4712 30.9779 21.4961 31.3549 21.5458 31.7277C21.5955 32.0919 21.695 32.3955 21.8442 32.6381C21.9932 32.8722 22.2121 32.9893 22.5005 32.9893Z" fill="black"/>
<path d="M30.6679 34.3943C30.1806 34.3943 29.7977 34.2859 29.5193 34.0691C29.2408 33.8438 29.0369 33.5707 28.9076 33.2498V34.2253H26.998V24.5628L29.0866 24.3418V27.5929C29.2558 27.3414 29.4794 27.142 29.7579 26.9946C30.0364 26.8473 30.3744 26.7736 30.7724 26.7736C31.6275 26.7736 32.2542 27.1204 32.6521 27.8139C33.0599 28.4988 33.2638 29.4264 33.2638 30.597C33.2638 31.3079 33.1741 31.9493 32.9951 32.5215C32.8161 33.0938 32.5327 33.5489 32.1449 33.887C31.7669 34.2253 31.2747 34.3943 30.6679 34.3943ZM30.0413 32.9898C30.4392 32.9898 30.7177 32.773 30.8768 32.3395C31.0459 31.9061 31.1304 31.3294 31.1304 30.6099C31.1304 29.8816 31.0459 29.2965 30.8768 28.8542C30.7177 28.4035 30.4392 28.178 30.0413 28.178C29.6833 28.178 29.4348 28.3472 29.2954 28.6853C29.1563 29.0234 29.0866 29.4743 29.0866 30.0376V31.1431C29.0866 31.6893 29.1563 32.1358 29.2954 32.4826C29.4348 32.8207 29.6833 32.9898 30.0413 32.9898Z" fill="black"/>
<path d="M36.5019 34.3421C35.9151 34.3421 35.4428 34.1687 35.0848 33.822C34.7366 33.4665 34.5625 32.9074 34.5625 32.1444V26.8906H36.6511V31.4162C36.6511 31.9363 36.7156 32.2962 36.8451 32.4957C36.9744 32.6862 37.1832 32.7817 37.4715 32.7817C37.8197 32.7817 38.1031 32.578 38.3218 32.1705C38.5407 31.7543 38.65 31.2383 38.65 30.6229V26.8906H40.7386V34.0951L38.7396 34.3163V32.6125C38.5806 33.2108 38.3021 33.6486 37.9042 33.9261C37.5063 34.2034 37.0389 34.3421 36.5019 34.3421Z" fill="black"/>
<path d="M44.7514 34.4201C43.9061 34.4201 43.2348 34.2165 42.7374 33.8089C42.2501 33.3927 41.9965 32.825 41.9766 32.1054L43.6923 31.9362C43.7221 32.3003 43.8364 32.5866 44.0353 32.7945C44.2441 32.9939 44.5128 33.0936 44.8408 33.0936C45.0996 33.0936 45.2983 33.0373 45.4377 32.9247C45.5869 32.8031 45.6615 32.6429 45.6615 32.4435C45.6615 32.2701 45.6066 32.1227 45.4972 32.0012C45.3879 31.8799 45.1939 31.7542 44.9154 31.6242L43.4983 30.9478C43.0408 30.7312 42.6877 30.4494 42.439 30.1027C42.1905 29.7557 42.0662 29.37 42.0662 28.9451C42.0662 28.5204 42.1804 28.1476 42.4092 27.8269C42.648 27.4972 42.9711 27.2415 43.3789 27.0594C43.7967 26.8687 44.2739 26.7734 44.811 26.7734C45.5967 26.7734 46.2182 26.9597 46.6757 27.3325C47.1433 27.7053 47.397 28.2168 47.4366 28.8672L45.7211 29.1663C45.6913 28.4554 45.3729 28.1 44.7664 28.1C44.5177 28.1 44.3286 28.1563 44.1993 28.2689C44.0701 28.3731 44.0055 28.5204 44.0055 28.7112C44.0055 28.8759 44.0602 29.0232 44.1695 29.1532C44.289 29.2834 44.4879 29.4134 44.7664 29.5433L46.0195 30.1416C46.5664 30.4016 46.9643 30.6965 47.2128 31.0259C47.4713 31.3466 47.6008 31.7281 47.6008 32.1704C47.6008 32.6124 47.4814 33.0026 47.2428 33.3406C47.004 33.679 46.6708 33.9434 46.2431 34.1341C45.8156 34.3246 45.3182 34.4201 44.7514 34.4201Z" fill="black"/>
</mask>
<g mask="url(#mask5_1419_3156)">
<path d="M44.7514 34.4201C43.9061 34.4201 43.2348 34.2165 42.7374 33.8089C42.2501 33.3927 41.9965 32.825 41.9766 32.1054L43.6923 31.9362C43.7221 32.3003 43.8364 32.5866 44.0353 32.7945C44.2441 32.9939 44.5128 33.0936 44.8408 33.0936C45.0996 33.0936 45.2983 33.0373 45.4377 32.9247C45.5869 32.8031 45.6615 32.6429 45.6615 32.4435C45.6615 32.2701 45.6066 32.1227 45.4972 32.0012C45.3879 31.8799 45.1939 31.7542 44.9154 31.6242L43.4983 30.9478C43.0408 30.7312 42.6877 30.4494 42.439 30.1027C42.1905 29.7557 42.0662 29.37 42.0662 28.9451C42.0662 28.5204 42.1804 28.1476 42.4092 27.8269C42.648 27.4972 42.9711 27.2415 43.3789 27.0594C43.7967 26.8687 44.2739 26.7734 44.811 26.7734C45.5967 26.7734 46.2182 26.9597 46.6757 27.3325C47.1433 27.7053 47.397 28.2168 47.4366 28.8672L45.7211 29.1663C45.6913 28.4554 45.3729 28.1 44.7664 28.1C44.5177 28.1 44.3286 28.1563 44.1993 28.2689C44.0701 28.3731 44.0055 28.5204 44.0055 28.7112C44.0055 28.8759 44.0602 29.0232 44.1695 29.1532C44.289 29.2834 44.4879 29.4134 44.7664 29.5433L46.0195 30.1416C46.5664 30.4016 46.9643 30.6965 47.2128 31.0259C47.4713 31.3466 47.6008 31.7281 47.6008 32.1704C47.6008 32.6124 47.4814 33.0026 47.2428 33.3406C47.004 33.679 46.6708 33.9434 46.2431 34.1341C45.8156 34.3246 45.3182 34.4201 44.7514 34.4201Z" stroke="#F8FAFA" stroke-width="0.226887"/>
</g>
<path d="M0.798828 0.245605H6.12774V19.3022L0.798828 24.805V0.245605Z" fill="#F8FAFA"/>
<path d="M16.0918 5.69035V0.245605L5.31814 0.245605V5.69035L16.0918 5.69035Z" fill="#F8FAFA"/>
<path d="M15.8599 13.9155V19.3603L6.12891 19.3023L11.5737 13.9155H15.8599Z" fill="#F8FAFA"/>
<path d="M15.5703 0.245605C18.1051 0.245605 20.5359 1.25253 22.3284 3.04486C24.1206 4.83721 25.1276 7.26813 25.1276 9.80288C25.1276 12.3376 24.1206 14.7686 22.3284 16.5609C20.5359 18.3532 18.1051 19.3602 15.5703 19.3602V13.9074C16.6589 13.9074 17.7029 13.475 18.4726 12.7052C19.2424 11.9355 19.6748 10.8915 19.6748 9.80288C19.6748 8.7143 19.2424 7.67029 18.4726 6.90053C17.7029 6.1308 16.6589 5.69835 15.5703 5.69835V0.245605Z" fill="#F8FAFA"/>
<mask id="mask6_1419_3156" style="mask-type:alpha" maskUnits="userSpaceOnUse" x="5" y="35" width="19" height="4">
<path d="M6.13522 37.697H5.82227L6.52546 35.7429H6.86608L7.56928 37.697H7.25632L6.70389 36.0979H6.68862L6.13522 37.697ZM6.18771 36.9317H7.2029V37.1797H6.18771V36.9317ZM8.27426 37.7294C8.1814 37.7294 8.09743 37.7123 8.02238 37.6778C7.94732 37.6429 7.88785 37.5924 7.84395 37.5262C7.80071 37.4601 7.77908 37.3789 7.77908 37.2829C7.77908 37.2001 7.79498 37.1321 7.82678 37.0786C7.85859 37.0253 7.90152 36.9829 7.95558 36.9517C8.00966 36.9207 8.0701 36.897 8.13687 36.881C8.20367 36.8653 8.27173 36.8531 8.34106 36.8449C8.42883 36.8348 8.50008 36.8264 8.5548 36.82C8.60949 36.813 8.64925 36.802 8.67405 36.7867C8.69885 36.7715 8.71126 36.7466 8.71126 36.7124V36.7056C8.71126 36.6223 8.68773 36.5577 8.64067 36.512C8.59424 36.466 8.52488 36.4432 8.43265 36.4432C8.3366 36.4432 8.26091 36.4646 8.20557 36.5071C8.15088 36.5491 8.11303 36.596 8.09204 36.6474L7.82391 36.5864C7.85573 36.4972 7.90216 36.4254 7.96323 36.3708C8.02493 36.3154 8.09586 36.2753 8.176 36.2504C8.25615 36.2251 8.34043 36.2124 8.42883 36.2124C8.48737 36.2124 8.54938 36.2194 8.61491 36.2333C8.68104 36.2466 8.74275 36.2715 8.8 36.3076C8.85788 36.344 8.90527 36.3959 8.94218 36.4632C8.97906 36.5301 8.9975 36.6169 8.9975 36.7236V37.697H8.71889V37.4967H8.70744C8.689 37.5335 8.66134 37.5696 8.62443 37.6053C8.58755 37.641 8.54016 37.6705 8.48228 37.694C8.4244 37.7177 8.35507 37.7294 8.27426 37.7294ZM8.3363 37.5004C8.41518 37.5004 8.48258 37.4847 8.53856 37.4537C8.59517 37.4225 8.63811 37.3817 8.66737 37.3315C8.69728 37.2806 8.71223 37.2262 8.71223 37.1685V36.9794C8.70204 36.9897 8.68231 36.9991 8.65305 37.008C8.62443 37.0164 8.59168 37.0237 8.5548 37.03C8.51789 37.0357 8.48195 37.0411 8.44697 37.0462C8.41198 37.0507 8.38273 37.0544 8.35919 37.0577C8.30385 37.0648 8.25329 37.0765 8.20749 37.0929C8.16233 37.1096 8.12605 37.1333 8.09872 37.1645C8.072 37.195 8.05865 37.2358 8.05865 37.2867C8.05865 37.3573 8.08472 37.4108 8.13687 37.4469C8.18903 37.4826 8.25552 37.5004 8.3363 37.5004ZM9.39668 38.2465V36.2314H9.67529V36.4691H9.69915C9.71569 36.4386 9.73955 36.4031 9.77071 36.363C9.80189 36.3229 9.84513 36.2879 9.90047 36.2581C9.95582 36.2276 10.029 36.2124 10.1199 36.2124C10.2382 36.2124 10.3438 36.2422 10.4367 36.302C10.5296 36.3618 10.6024 36.4479 10.6552 36.5606C10.7086 36.6732 10.7353 36.8085 10.7353 36.9669C10.7353 37.1255 10.7089 37.2611 10.6562 37.3744C10.6033 37.4871 10.5308 37.5739 10.4386 37.6349C10.3464 37.6954 10.2411 37.7257 10.1228 37.7257C10.0337 37.7257 9.96089 37.7107 9.9043 37.6806C9.84832 37.6508 9.80442 37.6159 9.77261 37.5758C9.74082 37.5356 9.71632 37.5 9.69915 37.469H9.68197V38.2465H9.39668ZM9.67625 36.9641C9.67625 37.0673 9.69119 37.1574 9.72109 37.2351C9.751 37.3127 9.79424 37.3735 9.85085 37.4174C9.90747 37.4606 9.9768 37.4824 10.0589 37.4824C10.1441 37.4824 10.2153 37.4596 10.2726 37.4146C10.3298 37.3688 10.3731 37.3066 10.4023 37.2285C10.4322 37.1502 10.4472 37.0622 10.4472 36.9641C10.4472 36.8674 10.4326 36.7806 10.4033 36.7037C10.3747 36.6267 10.3314 36.566 10.2735 36.5214C10.2163 36.477 10.1447 36.4547 10.0589 36.4547C9.97616 36.4547 9.9062 36.4759 9.84895 36.5186C9.79234 36.5613 9.7494 36.6206 9.72015 36.6971C9.69089 36.7734 9.67625 36.8625 9.67625 36.9641ZM11.3366 37.1999L11.3346 36.8515H11.3843L11.9682 36.2314H12.3098L11.6438 36.9374H11.5989L11.3366 37.1999ZM11.0742 37.697V35.7429H11.3594V37.697H11.0742ZM11.9997 37.697L11.4749 37.0005L11.6715 36.801L12.3498 37.697H11.9997ZM13.0155 37.7294C12.9226 37.7294 12.8386 37.7123 12.7636 37.6778C12.6885 37.6429 12.629 37.5924 12.5852 37.5262C12.5419 37.4601 12.5203 37.3789 12.5203 37.2829C12.5203 37.2001 12.5362 37.1321 12.568 37.0786C12.5998 37.0253 12.6427 36.9829 12.6968 36.9517C12.7509 36.9207 12.8113 36.897 12.8781 36.881C12.9449 36.8653 13.0129 36.8531 13.0823 36.8449C13.17 36.8348 13.2413 36.8264 13.296 36.82C13.3507 36.813 13.3904 36.802 13.4152 36.7867C13.4401 36.7715 13.4525 36.7466 13.4525 36.7124V36.7056C13.4525 36.6223 13.4289 36.5577 13.3819 36.512C13.3354 36.466 13.2661 36.4432 13.1739 36.4432C13.0778 36.4432 13.0021 36.4646 12.9468 36.5071C12.8921 36.5491 12.8542 36.596 12.8332 36.6474L12.5651 36.5864C12.5969 36.4972 12.6434 36.4254 12.7044 36.3708C12.7661 36.3154 12.8371 36.2753 12.9172 36.2504C12.9973 36.2251 13.0816 36.2124 13.17 36.2124C13.2286 36.2124 13.2906 36.2194 13.3561 36.2333C13.4223 36.2466 13.4839 36.2715 13.5412 36.3076C13.5991 36.344 13.6465 36.3959 13.6834 36.4632C13.7203 36.5301 13.7387 36.6169 13.7387 36.7236V37.697H13.4601V37.4967H13.4487C13.4302 37.5335 13.4025 37.5696 13.3656 37.6053C13.3287 37.641 13.2814 37.6705 13.2235 37.694C13.1656 37.7177 13.0963 37.7294 13.0155 37.7294ZM13.0775 37.5004C13.1564 37.5004 13.2238 37.4847 13.2798 37.4537C13.3364 37.4225 13.3793 37.3817 13.4086 37.3315C13.4385 37.2806 13.4534 37.2262 13.4534 37.1685V36.9794C13.4432 36.9897 13.4235 36.9991 13.3943 37.008C13.3656 37.0164 13.3329 37.0237 13.296 37.03C13.2591 37.0357 13.2232 37.0411 13.1882 37.0462C13.1532 37.0507 13.1239 37.0544 13.1004 37.0577C13.045 37.0648 12.9945 37.0765 12.9487 37.0929C12.9035 37.1096 12.8673 37.1333 12.8399 37.1645C12.8132 37.195 12.7998 37.2358 12.7998 37.2867C12.7998 37.3573 12.8259 37.4108 12.8781 37.4469C12.9302 37.4826 12.9967 37.5004 13.0775 37.5004ZM15.9568 36.2563C15.9466 36.1659 15.9047 36.096 15.8309 36.0463C15.7571 35.9961 15.6642 35.971 15.5523 35.971C15.4721 35.971 15.4028 35.9836 15.3443 36.009C15.2857 36.0338 15.2403 36.0683 15.2078 36.1122C15.176 36.1554 15.1601 36.2046 15.1601 36.26C15.1601 36.3065 15.1709 36.3466 15.1926 36.3801C15.2148 36.4139 15.2438 36.4423 15.2794 36.4651C15.3157 36.4874 15.3544 36.5061 15.3958 36.5214C15.4371 36.5362 15.4769 36.5481 15.5151 36.5577L15.7059 36.6072C15.7682 36.6225 15.8321 36.6434 15.8977 36.6694C15.9632 36.6955 16.0239 36.7297 16.0799 36.7724C16.1359 36.8151 16.181 36.8679 16.2154 36.9308C16.2504 36.9937 16.2679 37.0692 16.2679 37.157C16.2679 37.2677 16.2393 37.3658 16.182 37.4516C16.1254 37.5375 16.043 37.6053 15.9349 37.6551C15.8274 37.7046 15.6973 37.7294 15.5446 37.7294C15.3983 37.7294 15.2718 37.7062 15.1649 37.6597C15.058 37.6133 14.9744 37.5474 14.914 37.4622C14.8535 37.3763 14.8201 37.2745 14.8138 37.157H15.1095C15.1153 37.2276 15.1382 37.2865 15.1783 37.3334C15.219 37.3798 15.2708 37.4146 15.3338 37.4373C15.3974 37.4596 15.467 37.4709 15.5427 37.4709C15.6261 37.4709 15.7002 37.4577 15.765 37.4317C15.8306 37.405 15.8821 37.3681 15.9196 37.321C15.9571 37.2733 15.9759 37.2177 15.9759 37.1541C15.9759 37.0962 15.9594 37.0488 15.9263 37.012C15.8938 36.9749 15.8496 36.9444 15.7937 36.9202C15.7383 36.8961 15.6757 36.8747 15.6057 36.8564L15.3748 36.7933C15.2183 36.7508 15.0943 36.6882 15.0027 36.6054C14.9117 36.5228 14.8662 36.4132 14.8662 36.2771C14.8662 36.1645 14.8968 36.0662 14.9578 35.9825C15.0189 35.8985 15.1016 35.8332 15.2059 35.7868C15.3102 35.7396 15.4279 35.7162 15.559 35.7162C15.6913 35.7162 15.808 35.7394 15.9091 35.7858C16.0109 35.8323 16.091 35.8961 16.1496 35.9775C16.2081 36.0585 16.2386 36.1511 16.2412 36.2563H15.9568ZM17.043 37.7294C16.9501 37.7294 16.8662 37.7123 16.7911 37.6778C16.716 37.6429 16.6566 37.5924 16.6127 37.5262C16.5694 37.4601 16.5478 37.3789 16.5478 37.2829C16.5478 37.2001 16.5637 37.1321 16.5955 37.0786C16.6273 37.0253 16.6702 36.9829 16.7243 36.9517C16.7784 36.9207 16.8388 36.897 16.9056 36.881C16.9724 36.8653 17.0404 36.8531 17.1098 36.8449C17.1976 36.8348 17.2688 36.8264 17.3235 36.82C17.3782 36.813 17.418 36.802 17.4428 36.7867C17.4676 36.7715 17.48 36.7466 17.48 36.7124V36.7056C17.48 36.6223 17.4564 36.5577 17.4094 36.512C17.3629 36.466 17.2936 36.4432 17.2014 36.4432C17.1053 36.4432 17.0296 36.4646 16.9743 36.5071C16.9196 36.5491 16.8817 36.596 16.8607 36.6474L16.5926 36.5864C16.6244 36.4972 16.6709 36.4254 16.7319 36.3708C16.7936 36.3154 16.8646 36.2753 16.9447 36.2504C17.0249 36.2251 17.1091 36.2124 17.1976 36.2124C17.2561 36.2124 17.3181 36.2194 17.3836 36.2333C17.4498 36.2466 17.5115 36.2715 17.5687 36.3076C17.6266 36.344 17.674 36.3959 17.7109 36.4632C17.7478 36.5301 17.7662 36.6169 17.7662 36.7236V37.697H17.4876V37.4967H17.4762C17.4577 37.5335 17.43 37.5696 17.3932 37.6053C17.3562 37.641 17.3089 37.6705 17.251 37.694C17.1931 37.7177 17.1238 37.7294 17.043 37.7294ZM17.105 37.5004C17.1839 37.5004 17.2513 37.4847 17.3073 37.4537C17.3639 37.4225 17.4068 37.3817 17.4361 37.3315C17.466 37.2806 17.4809 37.2262 17.4809 37.1685V36.9794C17.4707 36.9897 17.451 36.9991 17.4218 37.008C17.3932 37.0164 17.3604 37.0237 17.3235 37.03C17.2866 37.0357 17.2507 37.0411 17.2157 37.0462C17.1807 37.0507 17.1514 37.0544 17.1279 37.0577C17.0726 37.0648 17.022 37.0765 16.9762 37.0929C16.931 37.1096 16.8948 37.1333 16.8674 37.1645C16.8407 37.195 16.8273 37.2358 16.8273 37.2867C16.8273 37.3573 16.8534 37.4108 16.9056 37.4469C16.9578 37.4826 17.0242 37.5004 17.105 37.5004ZM18.5919 37.7294C18.499 37.7294 18.4151 37.7123 18.34 37.6778C18.265 37.6429 18.2055 37.5924 18.1616 37.5262C18.1183 37.4601 18.0967 37.3789 18.0967 37.2829C18.0967 37.2001 18.1126 37.1321 18.1444 37.0786C18.1762 37.0253 18.2192 36.9829 18.2732 36.9517C18.3273 36.9207 18.3877 36.897 18.4545 36.881C18.5213 36.8653 18.5894 36.8531 18.6587 36.8449C18.7465 36.8348 18.8177 36.8264 18.8724 36.82C18.9271 36.813 18.9669 36.802 18.9917 36.7867C19.0165 36.7715 19.0289 36.7466 19.0289 36.7124V36.7056C19.0289 36.6223 19.0054 36.5577 18.9583 36.512C18.9118 36.466 18.8425 36.4432 18.7503 36.4432C18.6542 36.4432 18.5785 36.4646 18.5232 36.5071C18.4685 36.5491 18.4307 36.596 18.4097 36.6474L18.1415 36.5864C18.1734 36.4972 18.2198 36.4254 18.2809 36.3708C18.3426 36.3154 18.4135 36.2753 18.4936 36.2504C18.5738 36.2251 18.6581 36.2124 18.7465 36.2124C18.805 36.2124 18.867 36.2194 18.9325 36.2333C18.9987 36.2466 19.0604 36.2715 19.1176 36.3076C19.1755 36.344 19.2229 36.3959 19.2598 36.4632C19.2967 36.5301 19.3151 36.6169 19.3151 36.7236V37.697H19.0365V37.4967H19.0251C19.0066 37.5335 18.979 37.5696 18.9421 37.6053C18.9052 37.641 18.8578 37.6705 18.7999 37.694C18.742 37.7177 18.6727 37.7294 18.5919 37.7294ZM18.6539 37.5004C18.7328 37.5004 18.8002 37.4847 18.8562 37.4537C18.9128 37.4225 18.9557 37.3817 18.985 37.3315C19.0149 37.2806 19.0299 37.2262 19.0299 37.1685V36.9794C19.0197 36.9897 18.9999 36.9991 18.9707 37.008C18.9421 37.0164 18.9093 37.0237 18.8724 37.03C18.8355 37.0357 18.7996 37.0411 18.7646 37.0462C18.7296 37.0507 18.7004 37.0544 18.6768 37.0577C18.6215 37.0648 18.5709 37.0765 18.5251 37.0929C18.48 37.1096 18.4437 37.1333 18.4164 37.1645C18.3896 37.195 18.3763 37.2358 18.3763 37.2867C18.3763 37.3573 18.4023 37.4108 18.4545 37.4469C18.5067 37.4826 18.5731 37.5004 18.6539 37.5004ZM20.3984 36.2314V36.4604H19.5979V36.2314H20.3984ZM19.8126 35.8802H20.0979V37.2665C20.0979 37.3219 20.1061 37.3637 20.1228 37.3916C20.1392 37.419 20.1605 37.4378 20.1866 37.4479C20.2133 37.4575 20.2422 37.4622 20.2734 37.4622C20.2964 37.4622 20.3163 37.4606 20.3334 37.4575C20.3508 37.4542 20.3642 37.4516 20.3736 37.4498L20.4252 37.6856C20.4085 37.6919 20.3851 37.6982 20.3546 37.7046C20.3241 37.7116 20.2858 37.7153 20.2401 37.7161C20.165 37.7172 20.0951 37.7039 20.0301 37.6759C19.9653 37.648 19.9128 37.6046 19.8727 37.5462C19.8325 37.4878 19.8126 37.4141 19.8126 37.3259V35.8802ZM21.05 36.8268V37.697H20.7647V35.7429H21.0462V36.47H21.0643C21.0985 36.3912 21.1511 36.3283 21.2217 36.2821C21.2923 36.2356 21.3845 36.2124 21.4983 36.2124C21.599 36.2124 21.6867 36.233 21.7618 36.2743C21.8373 36.3156 21.896 36.3773 21.9373 36.4594C21.9793 36.5409 22.0004 36.6427 22.0004 36.7647V37.697H21.7151V36.7992C21.7151 36.6917 21.6874 36.6082 21.6321 36.5491C21.5767 36.4892 21.4997 36.4594 21.4012 36.4594C21.3336 36.4594 21.2733 36.4737 21.2198 36.5024C21.167 36.531 21.1253 36.573 21.0948 36.6284C21.065 36.683 21.05 36.7492 21.05 36.8268ZM22.4002 37.697V36.2314H22.6855V37.697H22.4002ZM22.5443 36.0052C22.4947 36.0052 22.452 35.9888 22.4164 35.9557C22.3814 35.9219 22.3638 35.8818 22.3638 35.8354C22.3638 35.7884 22.3814 35.7483 22.4164 35.7152C22.452 35.6814 22.4947 35.6646 22.5443 35.6646C22.594 35.6646 22.6362 35.6814 22.6712 35.7152C22.7068 35.7483 22.7247 35.7884 22.7247 35.8354C22.7247 35.8818 22.7068 35.9219 22.6712 35.9557C22.6362 35.9888 22.594 36.0052 22.5443 36.0052ZM23.4597 37.4298L23.4454 37.5338C23.4358 37.61 23.4196 37.6895 23.3966 37.7724C23.3743 37.8557 23.3511 37.9328 23.3269 38.0042C23.3035 38.0755 23.284 38.132 23.2688 38.174H23.0665C23.0747 38.1346 23.0862 38.0811 23.101 38.0138C23.1155 37.9469 23.1299 37.8721 23.1439 37.7895C23.1578 37.7069 23.1683 37.6224 23.1754 37.5366L23.1848 37.4298H23.4597Z" fill="#00B0CB"/>
</mask>
<g mask="url(#mask6_1419_3156)">
<rect x="5.29883" y="35.3066" width="18.7355" height="2.94009" fill="#F8FAFA"/>
</g>
<mask id="mask7_1419_3156" style="mask-type:alpha" maskUnits="userSpaceOnUse" x="24" y="35" width="19" height="4">
<path d="M24.7661 37.6966H24.4531L25.1563 35.7424H25.4969L26.2001 37.6966H25.8873L25.3348 36.0974H25.3196L24.7661 37.6966ZM24.8187 36.9312H25.8339V37.1792H24.8187V36.9312ZM26.9051 37.7289C26.8122 37.7289 26.7285 37.7118 26.6534 37.6773C26.5783 37.6424 26.5187 37.5919 26.4748 37.5258C26.4317 37.4596 26.4101 37.3784 26.4101 37.2825C26.4101 37.1996 26.4258 37.1316 26.4577 37.0781C26.4896 37.0248 26.5325 36.9824 26.5865 36.9512C26.6405 36.9202 26.701 36.8965 26.7679 36.8806C26.8345 36.8648 26.9025 36.8526 26.972 36.8444C27.0597 36.8343 27.1311 36.8259 27.1857 36.8196C27.2404 36.8125 27.2803 36.8015 27.3049 36.7862C27.3298 36.771 27.3422 36.7461 27.3422 36.7119V36.7051C27.3422 36.6218 27.3188 36.5573 27.2716 36.5115C27.2251 36.4655 27.1557 36.4428 27.0635 36.4428C26.9675 36.4428 26.8918 36.4641 26.8364 36.5066C26.7817 36.5486 26.7439 36.5955 26.7231 36.6469L26.4549 36.5859C26.4866 36.4967 26.533 36.4249 26.5943 36.3703C26.6557 36.3149 26.7268 36.2748 26.8068 36.2499C26.8871 36.2246 26.9713 36.2119 27.0597 36.2119C27.1184 36.2119 27.1803 36.2189 27.2458 36.2328C27.312 36.2461 27.3737 36.271 27.4309 36.3072C27.4889 36.3435 27.5362 36.3954 27.5731 36.4627C27.6099 36.5296 27.6285 36.6164 27.6285 36.7231V37.6966H27.3497V37.4962H27.3385C27.3199 37.533 27.2922 37.5692 27.2554 37.6048C27.2186 37.6405 27.1712 37.67 27.1132 37.6935C27.0553 37.7172 26.9861 37.7289 26.9051 37.7289ZM26.9673 37.5C27.0461 37.5 27.1135 37.4842 27.1695 37.4533C27.2261 37.4221 27.269 37.3812 27.2983 37.331C27.3281 37.2801 27.3432 37.2257 27.3432 37.168V36.9789C27.3331 36.9892 27.3131 36.9986 27.284 37.0075C27.2554 37.0159 27.2226 37.0232 27.1857 37.0295C27.1489 37.0352 27.1128 37.0406 27.0778 37.0457C27.0428 37.0502 27.0138 37.0539 26.9901 37.0572C26.9347 37.0643 26.8842 37.076 26.8385 37.0924C26.7932 37.1091 26.7571 37.1328 26.7296 37.164C26.7029 37.1945 26.6895 37.2353 26.6895 37.2862C26.6895 37.3568 26.7156 37.4103 26.7679 37.4465C26.82 37.4821 26.8864 37.5 26.9673 37.5ZM28.0275 38.246V36.2309H28.3063V36.4686H28.33C28.3466 36.4381 28.3705 36.4026 28.4015 36.3625C28.4327 36.3224 28.4761 36.2874 28.5315 36.2576C28.5866 36.2271 28.6598 36.2119 28.7509 36.2119C28.8691 36.2119 28.9747 36.2417 29.0676 36.3015C29.1605 36.3613 29.2332 36.4475 29.286 36.5601C29.3395 36.6727 29.3663 36.8081 29.3663 36.9664C29.3663 37.125 29.3398 37.2606 29.287 37.374C29.2342 37.4866 29.1617 37.5734 29.0695 37.6344C28.9773 37.6949 28.8719 37.7252 28.7537 37.7252C28.6648 37.7252 28.5918 37.7102 28.5353 37.6801C28.4792 37.6503 28.4353 37.6154 28.4036 37.5753C28.3717 37.5351 28.3473 37.4995 28.33 37.4685H28.3128V38.246H28.0275ZM28.3072 36.9636C28.3072 37.0668 28.3222 37.1569 28.352 37.2346C28.3818 37.3123 28.4252 37.373 28.4818 37.4169C28.5383 37.4601 28.6077 37.4819 28.6899 37.4819C28.775 37.4819 28.8464 37.4591 28.9036 37.4141C28.9608 37.3683 29.004 37.3062 29.0333 37.228C29.0631 37.1497 29.0782 37.0617 29.0782 36.9636C29.0782 36.8669 29.0634 36.7801 29.0343 36.7032C29.0057 36.6262 28.9623 36.5655 28.9045 36.5209C28.8473 36.4765 28.7757 36.4543 28.6899 36.4543C28.607 36.4543 28.5371 36.4754 28.4799 36.5181C28.4233 36.5608 28.3804 36.6201 28.3511 36.6966C28.3217 36.7729 28.3072 36.862 28.3072 36.9636ZM29.9674 37.1994L29.9655 36.851H30.0152L30.5992 36.2309H30.9408L30.2747 36.9369H30.2299L29.9674 37.1994ZM29.7051 37.6966V35.7424H29.9904V37.6966H29.7051ZM30.6306 37.6966L30.1058 37L30.3024 36.8006L30.9807 37.6966H30.6306ZM31.6463 37.7289C31.5536 37.7289 31.4696 37.7118 31.3945 37.6773C31.3195 37.6424 31.2599 37.5919 31.216 37.5258C31.1728 37.4596 31.1512 37.3784 31.1512 37.2825C31.1512 37.1996 31.1672 37.1316 31.1989 37.0781C31.2308 37.0248 31.2737 36.9824 31.3277 36.9512C31.3819 36.9202 31.4422 36.8965 31.509 36.8806C31.5757 36.8648 31.6439 36.8526 31.7132 36.8444C31.8009 36.8343 31.8722 36.8259 31.9269 36.8196C31.9816 36.8125 32.0214 36.8015 32.0461 36.7862C32.071 36.771 32.0834 36.7461 32.0834 36.7119V36.7051C32.0834 36.6218 32.0599 36.5573 32.0128 36.5115C31.9663 36.4655 31.8971 36.4428 31.8049 36.4428C31.7087 36.4428 31.6329 36.4641 31.5778 36.5066C31.5229 36.5486 31.4851 36.5955 31.4642 36.6469L31.1961 36.5859C31.2277 36.4967 31.2742 36.4249 31.3354 36.3703C31.3971 36.3149 31.468 36.2748 31.5482 36.2499C31.6282 36.2246 31.7125 36.2119 31.8009 36.2119C31.8596 36.2119 31.9215 36.2189 31.987 36.2328C32.0531 36.2461 32.1148 36.271 32.1721 36.3072C32.23 36.3435 32.2774 36.3954 32.3143 36.4627C32.3511 36.5296 32.3696 36.6164 32.3696 36.7231V37.6966H32.0911V37.4962H32.0796C32.0611 37.533 32.0334 37.5692 31.9966 37.6048C31.9597 37.6405 31.9124 37.67 31.8544 37.6935C31.7965 37.7172 31.7272 37.7289 31.6463 37.7289ZM31.7085 37.5C31.7873 37.5 31.8546 37.4842 31.9107 37.4533C31.9673 37.4221 32.0102 37.3812 32.0395 37.331C32.0693 37.2801 32.0843 37.2257 32.0843 37.168V36.9789C32.0742 36.9892 32.0545 36.9986 32.0252 37.0075C31.9966 37.0159 31.9637 37.0232 31.9269 37.0295C31.8901 37.0352 31.8542 37.0406 31.8192 37.0457C31.784 37.0502 31.7549 37.0539 31.7312 37.0572C31.6759 37.0643 31.6254 37.076 31.5797 37.0924C31.5344 37.1091 31.4982 37.1328 31.4708 37.164C31.4441 37.1945 31.4307 37.2353 31.4307 37.2862C31.4307 37.3568 31.4567 37.4103 31.509 37.4465C31.5611 37.4821 31.6275 37.5 31.7085 37.5ZM34.5877 36.2558C34.5776 36.1654 34.5356 36.0955 34.4617 36.0458C34.388 35.9956 34.2951 35.9705 34.1832 35.9705C34.103 35.9705 34.0338 35.9831 33.9751 36.0085C33.9167 36.0333 33.8712 36.0678 33.8388 36.1117C33.8069 36.1549 33.7909 36.2042 33.7909 36.2595C33.7909 36.306 33.802 36.3461 33.8236 36.3796C33.8458 36.4134 33.8747 36.4418 33.9104 36.4646C33.9465 36.4869 33.9854 36.5056 34.0267 36.5209C34.068 36.5357 34.1079 36.5476 34.1459 36.5573L34.3369 36.6068C34.3991 36.622 34.4631 36.6429 34.5286 36.6689C34.594 36.695 34.6548 36.7292 34.7109 36.7719C34.7667 36.8146 34.812 36.8674 34.8463 36.9303C34.8812 36.9932 34.8988 37.0687 34.8988 37.1565C34.8988 37.2672 34.8702 37.3653 34.8129 37.4511C34.7564 37.537 34.674 37.6048 34.5659 37.6546C34.4582 37.7041 34.3282 37.7289 34.1755 37.7289C34.0293 37.7289 33.9026 37.7057 33.7959 37.6593C33.6889 37.6128 33.6054 37.5469 33.5448 37.4617C33.4845 37.3758 33.451 37.274 33.4446 37.1565H33.7405C33.7461 37.2271 33.7691 37.286 33.8092 37.3329C33.8498 37.3794 33.9017 37.4141 33.9648 37.4368C34.0284 37.4591 34.0981 37.4704 34.1736 37.4704C34.2569 37.4704 34.331 37.4573 34.396 37.4312C34.4615 37.4045 34.5131 37.3676 34.5506 37.3205C34.5882 37.2728 34.6067 37.2172 34.6067 37.1537C34.6067 37.0957 34.5903 37.0483 34.5572 37.0115C34.5248 36.9744 34.4805 36.9439 34.4246 36.9197C34.3693 36.8956 34.3066 36.8742 34.2367 36.8559L34.0056 36.7928C33.8494 36.7503 33.7252 36.6877 33.6335 36.6049C33.5427 36.5223 33.4972 36.4127 33.4972 36.2766C33.4972 36.164 33.5277 36.0657 33.5887 35.982C33.6499 35.898 33.7325 35.8328 33.8369 35.7863C33.9411 35.7391 34.0589 35.7157 34.1898 35.7157C34.3221 35.7157 34.439 35.7389 34.5401 35.7854C34.6419 35.8318 34.7219 35.8956 34.7806 35.977C34.839 36.058 34.8695 36.1507 34.8721 36.2558H34.5877ZM35.674 37.7289C35.5811 37.7289 35.4971 37.7118 35.422 37.6773C35.3469 37.6424 35.2876 37.5919 35.2437 37.5258C35.2003 37.4596 35.1787 37.3784 35.1787 37.2825C35.1787 37.1996 35.1947 37.1316 35.2263 37.0781C35.2582 37.0248 35.3012 36.9824 35.3551 36.9512C35.4093 36.9202 35.4696 36.8965 35.5365 36.8806C35.6034 36.8648 35.6714 36.8526 35.7406 36.8444C35.8284 36.8343 35.8997 36.8259 35.9544 36.8196C36.009 36.8125 36.0489 36.8015 36.0738 36.7862C36.0984 36.771 36.1108 36.7461 36.1108 36.7119V36.7051C36.1108 36.6218 36.0874 36.5573 36.0402 36.5115C35.9938 36.4655 35.9246 36.4428 35.8324 36.4428C35.7362 36.4428 35.6606 36.4641 35.6052 36.5066C35.5506 36.5486 35.5126 36.5955 35.4917 36.6469L35.2235 36.5859C35.2554 36.4967 35.3019 36.4249 35.3629 36.3703C35.4246 36.3149 35.4954 36.2748 35.5757 36.2499C35.6557 36.2246 35.7401 36.2119 35.8284 36.2119C35.887 36.2119 35.949 36.2189 36.0144 36.2328C36.0806 36.2461 36.1423 36.271 36.1995 36.3072C36.2575 36.3435 36.3049 36.3954 36.3417 36.4627C36.3788 36.5296 36.3971 36.6164 36.3971 36.7231V37.6966H36.1186V37.4962H36.1071C36.0886 37.533 36.0609 37.5692 36.024 37.6048C35.9872 37.6405 35.9398 37.67 35.8819 37.6935C35.8239 37.7172 35.7547 37.7289 35.674 37.7289ZM35.7359 37.5C35.8148 37.5 35.8823 37.4842 35.9382 37.4533C35.9947 37.4221 36.0376 37.3812 36.067 37.331C36.097 37.2801 36.1118 37.2257 36.1118 37.168V36.9789C36.1017 36.9892 36.082 36.9986 36.0527 37.0075C36.024 37.0159 35.9912 37.0232 35.9544 37.0295C35.9175 37.0352 35.8816 37.0406 35.8467 37.0457C35.8117 37.0502 35.7824 37.0539 35.7589 37.0572C35.7036 37.0643 35.6529 37.076 35.6071 37.0924C35.5618 37.1091 35.5257 37.1328 35.4983 37.164C35.4715 37.1945 35.4584 37.2353 35.4584 37.2862C35.4584 37.3568 35.4844 37.4103 35.5365 37.4465C35.5886 37.4821 35.6552 37.5 35.7359 37.5ZM37.2227 37.7289C37.13 37.7289 37.046 37.7118 36.971 37.6773C36.8959 37.6424 36.8363 37.5919 36.7924 37.5258C36.7492 37.4596 36.7277 37.3784 36.7277 37.2825C36.7277 37.1996 36.7436 37.1316 36.7753 37.0781C36.8072 37.0248 36.8501 36.9824 36.9041 36.9512C36.9583 36.9202 37.0186 36.8965 37.0855 36.8806C37.1523 36.8648 37.2204 36.8526 37.2896 36.8444C37.3773 36.8343 37.4486 36.8259 37.5033 36.8196C37.558 36.8125 37.5979 36.8015 37.6225 36.7862C37.6474 36.771 37.6598 36.7461 37.6598 36.7119V36.7051C37.6598 36.6218 37.6363 36.5573 37.5892 36.5115C37.5427 36.4655 37.4735 36.4428 37.3813 36.4428C37.2851 36.4428 37.2096 36.4641 37.1542 36.5066C37.0993 36.5486 37.0615 36.5955 37.0406 36.6469L36.7725 36.5859C36.8044 36.4967 36.8506 36.4249 36.9118 36.3703C36.9735 36.3149 37.0444 36.2748 37.1246 36.2499C37.2046 36.2246 37.2889 36.2119 37.3773 36.2119C37.436 36.2119 37.4979 36.2189 37.5634 36.2328C37.6295 36.2461 37.6912 36.271 37.7485 36.3072C37.8064 36.3435 37.8538 36.3954 37.8907 36.4627C37.9275 36.5296 37.946 36.6164 37.946 36.7231V37.6966H37.6675V37.4962H37.656C37.6375 37.533 37.6098 37.5692 37.573 37.6048C37.5362 37.6405 37.4888 37.67 37.4308 37.6935C37.3729 37.7172 37.3036 37.7289 37.2227 37.7289ZM37.2849 37.5C37.3637 37.5 37.431 37.4842 37.4871 37.4533C37.5437 37.4221 37.5866 37.3812 37.6159 37.331C37.6457 37.2801 37.6607 37.2257 37.6607 37.168V36.9789C37.6507 36.9892 37.6309 36.9986 37.6016 37.0075C37.573 37.0159 37.5401 37.0232 37.5033 37.0295C37.4665 37.0352 37.4306 37.0406 37.3956 37.0457C37.3604 37.0502 37.3313 37.0539 37.3076 37.0572C37.2525 37.0643 37.2018 37.076 37.1561 37.0924C37.1108 37.1091 37.0747 37.1328 37.0472 37.164C37.0205 37.1945 37.0071 37.2353 37.0071 37.2862C37.0071 37.3568 37.0334 37.4103 37.0855 37.4465C37.1375 37.4821 37.2039 37.5 37.2849 37.5ZM38.3451 37.6966V36.2309H38.621V36.4636H38.6363C38.663 36.3848 38.71 36.3229 38.7775 36.2776C38.8456 36.2318 38.9225 36.2088 39.0084 36.2088C39.0262 36.2088 39.0471 36.2095 39.0713 36.211C39.0961 36.2121 39.1156 36.2138 39.1294 36.2157V36.4885C39.1182 36.4852 39.0978 36.4819 39.0684 36.478C39.0391 36.4735 39.01 36.4714 38.9807 36.4714C38.9134 36.4714 38.8531 36.4857 38.8003 36.5143C38.7482 36.5422 38.7069 36.5814 38.6764 36.6316C38.6457 36.6814 38.6304 36.7379 38.6304 36.8015V37.6966H38.3451ZM40.1662 36.2309V36.4599H39.3657V36.2309H40.1662ZM39.5804 35.8797H39.8657V37.266C39.8657 37.3214 39.8741 37.3632 39.8906 37.3911C39.9072 37.4185 39.9283 37.4373 39.9546 37.4474C39.9811 37.457 40.0102 37.4617 40.0414 37.4617C40.0642 37.4617 40.0843 37.4601 40.1015 37.457C40.1186 37.4537 40.132 37.4511 40.1416 37.4493L40.193 37.6851C40.1766 37.6914 40.1529 37.6977 40.1224 37.7041C40.0919 37.7111 40.0536 37.7149 40.0079 37.7156C39.9328 37.7167 39.8629 37.7034 39.7981 37.6754C39.7331 37.6475 39.6806 37.6041 39.6407 37.5457C39.6006 37.4873 39.5804 37.4136 39.5804 37.3254V35.8797ZM40.8178 36.8264V37.6966H40.5325V35.7424H40.814V36.4695H40.8321C40.8666 36.3907 40.9189 36.3278 40.9895 36.2816C41.0601 36.2351 41.1523 36.2119 41.2664 36.2119C41.3668 36.2119 41.4545 36.2325 41.5296 36.2738C41.6054 36.3151 41.6638 36.3768 41.7051 36.4589C41.7471 36.5404 41.7682 36.6422 41.7682 36.7642V37.6966H41.4829V36.7987C41.4829 36.6912 41.4552 36.6077 41.3999 36.5486C41.3445 36.4887 41.2675 36.4589 41.169 36.4589C41.1017 36.4589 41.0411 36.4733 40.9876 36.5019C40.9348 36.5305 40.8933 36.5725 40.8628 36.6279C40.8328 36.6825 40.8178 36.7487 40.8178 36.8264ZM42.168 37.6966V36.2309H42.4533V37.6966H42.168ZM42.312 36.0047C42.2625 36.0047 42.2198 35.9883 42.1844 35.9552C42.1492 35.9214 42.1319 35.8813 42.1319 35.8349C42.1319 35.7879 42.1492 35.7478 42.1844 35.7147C42.2198 35.681 42.2625 35.6641 42.312 35.6641C42.3618 35.6641 42.404 35.681 42.439 35.7147C42.4746 35.7478 42.4925 35.7879 42.4925 35.8349C42.4925 35.8813 42.4746 35.9214 42.439 35.9552C42.404 35.9883 42.3618 36.0047 42.312 36.0047Z" fill="#2B3D83"/>
</mask>
<g mask="url(#mask7_1419_3156)">
<rect x="24.2832" y="35.1406" width="19.0604" height="3.10502" fill="#F8FAFA"/>
</g>
</svg>
