<svg width="18" height="18" viewBox="0 0 18 18" fill="none" xmlns="http://www.w3.org/2000/svg">
<path d="M12.0621 7.59386C12.5638 7.88056 12.8505 8.45397 12.8505 9.09906C12.8505 10.1025 12.0621 10.891 11.0586 10.891C10.4135 10.891 9.9118 10.6043 9.55342 10.1025M7.1276 12.5238L13.2201 6.43131C14.1519 5.49952 15.5854 5.49952 16.5172 6.43131C17.449 7.36313 17.449 8.79666 16.5172 9.72845L10.4247 15.8209C9.49292 16.7527 8.0594 16.7527 7.12757 15.8209C6.19578 14.8891 6.1958 13.4556 7.1276 12.5238ZM8.77616 14.3157C8.69695 14.3157 8.6328 14.2516 8.6328 14.1724C8.6328 14.0932 8.69695 14.029 8.77616 14.029C8.85529 14.029 8.91951 14.0932 8.91951 14.1724C8.91951 14.2516 8.85529 14.3157 8.77616 14.3157ZM14.8686 8.22325C14.7894 8.22325 14.7253 8.1591 14.7253 8.07989C14.7253 8.00069 14.7894 7.93654 14.8686 7.93654C14.9478 7.93654 15.012 8.00069 15.012 8.07989C15.012 8.1591 14.9478 8.22325 14.8686 8.22325ZM2.42587 10.9469C2.13916 10.9469 1.78078 10.8036 1.56575 10.5886C1.06402 10.0868 1.06402 9.29839 1.56575 8.86833L6.15304 4.28107C5.79465 3.2776 6.00968 2.13078 6.79812 1.34234C7.65824 0.482224 8.82518 0.318734 9.90033 0.748794L8.51834 2.13078C8.08828 2.56083 8.08828 3.20592 8.51834 3.63598C8.94839 4.06604 9.59348 4.06604 10.0235 3.63598L11.4078 2.25169C11.9096 3.32684 11.6721 4.49609 10.812 5.35621C10.0235 6.14465 8.87672 6.35968 7.87325 6.0013L3.28598 10.5886C3.07096 10.8036 2.78425 10.9469 2.42587 10.9469Z" stroke="#0028A3" stroke-linecap="round" stroke-linejoin="round"/>
</svg>
