<svg width="493" height="477" viewBox="0 0 493 477" fill="none" xmlns="http://www.w3.org/2000/svg">
<path d="M421.945 254.013L264.347 254.013C262.556 254.013 260.839 253.302 259.573 252.036C258.307 250.77 257.596 249.053 257.596 247.263V18.9546C257.596 17.1642 258.307 15.4472 259.573 14.1812C260.839 12.9151 262.556 12.2039 264.347 12.2039L421.945 12.2039C423.735 12.2039 425.452 12.9151 426.718 14.1812C427.984 15.4472 428.696 17.1642 428.696 18.9546L428.696 247.263C428.696 249.053 427.984 250.77 426.718 252.036C425.452 253.302 423.735 254.013 421.945 254.013Z" fill="#0028A3"/>
<path opacity="0.5" d="M421.945 254.013L264.347 254.013C262.556 254.013 260.839 253.302 259.573 252.036C258.307 250.77 257.596 249.053 257.596 247.263V18.9546C257.596 17.1642 258.307 15.4472 259.573 14.1812C260.839 12.9151 262.556 12.2039 264.347 12.2039L421.945 12.2039C423.735 12.2039 425.452 12.9151 426.718 14.1812C427.984 15.4472 428.696 17.1642 428.696 18.9546L428.696 247.263C428.696 249.053 427.984 250.77 426.718 252.036C425.452 253.302 423.735 254.013 421.945 254.013Z" fill="white"/>
<path d="M415.304 18.8094H422.845V247.866L264.644 249.166L260.274 243.913L264.103 27.8395L415.304 18.8094Z" fill="#EBEBEB"/>
<path d="M260.274 243.913H416.698V18.8094H422.845V249.166H264.644L260.274 243.913Z" fill="#E0E0E0"/>
<path opacity="0.2" d="M422.845 249.166L416.698 243.913H260.274L264.644 249.166H422.845Z" fill="black"/>
<path d="M260.274 243.913H416.698C422.846 205.042 419.085 108.207 416.698 18.8093H263.232C264.485 108.156 261.439 192.855 260.274 243.913Z" fill="white" stroke="#263238" stroke-miterlimit="10"/>
<path opacity="0.2" d="M370.619 12.2045V30.3135L314.275 30.6285L314.363 27.3025L341.414 11.3135L370.619 12.2045Z" fill="black"/>
<path d="M413.652 8.28564H374.348C374.251 8.28898 374.159 8.32995 374.091 8.39991C374.023 8.46987 373.986 8.56335 373.986 8.66064C373.986 8.75793 374.023 8.85142 374.091 8.92139C374.159 8.99135 374.251 9.03231 374.348 9.03564H413.652C413.75 9.03231 413.842 8.99135 413.909 8.92139C413.977 8.85142 414.015 8.75793 414.015 8.66064C414.015 8.56335 413.977 8.46987 413.909 8.39991C413.842 8.32995 413.75 8.28898 413.652 8.28564Z" fill="#0028A3"/>
<path d="M416.985 9.03564H423.098C423.195 9.03231 423.287 8.99135 423.355 8.92139C423.423 8.85142 423.46 8.75793 423.46 8.66064C423.46 8.56335 423.423 8.46987 423.355 8.39991C423.287 8.32995 423.195 8.28898 423.098 8.28564H416.985C416.888 8.28898 416.796 8.32995 416.728 8.39991C416.66 8.46987 416.623 8.56335 416.623 8.66064C416.623 8.75793 416.66 8.85142 416.728 8.92139C416.796 8.99135 416.888 9.03231 416.985 9.03564Z" fill="#0028A3"/>
<path d="M372.767 28.1302L313.525 28.1302V15.6043C313.525 13.5866 314.327 11.6516 315.753 10.2248C317.18 8.79808 319.115 7.99654 321.133 7.99654L365.159 7.99654C367.177 7.99654 369.112 8.79807 370.538 10.2248C371.965 11.6515 372.767 13.5866 372.767 15.6042V28.1302Z" fill="#263238"/>
<path d="M354.098 9.57683L356.351 1.77593C356.393 1.64733 356.405 1.51069 356.386 1.37663C356.367 1.24256 356.318 1.11466 356.241 1.00285C356.165 0.89103 356.064 0.798306 355.946 0.73185C355.828 0.665393 355.696 0.626991 355.561 0.619629H329.055C328.917 0.62739 328.783 0.667307 328.663 0.736176C328.544 0.805044 328.442 0.900952 328.366 1.01623C328.29 1.1315 328.243 1.26295 328.227 1.40002C328.211 1.5371 328.227 1.67601 328.274 1.80563L330.928 9.97503C330.979 10.1465 331.083 10.2971 331.226 10.4046C331.369 10.5121 331.543 10.5706 331.722 10.5716L353.322 10.2031C353.501 10.1958 353.673 10.1309 353.813 10.0182C353.953 9.90541 354.053 9.75068 354.098 9.57683Z" fill="#263238"/>
<path d="M353.815 7.10901H330.801C330.704 7.11234 330.611 7.1533 330.544 7.22327C330.476 7.29323 330.438 7.38672 330.438 7.48401C330.438 7.5813 330.476 7.67478 330.544 7.74474C330.611 7.81471 330.704 7.85568 330.801 7.85901H353.815C353.912 7.85568 354.004 7.81471 354.072 7.74474C354.14 7.67478 354.177 7.5813 354.177 7.48401C354.177 7.38672 354.14 7.29323 354.072 7.22327C354.004 7.1533 353.912 7.11234 353.815 7.10901Z" fill="black"/>
<path d="M291.472 53.3735H294.636V64.5566H291.472V53.3735Z" fill="#0028A3"/>
<path d="M307.53 53.3735V64.5566H304.926L299.989 58.5976V64.5566H296.89V53.3735H299.494L304.431 59.3324V53.3735H307.53Z" fill="#0028A3"/>
<path d="M308.988 63.5502L310.026 61.2177C311.13 61.9202 312.408 62.3018 313.717 62.3197C315.027 62.3197 315.538 61.9526 315.538 61.4091C315.538 59.6361 309.18 60.9301 309.18 56.7763C309.18 54.7792 310.809 53.1498 314.132 53.1498C315.546 53.127 316.941 53.4623 318.19 54.1244L317.215 56.4726C316.269 55.934 315.205 55.6376 314.116 55.6098C312.79 55.6098 312.311 56.0575 312.311 56.6166C312.311 58.3261 318.653 57.0478 318.653 61.1698C318.653 63.1186 317.024 64.7802 313.701 64.7802C312.045 64.8213 310.412 64.395 308.988 63.5502Z" fill="#0028A3"/>
<path d="M320.014 59.5722V53.3735H323.177V59.476C323.177 61.3935 323.976 62.1601 325.302 62.1601C326.612 62.1601 327.411 61.3935 327.411 59.476V53.3735H330.526V59.5722C330.526 62.911 328.578 64.7802 325.27 64.7802C321.963 64.7802 320.014 62.911 320.014 59.5722Z" fill="#0028A3"/>
<path d="M337.559 61.5849H335.833V64.5566H332.67V53.3735H337.783C340.834 53.3735 342.751 54.955 342.751 57.5111C342.78 58.2508 342.587 58.9823 342.197 59.6115C341.807 60.2406 341.238 60.7388 340.563 61.0419L342.975 64.5566H339.588L337.559 61.5849ZM337.591 55.8656H335.833V59.1405H337.591C338.901 59.1405 339.556 58.5336 339.556 57.5111C339.556 56.4726 338.901 55.8656 337.591 55.8656Z" fill="#0028A3"/>
<path d="M351.99 62.3837H347.26L346.382 64.5566H343.155L348.091 53.3735H351.207L356.159 64.5566H352.868L351.99 62.3837ZM351.063 60.0512L349.625 56.4726L348.187 60.0512H351.063Z" fill="#0028A3"/>
<path d="M367.698 53.3735V64.5566H365.093L360.157 58.5976V64.5566H357.057V53.3735H359.662L364.598 59.3324V53.3735H367.698Z" fill="#0028A3"/>
<path d="M369.363 58.9649C369.363 55.562 371.967 53.1499 375.514 53.1499C376.424 53.1076 377.331 53.2759 378.165 53.6417C378.999 54.0075 379.738 54.5609 380.323 55.2588L378.309 57.0801C378.001 56.6729 377.602 56.3427 377.145 56.1154C376.688 55.8881 376.184 55.7699 375.673 55.77C374.84 55.7911 374.048 56.137 373.466 56.7339C372.884 57.3308 372.558 58.1315 372.558 58.9651C372.558 59.7988 372.884 60.5995 373.466 61.1964C374.048 61.7933 374.84 62.1392 375.673 62.1602C376.184 62.1604 376.688 62.0422 377.145 61.8149C377.602 61.5876 378.001 61.2573 378.309 60.8501L380.323 62.6714C379.738 63.3694 378.999 63.9228 378.165 64.2886C377.331 64.6544 376.424 64.8227 375.514 64.7803C371.967 64.7803 369.363 62.3682 369.363 58.9649Z" fill="#0028A3"/>
<path d="M390.71 62.1122V64.5566H381.732V53.3735H390.502V55.8178H384.864V57.703H389.832V60.0673H384.864V62.1122H390.71Z" fill="#0028A3"/>
<path d="M402.035 74.0381H278.281C278.184 74.0414 278.092 74.0824 278.024 74.1524C277.957 74.2223 277.919 74.3158 277.919 74.4131C277.919 74.5104 277.957 74.6039 278.024 74.6738C278.092 74.7438 278.184 74.7848 278.281 74.7881H402.035C402.132 74.7848 402.224 74.7438 402.291 74.6738C402.359 74.6039 402.397 74.5104 402.397 74.4131C402.397 74.3158 402.359 74.2223 402.291 74.1524C402.224 74.0824 402.132 74.0414 402.035 74.0381Z" fill="#263238"/>
<path d="M402.035 85.0447H278.281C278.184 85.048 278.092 85.089 278.024 85.1589C277.957 85.2289 277.919 85.3224 277.919 85.4197C277.919 85.517 277.957 85.6105 278.024 85.6804C278.092 85.7504 278.184 85.7913 278.281 85.7947H402.035C402.132 85.7913 402.224 85.7504 402.291 85.6804C402.359 85.6105 402.397 85.517 402.397 85.4197C402.397 85.3224 402.359 85.2289 402.291 85.1589C402.224 85.089 402.132 85.048 402.035 85.0447Z" fill="#263238"/>
<path d="M402.035 96.0514H278.281C278.184 96.0547 278.092 96.0957 278.024 96.1656C277.957 96.2356 277.919 96.3291 277.919 96.4264C277.919 96.5237 277.957 96.6172 278.024 96.6871C278.092 96.7571 278.184 96.7981 278.281 96.8014H402.035C402.132 96.7981 402.224 96.7571 402.291 96.6871C402.359 96.6172 402.397 96.5237 402.397 96.4264C402.397 96.3291 402.359 96.2356 402.291 96.1656C402.224 96.0957 402.132 96.0547 402.035 96.0514Z" fill="#263238"/>
<path d="M402.035 107.058H278.281C278.184 107.061 278.092 107.102 278.024 107.172C277.957 107.242 277.919 107.336 277.919 107.433C277.919 107.53 277.957 107.624 278.024 107.694C278.092 107.764 278.184 107.805 278.281 107.808H402.035C402.132 107.805 402.224 107.764 402.291 107.694C402.359 107.624 402.397 107.53 402.397 107.433C402.397 107.336 402.359 107.242 402.291 107.172C402.224 107.102 402.132 107.061 402.035 107.058Z" fill="#263238"/>
<path d="M402.035 118.065H278.281C278.184 118.068 278.092 118.109 278.024 118.179C277.957 118.249 277.919 118.342 277.919 118.44C277.919 118.537 277.957 118.63 278.024 118.7C278.092 118.77 278.184 118.811 278.281 118.815H402.035C402.132 118.811 402.224 118.77 402.291 118.7C402.359 118.63 402.397 118.537 402.397 118.44C402.397 118.342 402.359 118.249 402.291 118.179C402.224 118.109 402.132 118.068 402.035 118.065Z" fill="#263238"/>
<path d="M330.57 127.68H278.281C278.184 127.683 278.092 127.724 278.024 127.794C277.957 127.864 277.919 127.958 277.919 128.055C277.919 128.152 277.957 128.246 278.024 128.316C278.092 128.386 278.184 128.427 278.281 128.43H330.57C330.668 128.427 330.76 128.386 330.827 128.316C330.895 128.246 330.933 128.152 330.933 128.055C330.933 127.958 330.895 127.864 330.827 127.794C330.76 127.724 330.668 127.683 330.57 127.68Z" fill="#263238"/>
<path d="M402.035 196.456H278.281C278.184 196.459 278.092 196.5 278.024 196.57C277.957 196.64 277.919 196.733 277.919 196.831C277.919 196.928 277.957 197.021 278.024 197.091C278.092 197.161 278.184 197.202 278.281 197.206H402.035C402.132 197.202 402.224 197.161 402.291 197.091C402.359 197.021 402.397 196.928 402.397 196.831C402.397 196.733 402.359 196.64 402.291 196.57C402.224 196.5 402.132 196.459 402.035 196.456Z" fill="#263238"/>
<path d="M402.035 216.732H278.281C278.184 216.736 278.092 216.777 278.024 216.847C277.957 216.917 277.919 217.01 277.919 217.107C277.919 217.205 277.957 217.298 278.024 217.368C278.092 217.438 278.184 217.479 278.281 217.482H402.035C402.132 217.479 402.224 217.438 402.291 217.368C402.359 217.298 402.397 217.205 402.397 217.107C402.397 217.01 402.359 216.917 402.291 216.847C402.224 216.777 402.132 216.736 402.035 216.732Z" fill="#263238"/>
<path d="M402.035 206.11H278.281C278.184 206.114 278.092 206.155 278.024 206.225C277.957 206.295 277.919 206.388 277.919 206.485C277.919 206.583 277.957 206.676 278.024 206.746C278.092 206.816 278.184 206.857 278.281 206.86H402.035C402.132 206.857 402.224 206.816 402.291 206.746C402.359 206.676 402.397 206.583 402.397 206.485C402.397 206.388 402.359 206.295 402.291 206.225C402.224 206.155 402.132 206.114 402.035 206.11Z" fill="#263238"/>
<path d="M330.99 227.029H278.701C278.603 227.033 278.511 227.073 278.444 227.143C278.376 227.213 278.338 227.307 278.338 227.404C278.338 227.501 278.376 227.595 278.444 227.665C278.511 227.735 278.603 227.776 278.701 227.779H330.99C331.087 227.776 331.179 227.735 331.247 227.665C331.314 227.595 331.352 227.501 331.352 227.404C331.352 227.307 331.314 227.214 331.247 227.144C331.179 227.074 331.087 227.033 330.99 227.029Z" fill="#263238"/>
<path d="M304.614 150.435H279.362V173.182H304.614V150.435Z" fill="#0028A3"/>
<path d="M402.663 161.434H278.91C278.813 161.437 278.721 161.478 278.653 161.548C278.586 161.618 278.548 161.712 278.548 161.809C278.548 161.906 278.586 162 278.653 162.07C278.721 162.14 278.813 162.181 278.91 162.184H402.663C402.761 162.181 402.853 162.14 402.92 162.07C402.988 162 403.026 161.906 403.026 161.809C403.026 161.712 402.988 161.618 402.92 161.548C402.853 161.478 402.761 161.437 402.663 161.434Z" fill="#263238"/>
<path d="M402.663 150.265H278.91C278.813 150.269 278.721 150.31 278.653 150.38C278.586 150.45 278.548 150.543 278.548 150.64C278.548 150.738 278.586 150.831 278.653 150.901C278.721 150.971 278.813 151.012 278.91 151.015H402.663C402.761 151.012 402.853 150.971 402.92 150.901C402.988 150.831 403.026 150.738 403.026 150.64C403.026 150.543 402.988 150.45 402.92 150.38C402.853 150.31 402.761 150.269 402.663 150.265Z" fill="#263238"/>
<path d="M402.344 173.049H278.91C278.813 173.052 278.721 173.093 278.653 173.163C278.586 173.233 278.548 173.327 278.548 173.424C278.548 173.521 278.586 173.615 278.653 173.685C278.721 173.755 278.813 173.796 278.91 173.799H402.344C402.441 173.796 402.533 173.755 402.601 173.685C402.669 173.615 402.706 173.521 402.706 173.424C402.706 173.327 402.669 173.233 402.601 173.163C402.533 173.093 402.441 173.052 402.344 173.049Z" fill="#263238"/>
<path d="M279.285 173.251V150.64C279.282 150.543 279.241 150.451 279.171 150.383C279.101 150.316 279.008 150.278 278.91 150.278C278.813 150.278 278.719 150.316 278.649 150.383C278.58 150.451 278.539 150.543 278.535 150.64V173.251C278.539 173.348 278.58 173.441 278.649 173.508C278.719 173.576 278.813 173.614 278.91 173.614C279.008 173.614 279.101 173.576 279.171 173.508C279.241 173.441 279.282 173.348 279.285 173.251Z" fill="#263238"/>
<path d="M304.801 173.251V150.64C304.798 150.543 304.757 150.451 304.687 150.383C304.617 150.316 304.523 150.278 304.426 150.278C304.329 150.278 304.235 150.316 304.165 150.383C304.095 150.451 304.054 150.543 304.051 150.64V173.251C304.054 173.348 304.095 173.441 304.165 173.508C304.235 173.576 304.329 173.614 304.426 173.614C304.523 173.614 304.617 173.576 304.687 173.508C304.757 173.441 304.798 173.348 304.801 173.251Z" fill="#263238"/>
<path d="M376.013 173.251V150.64C376.009 150.543 375.968 150.451 375.898 150.383C375.828 150.316 375.735 150.278 375.638 150.278C375.54 150.278 375.447 150.316 375.377 150.383C375.307 150.451 375.266 150.543 375.263 150.64V173.251C375.266 173.348 375.307 173.441 375.377 173.508C375.447 173.576 375.54 173.614 375.638 173.614C375.735 173.614 375.828 173.576 375.898 173.508C375.968 173.441 376.009 173.348 376.013 173.251Z" fill="#263238"/>
<path d="M403.038 173.251V150.64C403.035 150.543 402.994 150.451 402.924 150.383C402.854 150.316 402.761 150.278 402.663 150.278C402.566 150.278 402.473 150.316 402.403 150.383C402.333 150.451 402.292 150.543 402.288 150.64V173.251C402.292 173.348 402.333 173.441 402.403 173.508C402.473 173.576 402.566 173.614 402.663 173.614C402.761 173.614 402.854 173.576 402.924 173.508C402.994 173.441 403.035 173.348 403.038 173.251Z" fill="#263238"/>
<path d="M452.578 38.4946C448.465 38.3053 429.709 39.298 412.951 45.9082V87.4541C412.951 87.4541 413.3 110.143 429.36 123.936C445.419 137.728 453.449 142.432 453.449 142.432C453.449 142.432 459.528 137.482 475.796 123.936C493.585 109.122 492.205 87.4541 492.205 87.4541V45.9082C476.431 38.4738 456.729 38.3291 452.578 38.4946Z" fill="#0028A3"/>
<path opacity="0.3" d="M453.134 134.849C446.291 129.987 439.696 124.785 433.373 119.264C419.963 107.748 419.141 88.3361 419.109 87.3774V50.217C429.584 46.8276 440.488 44.9471 451.493 44.6323C451.811 44.6323 452.08 44.6368 452.295 44.6464L452.559 44.6588L452.823 44.6482C453.246 44.6314 453.851 44.6188 454.615 44.6188C458.992 44.6188 473.303 45.0322 486.046 49.9683V87.3849C486.167 93.4215 484.951 99.4102 482.485 104.922C480.019 110.433 476.365 115.331 471.783 119.264C462.508 127.252 456.492 132.159 453.134 134.849Z" fill="white"/>
<path d="M453.821 98.9803L434.845 84.8493L439.776 78.2283L452.5 87.7033L469.984 66.8453L476.311 72.1483L453.821 98.9803Z" fill="#0028A3"/>
<g opacity="0.3">
<path d="M453.821 98.9803L434.845 84.8493L439.776 78.2283L452.5 87.7033L469.984 66.8453L476.311 72.1483L453.821 98.9803Z" fill="black"/>
</g>
<path opacity="0.3" d="M459.543 46.521C459.543 46.521 449.643 100.196 437.727 108.537C425.811 116.879 422.475 96.902 421.998 90.4463C421.521 83.9906 421.293 54.9156 421.646 53.009C421.998 51.1024 445.721 44.8528 459.543 46.521Z" fill="white"/>
<path d="M329.32 47.2305V38.5032H332.516C333.135 38.5032 333.648 38.6055 334.054 38.81C334.46 39.0117 334.764 39.2859 334.966 39.6325C335.168 39.9762 335.269 40.364 335.269 40.7958C335.269 41.1594 335.202 41.4663 335.068 41.7163C334.935 41.9634 334.756 42.1623 334.531 42.3129C334.31 42.4606 334.065 42.5685 333.798 42.6367V42.7219C334.088 42.7362 334.371 42.8299 334.646 43.0032C334.925 43.1737 335.155 43.4165 335.337 43.7319C335.519 44.0472 335.609 44.4308 335.609 44.8825C335.609 45.3285 335.504 45.729 335.294 46.0842C335.087 46.4364 334.766 46.7163 334.331 46.9237C333.896 47.1282 333.341 47.2305 332.665 47.2305H329.32ZM330.636 46.1012H332.537C333.168 46.1012 333.619 45.979 333.892 45.7347C334.165 45.4904 334.301 45.185 334.301 44.8185C334.301 44.543 334.232 44.2901 334.092 44.06C333.953 43.8299 333.754 43.6467 333.496 43.5103C333.24 43.3739 332.936 43.3058 332.584 43.3058H330.636V46.1012ZM330.636 42.2788H332.401C332.696 42.2788 332.962 42.2219 333.197 42.1083C333.436 41.9947 333.625 41.8356 333.764 41.631C333.906 41.4237 333.977 41.1793 333.977 40.8981C333.977 40.5373 333.851 40.2347 333.598 39.9904C333.345 39.7461 332.957 39.6239 332.435 39.6239H330.636V42.2788ZM338.488 38.5032V47.2305H337.171V38.5032H338.488ZM340.406 47.2305V38.5032H341.722V42.6708H341.829L345.489 38.5032H347.147L343.627 42.4322L347.16 47.2305H345.575L342.754 43.3313L341.722 44.516V47.2305H340.406ZM348.374 47.2305V38.5032H353.846V39.6367H349.691V42.2958H353.56V43.4251H349.691V46.0969H353.897V47.2305H348.374Z" fill="#0028A3"/>
<path d="M209.041 167.327C210.759 165.319 211.997 162.946 212.662 160.389C213.445 157.207 213.86 153.947 213.9 150.67C213.824 147.81 211.377 150.799 210.397 152.652C209.417 154.506 208.287 156.597 207.014 155.635C205.74 154.675 200.351 142.058 198.434 140.926C196.516 139.795 196.75 142.108 196.75 142.108C196.75 142.108 195.358 139.079 194.008 139.303C193.657 139.361 192.936 140.066 193.353 141.545C194.293 144.874 196.625 151.759 196.625 151.759C196.499 151.361 193.014 143.069 192.33 141.895C191.435 140.36 190.231 140.093 189.358 140.64C188.116 141.419 192.087 151.848 191.947 152.405C191.947 152.405 189.862 146.325 187.997 146.004C186.132 145.683 187.236 149.582 188.863 152.836C190.354 155.818 192.498 162.059 194.308 164.944C196.538 168.499 198.834 170.385 202.735 169.859C205.02 169.573 207.192 168.7 209.041 167.327Z" fill="#E9B376"/>
<path opacity="0.3" d="M197.01 142.47C198.064 144.926 199.005 147.426 199.832 149.971" stroke="black" stroke-width="0.5" stroke-linecap="round" stroke-linejoin="round"/>
<path opacity="0.3" d="M192.675 154.795C195.403 152.639 198.702 151.331 202.166 151.031" stroke="black" stroke-width="0.5" stroke-linecap="round" stroke-linejoin="round"/>
<path opacity="0.3" d="M206.137 157.118C204.929 157.866 204.019 159.013 203.566 160.359C203.113 161.706 203.145 163.169 203.656 164.494" stroke="black" stroke-width="0.5" stroke-linecap="round" stroke-linejoin="round"/>
<path d="M199.832 168.828C199.906 169.768 206.738 178.462 206.137 178.462C205.536 178.462 213.67 174.715 213.908 174.223C214.145 173.731 207.592 165.837 207.592 165.837L199.832 168.828Z" fill="#E9B376"/>
<path d="M266.122 181.487L233.175 200.417C233.175 200.417 224.934 184.286 222.539 178.308C220.526 173.282 213.556 171.357 213.556 171.357L210.718 168.184H210.196L200.577 172.796L202.002 176.407C202.002 176.407 201.526 180.692 200.845 184.541C200.165 188.389 218.648 224.207 222.428 227.823C225.155 230.431 233.631 232.623 237.911 230.693C252.907 223.932 274.996 200.417 274.996 200.417L266.122 181.487Z" fill="#263238"/>
<path opacity="0.4" d="M266.122 181.487L233.175 200.417C233.175 200.417 224.934 184.286 222.539 178.308C220.526 173.282 213.556 171.357 213.556 171.357L210.718 168.184H210.196L200.577 172.796L202.002 176.407C202.002 176.407 201.526 180.692 200.845 184.541C200.165 188.389 218.648 224.207 222.428 227.823C225.155 230.431 233.631 232.623 237.911 230.693C252.907 223.932 274.996 200.417 274.996 200.417L266.122 181.487Z" fill="black"/>
<path d="M207.537 453.588C207.791 453.073 210.773 447.588 210.751 447.373L221.698 424.914L196.829 417.15L190.279 445.809C189.875 446.924 189.209 447.926 188.338 448.731C187.466 449.535 186.414 450.119 185.27 450.433C185.27 450.433 174.889 455.482 171.023 454.302C169.697 453.843 168.276 453.734 166.895 453.986C165.515 454.238 164.224 454.843 163.147 455.742C162.304 456.412 161.578 457.218 161 458.126C160.342 459.14 159.886 460.27 159.656 461.456L181.392 469.328C181.392 469.328 185.874 470.1 187.131 470.403C188.249 470.9 189.241 471.641 190.036 472.572L200.192 476.382C200.192 476.382 201.008 474.765 202.19 472.41L202.193 472.41C202.725 471.349 203.331 470.139 203.975 468.861C206.729 463.378 206.769 455.145 207.537 453.588Z" fill="#263238"/>
<path d="M270.443 267.228C268.107 271.39 189.593 434.334 189.593 434.334L216.692 441.596L240.445 395.101L295.265 292.626L270.443 267.228Z" fill="#1CB8CE"/>
<path opacity="0.5" d="M270.443 267.228C268.107 271.39 189.593 434.334 189.593 434.334L216.692 441.596L240.445 395.101L295.265 292.626L270.443 267.228Z" fill="black"/>
<path d="M100.978 265.959C100.351 266.376 92.6307 270.549 93.8827 283.691C95.1348 296.834 100.978 299.546 100.978 299.546V265.959Z" fill="#F8BC22"/>
<path d="M134.711 293.476C134.711 293.476 121.01 301.423 100.978 299.546V265.959C100.978 265.959 118.715 261.37 132.069 270.131C143.351 277.533 134.711 293.476 134.711 293.476Z" fill="#263238"/>
<path opacity="0.3" d="M134.711 293.476C134.711 293.476 121.01 301.423 100.978 299.546V265.959C100.978 265.959 118.715 261.37 132.069 270.131C143.351 277.533 134.711 293.476 134.711 293.476Z" fill="white"/>
<path d="M94.9586 254.167C94.9586 254.167 120.389 244.319 138.44 257.658C145.949 263.081 151.157 271.117 153.04 280.186L145.74 286.849L94.9586 254.167Z" fill="#263238"/>
<path d="M468.692 343.922C468.692 343.922 470.216 360.137 469.107 360.137H465.503L457.324 343.922" fill="#B97964"/>
<path d="M75.6194 409.677L69.1901 406.179L141.209 273.887L179.46 234.163L184.733 239.238L147.166 278.251L75.6194 409.677Z" fill="#263238"/>
<g opacity="0.3">
<path d="M75.6194 409.677L69.1901 406.179L141.209 273.887L179.46 234.163L184.733 239.238L147.166 278.251L75.6194 409.677Z" fill="white"/>
</g>
<path d="M182.7 246.563C188.631 246.563 193.439 241.757 193.439 235.828C193.439 229.899 188.631 225.093 182.7 225.093C176.77 225.093 171.962 229.899 171.962 235.828C171.962 241.757 176.77 246.563 182.7 246.563Z" fill="#263238"/>
<path d="M221.484 427.727C216.946 427.727 212.712 427.651 209.047 427.499C189.768 426.696 182.852 419.949 177.295 414.528C176.361 413.617 175.479 412.756 174.598 411.993C168.295 406.529 134.967 332.039 124.902 309.339L131.595 306.373C147.687 342.67 174.906 401.95 179.436 406.504C180.436 407.368 181.438 408.345 182.407 409.291C187.313 414.077 192.874 419.502 209.351 420.188C231.835 421.123 267.231 419.085 273.535 416.491C280.337 413.691 293.186 396.717 299.361 388.56C313.015 370.522 329.459 344.532 329.624 344.271L335.812 348.178C335.646 348.441 319.041 374.688 305.197 392.975C294.963 406.497 284.302 419.972 276.323 423.257C269.284 426.155 242.247 427.727 221.484 427.727Z" fill="#263238"/>
<g opacity="0.3">
<path d="M221.484 427.727C216.946 427.727 212.712 427.651 209.047 427.499C189.768 426.696 182.852 419.949 177.295 414.528C176.361 413.617 175.479 412.756 174.598 411.993C168.295 406.529 134.967 332.039 124.902 309.339L131.595 306.373C147.687 342.67 174.906 401.95 179.436 406.504C180.436 407.368 181.438 408.345 182.407 409.291C187.313 414.077 192.874 419.502 209.351 420.188C231.835 421.123 267.231 419.085 273.535 416.491C280.337 413.691 293.186 396.717 299.361 388.56C313.015 370.522 329.459 344.532 329.624 344.271L335.812 348.178C335.646 348.441 319.041 374.688 305.197 392.975C294.963 406.497 284.302 419.972 276.323 423.257C269.284 426.155 242.247 427.727 221.484 427.727Z" fill="white"/>
</g>
<path d="M330.987 323.245L323.862 327.748L376.798 411.48L383.923 406.978L330.987 323.245Z" fill="#263238"/>
<path d="M350.379 339.33C350.379 339.33 368.908 329.49 406.82 337.469C444.732 345.449 454.423 375.656 454.423 375.656H467.536C467.536 375.656 459.554 342.314 417.082 326.64C381.404 313.474 369.193 322.651 358.646 325.5C348.099 328.35 350.379 339.33 350.379 339.33Z" fill="#1CB8CE"/>
<path d="M223.753 425.972L243.937 434.456C246.333 435.463 248.906 435.982 251.506 435.982H386.121V418.668L280.041 419.75L223.753 425.972Z" fill="#263238"/>
<path d="M313.963 331.359C312.31 331.542 255.185 331.359 255.185 331.359C255.185 331.359 255 363.98 257.403 365.963C257.981 366.527 258.684 366.947 259.454 367.191C260.225 367.434 261.042 367.493 261.839 367.363C261.839 367.363 264.057 381.459 279.029 382.187C294.001 382.915 297.882 379.037 302.873 377.927C307.864 376.817 329.448 345.047 328.36 342.176C327.272 339.305 322.281 330.435 313.963 331.359Z" fill="#263238"/>
<path opacity="0.3" d="M313.963 331.359C312.31 331.542 255.185 331.359 255.185 331.359C255.185 331.359 255 363.98 257.403 365.963C257.981 366.527 258.684 366.947 259.454 367.191C260.225 367.434 261.042 367.493 261.839 367.363C261.839 367.363 264.057 381.459 279.029 382.187C294.001 382.915 297.882 379.037 302.873 377.927C307.864 376.817 329.448 345.047 328.36 342.176C327.272 339.305 322.281 330.435 313.963 331.359Z" fill="white"/>
<path d="M145.375 273.522C146.314 272.896 171.962 280.239 171.962 280.239L165.095 325.497L176.99 342.176L204.032 333.814L213.613 348.627L210.17 352.099L215.193 362.411L225.508 352.099V346.75H257.123L315.972 347.062L326.614 355.687L285.295 408.171L260.745 411.598L186.397 388.996C186.397 388.996 170.416 350.192 156.33 331.292C142.244 312.392 137.862 322.028 137.874 322.314L129.668 302.738L145.688 275.087" fill="#263238"/>
<path opacity="0.3" d="M145.375 273.522C146.314 272.896 171.962 280.239 171.962 280.239L165.095 325.497L176.99 342.176L204.032 333.814L213.613 348.627L210.17 352.099L215.193 362.411L225.508 352.099V346.75H257.123L315.972 347.062L326.614 355.687L285.295 408.171L260.745 411.598L186.397 388.996C186.397 388.996 170.416 350.192 156.33 331.292C142.244 312.392 137.862 322.028 137.874 322.314L129.668 302.738L145.688 275.087" fill="white"/>
<path d="M444.155 342.398H458.155L466.889 361.8H459.543L444.155 342.398Z" fill="#1CB8CE"/>
<path d="M350.171 323.696C351.051 326.407 365.206 341.618 365.206 341.618L350.171 349.069L336.625 331.292L350.171 323.696Z" fill="#263238"/>
<g opacity="0.3">
<path d="M330.987 323.245L323.862 327.747L376.798 411.48L383.923 406.978L330.987 323.245Z" fill="white"/>
</g>
<path opacity="0.3" d="M350.171 323.696C351.051 326.407 365.206 341.618 365.206 341.618L350.171 349.069L336.625 331.292L350.171 323.696Z" fill="white"/>
<path d="M97.5893 413.814C100.841 399.908 92.2018 386 78.2927 382.749C64.3836 379.498 50.4718 388.135 47.2199 402.041C43.968 415.946 52.6074 429.854 66.5165 433.105C80.4256 436.356 94.3374 427.719 97.5893 413.814Z" fill="#263238"/>
<path d="M389.318 337.466C375.121 337.466 361.243 341.675 349.438 349.561C337.634 357.446 328.433 368.654 323 381.767C317.567 394.88 316.146 409.309 318.916 423.229C321.685 437.15 328.522 449.937 338.561 459.973C348.6 470.009 361.39 476.844 375.314 479.613C389.239 482.382 403.672 480.96 416.788 475.529C429.905 470.097 441.115 460.899 449.003 449.098C456.89 437.297 461.1 423.422 461.1 409.229C461.1 399.805 459.244 390.473 455.636 381.767C452.029 373.06 446.742 365.149 440.076 358.485C433.41 351.821 425.497 346.535 416.788 342.929C408.079 339.323 398.745 337.466 389.318 337.466ZM389.318 463.756C378.273 463.756 367.477 460.482 358.293 454.347C349.11 448.213 341.952 439.493 337.725 429.292C333.498 419.091 332.393 407.865 334.547 397.036C336.702 386.206 342.021 376.258 349.831 368.45C357.64 360.642 367.591 355.325 378.424 353.171C389.256 351.017 400.485 352.123 410.689 356.348C420.893 360.574 429.615 367.729 435.751 376.91C441.887 386.091 445.162 396.885 445.162 407.927C445.162 415.259 443.718 422.518 440.911 429.292C438.105 436.065 433.992 442.22 428.806 447.404C423.62 452.588 417.464 456.701 410.689 459.506C403.914 462.312 396.652 463.756 389.318 463.756Z" fill="#263238"/>
<path d="M414.503 413.814C417.755 399.908 409.116 386 395.206 382.749C381.297 379.498 367.386 388.135 364.134 402.041C360.882 415.946 369.521 429.854 383.43 433.105C397.339 436.356 411.251 427.719 414.503 413.814Z" fill="#263238"/>
<path opacity="0.7" d="M223.753 425.972L243.937 434.456C246.333 435.463 248.906 435.982 251.506 435.982H386.121V418.668L280.041 419.75L223.753 425.972Z" fill="white"/>
<path d="M286.13 305.302C286.13 305.302 258.52 302.572 264.588 314.401C270.656 326.231 283.096 333.814 304.334 333.814C325.572 333.814 362.284 330.53 378.667 322.314C395.051 314.098 393.231 303.785 392.624 294.079C392.017 284.373 384.432 281.135 373.509 286.849C362.587 292.562 360.89 292.459 344.99 296.809C328.36 301.359 303.772 304.711 286.13 305.302Z" fill="#263238"/>
<path d="M225.671 420.035C231.522 419.665 239.374 419.853 245.116 418.668C250.858 417.483 256.844 415.974 260.745 411.598C264.734 407.123 266.09 402.419 266.997 396.494C267.6 392.553 265.971 386.747 263.736 383.445C261.887 380.965 259.191 379.25 256.161 378.628C253.156 378.024 250.088 377.79 247.026 377.932C231.764 378.02 216.315 378.131 201.544 381.972C195.449 383.557 189.309 385.901 184.893 390.39C180.478 394.879 178.211 401.955 180.838 407.676C183.182 412.779 188.641 415.626 193.885 417.637C193.885 417.637 204.448 421.376 225.671 420.035Z" fill="#263238"/>
<g opacity="0.7">
<path d="M225.671 420.035C231.522 419.665 239.374 419.853 245.116 418.668C250.858 417.483 256.844 415.974 260.745 411.598C264.734 407.123 266.09 402.419 266.997 396.494C267.6 392.553 265.971 386.747 263.736 383.445C261.887 380.965 259.191 379.25 256.161 378.628C253.156 378.024 250.088 377.79 247.026 377.932C231.764 378.02 216.315 378.131 201.544 381.972C195.449 383.557 189.309 385.901 184.893 390.39C180.478 394.879 178.211 401.955 180.838 407.676C183.182 412.779 188.641 415.626 193.885 417.637C193.885 417.637 204.448 421.376 225.671 420.035Z" fill="white"/>
</g>
<path d="M215.818 402.206C217.483 395.19 213.143 388.152 206.124 386.487C199.105 384.822 192.066 389.161 190.401 396.178C188.735 403.195 193.076 410.233 200.094 411.897C207.113 413.562 214.153 409.223 215.818 402.206Z" fill="#263238"/>
<path d="M253.166 406.439C258.89 400.717 258.89 391.44 253.166 385.718C247.443 379.996 238.164 379.996 232.44 385.718C226.717 391.44 226.717 400.717 232.44 406.439C238.164 412.161 247.443 412.161 253.166 406.439Z" fill="#263238"/>
<path d="M204.123 282.421C203.207 282.278 143.369 269.352 148.369 308.094C148.369 308.094 152.619 328.34 163.62 330.839C172.915 332.951 240.754 331.494 261.57 330.992C263.679 330.949 265.743 330.379 267.575 329.334C269.407 328.289 270.947 326.802 272.056 325.008L272.127 324.892C274.484 321.011 274.773 307.482 264.376 298.596C248.875 285.349 217.559 284.523 204.123 282.421Z" fill="#1CB8CE"/>
<path d="M36.8991 346.847L31.5178 339.801C31.5178 339.801 74.9356 315.915 113.729 339.801C113.729 339.801 172.332 373.961 144.187 442.794L137.556 439.392C137.556 439.392 140.705 418.908 134.025 391.169C127.345 363.431 108.077 346.222 85.212 342.883C62.347 339.544 36.8991 346.847 36.8991 346.847Z" fill="#1CB8CE"/>
<path d="M72.4046 337.466C58.2075 337.466 44.3291 341.675 32.5246 349.561C20.7201 357.446 11.5197 368.654 6.08667 381.767C0.653658 394.879 -0.767863 409.309 2.00186 423.229C4.77159 437.15 11.6082 449.937 21.6471 459.973C31.686 470.009 44.4763 476.844 58.4006 479.613C72.325 482.382 86.758 480.96 99.8744 475.529C112.991 470.097 124.202 460.899 132.089 449.098C139.977 437.297 144.187 423.422 144.187 409.229C144.187 390.196 136.624 371.943 123.162 358.485C109.7 345.027 91.4424 337.466 72.4046 337.466ZM72.4046 463.756C61.3597 463.756 50.5628 460.482 41.3793 454.347C32.1958 448.213 25.0382 439.493 20.8114 429.292C16.5847 419.091 15.4788 407.865 17.6336 397.036C19.7883 386.206 25.1069 376.258 32.9168 368.45C40.7267 360.642 50.6772 355.325 61.5099 353.171C72.3425 351.017 83.5709 352.123 93.775 356.348C103.979 360.574 112.701 367.729 118.837 376.91C124.973 386.091 128.249 396.885 128.249 407.927C128.249 415.259 126.804 422.518 123.998 429.292C121.191 436.065 117.078 442.22 111.892 447.404C106.707 452.588 100.55 456.701 93.7752 459.506C86.9999 462.312 79.7381 463.756 72.4046 463.756Z" fill="#263238"/>
<path d="M271.104 163.454C271.104 163.454 267.569 156.358 267.6 141.992C267.595 141.978 266.808 141.868 266.803 141.854C266.8 139.848 266.871 137.972 266.975 136.333C266.976 136.313 266.975 136.292 266.97 136.272L252.052 152.699C253.698 156.817 254.533 165.449 254.621 169.17C254.621 169.17 254.133 176.096 262.55 173.972C268.7 172.42 271.104 163.454 271.104 163.454Z" fill="#E9B376"/>
<path opacity="0.2" d="M253.456 158.751L263.221 153.395C263.207 156.914 261.441 161.588 254.264 163.992C254.134 162.226 253.864 160.474 253.456 158.751Z" fill="black"/>
<path d="M230.496 124.965C229.567 129.775 231.465 139.222 237.596 135.376C242.363 132.387 237.048 119.999 233.404 119.744C232.36 119.671 230.851 123.124 230.496 124.965Z" fill="#263238"/>
<path d="M264.576 127.42C267.068 139.193 268.075 145.914 263.589 153.272C256.841 164.339 241.482 162.505 235.882 151.483C230.842 141.562 228.279 123.848 238.649 116.562C248.864 109.384 262.671 118.421 264.576 127.42Z" fill="#E9B376"/>
<path d="M265.284 110.981C257.583 106.642 243.388 110.77 239.67 115.14C239.115 115.792 249.823 118.3 249.193 118.228L254.066 118.704C254.722 118.384 256.277 118.867 257.499 120.851C257.499 120.851 258.75 133.629 265.069 137.594C269.581 134.037 270.476 131.632 270.748 127.098C271.154 120.342 268.772 113.915 265.284 110.981Z" fill="#020202"/>
<path d="M271.525 136.05C271.413 137.54 271.007 138.992 270.329 140.324C269.651 141.656 268.716 142.84 267.577 143.807C264.507 146.374 261.293 144.022 260.74 140.263C260.243 136.88 261.241 131.467 265 130.355C268.703 129.26 271.768 132.356 271.525 136.05Z" fill="#E9B376"/>
<path d="M251.15 134.089C251.436 135.284 251.033 136.399 250.249 136.578C249.464 136.759 248.596 135.936 248.309 134.74C248.022 133.545 248.425 132.43 249.21 132.25C249.994 132.07 250.863 132.893 251.15 134.089Z" fill="#263238"/>
<path d="M238.228 137.551C238.515 138.746 238.111 139.861 237.327 140.041C236.543 140.221 235.674 139.398 235.387 138.203C235.1 137.008 235.503 135.893 236.288 135.713C237.072 135.533 237.941 136.356 238.228 137.551Z" fill="#263238"/>
<path d="M240.65 136.27C240.65 136.27 238.291 143.116 237.658 145.825C239.683 146.929 242.383 145.548 242.383 145.548L240.65 136.27Z" fill="#D58745"/>
<path d="M250.234 128.468C250.151 128.528 250.053 128.565 249.951 128.575C249.849 128.584 249.747 128.567 249.654 128.524C249.003 128.205 248.286 128.044 247.561 128.052C246.836 128.06 246.123 128.238 245.48 128.571C245.35 128.652 245.193 128.678 245.044 128.645C244.895 128.611 244.765 128.521 244.682 128.392C244.642 128.329 244.614 128.258 244.601 128.184C244.588 128.11 244.59 128.034 244.607 127.96C244.623 127.887 244.654 127.818 244.698 127.756C244.741 127.695 244.796 127.643 244.86 127.603C245.666 127.166 246.565 126.927 247.482 126.906C248.399 126.886 249.308 127.084 250.133 127.485C250.202 127.516 250.264 127.56 250.315 127.615C250.367 127.67 250.407 127.734 250.434 127.805C250.461 127.875 250.473 127.95 250.471 128.026C250.468 128.101 250.451 128.175 250.419 128.244C250.378 128.334 250.314 128.411 250.234 128.468Z" fill="#263238"/>
<path opacity="0.2" d="M268.082 133.46C267.744 133.188 267.333 133.022 266.901 132.984C266.468 132.946 266.034 133.038 265.654 133.247C264.898 133.684 264.318 134.37 264.011 135.187C263.607 136.15 263.461 137.202 263.588 138.238" stroke="black" stroke-width="0.5" stroke-linecap="round" stroke-linejoin="round"/>
<path d="M253.708 142.46L244.711 148.853C245.591 149.81 246.591 150.649 247.688 151.347C248.227 151.65 248.822 151.839 249.437 151.903C250.053 151.966 250.674 151.904 251.264 151.718C252.147 151.483 252.941 150.994 253.549 150.312C254.156 149.63 254.55 148.784 254.682 147.881C254.834 146.02 254.498 144.151 253.708 142.46Z" fill="black"/>
<path d="M245.436 148.338C245.436 148.338 246.493 149.388 247.175 149.386C247.857 149.385 254.363 144.287 254.363 144.287L253.708 142.46L245.436 148.338Z" fill="white"/>
<path d="M249.938 151.918C249.977 151.263 250.156 150.624 250.465 150.045C250.774 149.466 251.205 148.961 251.728 148.565C252.542 147.776 253.609 147.303 254.74 147.23C254.725 147.914 254.564 148.586 254.269 149.203C253.973 149.82 253.551 150.368 253.028 150.809C252.175 151.555 251.071 151.951 249.938 151.918Z" fill="#DE5753"/>
<path d="M230.611 134.044C230.507 134.046 230.404 134.02 230.314 133.968C230.223 133.917 230.148 133.842 230.096 133.752C230.045 133.662 230.018 133.559 230.02 133.455C230.021 133.351 230.05 133.249 230.105 133.161C230.57 132.379 231.216 131.721 231.989 131.242C232.763 130.762 233.64 130.476 234.547 130.407C234.7 130.406 234.847 130.465 234.957 130.571C235.067 130.677 235.131 130.823 235.135 130.975C235.136 131.05 235.124 131.125 235.097 131.195C235.07 131.265 235.029 131.328 234.977 131.383C234.925 131.437 234.863 131.48 234.795 131.51C234.726 131.541 234.652 131.557 234.577 131.558C233.858 131.615 233.163 131.846 232.554 132.233C231.945 132.62 231.439 133.15 231.082 133.776C231.032 133.857 230.963 133.923 230.881 133.97C230.798 134.017 230.706 134.042 230.611 134.044Z" fill="#263238"/>
<path d="M265.459 417.508C265.34 416.924 264.299 410.532 264.144 410.369L258.846 384.998L233.518 394.43L246.363 422.092C246.74 423.264 246.831 424.508 246.627 425.722C246.424 426.935 245.932 428.082 245.194 429.066C245.194 429.066 239.89 439.801 235.97 441.29C234.591 441.755 233.356 442.569 232.385 443.653C231.413 444.737 230.739 446.053 230.427 447.474C230.162 448.559 230.079 449.681 230.181 450.793C230.287 452.042 230.632 453.259 231.197 454.378L254.024 447.024C254.024 447.024 258.19 444.81 259.414 444.26C260.647 443.958 261.931 443.935 263.174 444.193L273.925 440.865C273.925 440.865 273.565 439.021 273.038 436.339L273.04 436.337C272.802 435.129 272.53 433.752 272.246 432.295C271.02 426.049 265.819 419.272 265.459 417.508Z" fill="#263238"/>
<path d="M315.471 249.677L268.082 267.768L273.254 279.293C273.254 279.293 218.238 305.629 212.458 321.763C212.329 343.944 237.145 402.375 241.949 419.507L273.925 411.523C270.97 395.112 252.752 338.58 252.752 338.58C256.822 332.687 255.673 331.272 282.578 320.93C301.087 313.816 324.543 303.077 327.118 299.934C335.53 290.083 327.225 264.786 315.471 249.677Z" fill="#1CB8CE"/>
<path opacity="0.3" d="M315.471 249.677L268.082 267.768L273.254 279.293C273.254 279.293 218.238 305.629 212.458 321.763C212.329 343.944 237.145 402.375 241.949 419.507L273.925 411.523C270.97 395.112 252.752 338.58 252.752 338.58C256.822 332.687 255.673 331.272 282.578 320.93C301.087 313.816 324.543 303.077 327.118 299.934C335.53 290.083 327.225 264.786 315.471 249.677Z" fill="black"/>
<path d="M273.735 159.169C273.735 159.169 286.615 165.14 294.094 173.551C301.573 181.962 325.255 234.922 324.009 242.398C322.762 249.875 321.16 255.822 321.16 255.822L324.473 261.507L271.501 277.803L268.765 273.485C268.765 273.485 267.919 274.878 262.31 265.959C256.701 257.04 248.082 202.961 251.497 192.092C252.466 188.579 253.122 184.988 253.456 181.359C253.57 177.537 253.097 173.719 252.052 170.041L272.629 147.19L273.735 159.169Z" fill="#263238"/>
<path opacity="0.4" d="M256.643 243.99L258.065 251.635C258.065 251.635 276.37 216.272 269.883 202.961L256.643 243.99Z" fill="black"/>
<path d="M208.937 245.398L195.297 242.308C193.615 243.198 191.852 243.925 190.032 244.48C187.704 245.088 186.878 245.803 183.33 243.959C182.87 243.789 182.453 243.519 182.109 243.168C181.766 242.817 181.505 242.394 181.346 241.93C181.186 241.465 181.132 240.972 181.187 240.484C181.241 239.996 181.404 239.526 181.663 239.109C179.369 239.475 179.222 235.779 179.222 235.779C176.287 233.814 178.375 230.758 178.375 230.758C178.375 230.758 180.22 226.966 181.814 225.868C183.409 224.769 190.264 226.008 190.264 226.008L195.818 230.272L211.655 231.006C211.618 231.28 208.937 245.398 208.937 245.398Z" fill="#E9B376"/>
<path d="M256.263 181.371C256.263 181.371 250.663 192.441 248.688 200.66C246.875 208.208 239.61 228.553 239.61 228.553L196.311 229.435L193.412 243.581C193.412 243.581 244.442 255.787 251.83 250.146C259.218 244.505 262.178 233.556 267.298 222.24C270.339 215.552 272.884 208.649 274.912 201.588C275.934 198.168 279.767 182.561 271.337 177.086C262.908 171.611 256.263 181.371 256.263 181.371Z" fill="#263238"/>
<path d="M274.266 440.304L226.152 454.675L227.818 460.251L275.932 445.88L274.266 440.304Z" fill="#263238"/>
<path opacity="0.3" d="M274.266 440.304L226.152 454.675L227.818 460.251L275.932 445.88L274.266 440.304Z" fill="white"/>
<path opacity="0.4" d="M255.182 335.006L243.602 330.168C243.602 330.168 258.986 332.166 258.344 331.95C257.703 331.735 255.182 335.006 255.182 335.006Z" fill="black"/>
<path d="M257.205 117.241C253.292 112.825 247.789 106.06 241.944 105.243C239.313 104.743 236.599 104.909 234.048 105.724C231.497 106.54 229.19 107.98 227.337 109.913C223.979 113.181 222.402 114.578 221.667 115.952C221.271 116.626 221.075 117.399 221.102 118.18C221.129 118.961 221.378 119.718 221.818 120.363C222.057 120.665 222.357 120.912 222.698 121.088C223.04 121.264 223.415 121.365 223.799 121.385C224.182 121.405 224.566 121.343 224.924 121.202C225.281 121.062 225.605 120.847 225.873 120.572C225.52 120.532 225.163 120.565 224.824 120.671C224.485 120.777 224.171 120.952 223.904 121.186C223.637 121.419 223.421 121.706 223.271 122.028C223.121 122.35 223.04 122.7 223.032 123.055C223.066 123.775 223.304 124.471 223.719 125.062C224.134 125.652 224.709 126.112 225.376 126.388C226.722 126.918 228.19 127.062 229.614 126.805C238.856 125.598 248.585 116.557 257.872 117.358" fill="#020202"/>
<path opacity="0.4" d="M254.363 185.36C254.363 185.36 257.289 173.346 270.153 176.418C270.153 176.418 263.562 172.89 258.339 175.915C253.115 178.94 254.363 185.36 254.363 185.36Z" fill="black"/>
<path d="M191.184 235.828C191.184 236.881 190.871 237.911 190.286 238.787C189.701 239.663 188.868 240.346 187.895 240.749C186.921 241.152 185.85 241.258 184.816 241.052C183.783 240.847 182.833 240.339 182.088 239.595C181.343 238.85 180.836 237.9 180.63 236.867C180.424 235.834 180.53 234.763 180.933 233.789C181.336 232.816 182.019 231.984 182.896 231.399C183.772 230.814 184.802 230.501 185.856 230.501C186.555 230.501 187.248 230.639 187.895 230.907C188.541 231.174 189.129 231.567 189.623 232.061C190.118 232.556 190.511 233.143 190.778 233.789C191.046 234.436 191.184 235.128 191.184 235.828Z" fill="#263238"/>
<path opacity="0.3" d="M234.423 130.425C232.409 130.972 230.521 131.909 228.868 133.183C228.663 133.349 228.494 133.555 228.373 133.789C228.251 134.023 228.179 134.279 228.161 134.542C228.009 136.806 227.924 143.261 233.448 142.558C239.956 141.731 239.815 136.703 239.897 133.684C239.978 130.665 238.97 129.049 234.423 130.425Z" fill="#263238"/>
<path opacity="0.3" d="M245.498 127.675C248.096 127.067 250.765 126.813 253.431 126.921C253.704 126.976 253.964 127.086 254.196 127.242C254.427 127.398 254.626 127.598 254.78 127.831C256.141 129.866 258.088 136.371 252.932 138.497C246.86 141 244.98 137.421 243.269 134.647C241.558 131.874 240.822 128.681 245.498 127.675Z" fill="#263238"/>
<path d="M253.976 128.009L265 130.355" stroke="black" stroke-width="0.5" stroke-linecap="round" stroke-linejoin="round"/>
<path d="M238.718 131.599C239.244 130.993 239.965 130.588 240.757 130.454C241.549 130.321 242.362 130.467 243.058 130.868" stroke="black" stroke-width="0.5" stroke-linecap="round" stroke-linejoin="round"/>
<path d="M225.39 255.148C201.374 249.706 193.035 275.956 193.035 275.956H185.364C183.827 275.956 183.445 276.835 183.54 277.89C183.66 278.888 184.117 279.815 184.835 280.519C185.552 281.223 186.488 281.662 187.489 281.764L244.517 288.678C244.517 288.678 249.405 260.59 225.39 255.148Z" fill="#0028A3"/>
<path opacity="0.3" d="M193.035 275.956C193.035 275.956 212.424 277.184 219.212 278.256C226.001 279.327 193.718 274.149 193.718 274.149L193.035 275.956Z" fill="black"/>
<path opacity="0.4" d="M321.16 255.822C320.289 255.951 268.765 273.485 268.765 273.485" stroke="black" stroke-width="0.5" stroke-miterlimit="10"/>
<path opacity="0.3" d="M183.526 282.295C183.526 282.295 161.1 292.623 160.362 302.512C159.936 310.511 160.53 318.533 162.131 326.382C162.131 326.382 145.917 309.205 153.04 296.752C160.162 284.299 180.338 281.706 183.526 282.295Z" fill="white"/>
<path opacity="0.3" d="M117.614 295.758L128.66 274.793L108.823 298.356L117.614 295.758Z" fill="black"/>
</svg>
