<svg width="37" height="37" viewBox="0 0 37 37" fill="none" xmlns="http://www.w3.org/2000/svg">
<circle cx="18.9804" cy="18.3229" r="17.5141" fill="#E1E9FF" stroke="#0028A3" stroke-width="1.00285"/>
<path d="M14.7841 17.3799C15.9073 19.5873 17.7169 21.3891 19.9243 22.5201L21.6403 20.8041C21.8509 20.5935 22.1629 20.5233 22.4359 20.6169C23.3095 20.9055 24.2533 21.0615 25.2205 21.0615C25.6495 21.0615 26.0005 21.4125 26.0005 21.8415V24.5637C26.0005 24.9927 25.6495 25.3437 25.2205 25.3437C17.8963 25.3437 11.9605 19.4079 11.9605 12.0837C11.9605 11.6547 12.3115 11.3037 12.7405 11.3037H15.4705C15.8995 11.3037 16.2505 11.6547 16.2505 12.0837C16.2505 13.0587 16.4065 13.9947 16.6951 14.8683C16.7809 15.1413 16.7185 15.4455 16.5001 15.6639L14.7841 17.3799Z" fill="#0028A3"/>
</svg>
