<svg width="18" height="18" viewBox="0 0 18 18" fill="none" xmlns="http://www.w3.org/2000/svg">
<path d="M13.3703 2.64783V5.35595M14.724 4.00154H12.0166M11.9776 9.22419V11.3133C11.9776 12.0824 11.3541 12.706 10.5849 12.706H8.844M2.03576 4.30933H8.41296M9.88853 4.00154C9.88853 5.92447 11.4474 7.48331 13.3703 7.48331C15.2932 7.48331 16.8521 5.92447 16.8521 4.00154C16.8521 2.07862 15.2932 0.519775 13.3703 0.519775C11.4474 0.519775 9.88853 2.07862 9.88853 4.00154ZM2.10887 13.7233L6.60314 16.3451C6.99984 16.5765 7.48998 16.5781 7.88821 16.3494C8.28644 16.1206 8.532 15.6964 8.53204 15.2372V9.32377C8.53206 8.41115 8.04737 7.56718 7.2591 7.10728L2.76484 4.48551C2.3677 4.25389 1.87698 4.25252 1.47856 4.48194C1.08015 4.71135 0.83498 5.13645 0.83594 5.59619V11.5103C0.837008 12.4217 1.32157 13.2642 2.10887 13.7233ZM5.68743 11.4574C5.68743 11.6497 5.84332 11.8056 6.03561 11.8056C6.2279 11.8056 6.38379 11.6497 6.38379 11.4574C6.38379 11.2651 6.2279 11.1092 6.03561 11.1092C5.84332 11.1092 5.68743 11.2651 5.68743 11.4574Z" stroke="#0028A3" stroke-linecap="round" stroke-linejoin="round"/>
</svg>
