<svg width="690" height="493" viewBox="0 0 690 493" fill="none" xmlns="http://www.w3.org/2000/svg">
<path d="M633.356 298.019V230.081H591.28V245.574H563.233V75.8632H509.308V142.66H493.128V109.304H451.051V271.976H391.721V214.502H354.521V89.8912H308.608V172.965H265.456V351.93H232.023V264.783H197.499V208.707H160.827V165.653L119.91 187.232V302.417H76.758V278.657H19.1166V492.587L690.061 492.91V298.019H633.356Z" fill="#F0F0F0"/>
<path d="M332.544 104.6H319.109V119.991H332.544V104.6Z" fill="#FAFAFA"/>
<path d="M332.544 130.406H319.109V145.797H332.544V130.406Z" fill="#FAFAFA"/>
<path d="M332.544 156.228H319.109V171.619H332.544V156.228Z" fill="#FAFAFA"/>
<path d="M332.544 182.033H319.109V197.424H332.544V182.033Z" fill="#FAFAFA"/>
<path d="M332.544 207.838H319.109V223.229H332.544V207.838Z" fill="#FAFAFA"/>
<path d="M332.544 233.66H319.109V249.051H332.544V233.66Z" fill="#FAFAFA"/>
<path d="M332.544 259.465H319.109V274.856H332.544V259.465Z" fill="#FAFAFA"/>
<path d="M332.544 285.287H319.109V300.678H332.544V285.287Z" fill="#FAFAFA"/>
<path d="M534.353 83.9937H520.918V99.3847H534.353V83.9937Z" fill="#FAFAFA"/>
<path d="M534.353 109.799H520.918V125.19H534.353V109.799Z" fill="#FAFAFA"/>
<path d="M534.353 135.621H520.918V151.012H534.353V135.621Z" fill="#FAFAFA"/>
<path d="M534.353 161.426H520.918V176.817H534.353V161.426Z" fill="#FAFAFA"/>
<path d="M534.353 187.248H520.918V202.639H534.353V187.248Z" fill="#FAFAFA"/>
<path d="M534.353 213.053H520.918V228.444H534.353V213.053Z" fill="#FAFAFA"/>
<path d="M534.353 238.876H520.918V254.267H534.353V238.876Z" fill="#FAFAFA"/>
<path d="M534.353 264.681H520.918V280.072H534.353V264.681Z" fill="#FAFAFA"/>
<path d="M273.197 492.709V245.182H219.748V492.683L273.197 492.709Z" fill="#E0E0E0"/>
<path d="M230.285 253.039H223.806V266.402H230.285V253.039Z" fill="#FAFAFA"/>
<path d="M243.242 253.039H236.763V266.402H243.242V253.039Z" fill="#FAFAFA"/>
<path d="M256.199 253.039H249.72V266.402H256.199V253.039Z" fill="#FAFAFA"/>
<path d="M269.156 253.039H262.677V266.402H269.156V253.039Z" fill="#FAFAFA"/>
<path d="M230.285 275.453H223.806V288.815H230.285V275.453Z" fill="#FAFAFA"/>
<path d="M243.242 275.453H236.763V288.815H243.242V275.453Z" fill="#FAFAFA"/>
<path d="M256.199 275.453H249.72V288.815H256.199V275.453Z" fill="#FAFAFA"/>
<path d="M269.156 275.453H262.677V288.815H269.156V275.453Z" fill="#FAFAFA"/>
<path d="M230.285 297.849H223.806V311.212H230.285V297.849Z" fill="#FAFAFA"/>
<path d="M243.242 297.849H236.763V311.212H243.242V297.849Z" fill="#FAFAFA"/>
<path d="M256.199 297.849H249.72V311.212H256.199V297.849Z" fill="#FAFAFA"/>
<path d="M269.156 297.849H262.677V311.212H269.156V297.849Z" fill="#FAFAFA"/>
<path d="M230.285 320.245H223.806V333.608H230.285V320.245Z" fill="#FAFAFA"/>
<path d="M243.242 320.245H236.763V333.608H243.242V320.245Z" fill="#FAFAFA"/>
<path d="M256.199 320.245H249.72V333.608H256.199V320.245Z" fill="#FAFAFA"/>
<path d="M269.156 320.245H262.677V333.608H269.156V320.245Z" fill="#FAFAFA"/>
<path d="M230.285 342.641H223.806V356.004H230.285V342.641Z" fill="#FAFAFA"/>
<path d="M243.242 342.641H236.763V356.004H243.242V342.641Z" fill="#FAFAFA"/>
<path d="M256.199 342.641H249.72V356.004H256.199V342.641Z" fill="#FAFAFA"/>
<path d="M269.156 342.641H262.677V356.004H269.156V342.641Z" fill="#FAFAFA"/>
<path d="M230.285 365.038H223.806V378.4H230.285V365.038Z" fill="#FAFAFA"/>
<path d="M243.242 365.038H236.763V378.4H243.242V365.038Z" fill="#FAFAFA"/>
<path d="M256.199 365.038H249.72V378.4H256.199V365.038Z" fill="#FAFAFA"/>
<path d="M269.156 365.038H262.677V378.4H269.156V365.038Z" fill="#FAFAFA"/>
<path d="M230.285 387.434H223.806V400.797H230.285V387.434Z" fill="#FAFAFA"/>
<path d="M243.242 387.434H236.763V400.797H243.242V387.434Z" fill="#FAFAFA"/>
<path d="M256.199 387.434H249.72V400.797H256.199V387.434Z" fill="#FAFAFA"/>
<path d="M269.156 387.434H262.677V400.797H269.156V387.434Z" fill="#FAFAFA"/>
<path d="M230.285 409.847H223.806V423.21H230.285V409.847Z" fill="#FAFAFA"/>
<path d="M243.242 409.847H236.763V423.21H243.242V409.847Z" fill="#FAFAFA"/>
<path d="M256.199 409.847H249.72V423.21H256.199V409.847Z" fill="#FAFAFA"/>
<path d="M269.156 409.847H262.677V423.21H269.156V409.847Z" fill="#FAFAFA"/>
<path d="M458.928 492.799V216.616H348.11V492.876C348.11 492.876 458.079 492.91 458.928 492.799Z" fill="#E6E6E6"/>
<path d="M369.864 225.751H356.43V241.142H369.864V225.751Z" fill="#E0E0E0"/>
<path d="M396.751 225.751H383.316V241.142H396.751V225.751Z" fill="#E0E0E0"/>
<path d="M423.62 225.751H410.185V241.142H423.62V225.751Z" fill="#E0E0E0"/>
<path d="M450.506 225.751H437.072V241.142H450.506V225.751Z" fill="#E0E0E0"/>
<path d="M369.864 251.574H356.43V266.965H369.864V251.574Z" fill="#E0E0E0"/>
<path d="M396.751 251.574H383.316V266.965H396.751V251.574Z" fill="#E0E0E0"/>
<path d="M423.62 251.574H410.185V266.965H423.62V251.574Z" fill="#E0E0E0"/>
<path d="M450.506 251.574H437.072V266.965H450.506V251.574Z" fill="#E0E0E0"/>
<path d="M369.864 277.379H356.43V292.77H369.864V277.379Z" fill="#E0E0E0"/>
<path d="M396.751 277.379H383.316V292.77H396.751V277.379Z" fill="#E0E0E0"/>
<path d="M423.62 277.379H410.185V292.77H423.62V277.379Z" fill="#E0E0E0"/>
<path d="M450.506 277.379H437.072V292.77H450.506V277.379Z" fill="#E0E0E0"/>
<path d="M369.864 303.184H356.43V318.575H369.864V303.184Z" fill="#E0E0E0"/>
<path d="M396.751 303.184H383.316V318.575H396.751V303.184Z" fill="#E0E0E0"/>
<path d="M423.62 303.184H410.185V318.575H423.62V303.184Z" fill="#E0E0E0"/>
<path d="M450.506 303.184H437.072V318.575H450.506V303.184Z" fill="#E0E0E0"/>
<path d="M369.864 329.006H356.43V344.397H369.864V329.006Z" fill="#E0E0E0"/>
<path d="M396.751 329.006H383.316V344.397H396.751V329.006Z" fill="#E0E0E0"/>
<path d="M423.62 329.006H410.185V344.397H423.62V329.006Z" fill="#E0E0E0"/>
<path d="M450.506 329.006H437.072V344.397H450.506V329.006Z" fill="#E0E0E0"/>
<path d="M369.864 354.811H356.43V370.202H369.864V354.811Z" fill="#E0E0E0"/>
<path d="M396.751 354.811H383.316V370.202H396.751V354.811Z" fill="#E0E0E0"/>
<path d="M423.62 354.811H410.185V370.202H423.62V354.811Z" fill="#E0E0E0"/>
<path d="M450.506 354.811H437.072V370.202H450.506V354.811Z" fill="#E0E0E0"/>
<path d="M369.864 380.633H356.43V396.024H369.864V380.633Z" fill="#E0E0E0"/>
<path d="M396.751 380.633H383.316V396.024H396.751V380.633Z" fill="#E0E0E0"/>
<path d="M423.62 380.633H410.185V396.024H423.62V380.633Z" fill="#E0E0E0"/>
<path d="M450.506 380.633H437.072V396.024H450.506V380.633Z" fill="#E0E0E0"/>
<path d="M369.864 406.438H356.43V421.829H369.864V406.438Z" fill="#E0E0E0"/>
<path d="M396.751 406.438H383.316V421.829H396.751V406.438Z" fill="#E0E0E0"/>
<path d="M423.62 406.438H410.185V421.829H423.62V406.438Z" fill="#E0E0E0"/>
<path d="M450.506 406.438H437.072V421.829H450.506V406.438Z" fill="#E0E0E0"/>
<path d="M200.313 492.675V197.304H154.468V492.91C168.977 492.552 200.313 492.675 200.313 492.675Z" fill="#E6E6E6"/>
<path d="M174.688 202.776H161.253V218.167H174.688V202.776Z" fill="#FAFAFA"/>
<path d="M174.688 228.581H161.253V243.972H174.688V228.581Z" fill="#FAFAFA"/>
<path d="M174.688 254.403H161.253V269.794H174.688V254.403Z" fill="#FAFAFA"/>
<path d="M174.688 280.208H161.253V295.599H174.688V280.208Z" fill="#FAFAFA"/>
<path d="M174.688 306.013H161.253V321.404H174.688V306.013Z" fill="#FAFAFA"/>
<path d="M174.688 331.835H161.253V347.226H174.688V331.835Z" fill="#FAFAFA"/>
<path d="M174.688 357.64H161.253V373.031H174.688V357.64Z" fill="#FAFAFA"/>
<path d="M174.688 383.462H161.253V398.853H174.688V383.462Z" fill="#FAFAFA"/>
<path d="M192.658 202.776H179.223V218.167H192.658V202.776Z" fill="#FAFAFA"/>
<path d="M192.658 228.581H179.223V243.972H192.658V228.581Z" fill="#FAFAFA"/>
<path d="M192.658 254.403H179.223V269.794H192.658V254.403Z" fill="#FAFAFA"/>
<path d="M192.658 280.208H179.223V295.599H192.658V280.208Z" fill="#FAFAFA"/>
<path d="M192.658 306.013H179.223V321.404H192.658V306.013Z" fill="#FAFAFA"/>
<path d="M192.658 331.835H179.223V347.226H192.658V331.835Z" fill="#FAFAFA"/>
<path d="M192.658 357.64H179.223V373.031H192.658V357.64Z" fill="#FAFAFA"/>
<path d="M192.658 383.462H179.223V398.853H192.658V383.462Z" fill="#FAFAFA"/>
<path d="M639.423 202.571H558.509V492.91H639.423V202.571Z" fill="#E6E6E6"/>
<path d="M594.192 214.57H570.477V229.961H594.192V214.57Z" fill="#FAFAFA"/>
<path d="M594.192 240.393H570.477V255.784H594.192V240.393Z" fill="#FAFAFA"/>
<path d="M594.192 266.198H570.477V281.589H594.192V266.198Z" fill="#FAFAFA"/>
<path d="M594.192 292.02H570.477V307.411H594.192V292.02Z" fill="#FAFAFA"/>
<path d="M594.192 317.825H570.477V333.216H594.192V317.825Z" fill="#FAFAFA"/>
<path d="M594.192 343.63H570.477V359.021H594.192V343.63Z" fill="#FAFAFA"/>
<path d="M594.192 369.452H570.477V384.843H594.192V369.452Z" fill="#FAFAFA"/>
<path d="M594.192 395.257H570.477V410.648H594.192V395.257Z" fill="#FAFAFA"/>
<path d="M625.921 214.57H602.206V229.961H625.921V214.57Z" fill="#FAFAFA"/>
<path d="M625.921 240.393H602.206V255.784H625.921V240.393Z" fill="#FAFAFA"/>
<path d="M625.921 266.198H602.206V281.589H625.921V266.198Z" fill="#FAFAFA"/>
<path d="M625.921 292.02H602.206V307.411H625.921V292.02Z" fill="#FAFAFA"/>
<path d="M625.921 317.825H602.206V333.216H625.921V317.825Z" fill="#FAFAFA"/>
<path d="M625.921 343.63H602.206V359.021H625.921V343.63Z" fill="#FAFAFA"/>
<path d="M625.921 369.452H602.206V384.843H625.921V369.452Z" fill="#FAFAFA"/>
<path d="M625.921 395.257H602.206V410.648H625.921V395.257Z" fill="#FAFAFA"/>
<path d="M505.574 492.821V277.379H470.283V492.804L505.574 492.821Z" fill="#E0E0E0"/>
<path d="M477.239 284.196H472.959V295.667H477.239V284.196Z" fill="#FAFAFA"/>
<path d="M485.797 284.196H481.518V295.667H485.797V284.196Z" fill="#FAFAFA"/>
<path d="M494.339 284.196H490.059V295.667H494.339V284.196Z" fill="#FAFAFA"/>
<path d="M502.897 284.196H498.618V295.667H502.897V284.196Z" fill="#FAFAFA"/>
<path d="M477.239 303.439H472.959V314.91H477.239V303.439Z" fill="#FAFAFA"/>
<path d="M485.797 303.439H481.518V314.91H485.797V303.439Z" fill="#FAFAFA"/>
<path d="M494.339 303.439H490.059V314.91H494.339V303.439Z" fill="#FAFAFA"/>
<path d="M502.897 303.439H498.618V314.91H502.897V303.439Z" fill="#FAFAFA"/>
<path d="M477.239 322.682H472.959V334.153H477.239V322.682Z" fill="#FAFAFA"/>
<path d="M485.797 322.682H481.518V334.153H485.797V322.682Z" fill="#FAFAFA"/>
<path d="M494.339 322.682H490.059V334.153H494.339V322.682Z" fill="#FAFAFA"/>
<path d="M502.897 322.682H498.618V334.153H502.897V322.682Z" fill="#FAFAFA"/>
<path d="M477.239 341.926H472.959V353.396H477.239V341.926Z" fill="#FAFAFA"/>
<path d="M485.797 341.926H481.518V353.396H485.797V341.926Z" fill="#FAFAFA"/>
<path d="M494.339 341.926H490.059V353.396H494.339V341.926Z" fill="#FAFAFA"/>
<path d="M502.897 341.926H498.618V353.396H502.897V341.926Z" fill="#FAFAFA"/>
<path d="M477.239 361.186H472.959V372.657H477.239V361.186Z" fill="#FAFAFA"/>
<path d="M485.797 361.186H481.518V372.657H485.797V361.186Z" fill="#FAFAFA"/>
<path d="M494.339 361.186H490.059V372.657H494.339V361.186Z" fill="#FAFAFA"/>
<path d="M502.897 361.186H498.618V372.657H502.897V361.186Z" fill="#FAFAFA"/>
<path d="M477.239 380.429H472.959V391.9H477.239V380.429Z" fill="#FAFAFA"/>
<path d="M485.797 380.429H481.518V391.9H485.797V380.429Z" fill="#FAFAFA"/>
<path d="M494.339 380.429H490.059V391.9H494.339V380.429Z" fill="#FAFAFA"/>
<path d="M502.897 380.429H498.618V391.9H502.897V380.429Z" fill="#FAFAFA"/>
<path d="M477.239 399.672H472.959V411.143H477.239V399.672Z" fill="#FAFAFA"/>
<path d="M485.797 399.672H481.518V411.143H485.797V399.672Z" fill="#FAFAFA"/>
<path d="M494.339 399.672H490.059V411.143H494.339V399.672Z" fill="#FAFAFA"/>
<path d="M502.897 399.672H498.618V411.143H502.897V399.672Z" fill="#FAFAFA"/>
<path d="M477.239 418.915H472.959V430.386H477.239V418.915Z" fill="#FAFAFA"/>
<path d="M485.797 418.915H481.518V430.386H485.797V418.915Z" fill="#FAFAFA"/>
<path d="M494.339 418.915H490.059V430.386H494.339V418.915Z" fill="#FAFAFA"/>
<path d="M502.897 418.915H498.618V430.386H502.897V418.915Z" fill="#FAFAFA"/>
<path d="M158.559 492.91V309.32H64.2105V492.608L158.559 492.91Z" fill="#FAFAFA"/>
<path d="M82.794 315.029H71.3544V324.66H82.794V315.029Z" fill="#E0E0E0"/>
<path d="M105.674 315.029H94.2339V324.66H105.674V315.029Z" fill="#E0E0E0"/>
<path d="M128.536 315.029H117.097V324.66H128.536V315.029Z" fill="#E0E0E0"/>
<path d="M151.416 315.029H139.976V324.66H151.416V315.029Z" fill="#E0E0E0"/>
<path d="M82.794 331.17H71.3544V340.801H82.794V331.17Z" fill="#E0E0E0"/>
<path d="M105.674 331.17H94.2339V340.801H105.674V331.17Z" fill="#E0E0E0"/>
<path d="M128.536 331.17H117.097V340.801H128.536V331.17Z" fill="#E0E0E0"/>
<path d="M151.416 331.17H139.976V340.801H151.416V331.17Z" fill="#E0E0E0"/>
<path d="M82.794 347.312H71.3544V356.942H82.794V347.312Z" fill="#E0E0E0"/>
<path d="M105.674 347.312H94.2339V356.942H105.674V347.312Z" fill="#E0E0E0"/>
<path d="M128.536 347.312H117.097V356.942H128.536V347.312Z" fill="#E0E0E0"/>
<path d="M151.416 347.312H139.976V356.942H151.416V347.312Z" fill="#E0E0E0"/>
<path d="M82.794 363.453H71.3544V373.083H82.794V363.453Z" fill="#E0E0E0"/>
<path d="M105.674 363.453H94.2339V373.083H105.674V363.453Z" fill="#E0E0E0"/>
<path d="M128.536 363.453H117.097V373.083H128.536V363.453Z" fill="#E0E0E0"/>
<path d="M151.416 363.453H139.976V373.083H151.416V363.453Z" fill="#E0E0E0"/>
<path d="M82.794 379.576H71.3544V389.206H82.794V379.576Z" fill="#E0E0E0"/>
<path d="M105.674 379.576H94.2339V389.206H105.674V379.576Z" fill="#E0E0E0"/>
<path d="M128.536 379.576H117.097V389.206H128.536V379.576Z" fill="#E0E0E0"/>
<path d="M151.416 379.576H139.976V389.206H151.416V379.576Z" fill="#E0E0E0"/>
<path d="M82.794 395.717H71.3544V405.347H82.794V395.717Z" fill="#E0E0E0"/>
<path d="M105.674 395.717H94.2339V405.347H105.674V395.717Z" fill="#E0E0E0"/>
<path d="M128.536 395.717H117.097V405.347H128.536V395.717Z" fill="#E0E0E0"/>
<path d="M151.416 395.717H139.976V405.347H151.416V395.717Z" fill="#E0E0E0"/>
<path d="M82.794 411.858H71.3544V421.488H82.794V411.858Z" fill="#E0E0E0"/>
<path d="M105.674 411.858H94.2339V421.488H105.674V411.858Z" fill="#E0E0E0"/>
<path d="M128.536 411.858H117.097V421.488H128.536V411.858Z" fill="#E0E0E0"/>
<path d="M151.416 411.858H139.976V421.488H151.416V411.858Z" fill="#E0E0E0"/>
<path d="M122.007 466.033C119.2 463.393 113.237 473.609 113.237 473.609C113.237 473.609 119.657 451.354 113.222 451.279C106.788 451.203 106.467 470.265 106.467 470.265C106.467 470.265 104.4 432.371 96.0343 435.369C87.6687 438.366 99.8786 472.187 99.8786 472.187C99.8786 472.187 89.0593 448.142 84.9124 452.869C80.7654 457.596 94.4365 477.711 94.4365 477.711C94.4365 477.711 84.4516 471.26 85.0982 475.859C85.7448 480.457 107.394 492.484 107.394 492.484C114.323 484.28 124.815 468.673 122.007 466.033Z" fill="#E6E6E6"/>
<path d="M107.439 492.709C107.439 492.709 104.043 476.512 102.09 465.487" stroke="#E0E0E0" stroke-width="0.5" stroke-linecap="round" stroke-linejoin="round"/>
<path d="M105.201 482.004L98.5856 473.794" stroke="#E0E0E0" stroke-width="0.5" stroke-linecap="round" stroke-linejoin="round"/>
<path d="M660.496 470.51C658.448 467.246 650.095 475.623 650.095 475.623C650.095 475.623 661.935 455.714 655.729 454.015C649.523 452.315 644.391 470.676 644.391 470.676C644.391 470.676 651.976 433.491 643.124 434.277C634.272 435.062 637.53 470.871 637.53 470.871C637.53 470.871 633.144 444.872 627.936 448.397C622.729 451.922 630.868 474.839 630.868 474.839C630.868 474.839 622.839 466.073 622.301 470.686C621.764 475.299 639.668 492.408 639.668 492.408C648.446 486.222 662.545 473.775 660.496 470.51Z" fill="#E0E0E0"/>
<path d="M639.655 492.637C639.655 492.637 640.465 476.107 641.365 464.947" stroke="#E0E0E0" stroke-width="0.5" stroke-linecap="round" stroke-linejoin="round"/>
<path d="M640.197 481.714L635.873 472.098" stroke="#E0E0E0" stroke-width="0.5" stroke-linecap="round" stroke-linejoin="round"/>
<path d="M455.525 23.0418C454.436 22.2462 453.14 21.7812 451.793 21.7022C450.447 21.6232 449.106 21.9337 447.931 22.5965C446.268 19.544 443.492 17.2496 440.181 16.1902C436.869 15.1308 433.277 15.3878 430.15 16.9079C429.344 13.5239 427.411 10.5148 424.667 8.37516C421.924 6.23551 418.534 5.09269 415.055 5.13453C411.575 5.17638 408.214 6.40041 405.523 8.60542C402.832 10.8104 400.971 13.8652 400.247 17.2675C400.156 18.3638 399.759 19.4126 399.102 20.2946C397.857 21.5657 395.778 21.1391 394.004 21.0007C391.2 20.8531 388.426 21.6454 386.122 23.2521C383.819 24.8588 382.118 27.188 381.288 29.8706L458.156 29.591C458.446 28.3614 458.349 27.0722 457.878 25.8998C457.407 24.7275 456.586 23.7293 455.525 23.0418Z" fill="#E0E0E0"/>
<path d="M675.131 125.531C674.042 124.736 672.746 124.271 671.399 124.192C670.053 124.113 668.712 124.423 667.536 125.086C665.874 122.033 663.098 119.739 659.787 118.68C656.475 117.62 652.883 117.877 649.756 119.397C648.95 116.013 647.017 113.004 644.273 110.865C641.53 108.725 638.14 107.582 634.661 107.624C631.181 107.666 627.82 108.89 625.129 111.095C622.438 113.3 620.577 116.355 619.853 119.757C619.762 120.853 619.365 121.902 618.708 122.784C617.463 124.055 615.384 123.628 613.61 123.49C610.805 123.342 608.032 124.135 605.728 125.741C603.425 127.348 601.724 129.677 600.894 132.36L677.762 132.08C678.052 130.851 677.955 129.562 677.484 128.389C677.013 127.217 676.192 126.219 675.131 125.531Z" fill="#F0F0F0"/>
<path d="M612.15 44.8236C611.241 44.1592 610.159 43.7709 609.034 43.7049C607.91 43.639 606.79 43.8983 605.809 44.4518C604.42 41.903 602.103 39.9872 599.338 39.1026C596.573 38.218 593.573 38.4326 590.963 39.7019C590.29 36.8764 588.675 34.3639 586.384 32.5773C584.094 30.7908 581.263 29.8366 578.358 29.8715C575.453 29.9065 572.646 30.9285 570.399 32.7696C568.152 34.6107 566.599 37.1614 565.994 40.0022C565.918 40.9175 565.587 41.7931 565.038 42.5296C563.998 43.5911 562.263 43.2347 560.782 43.1192C558.44 42.996 556.124 43.6575 554.2 44.9991C552.277 46.3407 550.857 48.2855 550.164 50.5254L614.347 50.2919C614.589 49.2653 614.508 48.1888 614.115 47.2099C613.722 46.2311 613.035 45.3976 612.15 44.8236Z" fill="#F5F5F5"/>
<path d="M250.589 15.1313C249.679 14.467 248.597 14.0787 247.473 14.0127C246.348 13.9468 245.228 14.206 244.247 14.7595C242.859 12.2108 240.541 10.295 237.776 9.41039C235.011 8.5258 232.012 8.74041 229.401 10.0096C228.728 7.18414 227.114 4.67162 224.823 2.88508C222.532 1.09855 219.702 0.144329 216.797 0.179271C213.892 0.214214 211.085 1.23624 208.838 3.07736C206.591 4.91847 205.037 7.4691 204.433 10.31C204.357 11.2253 204.025 12.1009 203.476 12.8373C202.437 13.8989 200.701 13.5425 199.22 13.4269C196.878 13.3037 194.562 13.9653 192.639 15.3069C190.716 16.6484 189.295 18.5932 188.602 20.8331L252.785 20.5998C253.027 19.5731 252.946 18.4967 252.553 17.5178C252.16 16.5389 251.474 15.7053 250.589 15.1313Z" fill="#F5F5F5"/>
<path d="M181.563 94.2459C179.945 93.0645 178.021 92.3739 176.021 92.2566C174.021 92.1394 172.029 92.6004 170.284 93.5847C165.712 84.3466 152.969 80.2695 143.88 85.1369C142.683 80.1118 139.812 75.6433 135.738 72.466C131.664 69.2886 126.63 67.5916 121.463 67.6537C116.297 67.7159 111.305 69.5336 107.309 72.808C103.313 76.0824 100.55 80.6187 99.474 85.6711C99.339 87.299 98.7498 88.8564 97.7733 90.1661C95.9246 92.054 92.8382 91.4204 90.2035 91.2149C86.0384 90.9958 81.9193 92.1724 78.4988 94.5583C75.0782 96.9442 72.5518 100.403 71.3199 104.387L185.469 103.972C186.469 100.107 184.748 96.6519 181.563 94.2459Z" fill="#F0F0F0"/>
<path d="M708.677 492.911H0.5V493.265H708.677V492.911Z" fill="#E0E0E0"/>
</svg>
