<svg width="25" height="25" viewBox="0 0 25 25" fill="none" xmlns="http://www.w3.org/2000/svg">
<path d="M11.7559 9.5H13.7559V7.5H11.7559M12.7559 20.5C8.34586 20.5 4.75586 16.91 4.75586 12.5C4.75586 8.09 8.34586 4.5 12.7559 4.5C17.1659 4.5 20.7559 8.09 20.7559 12.5C20.7559 16.91 17.1659 20.5 12.7559 20.5ZM12.7559 2.5C11.4426 2.5 10.1423 2.75866 8.92902 3.2612C7.71577 3.76375 6.61338 4.50035 5.68479 5.42893C3.80943 7.3043 2.75586 9.84784 2.75586 12.5C2.75586 15.1522 3.80943 17.6957 5.68479 19.5711C6.61338 20.4997 7.71577 21.2362 8.92902 21.7388C10.1423 22.2413 11.4426 22.5 12.7559 22.5C15.408 22.5 17.9516 21.4464 19.8269 19.5711C21.7023 17.6957 22.7559 15.1522 22.7559 12.5C22.7559 11.1868 22.4972 9.88642 21.9947 8.67317C21.4921 7.45991 20.7555 6.35752 19.8269 5.42893C18.8983 4.50035 17.7959 3.76375 16.5827 3.2612C15.3694 2.75866 14.0691 2.5 12.7559 2.5ZM11.7559 17.5H13.7559V11.5H11.7559V17.5Z" fill="#0028A3"/>
</svg>
