<svg width="40" height="41" viewBox="0 0 40 41" fill="none" xmlns="http://www.w3.org/2000/svg">
<circle cx="20" cy="20.5" r="20" fill="white"/>
<circle cx="20" cy="20.5" r="19.5" stroke="#0028A3" stroke-opacity="0.2"/>
<path d="M18.5567 27.4467C17.8193 28.1382 16.8418 28.5157 15.8309 28.4995C14.8201 28.4833 13.8552 28.0745 13.1404 27.3596C12.4255 26.6448 12.0167 25.6799 12.0005 24.6691C11.9843 23.6582 12.3618 22.6807 13.0533 21.9433L16.4933 18.5018C17.1879 17.8081 18.1189 17.4023 19.1 17.3658C20.081 17.3293 21.0396 17.6648 21.7838 18.305M21.3099 13.6867C21.669 13.3153 22.0984 13.0191 22.5732 12.8154C23.048 12.6117 23.5586 12.5045 24.0752 12.5001C24.5918 12.4958 25.1041 12.5943 25.5822 12.79C26.0603 12.9857 26.4947 13.2746 26.86 13.64C27.2254 14.0053 27.5143 14.4397 27.71 14.9178C27.9057 15.3959 28.0042 15.9082 27.9999 16.4248C27.9955 16.9414 27.8883 17.452 27.6846 17.9268C27.4809 18.4016 27.1847 18.831 26.8133 19.1901L23.3733 22.6316C22.6787 23.3253 21.7477 23.731 20.7667 23.7675C19.7856 23.8041 18.827 23.4686 18.0828 22.8284" stroke="#0028A3" stroke-width="2.18736" stroke-linecap="round" stroke-linejoin="round"/>
</svg>
