<svg width="23" height="16" viewBox="0 0 23 16" fill="none" xmlns="http://www.w3.org/2000/svg">
<path d="M11.1026 9.85311H13.9026M9.23594 11.7198H13.9026M9.7026 3.31978H18.1026C18.1026 3.31978 18.5693 3.31978 18.5693 3.78644V5.65311C18.5693 5.65311 18.5693 6.11978 18.1026 6.11978H9.7026C9.7026 6.11978 9.23594 6.11978 9.23594 5.65311V3.78644C9.23594 3.78644 9.23594 3.31978 9.7026 3.31978ZM15.7693 10.7864C15.7693 11.5596 16.3961 12.1864 17.1693 12.1864C17.9425 12.1864 18.5693 11.5596 18.5693 10.7864C18.5693 10.0132 17.9425 9.38644 17.1693 9.38644C16.3961 9.38644 15.7693 10.0132 15.7693 10.7864ZM20.4359 7.51978C20.4178 6.61862 21.0461 5.83319 21.9293 5.65311C22.1466 5.60875 22.3026 5.41757 22.3026 5.19578V1.45311C22.3026 0.937644 21.8847 0.519775 21.3693 0.519775H1.76927C1.25381 0.519775 0.835938 0.937644 0.835938 1.45311V5.23311C0.852696 5.44074 1.00504 5.61212 1.20927 5.65311C2.2402 5.65311 3.07594 6.48884 3.07594 7.51978C3.07594 8.55071 2.2402 9.38644 1.20927 9.38644C0.991961 9.4308 0.835893 9.62198 0.835938 9.84378V13.5864C0.835938 14.1019 1.25381 14.5198 1.76927 14.5198H21.3693C21.8847 14.5198 22.3026 14.1019 22.3026 13.5864V9.80644C22.3026 9.58465 22.1466 9.39347 21.9293 9.34911C21.06 9.17168 20.4358 8.40694 20.4359 7.51978ZM5.5026 11.9531C5.5026 12.082 5.39814 12.1864 5.26927 12.1864C5.1404 12.1864 5.03594 12.082 5.03594 11.9531C5.03594 11.8242 5.1404 11.7198 5.26927 11.7198C5.39814 11.7198 5.5026 11.8242 5.5026 11.9531ZM5.5026 9.61978C5.5026 9.74864 5.39814 9.85311 5.26927 9.85311C5.1404 9.85311 5.03594 9.74864 5.03594 9.61978C5.03594 9.49091 5.1404 9.38644 5.26927 9.38644C5.39814 9.38644 5.5026 9.49091 5.5026 9.61978ZM5.5026 7.28644C5.5026 7.41531 5.39814 7.51978 5.26927 7.51978C5.1404 7.51978 5.03594 7.41531 5.03594 7.28644C5.03594 7.15758 5.1404 7.05311 5.26927 7.05311C5.39814 7.05311 5.5026 7.15758 5.5026 7.28644ZM5.5026 4.95311C5.5026 5.08198 5.39814 5.18644 5.26927 5.18644C5.1404 5.18644 5.03594 5.08198 5.03594 4.95311C5.03594 4.82424 5.1404 4.71978 5.26927 4.71978C5.39814 4.71978 5.5026 4.82424 5.5026 4.95311ZM5.5026 2.61978C5.5026 2.74864 5.39814 2.85311 5.26927 2.85311C5.1404 2.85311 5.03594 2.74864 5.03594 2.61978C5.03594 2.49091 5.1404 2.38644 5.26927 2.38644C5.39814 2.38644 5.5026 2.49091 5.5026 2.61978Z" stroke="#0028A3" stroke-linecap="round" stroke-linejoin="round"/>
</svg>
