<svg width="15" height="13" viewBox="0 0 15 13" fill="none" xmlns="http://www.w3.org/2000/svg">
<mask id="mask0_6_953" style="mask-type:luminance" maskUnits="userSpaceOnUse" x="3" y="7" width="12" height="6">
<path d="M3 8.75465L3.1613 10.4728C3.27665 11.8278 5.98592 12.652 9.21262 12.3137C12.4393 11.9754 14.9616 10.6027 14.8462 9.24772L14.6849 7.52954L3 8.75465Z" fill="white"/>
</mask>
<g mask="url(#mask0_6_953)">
<path d="M3 8.75306L3.1613 10.4712C3.27665 11.8262 5.98592 12.6504 9.21262 12.3121C12.4393 11.9738 14.9616 10.6011 14.8462 9.24613L14.6849 7.52795L3 8.75306Z" fill="#F8BC22"/>
<g style="mix-blend-mode:multiply" opacity="0.93">
<path d="M3.58203 8.0912L3.66001 8.9845C3.77535 10.3395 6.51857 11.5019 9.74527 11.1636C12.993 10.823 15.6049 10.7526 15.3789 8.09758L15.267 6.86609L3.58203 8.0912Z" fill="#F0DCC3"/>
</g>
</g>
<mask id="mask1_6_953" style="mask-type:luminance" maskUnits="userSpaceOnUse" x="2" y="5" width="13" height="6">
<path d="M9.10662 10.5909C12.332 10.2394 14.8277 8.85868 14.6807 7.50708C14.5338 6.15548 11.7999 5.34478 8.57452 5.69634C5.3491 6.04789 2.85349 7.42858 3.00042 8.78018C3.14736 10.1318 5.88119 10.9425 9.10662 10.5909Z" fill="white"/>
</mask>
<g mask="url(#mask1_6_953)">
<path d="M9.10662 10.5907C12.332 10.2391 14.8277 8.85844 14.6807 7.50683C14.5338 6.15523 11.7999 5.34454 8.57452 5.69609C5.3491 6.04765 2.85349 7.42833 3.00042 8.77993C3.14736 10.1315 5.88119 10.9422 9.10662 10.5907Z" fill="#FFE431"/>
<path d="M9.06588 10.229C11.8159 9.92921 13.9437 8.75202 13.8184 7.59963C13.6931 6.44724 11.3622 5.75603 8.6122 6.05577C5.86216 6.35552 3.73437 7.53271 3.85965 8.6851C3.98493 9.83749 6.31584 10.5287 9.06588 10.229Z" fill="#F8BC22"/>
<path d="M7.97388 7.52542C7.98591 7.5207 7.98454 7.5145 7.98773 7.50913C8.09618 7.32732 8.06846 7.09445 8.17657 6.91263C8.18004 6.9068 8.31929 6.95202 8.32274 6.94621C8.33333 6.94401 8.33513 6.9484 8.33925 6.95046C8.46426 7.01286 8.58881 7.07553 8.71426 7.13769C8.72581 7.1434 8.72629 7.14955 8.72032 7.15952C8.65133 7.27455 8.58336 7.38958 8.51437 7.50461C8.50837 7.51463 8.50841 7.51957 8.52642 7.52119C8.83722 7.54925 9.05891 7.63674 9.19906 7.77769C9.25946 7.83755 9.30487 7.91085 9.33159 7.99162C9.35831 8.0724 9.36558 8.15835 9.35281 8.24247C9.3393 8.34636 9.30832 8.44721 9.26118 8.54074C9.25994 8.54335 9.25906 8.54595 9.257 8.55105C10.3636 8.14377 11.3211 7.70398 12.425 7.2977C12.4304 7.30221 12.5699 7.34082 12.5673 7.34516C12.4699 7.5095 12.3723 7.67383 12.2748 7.83815C12.2673 7.84934 12.256 7.85734 12.243 7.8606C11.1927 8.24675 10.1426 8.63311 9.09267 9.01968C9.06986 9.02866 9.04557 9.0333 9.02105 9.03334C8.87886 9.03317 8.73622 9.03376 8.59313 9.03512C8.56791 9.03537 8.42023 8.99735 8.4282 8.9839C8.49883 8.86465 8.72337 8.77888 8.78369 8.65974C8.82405 8.59677 8.8503 8.52578 8.86062 8.45168C8.87094 8.37757 8.86509 8.3021 8.84348 8.23048C8.78821 8.09386 8.64975 8.00045 8.40217 7.96506C8.3568 7.95929 8.31115 7.95598 8.26542 7.95514C8.25158 7.95471 8.24386 7.95697 8.24051 7.96558C8.23863 7.96945 8.23647 7.97317 8.23403 7.97671C8.00614 8.35997 7.77824 8.74323 7.55034 9.12649L7.53887 9.14579C7.3927 9.11219 7.52312 9.14108 7.51706 9.13806C7.39501 9.07705 7.27346 9.01575 7.15077 8.95512C7.13739 8.94851 7.13565 8.94171 7.14279 8.92977C7.32465 8.62496 7.50605 8.32016 7.68701 8.01535L7.69828 7.99639C7.65945 8.00376 7.62106 8.01335 7.58333 8.02512C7.39177 8.07788 7.21399 8.17175 7.06231 8.30023C6.95776 8.39102 6.86609 8.49569 6.78984 8.61133C6.67268 8.78459 6.57797 8.95794 6.47282 9.13126C6.46936 9.13696 6.29923 9.1021 6.29541 9.10851C6.28381 9.10849 6.44698 9.1448 6.44158 9.14209C6.31956 9.08108 6.19761 9.02004 6.07571 8.95897C6.06964 8.95595 6.06644 8.95063 6.05469 8.95134C6.45187 8.28338 6.70289 7.58183 7.10008 6.91387C7.16064 6.924 7.22057 6.93762 7.27957 6.95466C7.39981 7.01489 7.51937 7.07553 7.64013 7.13545C7.65842 7.14452 7.65745 7.15623 7.64823 7.17166C7.55299 7.33106 7.45813 7.49045 7.36364 7.64983C7.35986 7.65516 7.35678 7.66095 7.35448 7.66707C7.36231 7.66704 7.37001 7.66504 7.37686 7.66125C7.55756 7.59543 7.74512 7.55033 7.93597 7.52682C7.94839 7.52386 7.96127 7.52339 7.97388 7.52542Z" fill="#E47900"/>
<path d="M7.82936 7.49192C7.84139 7.48719 7.84001 7.481 7.84321 7.47563C7.95167 7.29381 8.05988 7.11198 8.16784 6.93016L8.17821 6.91271C8.18881 6.91051 8.19061 6.91489 8.19473 6.91694C8.31974 6.97935 8.4443 7.04202 8.56974 7.10417C8.5813 7.1099 8.58177 7.11605 8.5758 7.126C8.50682 7.24105 8.43884 7.35608 8.36986 7.47111C8.36385 7.48112 8.3639 7.48607 8.38189 7.48769C8.69271 7.51575 8.91439 7.60324 9.05454 7.74418C9.11494 7.80404 9.16035 7.87735 9.18707 7.95812C9.21379 8.03889 9.22106 8.12485 9.20829 8.20897C9.19478 8.31286 9.1638 8.41371 9.11666 8.50724C9.11542 8.50984 9.11454 8.51243 9.11247 8.51754C10.2191 8.11025 11.3238 7.70367 12.4267 7.29778C12.432 7.30229 12.4254 7.30731 12.4228 7.31166C12.3253 7.47599 12.2278 7.64032 12.1303 7.80466C12.1228 7.81584 12.1115 7.82384 12.0984 7.8271C11.0482 8.21324 9.99808 8.5996 8.94814 8.98618C8.92533 8.99516 8.90104 8.99979 8.87653 8.99984C8.73435 8.99967 8.5917 9.00026 8.44861 9.00161C8.42337 9.00187 8.42187 8.99743 8.42984 8.98398C8.50047 8.86473 8.57885 8.74538 8.63917 8.62624C8.67953 8.56327 8.70578 8.49228 8.7161 8.41818C8.72642 8.34407 8.72057 8.2686 8.69896 8.19698C8.64369 8.06035 8.50523 7.96695 8.25765 7.93156C8.21228 7.92577 8.16662 7.92246 8.12088 7.92164C8.10706 7.9212 8.09934 7.92348 8.09599 7.93208C8.09412 7.93595 8.09195 7.93967 8.08951 7.9432C7.8616 8.32647 7.63371 8.70974 7.40582 9.09299L7.39434 9.11227C7.38643 9.11213 7.37877 9.10942 7.37253 9.10455C7.25049 9.04355 7.12894 8.98225 7.00626 8.92162C6.99287 8.915 6.99114 8.90821 6.99827 8.89627C7.18013 8.59146 7.36153 8.28665 7.54249 7.98185L7.55375 7.96289C7.51492 7.97025 7.47654 7.97984 7.43881 7.99162C7.24726 8.04438 7.06947 8.13825 6.9178 8.26672C6.81325 8.35751 6.72158 8.46218 6.64532 8.57781C6.52816 8.75108 6.43346 8.92443 6.3283 9.09775C6.32484 9.10346 6.32151 9.10916 6.3177 9.11557C6.31025 9.11551 6.30302 9.11307 6.29706 9.10859C6.17504 9.04758 6.05309 8.98654 5.93119 8.92547C5.92512 8.92244 5.92192 8.91713 5.91016 8.91784C6.30735 8.24987 6.70454 7.5819 7.10172 6.91395C7.11331 6.91282 7.12496 6.91533 7.13505 6.92115C7.25529 6.98139 7.37485 7.04203 7.49561 7.10195C7.51389 7.11101 7.51293 7.12273 7.50371 7.13816C7.40846 7.29755 7.3136 7.45694 7.21913 7.61633C7.21534 7.62165 7.21226 7.62744 7.20997 7.63355C7.21779 7.63354 7.22549 7.63154 7.23233 7.62774C7.41303 7.56193 7.6006 7.51684 7.79144 7.49332C7.80386 7.49035 7.81675 7.48988 7.82936 7.49192Z" fill="#FFE431"/>
<g style="mix-blend-mode:soft-light" opacity="0.93">
<path d="M9.70656 8.72713C13.1456 8.33552 15.8209 7.02656 15.682 5.80349C15.5431 4.58041 12.6426 3.90639 9.20351 4.298C5.76446 4.68961 3.08917 5.99857 3.22808 7.22165C3.36699 8.44472 6.2675 9.11875 9.70656 8.72713Z" fill="#FFFFF6"/>
</g>
<path d="M8.66713 6.13651C5.87033 6.43093 3.68071 7.57291 3.77646 8.68724C3.87222 9.80156 6.21708 10.4662 9.01387 10.1718C11.8107 9.87742 14.0003 8.73541 13.9045 7.6211C13.8088 6.50679 11.4639 5.84211 8.66713 6.13651ZM9.00281 10.0429C6.40797 10.3161 4.23241 9.69941 4.14357 8.66555C4.05473 7.6317 6.08626 6.57218 8.68109 6.29902C11.2759 6.02586 13.4515 6.64256 13.5403 7.67641C13.6292 8.71026 11.5976 9.76979 9.00281 10.0429Z" fill="#E47900"/>
<path d="M8.65545 5.97299C5.84403 6.26925 3.64485 7.4373 3.74342 8.5819C3.842 9.7265 6.201 10.4142 9.01241 10.118C11.8238 9.82171 14.023 8.65365 13.9244 7.50906C13.8259 6.36447 11.4669 5.67673 8.65545 5.97299ZM8.99333 9.90061C6.3985 10.1738 4.22295 9.55709 4.13411 8.52323C4.04527 7.48938 6.07678 6.42986 8.67164 6.15671C11.2665 5.88357 13.442 6.50024 13.5309 7.53409C13.6197 8.56795 11.5882 9.62747 8.99333 9.90061Z" fill="#F8BC22"/>
<path d="M8.66128 6.07524C5.86447 6.36964 3.67486 7.51163 3.7706 8.62595C3.86634 9.74028 6.21122 10.4049 9.00802 10.1105C11.8048 9.81614 13.9944 8.67413 13.8987 7.55981C13.8029 6.4455 11.4581 5.78084 8.66128 6.07524ZM9.00442 10.0427C6.40958 10.3158 4.23403 9.69916 4.14519 8.66531C4.05635 7.63146 6.08788 6.57193 8.68271 6.29878C11.2775 6.02562 13.4531 6.64231 13.5419 7.67617C13.6308 8.71002 11.5993 9.76954 9.00442 10.0427Z" fill="#E47900"/>
</g>
<mask id="mask2_6_953" style="mask-type:luminance" maskUnits="userSpaceOnUse" x="0" y="1" width="13" height="8">
<path d="M0.525391 6.04809L1.14955 7.65669C1.63036 8.92851 4.46143 8.97985 7.47293 7.77136C10.4844 6.56287 12.536 4.55218 12.0552 3.28035L11.431 1.67175L0.525391 6.04809Z" fill="white"/>
</mask>
<g mask="url(#mask2_6_953)">
<path d="M0.525391 6.05028L1.14955 7.65888C1.63036 8.93071 4.46143 8.98205 7.47293 7.77356C10.4844 6.56507 12.536 4.55437 12.0552 3.28255L11.431 1.67395L0.525391 6.05028Z" fill="#F8BC22"/>
<g style="mix-blend-mode:multiply" opacity="0.93">
<path d="M0.904297 5.25304L1.22314 6.09098C1.70395 7.36281 4.65999 7.73018 7.6715 6.52169C10.7026 5.30534 13.1958 4.52274 12.2537 2.03069L11.8099 0.876709L0.904297 5.25304Z" fill="#F0DCC3"/>
</g>
</g>
<mask id="mask3_6_953" style="mask-type:luminance" maskUnits="userSpaceOnUse" x="0" y="0" width="12" height="8">
<path d="M6.90127 6.13886C9.90792 4.91797 11.9316 2.90687 11.4214 1.64694C10.9111 0.387016 8.06006 0.355369 5.0534 1.57626C2.04675 2.79714 0.0230326 4.80824 0.533306 6.06816C1.04358 7.32809 3.89461 7.35974 6.90127 6.13886Z" fill="white"/>
</mask>
<g mask="url(#mask3_6_953)">
<path d="M6.89931 6.13898C9.90597 4.91809 11.9297 2.90699 11.4194 1.64707C10.9091 0.387138 8.05811 0.355491 5.05145 1.57638C2.0448 2.79726 0.0210795 4.80836 0.531353 6.06829C1.04163 7.32821 3.89266 7.35986 6.89931 6.13898Z" fill="#FFE431"/>
<path d="M6.76404 5.80393C9.32755 4.76298 11.053 3.04829 10.6179 1.97405C10.1829 0.899821 7.75203 0.872838 5.18852 1.91378C2.62501 2.95473 0.899567 4.66942 1.33463 5.74365C1.7697 6.81789 4.20053 6.84487 6.76404 5.80393Z" fill="#F8BC22"/>
<path d="M4.97449 3.50083C4.98477 3.49299 4.98174 3.4874 4.98337 3.48137C5.03805 3.27678 4.94783 3.06037 5.00219 2.85588C5.00394 2.84934 5.15022 2.85472 5.15195 2.84819C5.16155 2.84318 5.16447 2.84691 5.16899 2.84775C5.30628 2.87357 5.44321 2.89976 5.58084 2.92522C5.59351 2.92756 5.59564 2.93336 5.59261 2.94457C5.55766 3.07409 5.52368 3.20335 5.48871 3.33288C5.48567 3.34416 5.48707 3.3489 5.50482 3.34554C5.81146 3.28746 6.04858 3.31095 6.22186 3.40818C6.2963 3.44923 6.35999 3.50731 6.40775 3.5777C6.4555 3.64808 6.48595 3.72878 6.49663 3.81319C6.512 3.91682 6.50972 4.02231 6.48991 4.12518C6.48941 4.12803 6.48929 4.13077 6.48869 4.13623C7.44201 3.44161 8.24302 2.75653 9.19401 2.0636C9.20039 2.06647 9.34513 2.06543 9.34384 2.07031C9.29492 2.25508 9.24597 2.43984 9.19699 2.6246C9.19287 2.6374 9.18414 2.6482 9.1725 2.6549C8.26762 3.31378 7.36297 3.97281 6.45854 4.632C6.43905 4.64689 6.41695 4.65799 6.39338 4.66474C6.25656 4.7035 6.11952 4.7431 5.98224 4.78356C5.95804 4.7907 5.80562 4.79455 5.80961 4.77943C5.84499 4.64538 6.03758 4.50144 6.06309 4.37033C6.08473 4.29871 6.0906 4.22324 6.08029 4.14913C6.06999 4.07502 6.04376 4.00403 6.00342 3.94105C5.91296 3.82475 5.75428 3.7728 5.50647 3.80652C5.46125 3.81337 5.41643 3.82268 5.37221 3.8344C5.35879 3.83776 5.35198 3.84205 5.35112 3.85125C5.35036 3.85548 5.34929 3.85965 5.3479 3.86373C5.2333 4.29476 5.1187 4.7258 5.0041 5.15684L4.99833 5.17854C4.84856 5.18623 4.98189 5.17833 4.97523 5.17707C4.84118 5.15179 4.70754 5.1261 4.57297 5.10135C4.55829 5.09865 4.55477 5.09259 4.55836 5.07915C4.6501 4.73617 4.7414 4.39332 4.83226 4.0506L4.83793 4.02929C4.80258 4.047 4.76828 4.06673 4.73519 4.08838C4.56534 4.19155 4.41994 4.33051 4.30911 4.49559C4.23333 4.61154 4.17372 4.73731 4.13194 4.86941C4.06653 5.06815 4.02275 5.26082 3.9689 5.45632C3.96713 5.46275 3.79396 5.47577 3.79204 5.48299C3.78088 5.48613 3.94775 5.47641 3.9418 5.4753C3.80778 5.44999 3.67381 5.42465 3.53988 5.39927C3.53322 5.39802 3.52869 5.39379 3.51758 5.39768C3.71731 4.64645 3.76728 3.90292 3.96702 3.15169C4.02804 3.14485 4.08941 3.14156 4.15081 3.14181C4.28291 3.16684 4.41446 3.19245 4.54699 3.21704C4.56705 3.22076 4.56933 3.23228 4.56467 3.24966C4.51656 3.42904 4.46881 3.60833 4.42144 3.78751C4.41925 3.79366 4.41787 3.80007 4.41733 3.80658C4.42486 3.80442 4.43171 3.80039 4.43727 3.79487C4.59311 3.6821 4.76123 3.58739 4.93839 3.51254C4.94953 3.50629 4.9618 3.50231 4.97449 3.50083Z" fill="#E47900"/>
<path d="M4.82409 3.50852C4.83437 3.50068 4.83135 3.49509 4.83296 3.48906C4.88766 3.28448 4.94212 3.07996 4.99635 2.87551L5.00156 2.85588C5.01116 2.85087 5.01408 2.8546 5.0186 2.85544C5.15589 2.88126 5.2928 2.90746 5.43045 2.93292C5.44311 2.93525 5.44525 2.94105 5.44222 2.95226C5.40727 3.08179 5.37328 3.21104 5.33832 3.34057C5.33527 3.35185 5.33668 3.35661 5.35443 3.35323C5.66107 3.29515 5.89819 3.31865 6.07147 3.41587C6.14591 3.45692 6.2096 3.515 6.25735 3.58539C6.30511 3.65578 6.33556 3.73647 6.34624 3.82088C6.3616 3.92451 6.35933 4.03 6.33953 4.13287C6.33902 4.13572 6.33889 4.13846 6.3383 4.14393C7.29161 3.44931 8.24331 2.75586 9.19338 2.0636C9.19977 2.06647 9.19473 2.07312 9.19345 2.07802C9.14454 2.26277 9.09558 2.44752 9.04659 2.63229C9.04248 2.64509 9.03375 2.65589 9.02211 2.66259C8.11723 3.32147 7.21258 3.9805 6.30815 4.6397C6.28865 4.65458 6.26655 4.66568 6.24299 4.67243C6.10617 4.71119 5.96912 4.7508 5.83184 4.79125C5.80765 4.7984 5.80499 4.79455 5.80898 4.77943C5.84436 4.64538 5.88719 4.50913 5.91269 4.37802C5.93433 4.3064 5.9402 4.23094 5.9299 4.15683C5.9196 4.08272 5.89337 4.01172 5.85302 3.94874C5.76257 3.83244 5.60388 3.78049 5.35608 3.81421C5.31086 3.82106 5.26604 3.83037 5.22182 3.84209C5.20838 3.84545 5.20159 3.84974 5.20071 3.85894C5.19997 3.86318 5.1989 3.86735 5.19751 3.87143C5.0829 4.30247 4.9683 4.7335 4.8537 5.16453L4.84793 5.18623C4.84028 5.18826 4.83217 5.18775 4.82484 5.18476C4.69079 5.15948 4.55714 5.13379 4.42257 5.10904C4.4079 5.10635 4.40437 5.10028 4.40797 5.08684C4.49971 4.74386 4.59101 4.40102 4.68187 4.05829L4.68754 4.03698C4.65219 4.05469 4.61789 4.07442 4.5848 4.09607C4.41495 4.19925 4.26955 4.3382 4.15872 4.50329C4.08294 4.61924 4.02333 4.745 3.98154 4.8771C3.91614 5.07585 3.87235 5.26851 3.81851 5.46401C3.81673 5.47044 3.81509 5.47684 3.81317 5.48405C3.80599 5.48603 3.79837 5.48565 3.79141 5.48299C3.65739 5.45769 3.52341 5.43234 3.38949 5.40696C3.38282 5.40571 3.37829 5.40148 3.36719 5.40537C3.56691 4.65414 3.76665 3.90291 3.96639 3.15169C3.97723 3.14742 3.98913 3.14665 4.00042 3.1495C4.13252 3.17453 4.26407 3.20014 4.3966 3.22474C4.41666 3.22845 4.41894 3.23997 4.41427 3.25735C4.36616 3.43675 4.31842 3.61603 4.27105 3.7952C4.26886 3.80136 4.26747 3.80777 4.26693 3.81428C4.27446 3.81212 4.28132 3.80809 4.28688 3.80256C4.44273 3.6898 4.61084 3.59509 4.788 3.52024C4.79914 3.51399 4.8114 3.51001 4.82409 3.50852Z" fill="#FFE431"/>
<g style="mix-blend-mode:soft-light" opacity="0.93">
<path d="M6.97932 4.15422C10.1806 2.83219 12.3959 0.838402 11.9274 -0.29903C11.4589 -1.43646 8.484 -1.28682 5.28273 0.0352111C2.08147 1.35724 -0.133877 3.35103 0.334623 4.48846C0.803124 5.62589 3.77806 5.47624 6.97932 4.15422Z" fill="#FFFFF6"/>
</g>
<path d="M5.26224 1.97563C2.6523 3.02423 0.857764 4.72198 1.25404 5.76766C1.65032 6.81334 4.08733 6.81098 6.69726 5.76238C9.3072 4.71378 11.1017 3.01601 10.7055 1.97033C10.3092 0.924655 7.87219 0.927024 5.26224 1.97563ZM6.65144 5.64143C4.22996 6.61431 1.96891 6.61652 1.60126 5.64634C1.23361 4.67615 2.89856 3.10101 5.32003 2.12812C7.74151 1.15523 10.0026 1.15304 10.3702 2.12321C10.7379 3.09339 9.07291 4.66855 6.65144 5.64143Z" fill="#E47900"/>
<path d="M5.2052 1.82077C2.58171 2.87515 0.785096 4.60058 1.19234 5.67462C1.59959 6.74866 4.0565 6.76461 6.68 5.71022C9.30349 4.65583 11.1001 2.93039 10.6929 1.85635C10.2856 0.782313 7.8287 0.76638 5.2052 1.82077ZM6.60232 5.50637C4.18085 6.47924 1.9198 6.48145 1.55214 5.51127C1.18447 4.5411 2.84944 2.96595 5.27093 1.99306C7.69241 1.02017 9.95345 1.01798 10.3211 1.98815C10.6888 2.95833 9.0238 4.53348 6.60232 5.50637Z" fill="#F8BC22"/>
<path d="M5.23881 1.92009C2.62886 2.96869 0.834336 4.66644 1.2306 5.71212C1.62687 6.7578 4.06389 6.75544 6.67382 5.70684C9.28376 4.65824 11.0783 2.96047 10.682 1.91479C10.2858 0.869111 7.84875 0.871484 5.23881 1.92009ZM6.65185 5.64256C4.23037 6.61544 1.96932 6.61765 1.60167 5.64746C1.23402 4.67728 2.89898 3.10214 5.32045 2.12925C7.74192 1.15636 10.003 1.15417 10.3706 2.12434C10.7383 3.09452 9.07332 4.66968 6.65185 5.64256Z" fill="#E47900"/>
</g>
</svg>
