<svg width="40" height="41" viewBox="0 0 40 41" fill="none" xmlns="http://www.w3.org/2000/svg">
<circle cx="20" cy="20.5" r="20" fill="#DCFFDF"/>
<circle cx="20" cy="20.5" r="19.5" stroke="#60D669" stroke-opacity="0.2"/>
<path d="M27.0854 13.41C26.1639 12.4842 25.0664 11.75 23.8568 11.2504C22.6472 10.7508 21.3498 10.4957 20.0402 10.5001C14.5528 10.5001 10.0804 14.95 10.0804 20.41C10.0804 22.16 10.5427 23.86 11.407 25.36L10 30.5L15.2764 29.12C16.7337 29.91 18.3719 30.33 20.0402 30.33C25.5276 30.33 30 25.88 30 20.42C30 17.77 28.9648 15.28 27.0854 13.41ZM20.0402 28.65C18.5528 28.65 17.0955 28.25 15.8191 27.5L15.5176 27.32L12.3819 28.14L13.2161 25.1L13.0151 24.79C12.1885 23.4771 11.7497 21.9593 11.7487 20.41C11.7487 15.87 15.4673 12.17 20.0301 12.17C22.2412 12.17 24.3216 13.03 25.8794 14.59C26.6509 15.3539 27.2622 16.2626 27.678 17.2634C28.0938 18.2641 28.3057 19.3371 28.3015 20.42C28.3216 24.96 24.603 28.65 20.0402 28.65ZM24.5829 22.49C24.3317 22.37 23.1055 21.77 22.8844 21.68C22.6533 21.6 22.4925 21.56 22.3216 21.8C22.1508 22.05 21.6784 22.61 21.5377 22.77C21.397 22.94 21.2462 22.96 20.995 22.83C20.7437 22.71 19.9397 22.44 18.995 21.6C18.2513 20.94 17.7588 20.13 17.608 19.88C17.4673 19.63 17.5879 19.5 17.7186 19.37C17.8291 19.26 17.9698 19.08 18.0905 18.94C18.2111 18.8 18.2613 18.69 18.3417 18.53C18.4221 18.36 18.3819 18.22 18.3216 18.1C18.2613 17.98 17.7588 16.76 17.5578 16.26C17.3568 15.78 17.1457 15.84 16.995 15.83H16.5126C16.3417 15.83 16.0804 15.89 15.8492 16.14C15.6281 16.39 14.9849 16.99 14.9849 18.21C14.9849 19.43 15.8794 20.61 16 20.77C16.1206 20.94 17.7588 23.44 20.2513 24.51C20.8442 24.77 21.3065 24.92 21.6683 25.03C22.2613 25.22 22.804 25.19 23.2362 25.13C23.7186 25.06 24.7136 24.53 24.9146 23.95C25.1256 23.37 25.1256 22.88 25.0553 22.77C24.9849 22.66 24.8342 22.61 24.5829 22.49Z" fill="#60D669"/>
</svg>
