<svg width="37" height="37" viewBox="0 0 37 37" fill="none" xmlns="http://www.w3.org/2000/svg">
<circle cx="18.1142" cy="18.323" r="17.5141" fill="#60D669" fill-opacity="0.2" stroke="#60D669" stroke-width="1.00285"/>
<path d="M25.1703 11.2275C24.2525 10.3008 23.1596 9.56604 21.955 9.066C20.7505 8.56597 19.4584 8.31067 18.1542 8.315C12.6895 8.315 8.23568 12.7688 8.23568 18.2335C8.23568 19.9851 8.69608 21.6865 9.55682 23.1878L8.15561 28.3322L13.4101 26.9511C14.8614 27.7417 16.4928 28.1621 18.1542 28.1621C23.6189 28.1621 28.0728 23.7083 28.0728 18.2436C28.0728 15.5913 27.0419 13.0991 25.1703 11.2275ZM18.1542 26.4806C16.6729 26.4806 15.2217 26.0803 13.9506 25.3297L13.6503 25.1495L10.5277 25.9702L11.3584 22.9276L11.1582 22.6173C10.335 21.3032 9.89804 19.7842 9.89711 18.2335C9.89711 13.6896 13.6003 9.98644 18.1442 9.98644C20.3461 9.98644 22.4179 10.8472 23.9692 12.4085C24.7375 13.173 25.3463 14.0825 25.7604 15.0842C26.1745 16.0858 26.3855 17.1597 26.3813 18.2436C26.4013 22.7875 22.6981 26.4806 18.1542 26.4806ZM22.6781 20.3153C22.4279 20.1952 21.2069 19.5947 20.9867 19.5046C20.7565 19.4246 20.5963 19.3845 20.4262 19.6247C20.256 19.875 19.7856 20.4354 19.6455 20.5956C19.5054 20.7657 19.3553 20.7857 19.105 20.6556C18.8548 20.5355 18.0541 20.2653 17.1133 19.4246C16.3727 18.764 15.8823 17.9533 15.7321 17.7031C15.592 17.4529 15.7121 17.3228 15.8422 17.1926C15.9523 17.0826 16.0924 16.9024 16.2126 16.7623C16.3327 16.6222 16.3827 16.5121 16.4628 16.3519C16.5428 16.1818 16.5028 16.0417 16.4428 15.9216C16.3827 15.8014 15.8823 14.5804 15.6821 14.08C15.4819 13.5995 15.2717 13.6596 15.1216 13.6496H14.6412C14.4711 13.6496 14.2108 13.7096 13.9806 13.9599C13.7604 14.2101 13.1199 14.8106 13.1199 16.0316C13.1199 17.2527 14.0107 18.4337 14.1308 18.5939C14.2509 18.764 15.8823 21.2662 18.3644 22.3371C18.9549 22.5973 19.4153 22.7474 19.7756 22.8575C20.3661 23.0477 20.9066 23.0177 21.337 22.9576C21.8174 22.8876 22.8082 22.3571 23.0084 21.7766C23.2186 21.1961 23.2186 20.7057 23.1485 20.5956C23.0785 20.4855 22.9283 20.4354 22.6781 20.3153Z" fill="#60D669"/>
</svg>
