<svg width="26" height="35" viewBox="0 0 26 35" fill="none" xmlns="http://www.w3.org/2000/svg">
<path d="M23.5523 2.09088H19.3723V3.32552C19.3717 3.65301 19.2413 3.96691 19.0097 4.19848C18.7782 4.43006 18.4642 4.56043 18.1368 4.56106H7.10925C6.78157 4.56077 6.4674 4.43053 6.23561 4.19891C6.00383 3.96729 5.87335 3.6532 5.87283 3.32552V2.09088H1.69371C1.24453 2.09096 0.813775 2.26943 0.49616 2.58705C0.178545 2.90467 7.70212e-05 3.33543 0 3.78461V33.1631C6.65812e-06 33.5453 0.151817 33.9118 0.422029 34.182C0.692242 34.4522 1.05872 34.604 1.44086 34.604H23.5532C24.002 34.6037 24.4324 34.4253 24.7496 34.1078C25.0669 33.7904 25.2451 33.36 25.2451 32.9112V3.78461C25.2452 3.56225 25.2014 3.34205 25.1164 3.13659C25.0314 2.93113 24.9067 2.74443 24.7495 2.58715C24.5923 2.42987 24.4057 2.3051 24.2003 2.21995C23.9949 2.13479 23.7747 2.09094 23.5523 2.09088ZM7.87137 27.4015L5.54645 30.32C5.48483 30.397 5.40703 30.4596 5.31857 30.5033C5.23011 30.547 5.13315 30.5707 5.03451 30.5728H5.02015C4.92393 30.5728 4.82886 30.5521 4.74131 30.5122C4.65376 30.4723 4.57579 30.4141 4.51265 30.3415L2.87901 28.4586C2.82114 28.3919 2.77697 28.3144 2.74903 28.2307C2.72109 28.1469 2.70993 28.0584 2.71617 27.9703C2.72242 27.8823 2.74595 27.7963 2.78543 27.7173C2.82491 27.6383 2.87958 27.5678 2.94628 27.51C3.01299 27.4521 3.09043 27.4079 3.1742 27.38C3.25797 27.352 3.34643 27.3409 3.43452 27.3471C3.52261 27.3534 3.6086 27.3769 3.68759 27.4164C3.76658 27.4559 3.83704 27.5105 3.89491 27.5772L4.99863 28.8486L6.81964 26.5631C6.93087 26.4239 7.09286 26.3344 7.26998 26.3145C7.44711 26.2946 7.6249 26.3458 7.76428 26.4569C7.90367 26.568 7.99325 26.7299 8.01333 26.907C8.03341 27.0842 7.98234 27.262 7.87137 27.4015ZM7.87137 20.8607L5.54645 23.7791C5.48483 23.8562 5.40703 23.9188 5.31857 23.9625C5.23011 24.0062 5.13315 24.0299 5.03451 24.032H5.02015C4.92393 24.0319 4.82886 24.0113 4.74131 23.9714C4.65376 23.9315 4.57579 23.8733 4.51265 23.8007L2.87901 21.9178C2.76214 21.7831 2.70356 21.6074 2.71617 21.4295C2.72879 21.2516 2.81157 21.086 2.94628 20.9691C3.081 20.8523 3.25662 20.7937 3.43452 20.8063C3.61242 20.8189 3.77803 20.9017 3.89491 21.0364L4.99863 22.3078L6.81964 20.0223C6.93087 19.883 7.09286 19.7936 7.26998 19.7737C7.44711 19.7538 7.6249 19.805 7.76428 19.9161C7.90367 20.0272 7.99325 20.1891 8.01333 20.3662C8.03341 20.5433 7.98234 20.7212 7.87137 20.8607ZM7.87137 14.3198L5.54645 17.2383C5.48483 17.3154 5.40703 17.378 5.31857 17.4216C5.23011 17.4653 5.13315 17.4891 5.03451 17.4912H5.02015C4.92393 17.4911 4.82886 17.4705 4.74131 17.4306C4.65376 17.3906 4.57579 17.3324 4.51265 17.2598L2.87901 15.3769C2.76214 15.2422 2.70356 15.0666 2.71617 14.8887C2.72879 14.7108 2.81157 14.5452 2.94628 14.4283C3.081 14.3114 3.25662 14.2529 3.43452 14.2655C3.61242 14.2781 3.77803 14.3609 3.89491 14.4956L4.99863 15.7679L6.81964 13.4815C6.87465 13.4123 6.94277 13.3547 7.02007 13.3119C7.09737 13.2691 7.18233 13.2419 7.27014 13.232C7.35794 13.222 7.44684 13.2295 7.53177 13.2539C7.61669 13.2783 7.69597 13.3192 7.76507 13.3743C7.83417 13.4294 7.89174 13.4975 7.93448 13.5749C7.97722 13.6522 8.00431 13.7372 8.01418 13.825C8.02405 13.9129 8.01653 14.0018 7.99203 14.0867C7.96752 14.1716 7.92651 14.2508 7.87137 14.3198ZM7.87137 7.77902L5.54645 10.6975C5.48483 10.7745 5.40703 10.8371 5.31857 10.8808C5.23011 10.9245 5.13315 10.9482 5.03451 10.9504H5.02015C4.92393 10.9503 4.82886 10.9296 4.74131 10.8897C4.65376 10.8498 4.57579 10.7916 4.51265 10.719L2.87901 8.83611C2.76319 8.70126 2.70548 8.52602 2.71849 8.34873C2.73151 8.17144 2.81419 8.00651 2.94847 7.89001C3.08275 7.77352 3.25769 7.71493 3.43504 7.72707C3.6124 7.7392 3.77775 7.82107 3.89491 7.95477L4.99863 9.22615L6.81964 6.94068C6.93087 6.8014 7.09286 6.71198 7.26998 6.69207C7.44711 6.67215 7.6249 6.72338 7.76428 6.83448C7.90367 6.94558 7.99325 7.10747 8.01333 7.28458C8.03341 7.46169 7.98234 7.63953 7.87137 7.77902ZM20.6482 29.4673H9.8332C9.65485 29.4673 9.48379 29.3964 9.35768 29.2703C9.23157 29.1442 9.16074 28.9732 9.16074 28.7948C9.16074 28.6165 9.23157 28.4454 9.35768 28.3193C9.48379 28.1932 9.65485 28.1224 9.8332 28.1224H20.6482C20.8265 28.1224 20.9976 28.1932 21.1237 28.3193C21.2498 28.4454 21.3206 28.6165 21.3206 28.7948C21.3206 28.9732 21.2498 29.1442 21.1237 29.2703C20.9976 29.3964 20.8265 29.4673 20.6482 29.4673ZM20.6482 22.7382H9.8332C9.65485 22.7382 9.48379 22.6673 9.35768 22.5412C9.23157 22.4151 9.16074 22.2441 9.16074 22.0657C9.16074 21.8874 9.23157 21.7163 9.35768 21.5902C9.48379 21.4641 9.65485 21.3932 9.8332 21.3932H20.6482C20.8265 21.3932 20.9976 21.4641 21.1237 21.5902C21.2498 21.7163 21.3206 21.8874 21.3206 22.0657C21.3206 22.2441 21.2498 22.4151 21.1237 22.5412C20.9976 22.6673 20.8265 22.7382 20.6482 22.7382ZM20.6482 16.01H9.8332C9.65485 16.01 9.4838 15.9391 9.35768 15.813C9.23157 15.6869 9.16072 15.5158 9.16072 15.3375C9.16072 15.1591 9.23157 14.9881 9.35768 14.862C9.4838 14.7359 9.65485 14.665 9.8332 14.665H20.6482C20.8265 14.665 20.9976 14.7359 21.1237 14.862C21.2498 14.9881 21.3206 15.1591 21.3206 15.3375C21.3206 15.5158 21.2498 15.6869 21.1237 15.813C20.9976 15.9391 20.8265 16.01 20.6482 16.01ZM20.6482 9.28175H9.8332C9.65485 9.28175 9.48379 9.2109 9.35768 9.08479C9.23157 8.95868 9.16074 8.78764 9.16074 8.60929C9.16074 8.43094 9.23157 8.25989 9.35768 8.13378C9.48379 8.00767 9.65485 7.93682 9.8332 7.93682H20.6482C20.8265 7.93682 20.9976 8.00767 21.1237 8.13378C21.2498 8.25989 21.3206 8.43094 21.3206 8.60929C21.3206 8.78764 21.2498 8.95868 21.1237 9.08479C20.9976 9.2109 20.8265 9.28175 20.6482 9.28175Z" fill="#0028A3"/>
<path d="M7.21777 0.966492V3.21611H18.0274V0.966492H7.21777Z" fill="#06B6CB"/>
<path d="M7.21777 0.966492V3.21611H18.0274V0.966492H7.21777Z" fill="white"/>
<path d="M18.0274 0.966492H7.21777V3.2161H18.0274V0.966492Z" fill="#06B6CB"/>
</svg>
