<svg width="31" height="22" viewBox="0 0 31 22" fill="none" xmlns="http://www.w3.org/2000/svg">
<path d="M7.20292 11.9811V17.7437L2.67749 17.2997V11.9811C2.67749 11.8664 2.84869 11.7736 3.06 11.7736H6.81979C7.03111 11.7736 7.20292 11.8664 7.20292 11.9811Z" fill="#0046B7"/>
<path d="M7.2029 19.004V21.7825H2.67749V18.5594L7.2029 19.004Z" fill="#0046B7"/>
<path d="M13.6514 9.53V14.3558L9.12598 17.3574V9.53C9.12919 9.43167 9.17126 9.33863 9.24296 9.27128C9.31466 9.20392 9.41015 9.16776 9.50848 9.1707H13.2689C13.3672 9.16776 13.4627 9.20393 13.5344 9.27128C13.6061 9.33864 13.6482 9.43168 13.6514 9.53Z" fill="#0046B7"/>
<path d="M13.6514 15.86V21.7825H9.12598V18.8623L13.6514 15.86Z" fill="#0046B7"/>
<path d="M20.0999 5.74191V13.4985L16.4178 12.8727C16.1455 12.8258 15.8656 12.8852 15.6359 13.0389L15.5745 13.0796V5.74191C15.5777 5.64359 15.6197 5.55055 15.6914 5.4832C15.7631 5.41585 15.8586 5.37968 15.9569 5.38261H19.7174C19.8157 5.37967 19.9112 5.41585 19.9829 5.4832C20.0546 5.55055 20.0966 5.64359 20.0999 5.74191Z" fill="#0046B7"/>
<path d="M20.0999 14.7702V21.7825H15.5745V14.5846L16.2736 14.1206L20.0999 14.7702Z" fill="#0046B7"/>
<path d="M26.5486 1.20526V11.4976L23.4892 14.0742L22.0232 13.8252V1.20526C22.0232 1.10615 22.0626 1.01112 22.1327 0.941039C22.2028 0.87096 22.2978 0.831576 22.3969 0.831543H26.1755C26.2246 0.831572 26.2731 0.841264 26.3184 0.860063C26.3637 0.878863 26.4048 0.906395 26.4395 0.9411C26.4741 0.975806 26.5016 1.017 26.5203 1.06232C26.539 1.10765 26.5487 1.15622 26.5486 1.20526Z" fill="#0046B7"/>
<path d="M26.5486 13.1373V21.7824H22.0232V15.0969L23.3569 15.3232C23.5124 15.3493 23.6717 15.3413 23.8238 15.2998C23.9759 15.2584 24.1172 15.1844 24.2379 15.0831L26.5486 13.1373Z" fill="#0046B7"/>
<path d="M30.3233 9.18128L30.2933 9.26343L29.2799 12.1692C29.2714 12.2013 29.2544 12.2306 29.2306 12.2539C29.2068 12.2772 29.1772 12.2937 29.1448 12.3016C29.1125 12.3095 29.0786 12.3085 29.0468 12.2988C29.0149 12.2891 28.9863 12.2709 28.9639 12.2463L28.3795 11.5954L26.5485 13.1373L24.2379 15.0831C24.1171 15.1844 23.9758 15.2584 23.8237 15.2998C23.6716 15.3413 23.5123 15.3493 23.3568 15.3232L22.0231 15.0969L20.1 14.7702L16.2737 14.1205L15.5746 14.5846L13.6514 15.86L9.126 18.8623L9.00874 18.94C8.8302 19.0582 8.62086 19.1212 8.40677 19.1212C8.33817 19.1213 8.26971 19.1148 8.20236 19.1018L7.20284 19.004L2.67742 18.5594L1.16124 18.4108C1.0793 18.4028 0.99975 18.3787 0.927126 18.3399C0.854501 18.3011 0.790222 18.2485 0.737963 18.1848C0.685703 18.1212 0.646487 18.0479 0.62255 17.9692C0.598612 17.8904 0.590418 17.8077 0.598446 17.7258C0.606474 17.6438 0.630562 17.5643 0.669333 17.4917C0.708105 17.419 0.760807 17.3548 0.824419 17.3025C0.888031 17.2502 0.961313 17.211 1.04008 17.1871C1.11885 17.1631 1.20156 17.155 1.28349 17.163L2.67742 17.2997L7.20284 17.7436L8.35975 17.8571C8.36354 17.8572 8.36731 17.8576 8.37104 17.8584L9.126 17.3574L13.6514 14.3557L15.5746 13.0796L15.636 13.0389C15.8657 12.8853 16.1456 12.8258 16.4179 12.8727L20.1 13.4985L22.0231 13.8252L23.4892 14.0741L26.5485 11.4976L27.5405 10.6624L27.0389 10.1043C26.926 9.94252 26.8934 9.76318 27.074 9.72619L30.2525 9.08346C30.2647 9.08206 30.2771 9.08392 30.2883 9.08888C30.2996 9.09383 30.3093 9.10169 30.3165 9.11165C30.3237 9.12161 30.3282 9.1333 30.3294 9.14554C30.3306 9.15778 30.3285 9.17011 30.3233 9.18128Z" fill="#06B6CB"/>
</svg>
