<svg width="28" height="28" viewBox="0 0 28 28" fill="none" xmlns="http://www.w3.org/2000/svg">
<g clip-path="url(#clip0_6_2585)">
<path d="M3.80281 20.8416C3.11292 20.8415 2.4385 21.046 1.86485 21.4292C1.2912 21.8125 0.844077 22.3572 0.580034 22.9946C0.31599 23.6319 0.246885 24.3333 0.381456 25.0099C0.516028 25.6866 0.848235 26.3081 1.33606 26.7959C1.82388 27.2837 2.44541 27.6159 3.12205 27.7505C3.79868 27.8851 4.50003 27.816 5.13739 27.5519C5.77475 27.2879 6.31949 26.8408 6.70273 26.2671C7.08597 25.6935 7.29049 25.0191 7.29042 24.3292C7.29032 23.4042 6.92285 22.5172 6.26882 21.8632C5.61479 21.2091 4.72776 20.8417 3.80281 20.8416ZM5.8479 23.8773L3.71673 25.9948C3.61586 26.095 3.47945 26.1512 3.33727 26.1512H3.3179C3.24421 26.1485 3.17187 26.1306 3.10536 26.0988C3.03885 26.067 2.97958 26.0218 2.93124 25.9661L1.59274 24.4231C1.49976 24.3153 1.45333 24.175 1.46362 24.033C1.47391 23.891 1.54008 23.7588 1.64764 23.6655C1.75519 23.5722 1.89536 23.5253 2.03741 23.5351C2.17946 23.545 2.31182 23.6108 2.40547 23.718L3.36667 24.8263L5.08968 23.114C5.1909 23.0135 5.32791 22.9573 5.47057 22.9577C5.61323 22.9582 5.74986 23.0153 5.8504 23.1165C5.95095 23.2178 6.00718 23.3548 6.00671 23.4974C6.00623 23.6401 5.94911 23.7767 5.8479 23.8773Z" fill="#06B6CB"/>
<path d="M10.6755 21.6428H26.1163C26.4381 21.6428 26.7467 21.7707 26.9742 21.9982C27.2018 22.2258 27.3296 22.5344 27.3296 22.8562V25.5609C27.3296 25.8827 27.2018 26.1913 26.9742 26.4189C26.7467 26.6464 26.4381 26.7742 26.1163 26.7742H10.6755C10.3537 26.7742 10.0451 26.6464 9.81754 26.4189C9.58999 26.1913 9.46216 25.8827 9.46216 25.5609V22.8562C9.46216 22.5344 9.58999 22.2258 9.81754 21.9982C10.0451 21.7707 10.3537 21.6428 10.6755 21.6428Z" fill="#0028A3"/>
<path d="M3.80281 0.976685C3.11295 0.976611 2.43856 1.18111 1.86493 1.56431C1.29129 1.94752 0.844168 2.49222 0.580103 3.12953C0.316038 3.76685 0.24689 4.46816 0.381403 5.14478C0.515917 5.8214 0.848053 6.44293 1.33581 6.93079C1.82356 7.41864 2.44502 7.7509 3.12161 7.88556C3.7982 8.02021 4.49952 7.95121 5.1369 7.68728C5.77427 7.42335 6.31907 6.97634 6.70239 6.40279C7.08571 5.82923 7.29035 5.15488 7.29042 4.46503C7.29047 3.53997 6.92307 2.65278 6.26903 1.99859C5.61498 1.34441 4.72787 0.976823 3.80281 0.976685ZM5.8479 4.12071L3.71673 6.23897C3.61568 6.33889 3.47938 6.39507 3.33727 6.39536C3.33081 6.39536 3.32436 6.39463 3.3179 6.39463C3.24421 6.39191 3.17187 6.37408 3.10536 6.34224C3.03884 6.31041 2.97958 6.26524 2.93124 6.20956L1.59274 4.66731C1.54618 4.61399 1.5106 4.552 1.48804 4.48489C1.46549 4.41779 1.4564 4.3469 1.46129 4.27627C1.46619 4.20565 1.48497 4.13669 1.51657 4.07334C1.54817 4.01 1.59196 3.95351 1.64543 3.90711C1.6989 3.86072 1.761 3.82534 1.82818 3.80299C1.89535 3.78065 1.96627 3.77178 2.03688 3.77689C2.10748 3.78201 2.17639 3.80101 2.23964 3.83281C2.30289 3.8646 2.35924 3.90857 2.40547 3.96219L3.36667 5.06975L5.08968 3.35748C5.19089 3.25693 5.32791 3.20072 5.47057 3.20119C5.61323 3.20166 5.74986 3.25878 5.8504 3.35999C5.95095 3.4612 6.00718 3.59821 6.0067 3.74087C6.00623 3.88354 5.94911 4.02017 5.8479 4.12071Z" fill="#06B6CB"/>
<path d="M10.6755 1.89893H26.1163C26.4381 1.89893 26.7467 2.02676 26.9742 2.25431C27.2018 2.48186 27.3296 2.79049 27.3296 3.11229V5.817C27.3296 5.97634 27.2982 6.13412 27.2373 6.28133C27.1763 6.42854 27.0869 6.5623 26.9742 6.67497C26.8616 6.78764 26.7278 6.87701 26.5806 6.93799C26.4334 6.99897 26.2756 7.03035 26.1163 7.03035H10.6755C10.3537 7.03035 10.0451 6.90252 9.81754 6.67497C9.58999 6.44742 9.46216 6.1388 9.46216 5.817V3.11229C9.46216 2.79049 9.59 2.48186 9.81755 2.25431C10.0451 2.02676 10.3537 1.89893 10.6755 1.89893Z" fill="#0028A3"/>
<path d="M3.80283 10.9094C3.11304 10.9094 2.43874 11.114 1.8652 11.4972C1.29166 11.8804 0.844643 12.4251 0.580671 13.0624C0.316699 13.6997 0.24763 14.4009 0.382199 15.0774C0.516768 15.754 0.848927 16.3754 1.33668 16.8632C1.82443 17.3509 2.44587 17.6831 3.1224 17.8177C3.79894 17.9522 4.50018 17.8832 5.13747 17.6192C5.77475 17.3552 6.31943 16.9082 6.70266 16.3347C7.08589 15.7611 7.29043 15.0868 7.29043 14.397C7.29034 13.4721 6.92287 12.5851 6.26883 11.931C5.6148 11.277 4.72777 10.9095 3.80283 10.9094ZM5.84791 13.9272L3.71674 16.0447C3.61588 16.1449 3.47946 16.2012 3.33729 16.2011H3.31792C3.24423 16.1984 3.17188 16.1806 3.10537 16.1487C3.03886 16.1169 2.9796 16.0717 2.93126 16.016L1.59275 14.4738C1.49915 14.366 1.4522 14.2255 1.46222 14.0831C1.47224 13.9407 1.53842 13.8081 1.64619 13.7145C1.75397 13.6209 1.89451 13.574 2.0369 13.584C2.17929 13.594 2.31188 13.6602 2.40548 13.768L3.36669 14.8762L5.0897 13.164C5.13978 13.114 5.19922 13.0745 5.26461 13.0475C5.33 13.0206 5.40007 13.0068 5.47079 13.007C5.54151 13.0072 5.61149 13.0213 5.67675 13.0485C5.74201 13.0758 5.80126 13.1156 5.8511 13.1658C5.90094 13.216 5.9404 13.2755 5.96722 13.3409C5.99404 13.4064 6.00769 13.4764 6.00739 13.5472C6.0071 13.6179 5.99286 13.6878 5.9655 13.7531C5.93813 13.8183 5.89817 13.8774 5.84791 13.9272Z" fill="#06B6CB"/>
<path d="M10.6755 11.7709H26.1163C26.4381 11.7709 26.7467 11.8987 26.9742 12.1263C27.2018 12.3538 27.3296 12.6624 27.3296 12.9842V15.6889C27.3296 16.0107 27.2018 16.3194 26.9742 16.5469C26.7467 16.7745 26.4381 16.9023 26.1163 16.9023H10.6755C10.3537 16.9023 10.0451 16.7745 9.81754 16.5469C9.58999 16.3194 9.46216 16.0107 9.46216 15.6889V12.9842C9.46216 12.8249 9.49354 12.6671 9.55452 12.5199C9.6155 12.3727 9.70487 12.2389 9.81754 12.1263C9.93021 12.0136 10.064 11.9242 10.2112 11.8632C10.3584 11.8023 10.5162 11.7709 10.6755 11.7709Z" fill="#0028A3"/>
</g>
<defs>
<clipPath id="clip0_6_2585">
<rect width="27.0151" height="26.8408" fill="white" transform="translate(0.314453 0.976685)"/>
</clipPath>
</defs>
</svg>
