<svg width="31" height="29" viewBox="0 0 31 29" fill="none" xmlns="http://www.w3.org/2000/svg">
<path d="M8.28824 4.37628C8.20587 4.37639 8.12428 4.36022 8.04818 4.32869C7.97208 4.29717 7.90295 4.25092 7.84478 4.19259L7.42269 3.77051C7.35728 3.70509 7.30715 3.62601 7.27589 3.53894C7.24463 3.45186 7.23303 3.35895 7.24191 3.26687C7.25079 3.17478 7.27993 3.0858 7.32724 3.0063C7.37456 2.9268 7.43887 2.85875 7.51558 2.80704C9.80808 1.26316 12.5083 0.436672 15.2722 0.432874C18.036 0.429077 20.7385 1.24814 23.0352 2.78571C23.1122 2.8373 23.1768 2.9053 23.2243 2.98483C23.2719 3.06436 23.3012 3.15343 23.3103 3.24565C23.3193 3.33787 23.3078 3.43095 23.2765 3.51818C23.2453 3.60541 23.1951 3.68464 23.1295 3.75016L22.741 4.13873C22.6375 4.24218 22.5011 4.3062 22.3554 4.3197C22.2097 4.33319 22.0638 4.29532 21.9431 4.21264C21.8223 4.12995 21.7343 4.00765 21.6942 3.86691C21.6542 3.72617 21.6645 3.57585 21.7236 3.44197C19.7716 2.29131 17.5467 1.68533 15.2809 1.68719C13.015 1.68906 10.7911 2.29869 8.84102 3.45255C8.89226 3.54812 8.91786 3.65533 8.91531 3.76374C8.91276 3.87215 8.88215 3.97805 8.82646 4.0711C8.77078 4.16415 8.69192 4.24118 8.59759 4.29466C8.50326 4.34815 8.39668 4.37627 8.28824 4.37628Z" fill="url(#paint0_linear_6_2556)"/>
<path d="M21.2751 25.816C21.0904 25.816 20.9298 25.8454 20.8164 25.5446C20.7146 25.2745 20.7702 24.9739 21.0233 24.835C22.9025 23.8067 24.4703 22.2916 25.5622 20.4486C26.6541 18.6057 27.2299 16.5028 27.2291 14.3607C27.2276 12.6215 26.8461 10.9037 26.1114 9.32738C25.3767 7.75106 24.3064 6.35431 22.9755 5.23483C21.6446 4.11535 20.0851 3.30019 18.4063 2.84636C16.7274 2.39253 14.9696 2.31101 13.2559 2.60748C11.5423 2.90395 9.91405 3.57127 8.48522 4.56274C7.05638 5.55422 5.86143 6.84591 4.98395 8.34745C4.10647 9.84899 3.56766 11.5241 3.40521 13.2557C3.24276 14.9872 3.46059 16.7333 4.04347 18.3719C4.08995 18.5024 4.08269 18.646 4.02329 18.7712C3.96389 18.8964 3.8572 18.9929 3.72669 19.0394C3.59618 19.086 3.45253 19.0788 3.32732 19.0194C3.2021 18.9601 3.10558 18.8535 3.05896 18.723C2.22564 16.3863 2.0791 13.8598 2.63669 11.4424C3.19427 9.02507 4.43264 6.81801 6.20528 5.0824C7.97791 3.34679 10.2106 2.15527 12.6392 1.64883C15.0678 1.14239 17.5906 1.34221 19.9092 2.22467C22.2278 3.10712 24.2451 4.63526 25.7224 6.62829C27.1997 8.62131 28.0752 10.9958 28.2453 13.4708C28.4153 15.9458 27.8729 18.4177 26.6821 20.5941C25.4913 22.7705 23.702 24.5602 21.5259 25.7515C21.4491 25.7938 21.3628 25.816 21.2751 25.816Z" fill="url(#paint1_linear_6_2556)"/>
<path d="M3.40546 19.1745C3.01398 19.175 2.63348 19.0452 2.324 18.8055C2.01452 18.5657 1.79368 18.2298 1.69635 17.8506C1.11293 15.5605 1.11293 13.1608 1.69635 10.8707C1.79368 10.4915 2.01451 10.1555 2.32399 9.9158C2.63347 9.67606 3.01398 9.54621 3.40546 9.54675C3.57179 9.54675 3.73131 9.61283 3.84892 9.73044C3.96653 9.84805 4.03261 10.0076 4.03261 10.1739C4.03261 10.3402 3.96653 10.4998 3.84892 10.6174C3.73131 10.735 3.57179 10.8011 3.40546 10.8011C3.29253 10.8006 3.18267 10.8378 3.09322 10.9067C3.00377 10.9757 2.93983 11.0724 2.91148 11.1818C2.38029 13.2677 2.38029 15.4535 2.91148 17.5395C2.93983 17.6488 3.00377 17.7456 3.09322 17.8145C3.18267 17.8835 3.29253 17.9206 3.40546 17.9202C3.75182 17.9202 4.04109 18.2082 4.07377 18.5265C4.10915 18.8711 3.75182 19.1745 3.40546 19.1745Z" fill="url(#paint2_linear_6_2556)"/>
<path d="M1.96551 17.8794H1.8646C1.55114 17.8798 1.24648 17.7758 0.998698 17.5838C0.750918 17.3918 0.574136 17.1227 0.496255 16.8191C0.0852327 15.2059 0.0852327 13.5154 0.496255 11.9022C0.574138 11.5986 0.75092 11.3295 0.998699 11.1375C1.24648 10.9455 1.55114 10.8415 1.8646 10.8419V12.0962C1.82969 12.0959 1.79568 12.1073 1.76793 12.1285C1.74019 12.1497 1.72029 12.1795 1.71138 12.2133C1.35259 13.6224 1.35259 15.0989 1.71138 16.508C1.72029 16.5418 1.74018 16.5716 1.76793 16.5928C1.79567 16.614 1.82969 16.6254 1.8646 16.6251H1.96551V17.8794Z" fill="url(#paint3_linear_6_2556)"/>
<path d="M28.6532 17.8794H28.5522V16.6251H28.6532C28.6881 16.6254 28.7221 16.614 28.7498 16.5928C28.7776 16.5716 28.7975 16.5418 28.8064 16.5081C29.1652 15.0989 29.1652 13.6224 28.8064 12.2133C28.7975 12.1795 28.7776 12.1497 28.7498 12.1285C28.7221 12.1073 28.6881 12.0959 28.6532 12.0962V10.8419C28.9666 10.8415 29.2713 10.9455 29.5191 11.1375C29.7669 11.3295 29.9436 11.5986 30.0215 11.9022C30.4325 13.5154 30.4325 15.2059 30.0215 16.8191C29.9436 17.1227 29.7668 17.3918 29.5191 17.5838C29.2713 17.7758 28.9666 17.8798 28.6532 17.8794Z" fill="url(#paint4_linear_6_2556)"/>
<path d="M22.1527 26.4558C21.7542 26.4559 21.3289 26.2444 21.019 25.873L20.9543 25.7955C20.8478 25.6678 20.7964 25.503 20.8114 25.3374C20.8264 25.1718 20.9065 25.0189 21.0342 24.9124C21.1618 24.8058 21.3266 24.7544 21.4922 24.7693C21.6578 24.7842 21.8107 24.8642 21.9173 24.9918L21.982 25.0693C22.0241 25.1225 22.0775 25.1656 22.1384 25.1955C22.9358 24.9212 23.6045 24.3632 24.0171 23.6278C23.9986 23.5626 23.9657 23.5023 23.921 23.4513C23.8144 23.3236 23.763 23.1588 23.7779 22.9931C23.7929 22.8275 23.873 22.6746 24.0007 22.568C24.1284 22.4614 24.2932 22.41 24.4589 22.4249C24.6245 22.4399 24.7775 22.52 24.884 22.6477C25.2818 23.1244 25.3864 23.741 25.1443 24.182C24.5728 25.2352 23.6203 26.03 22.4818 26.4037C22.3756 26.4387 22.2645 26.4563 22.1527 26.4558Z" fill="url(#paint5_linear_6_2556)"/>
<path d="M27.2988 18.9093H27.1436V17.7848H27.2988C27.4067 17.7854 27.5117 17.7496 27.5968 17.6833C27.6819 17.617 27.7422 17.524 27.768 17.4192C28.2732 15.3409 28.2556 13.1697 27.7168 11.0998C27.6899 10.9959 27.6293 10.9039 27.5445 10.8381C27.4596 10.7723 27.3554 10.7365 27.2481 10.7362V9.61169C27.6041 9.61207 27.9499 9.73036 28.2315 9.94809C28.5132 10.1658 28.7147 10.4707 28.8047 10.8151C29.3907 13.0656 29.4098 15.4263 28.8604 17.686C28.7753 18.0357 28.5749 18.3465 28.2916 18.5684C28.0084 18.7903 27.6586 18.9103 27.2988 18.9093Z" fill="url(#paint6_linear_6_2556)"/>
<path d="M18.5583 24.2349C18.9021 23.7413 18.4566 23.0817 17.871 23.2191C16.1738 23.6142 14.4086 23.6142 12.7115 23.2191C12.1259 23.0817 11.6804 23.7413 12.0242 24.2349L14.752 28.1512C14.8125 28.2382 14.8932 28.3092 14.9871 28.3582C15.081 28.4072 15.1853 28.4328 15.2912 28.4328C15.3972 28.4328 15.5015 28.4072 15.5954 28.3582C15.6893 28.3092 15.77 28.2382 15.8305 28.1512L18.5583 24.2349Z" fill="url(#paint7_linear_6_2556)"/>
<path d="M15.2911 24.9757C21.1536 24.9757 25.9061 20.2232 25.9061 14.3607C25.9061 8.49813 21.1536 3.74561 15.2911 3.74561C9.42855 3.74561 4.67603 8.49813 4.67603 14.3607C4.67603 20.2232 9.42855 24.9757 15.2911 24.9757Z" fill="url(#paint8_linear_6_2556)"/>
<path d="M8.64615 15.8674L10.1593 14.2963C10.4233 14.0258 10.6165 13.7618 10.6165 13.4978C10.6165 13.2145 10.4362 13.0213 10.1336 13.0213C9.81805 13.0213 9.59268 13.2274 9.47034 13.5107L8.60107 13.002C8.89083 12.3324 9.4961 12.0168 10.1207 12.0168C10.9256 12.0168 11.6467 12.5448 11.6467 13.4528C11.6467 13.9936 11.357 14.4572 10.9449 14.8693L10.198 15.6227H11.7111V16.6143H8.64615V15.8674Z" fill="white"/>
<path d="M15.5422 15.8931H15.0915V16.6143H14.0484V15.8931H12.0007V14.9401L13.4366 12.1069H14.5442L13.1082 14.9401H14.0484V13.9743H15.0915V14.9401H15.5422V15.8931Z" fill="white"/>
<path d="M15.7998 17.2583L18.3754 11.4631H18.7618L16.1862 17.2583H15.7998Z" fill="white"/>
<path d="M21.9812 12.1069V12.9698L20.5131 16.6143H19.4185L20.8351 13.0986H19.0193V12.1069H21.9812Z" fill="white"/>
<defs>
<linearGradient id="paint0_linear_6_2556" x1="15.2761" y1="0.218788" x2="15.2761" y2="26.2344" gradientUnits="userSpaceOnUse">
<stop stop-color="#3C3C3B"/>
<stop offset="1" stop-color="#1D1D1B"/>
</linearGradient>
<linearGradient id="paint1_linear_6_2556" x1="15.291" y1="0.218786" x2="15.291" y2="26.2345" gradientUnits="userSpaceOnUse">
<stop stop-color="#3C3C3B"/>
<stop offset="1" stop-color="#1D1D1B"/>
</linearGradient>
<linearGradient id="paint2_linear_6_2556" x1="2.6675" y1="0.218763" x2="2.6675" y2="26.2345" gradientUnits="userSpaceOnUse">
<stop stop-color="#3C3C3B"/>
<stop offset="1" stop-color="#1D1D1B"/>
</linearGradient>
<linearGradient id="paint3_linear_6_2556" x1="1.07675" y1="0.218796" x2="1.07675" y2="26.2345" gradientUnits="userSpaceOnUse">
<stop stop-color="#3C3C3B"/>
<stop offset="1" stop-color="#1D1D1B"/>
</linearGradient>
<linearGradient id="paint4_linear_6_2556" x1="29.441" y1="0.218796" x2="29.441" y2="26.2345" gradientUnits="userSpaceOnUse">
<stop stop-color="#3C3C3B"/>
<stop offset="1" stop-color="#1D1D1B"/>
</linearGradient>
<linearGradient id="paint5_linear_6_2556" x1="23.0411" y1="0.218748" x2="23.0411" y2="26.2344" gradientUnits="userSpaceOnUse">
<stop stop-color="#3C3C3B"/>
<stop offset="1" stop-color="#1D1D1B"/>
</linearGradient>
<linearGradient id="paint6_linear_6_2556" x1="28.2012" y1="0.218833" x2="28.2012" y2="26.2345" gradientUnits="userSpaceOnUse">
<stop stop-color="#3C3C3B"/>
<stop offset="1" stop-color="#1D1D1B"/>
</linearGradient>
<linearGradient id="paint7_linear_6_2556" x1="15.2912" y1="28.372" x2="15.2912" y2="25.0454" gradientUnits="userSpaceOnUse">
<stop stop-color="#06B6CB"/>
<stop offset="1" stop-color="#0028A3"/>
</linearGradient>
<linearGradient id="paint8_linear_6_2556" x1="15.2911" y1="3.68448" x2="15.2911" y2="30.4317" gradientUnits="userSpaceOnUse">
<stop stop-color="#06B6CB"/>
<stop offset="1" stop-color="#0028A3"/>
</linearGradient>
</defs>
</svg>
