<svg width="34" height="27" viewBox="0 0 34 27" fill="none" xmlns="http://www.w3.org/2000/svg">
<path d="M15.8585 11.2125L17.0554 9.90163C17.1546 9.79299 17.2065 9.64938 17.1999 9.50242C17.1932 9.35545 17.1284 9.21716 17.0197 9.11796C16.9659 9.06884 16.903 9.0308 16.8345 9.00601C16.766 8.98122 16.6933 8.97016 16.6205 8.97347C16.5478 8.97678 16.4764 8.99439 16.4104 9.0253C16.3444 9.0562 16.2852 9.0998 16.2361 9.15359L15.0392 10.4644C14.94 10.5731 14.888 10.7167 14.8947 10.8637C14.9014 11.0106 14.9662 11.1489 15.0748 11.2481C15.1835 11.3473 15.3271 11.3993 15.474 11.3926C15.621 11.3859 15.7593 11.3211 15.8585 11.2125Z" fill="url(#paint0_linear_6_2572)"/>
<path d="M14.453 20.3046L15.7639 21.5014C15.8177 21.5506 15.8806 21.5886 15.9491 21.6134C16.0176 21.6382 16.0903 21.6492 16.1631 21.6459C16.2359 21.6426 16.3073 21.625 16.3732 21.5941C16.4392 21.5632 16.4984 21.5196 16.5476 21.4658C16.6468 21.3572 16.6987 21.2136 16.6921 21.0666C16.6854 20.9196 16.6206 20.7813 16.512 20.6821L15.2011 19.4853C15.0924 19.3861 14.9488 19.3341 14.8019 19.3408C14.6549 19.3475 14.5166 19.4123 14.4174 19.5209C14.3683 19.5747 14.3303 19.6376 14.3055 19.7061C14.2807 19.7746 14.2696 19.8473 14.2729 19.9201C14.2762 19.9929 14.2938 20.0643 14.3247 20.1302C14.3556 20.1962 14.3992 20.2554 14.453 20.3046Z" fill="url(#paint1_linear_6_2572)"/>
<path d="M17.2134 15.7937H18.9885C19.1356 15.7937 19.2767 15.7353 19.3807 15.6313C19.4848 15.5273 19.5432 15.3862 19.5432 15.239C19.5432 15.1662 19.5289 15.0941 19.501 15.0268C19.4731 14.9595 19.4322 14.8983 19.3807 14.8468C19.3292 14.7953 19.2681 14.7544 19.2008 14.7266C19.1335 14.6987 19.0613 14.6843 18.9885 14.6843H17.2134C17.0663 14.6843 16.9252 14.7428 16.8212 14.8468C16.7172 14.9508 16.6587 15.0919 16.6587 15.239C16.6587 15.3862 16.7172 15.5272 16.8212 15.6313C16.9252 15.7353 17.0663 15.7937 17.2134 15.7937Z" fill="url(#paint2_linear_6_2572)"/>
<path d="M6.82338 11.1951L5.53549 9.85098C5.42875 9.73958 5.37282 9.59233 5.38001 9.44163C5.3872 9.29094 5.45692 9.14913 5.57383 9.04742C5.63172 8.99706 5.69944 8.95805 5.77315 8.93263C5.84685 8.90721 5.92509 8.89588 6.0034 8.89927C6.0817 8.90266 6.15854 8.92072 6.22952 8.95241C6.3005 8.9841 6.36423 9.0288 6.41708 9.08396L7.70498 10.4281C7.81172 10.5395 7.86765 10.6867 7.86046 10.8374C7.85328 10.9881 7.78356 11.1299 7.66666 11.2316C7.54975 11.3333 7.39523 11.3866 7.23708 11.3798C7.07894 11.3729 6.93013 11.3065 6.82338 11.1951Z" fill="url(#paint3_linear_6_2572)"/>
<path d="M11.7993 7.3937L11.7595 9.25482C11.7562 9.40907 11.6917 9.55274 11.58 9.65421C11.4684 9.75569 11.3188 9.80666 11.1642 9.79591C11.0877 9.79059 11.0122 9.77028 10.9421 9.73614C10.872 9.702 10.8087 9.65469 10.7557 9.59692C10.7027 9.53915 10.6612 9.47205 10.6334 9.39946C10.6056 9.32686 10.5922 9.25019 10.5938 9.17381L10.6335 7.3127C10.6368 7.15845 10.7014 7.01478 10.813 6.91331C10.9247 6.81183 11.0742 6.76086 11.2288 6.7716C11.3834 6.78234 11.5304 6.85392 11.6373 6.97059C11.7443 7.08725 11.8026 7.23945 11.7993 7.3937Z" fill="url(#paint4_linear_6_2572)"/>
<path d="M11.6987 20.9364L11.6589 22.7975C11.6556 22.9518 11.5911 23.0955 11.4794 23.1969C11.3678 23.2984 11.2182 23.3494 11.0636 23.3386C10.9871 23.3333 10.9116 23.313 10.8415 23.2789C10.7714 23.2447 10.7081 23.1974 10.6551 23.1396C10.6022 23.0819 10.5606 23.0148 10.5328 22.9422C10.505 22.8696 10.4916 22.7929 10.4932 22.7165L10.5329 20.8554C10.5362 20.7012 10.6008 20.5575 10.7125 20.456C10.8241 20.3546 10.9737 20.3036 11.1282 20.3143C11.2828 20.3251 11.4298 20.3966 11.5368 20.5133C11.6437 20.63 11.702 20.7822 11.6987 20.9364Z" fill="url(#paint5_linear_6_2572)"/>
<path d="M8.29617 20.2767L6.95204 21.5646C6.89689 21.6174 6.83235 21.6584 6.76211 21.6851C6.69188 21.7117 6.61733 21.7236 6.54271 21.7201C6.46809 21.7165 6.39488 21.6976 6.32724 21.6643C6.2596 21.6311 6.19887 21.5842 6.14851 21.5263C6.04679 21.4094 5.99349 21.2548 6.00034 21.0967C6.00719 20.9386 6.07362 20.7897 6.18502 20.683L7.52915 19.3951C7.64055 19.2884 7.7878 19.2324 7.9385 19.2396C8.08919 19.2468 8.23099 19.3165 8.33271 19.4334C8.38307 19.4913 8.42207 19.5591 8.44749 19.6328C8.47291 19.7065 8.48425 19.7847 8.48085 19.863C8.47746 19.9413 8.45941 20.0181 8.42772 20.0891C8.39603 20.1601 8.35133 20.2238 8.29617 20.2767Z" fill="url(#paint6_linear_6_2572)"/>
<path d="M5.44326 15.7234H3.66154C3.51387 15.7234 3.37225 15.6689 3.26783 15.5719C3.16341 15.475 3.10474 15.3435 3.10474 15.2064C3.10474 15.1385 3.11914 15.0712 3.14712 15.0085C3.1751 14.9458 3.21612 14.8888 3.26782 14.8408C3.31953 14.7928 3.3809 14.7547 3.44846 14.7287C3.51601 14.7027 3.58842 14.6893 3.66154 14.6893H5.44326C5.59093 14.6893 5.73255 14.7438 5.83696 14.8408C5.94138 14.9377 6.00004 15.0692 6.00004 15.2064C6.00003 15.3435 5.94137 15.475 5.83696 15.5719C5.73254 15.6689 5.59093 15.7234 5.44326 15.7234Z" fill="url(#paint7_linear_6_2572)"/>
<path d="M11.2837 24.0238C12.8582 24.0244 14.4048 23.6083 15.7665 22.8178C17.1282 22.0273 18.2565 20.8906 19.0368 19.5231C19.817 18.1555 20.2216 16.6058 20.2092 15.0314C20.1969 13.4569 19.7682 11.9138 18.9666 10.5586C18.7895 10.2603 18.5954 9.97238 18.3855 9.69622C17.6315 8.7028 16.6774 7.87869 15.5849 7.2772C14.4923 6.67571 13.2857 6.31022 12.0431 6.20437C10.8004 6.09853 9.54941 6.25468 8.37091 6.66274C7.1924 7.07079 6.11266 7.72166 5.20152 8.57325H2.27934C3.89549 6.34191 6.28127 4.78872 8.97575 4.21376V2.51173H8.58075C8.30404 2.51173 8.03866 2.40181 7.84299 2.20615C7.64733 2.01048 7.5374 1.7451 7.5374 1.46839C7.5374 1.19168 7.64733 0.926301 7.84299 0.730637C8.03866 0.534972 8.30404 0.425049 8.58075 0.425049H13.5441C13.8208 0.425049 14.0862 0.534972 14.2819 0.730637C14.4775 0.926301 14.5875 1.19168 14.5875 1.46839C14.5875 1.7451 14.4775 2.01048 14.2819 2.20615C14.0862 2.40181 13.8208 2.51173 13.5441 2.51173H13.1491V4.13103C14.7012 4.39547 16.179 4.98817 17.4836 5.86952L28.5085 6.43009L18.8864 6.98578C19.7687 7.81043 20.5117 8.77255 21.0864 9.83478L26.6288 10.116L21.38 10.42C21.7922 11.3067 22.0848 12.2442 22.2501 13.208L33.3247 13.5576L22.3893 14.4095C22.4033 14.6374 22.412 14.8666 22.412 15.098C22.4125 16.1852 22.2536 17.2666 21.9405 18.3077L27.9193 18.6117L21.7171 18.9695C21.3092 20.0624 20.7319 21.0844 20.0064 21.998L29.9751 22.381L18.9296 23.1748C17.8026 24.2448 16.4635 25.0664 14.9989 25.5863C13.5344 26.1063 11.977 26.3131 10.4275 26.1933C8.87803 26.0735 7.37094 25.6299 6.0037 24.891C4.63646 24.1522 3.43952 23.1346 2.49028 21.904H5.51793C7.12657 23.2739 9.17085 24.0255 11.2837 24.0238Z" fill="url(#paint8_linear_6_2572)"/>
<path d="M0.235645 15.1084C0.235645 21.2761 5.18925 26.276 11.2998 26.276C17.4104 26.276 22.364 21.2761 22.364 15.1084C22.364 8.94069 17.4104 3.9408 11.2998 3.9408C5.18925 3.9408 0.235645 8.94069 0.235645 15.1084ZM20.1717 15.1084C20.1717 20.054 16.1996 24.0631 11.2998 24.0631C6.40004 24.0631 2.42798 20.054 2.42798 15.1084C2.42798 10.1628 6.40004 6.15362 11.2998 6.15362C16.1996 6.15362 20.1717 10.1628 20.1717 15.1084Z" fill="url(#paint9_linear_6_2572)"/>
<defs>
<linearGradient id="paint0_linear_6_2572" x1="15.5436" y1="9.7246" x2="16.6264" y2="10.7046" gradientUnits="userSpaceOnUse">
<stop stop-color="#06B6CB"/>
<stop offset="0.9946" stop-color="#253B95"/>
</linearGradient>
<linearGradient id="paint1_linear_6_2572" x1="15.9425" y1="19.9907" x2="14.9626" y2="21.0735" gradientUnits="userSpaceOnUse">
<stop stop-color="#06B6CB"/>
<stop offset="0.9946" stop-color="#253B95"/>
</linearGradient>
<linearGradient id="paint2_linear_6_2572" x1="18.098" y1="14.5605" x2="18.1044" y2="16.0209" gradientUnits="userSpaceOnUse">
<stop stop-color="#06B6CB"/>
<stop offset="0.9946" stop-color="#253B95"/>
</linearGradient>
<linearGradient id="paint3_linear_6_2572" x1="7.1622" y1="9.66946" x2="6.04788" y2="10.7278" gradientUnits="userSpaceOnUse">
<stop stop-color="#06B6CB"/>
<stop offset="0.9946" stop-color="#253B95"/>
</linearGradient>
<linearGradient id="paint4_linear_6_2572" x1="10.4809" y1="8.23292" x2="12.0172" y2="8.27251" gradientUnits="userSpaceOnUse">
<stop stop-color="#06B6CB"/>
<stop offset="0.9946" stop-color="#253B95"/>
</linearGradient>
<linearGradient id="paint5_linear_6_2572" x1="10.3803" y1="21.7756" x2="11.9166" y2="21.8152" gradientUnits="userSpaceOnUse">
<stop stop-color="#06B6CB"/>
<stop offset="0.9946" stop-color="#253B95"/>
</linearGradient>
<linearGradient id="paint6_linear_6_2572" x1="6.7689" y1="19.939" x2="7.82721" y2="21.0533" gradientUnits="userSpaceOnUse">
<stop stop-color="#06B6CB"/>
<stop offset="0.9946" stop-color="#253B95"/>
</linearGradient>
<linearGradient id="paint7_linear_6_2572" x1="4.55539" y1="14.5739" x2="4.54982" y2="15.9351" gradientUnits="userSpaceOnUse">
<stop stop-color="#06B6CB"/>
<stop offset="0.9946" stop-color="#253B95"/>
</linearGradient>
<linearGradient id="paint8_linear_6_2572" x1="17.802" y1="0.425049" x2="17.8142" y2="18.9343" gradientUnits="userSpaceOnUse">
<stop stop-color="#06B6CB"/>
<stop offset="1" stop-color="#253B95"/>
</linearGradient>
<linearGradient id="paint9_linear_6_2572" x1="15.7462" y1="0.528477" x2="15.5394" y2="20.899" gradientUnits="userSpaceOnUse">
<stop stop-color="#06B6CB"/>
<stop offset="1" stop-color="#253B95"/>
</linearGradient>
</defs>
</svg>
