<svg width="15" height="7" viewBox="0 0 15 7" fill="none" xmlns="http://www.w3.org/2000/svg">
<path d="M0.828953 6.16642C0.840182 6.30403 0.960843 6.40648 1.09846 6.39526L3.341 6.21227C3.47862 6.20104 3.58107 6.08038 3.56984 5.94276C3.55861 5.80515 3.43795 5.70269 3.30034 5.71392L1.30696 5.87658L1.14431 3.88321C1.13308 3.74559 1.01242 3.64314 0.874805 3.65437C0.737191 3.66559 0.634736 3.78626 0.645965 3.92387L0.828953 6.16642ZM14.092 0.859839C10.8981 0.8319 8.50972 1.02737 6.46061 1.7783C4.40331 2.53224 2.71062 3.83726 0.887557 5.98427L1.26869 6.3079C3.05495 4.20422 4.68032 2.96323 6.63265 2.24777C8.59317 1.5293 10.906 1.33199 14.0877 1.35982L14.092 0.859839Z" fill="#0128A3"/>
</svg>
