<svg width="25" height="24" viewBox="0 0 25 24" fill="none" xmlns="http://www.w3.org/2000/svg">
<circle cx="12.5" cy="12" r="11.4545" fill="white" stroke="#0028A3" stroke-width="1.09091"/>
<path d="M9.69285 8.19642L12.5001 11.0037L15.2928 8.21097C15.3545 8.14531 15.4288 8.09278 15.5113 8.05654C15.5938 8.0203 15.6828 8.00109 15.7728 8.00006C15.9657 8.00006 16.1507 8.07668 16.2871 8.21307C16.4235 8.34946 16.5001 8.53445 16.5001 8.72733C16.5018 8.8165 16.4853 8.90507 16.4515 8.98761C16.4177 9.07015 16.3675 9.14492 16.3038 9.20733L13.4747 12.0001L16.3038 14.8292C16.4236 14.9464 16.4939 15.1052 16.5001 15.2728C16.5001 15.4657 16.4235 15.6507 16.2871 15.787C16.1507 15.9234 15.9657 16.0001 15.7728 16.0001C15.6802 16.0039 15.5877 15.9884 15.5013 15.9546C15.4149 15.9208 15.3365 15.8694 15.271 15.8037L12.5001 12.9964L9.70012 15.7964C9.63867 15.8599 9.56526 15.9106 9.48412 15.9455C9.40298 15.9805 9.31573 15.999 9.22739 16.0001C9.03451 16.0001 8.84952 15.9234 8.71313 15.787C8.57674 15.6507 8.50012 15.4657 8.50012 15.2728C8.49842 15.1836 8.51497 15.0951 8.54873 15.0125C8.5825 14.93 8.63278 14.8552 8.69648 14.7928L11.5256 12.0001L8.69648 9.17097C8.57662 9.0537 8.50633 8.89491 8.50012 8.72733C8.50012 8.53445 8.57674 8.34946 8.71313 8.21307C8.84952 8.07668 9.03451 8.00006 9.22739 8.00006C9.40194 8.00224 9.56921 8.07279 9.69285 8.19642Z" fill="#0028A3"/>
</svg>
