<svg width="19" height="18" viewBox="0 0 19 18" fill="none" xmlns="http://www.w3.org/2000/svg">
<g clip-path="url(#clip0_3_8083)">
<path fill-rule="evenodd" clip-rule="evenodd" d="M10.4435 11.87C10.2393 12.0739 9.96244 12.1885 9.67381 12.1885C9.38519 12.1885 9.10837 12.0739 8.90415 11.87L4.7959 7.76316C4.59168 7.55884 4.47698 7.28176 4.47705 6.99288C4.47712 6.704 4.59194 6.42697 4.79626 6.22275C5.00058 6.01853 5.27766 5.90383 5.56654 5.9039C5.85543 5.90397 6.13245 6.01879 6.33668 6.22311L9.67381 9.56025L13.011 6.22311C13.2163 6.02462 13.4913 5.91471 13.7769 5.91705C14.0625 5.9194 14.3357 6.03381 14.5377 6.23565C14.7398 6.4375 14.8545 6.71061 14.8571 6.99618C14.8597 7.28175 14.75 7.55693 14.5517 7.76244L10.4442 11.8707L10.4435 11.87Z" fill="#0028A3"/>
</g>
<defs>
<clipPath id="clip0_3_8083">
<rect width="17.4263" height="17.4263" fill="white" transform="translate(0.96167 0.208862)"/>
</clipPath>
</defs>
</svg>
