<svg width="21" height="21" viewBox="0 0 21 21" fill="none" xmlns="http://www.w3.org/2000/svg">
<path d="M9.034 7.75703H11.034V5.75703H9.034M10.034 18.757C5.624 18.757 2.034 15.167 2.034 10.757C2.034 6.34703 5.624 2.75703 10.034 2.75703C14.444 2.75703 18.034 6.34703 18.034 10.757C18.034 15.167 14.444 18.757 10.034 18.757ZM10.034 0.757034C8.72078 0.757034 7.42042 1.01569 6.20716 1.51824C4.99391 2.02079 3.89151 2.75738 2.96293 3.68597C1.08756 5.56133 0.0339966 8.10487 0.0339966 10.757C0.0339966 13.4092 1.08756 15.9527 2.96293 17.8281C3.89151 18.7567 4.99391 19.4933 6.20716 19.9958C7.42042 20.4984 8.72078 20.757 10.034 20.757C12.6862 20.757 15.2297 19.7035 17.1051 17.8281C18.9804 15.9527 20.034 13.4092 20.034 10.757C20.034 9.44382 19.7753 8.14346 19.2728 6.9302C18.7702 5.71694 18.0336 4.61455 17.1051 3.68597C16.1765 2.75738 15.0741 2.02079 13.8608 1.51824C12.6476 1.01569 11.3472 0.757034 10.034 0.757034ZM9.034 15.757H11.034V9.75703H9.034V15.757Z" fill="white"/>
</svg>
