<svg width="25" height="25" viewBox="0 0 25 25" fill="none" xmlns="http://www.w3.org/2000/svg">
<path d="M6.59188 5.94669H6.66263L6.68618 5.87996C6.88589 5.31394 7.25626 4.8238 7.74624 4.47711C8.23621 4.13042 8.82165 3.94424 9.42188 3.94424C10.0221 3.94424 10.6075 4.13042 11.0975 4.47711C11.5875 4.8238 11.9579 5.31394 12.1576 5.87996L12.1811 5.94669H12.2519H19.4219C19.6606 5.94669 19.8895 6.04151 20.0583 6.21029C20.2271 6.37908 20.3219 6.60799 20.3219 6.84669C20.3219 7.08538 20.2271 7.3143 20.0583 7.48308C19.8895 7.65187 19.6606 7.74669 19.4219 7.74669H12.2519H12.1811L12.1576 7.81341C11.9579 8.37944 11.5875 8.86958 11.0975 9.21627C10.6075 9.56296 10.0221 9.74914 9.42188 9.74914C8.82165 9.74914 8.23621 9.56296 7.74624 9.21627C7.25626 8.86958 6.88589 8.37944 6.68618 7.81341L6.66263 7.74669H6.59188H5.42188C5.18318 7.74669 4.95426 7.65187 4.78548 7.48308C4.6167 7.3143 4.52188 7.08538 4.52188 6.84669C4.52188 6.60799 4.6167 6.37908 4.78548 6.21029C4.95426 6.04151 5.18318 5.94669 5.42188 5.94669H6.59188ZM12.5919 11.9467H12.6626L12.6862 11.88C12.8859 11.3139 13.2563 10.8238 13.7462 10.4771C14.2362 10.1304 14.8217 9.94424 15.4219 9.94424C16.0221 9.94424 16.6075 10.1304 17.0975 10.4771C17.5875 10.8238 17.9579 11.3139 18.1576 11.88L18.1811 11.9467H18.2519H19.4219C19.6606 11.9467 19.8895 12.0415 20.0583 12.2103C20.2271 12.3791 20.3219 12.608 20.3219 12.8467C20.3219 13.0854 20.2271 13.3143 20.0583 13.4831C19.8895 13.6519 19.6606 13.7467 19.4219 13.7467H18.2519H18.1811L18.1576 13.8134C17.9579 14.3794 17.5875 14.8696 17.0975 15.2163C16.6075 15.563 16.0221 15.7491 15.4219 15.7491C14.8217 15.7491 14.2362 15.563 13.7462 15.2163C13.2563 14.8696 12.8859 14.3794 12.6862 13.8134L12.6626 13.7467H12.5919H5.42188C5.18318 13.7467 4.95426 13.6519 4.78548 13.4831C4.6167 13.3143 4.52188 13.0854 4.52188 12.8467C4.52188 12.608 4.6167 12.3791 4.78548 12.2103C4.95426 12.0415 5.18318 11.9467 5.42188 11.9467H12.5919ZM6.59188 17.9467H6.66263L6.68618 17.88C6.88589 17.3139 7.25626 16.8238 7.74624 16.4771C8.23621 16.1304 8.82165 15.9442 9.42188 15.9442C10.0221 15.9442 10.6075 16.1304 11.0975 16.4771C11.5875 16.8238 11.9579 17.3139 12.1576 17.88L12.1811 17.9467H12.2519H19.4219C19.6606 17.9467 19.8895 18.0415 20.0583 18.2103C20.2271 18.3791 20.3219 18.608 20.3219 18.8467C20.3219 19.0854 20.2271 19.3143 20.0583 19.4831C19.8895 19.6519 19.6606 19.7467 19.4219 19.7467H12.2519H12.1811L12.1576 19.8134C11.9579 20.3794 11.5875 20.8696 11.0975 21.2163C10.6075 21.563 10.0221 21.7491 9.42188 21.7491C8.82165 21.7491 8.23621 21.563 7.74624 21.2163C7.25626 20.8696 6.88589 20.3794 6.68618 19.8134L6.66263 19.7467H6.59188H5.42188C5.18318 19.7467 4.95426 19.6519 4.78548 19.4831C4.6167 19.3143 4.52188 19.0854 4.52188 18.8467C4.52188 18.608 4.6167 18.3791 4.78548 18.2103C4.95426 18.0415 5.18318 17.9467 5.42188 17.9467H6.59188ZM9.42188 5.74669C9.13014 5.74669 8.85035 5.86258 8.64406 6.06887C8.43777 6.27516 8.32188 6.55495 8.32188 6.84669C8.32188 7.13843 8.43777 7.41822 8.64406 7.62451C8.85035 7.8308 9.13014 7.94669 9.42188 7.94669C9.71361 7.94669 9.9934 7.8308 10.1997 7.62451C10.406 7.41822 10.5219 7.13843 10.5219 6.84669C10.5219 6.55495 10.406 6.27516 10.1997 6.06887C9.9934 5.86258 9.71361 5.74669 9.42188 5.74669ZM15.4219 11.7467C15.1301 11.7467 14.8503 11.8626 14.6441 12.0689C14.4378 12.2752 14.3219 12.555 14.3219 12.8467C14.3219 13.1384 14.4378 13.4182 14.6441 13.6245C14.8503 13.8308 15.1301 13.9467 15.4219 13.9467C15.7136 13.9467 15.9934 13.8308 16.1997 13.6245C16.406 13.4182 16.5219 13.1384 16.5219 12.8467C16.5219 12.555 16.406 12.2752 16.1997 12.0689C15.9934 11.8626 15.7136 11.7467 15.4219 11.7467ZM9.42188 17.7467C9.13014 17.7467 8.85035 17.8626 8.64406 18.0689C8.43777 18.2752 8.32188 18.555 8.32188 18.8467C8.32188 19.1384 8.43777 19.4182 8.64406 19.6245C8.85035 19.8308 9.13014 19.9467 9.42188 19.9467C9.71361 19.9467 9.9934 19.8308 10.1997 19.6245C10.406 19.4182 10.5219 19.1384 10.5219 18.8467C10.5219 18.555 10.406 18.2752 10.1997 18.0689C9.9934 17.8626 9.71361 17.7467 9.42188 17.7467Z" fill="white" stroke="#0028A3" stroke-width="0.2"/>
</svg>
