<svg width="17" height="17" viewBox="0 0 17 17" fill="none" xmlns="http://www.w3.org/2000/svg">
<path d="M0.863281 16.9299V13.1522L12.5966 1.44104C12.7744 1.27808 12.9708 1.15215 13.1859 1.06327C13.4011 0.974376 13.6268 0.929932 13.8633 0.929932C14.0997 0.929932 14.3294 0.974376 14.5522 1.06327C14.775 1.15215 14.9676 1.28549 15.1299 1.46326L16.3522 2.70771C16.5299 2.87067 16.6597 3.06326 16.7415 3.28549C16.8233 3.50771 16.8639 3.72993 16.8633 3.95215C16.8633 4.18919 16.8227 4.41526 16.7415 4.63038C16.6603 4.84549 16.5305 5.04163 16.3522 5.21882L4.64106 16.9299H0.863281ZM13.8411 5.1966L15.0855 3.95215L13.8411 2.70771L12.5966 3.95215L13.8411 5.1966Z" fill="white"/>
</svg>
