<svg width="51" height="57" viewBox="0 0 51 57" fill="none" xmlns="http://www.w3.org/2000/svg">
<path d="M35.4607 56.6162L1.80643 56.6162C1.4241 56.6162 1.05743 56.459 0.787083 56.1792C0.516731 55.8995 0.364853 55.52 0.364853 55.1243L0.364853 4.66824C0.364853 4.27256 0.516731 3.89309 0.787083 3.6133C1.05743 3.33352 1.4241 3.17633 1.80643 3.17633L35.4608 3.17633C35.8431 3.17633 36.2098 3.33352 36.4801 3.6133C36.7505 3.89309 36.9023 4.27256 36.9023 4.66824L36.9023 55.1243C36.9023 55.52 36.7505 55.8994 36.4801 56.1792C36.2098 56.459 35.8431 56.6162 35.4607 56.6162Z" fill="#0028A3"/>
<path opacity="0.5" d="M35.4607 56.6162L1.80643 56.6162C1.4241 56.6162 1.05743 56.459 0.787083 56.1792C0.516731 55.8995 0.364853 55.52 0.364853 55.1243L0.364853 4.66824C0.364853 4.27256 0.516731 3.89309 0.787083 3.6133C1.05743 3.33352 1.4241 3.17633 1.80643 3.17633L35.4608 3.17633C35.8431 3.17633 36.2098 3.33352 36.4801 3.6133C36.7505 3.89309 36.9023 4.27256 36.9023 4.66824L36.9023 55.1243C36.9023 55.52 36.7505 55.8994 36.4801 56.1792C36.2098 56.459 35.8431 56.6162 35.4607 56.6162Z" fill="white"/>
<path d="M34.0395 4.63623H35.6499V55.2578L1.86679 55.5451L0.933594 54.3842L1.75126 6.63186L34.0395 4.63623Z" fill="#EBEBEB"/>
<path d="M0.933594 54.3842H34.3372V4.63623H35.6499V55.5451H1.86679L0.933594 54.3842Z" fill="#E0E0E0"/>
<path opacity="0.2" d="M35.6499 55.5449L34.3372 54.384H0.933594L1.86679 55.5449H35.6499Z" fill="black"/>
<path d="M0.933594 54.3842H34.3372C35.65 45.7935 34.8469 24.393 34.3372 4.63623H1.5653C1.83283 24.3818 1.18225 43.1003 0.933594 54.3842Z" fill="white" stroke="#263238" stroke-width="0.213545" stroke-miterlimit="10"/>
<path opacity="0.2" d="M24.5008 3.1764V7.17849L12.4688 7.24811L12.4875 6.51306L18.2642 2.97949L24.5008 3.1764Z" fill="black"/>
<path d="M33.6894 2.3103H25.2961C25.2754 2.31104 25.2557 2.32009 25.2413 2.33556C25.2268 2.35102 25.2188 2.37168 25.2188 2.39318C25.2188 2.41468 25.2268 2.43534 25.2413 2.4508C25.2557 2.46626 25.2754 2.47532 25.2961 2.47605H33.6894C33.7102 2.47532 33.7298 2.46626 33.7443 2.4508C33.7587 2.43534 33.7668 2.41468 33.7668 2.39318C33.7668 2.37168 33.7587 2.35102 33.7443 2.33556C33.7298 2.32009 33.7102 2.31104 33.6894 2.3103Z" fill="#0028A3"/>
<path d="M34.3977 2.47605H35.7031C35.7239 2.47532 35.7436 2.46626 35.758 2.4508C35.7724 2.43534 35.7805 2.41468 35.7805 2.39318C35.7805 2.37168 35.7724 2.35102 35.758 2.33556C35.7436 2.32009 35.7239 2.31104 35.7031 2.3103H34.3977C34.3769 2.31104 34.3573 2.32009 34.3428 2.33556C34.3284 2.35102 34.3203 2.37168 34.3203 2.39318C34.3203 2.41468 34.3284 2.43534 34.3428 2.4508C34.3573 2.46626 34.3769 2.47532 34.3977 2.47605Z" fill="#0028A3"/>
<path d="M24.957 6.69604L12.3063 6.69604V3.92782C12.3063 3.48191 12.4775 3.05426 12.7821 2.73895C13.0868 2.42364 13.5 2.2465 13.9309 2.2465L23.3324 2.2465C23.7633 2.2465 24.1765 2.42364 24.4812 2.73894C24.7859 3.05425 24.957 3.48189 24.957 3.9278V6.69604Z" fill="#263238"/>
<path d="M20.9713 2.59575L21.4524 0.871754C21.4614 0.843332 21.464 0.813135 21.46 0.783507C21.4559 0.753879 21.4453 0.725613 21.429 0.700902C21.4127 0.67619 21.3911 0.655699 21.3659 0.641012C21.3407 0.626325 21.3126 0.617838 21.2837 0.616211H15.6235C15.594 0.617926 15.5654 0.626748 15.5399 0.641968C15.5143 0.657188 15.4926 0.678383 15.4764 0.703859C15.4602 0.729335 15.45 0.758384 15.4466 0.788678C15.4432 0.818973 15.4467 0.849672 15.4568 0.878318L16.0235 2.68375C16.0343 2.72165 16.0567 2.75494 16.0872 2.77869C16.1177 2.80244 16.1548 2.81538 16.193 2.8156L20.8055 2.73416C20.8438 2.73254 20.8806 2.71821 20.9105 2.69329C20.9404 2.66837 20.9617 2.63417 20.9713 2.59575Z" fill="#263238"/>
<path d="M20.9099 2.05029H15.9954C15.9746 2.05103 15.9549 2.06008 15.9405 2.07554C15.926 2.09101 15.918 2.11167 15.918 2.13317C15.918 2.15467 15.926 2.17533 15.9405 2.19079C15.9549 2.20625 15.9746 2.21531 15.9954 2.21604H20.9099C20.9307 2.21531 20.9504 2.20625 20.9648 2.19079C20.9792 2.17533 20.9873 2.15467 20.9873 2.13317C20.9873 2.11167 20.9792 2.09101 20.9648 2.07554C20.9504 2.06008 20.9307 2.05103 20.9099 2.05029Z" fill="black"/>
<path d="M31.2074 16.8418H4.78051C4.75974 16.8425 4.74007 16.8516 4.72563 16.8671C4.71119 16.8825 4.70312 16.9032 4.70312 16.9247C4.70312 16.9462 4.71119 16.9668 4.72563 16.9823C4.74007 16.9978 4.75974 17.0068 4.78051 17.0075H31.2074C31.2282 17.0068 31.2479 16.9978 31.2623 16.9823C31.2767 16.9668 31.2848 16.9462 31.2848 16.9247C31.2848 16.9032 31.2767 16.8825 31.2623 16.8671C31.2479 16.8516 31.2282 16.8425 31.2074 16.8418Z" fill="#263238"/>
<path d="M31.2074 19.2742H4.78051C4.75974 19.2749 4.74007 19.284 4.72563 19.2994C4.71119 19.3149 4.70313 19.3355 4.70312 19.357C4.70313 19.3785 4.71119 19.3992 4.72563 19.4147C4.74007 19.4301 4.75974 19.4392 4.78051 19.4399H31.2074C31.2282 19.4392 31.2479 19.4301 31.2623 19.4147C31.2767 19.3992 31.2848 19.3785 31.2848 19.357C31.2848 19.3355 31.2767 19.3149 31.2623 19.2994C31.2479 19.284 31.2282 19.2749 31.2074 19.2742Z" fill="#263238"/>
<path d="M31.2074 21.7065H4.78051C4.75974 21.7073 4.74007 21.7163 4.72563 21.7318C4.71119 21.7473 4.70312 21.7679 4.70312 21.7894C4.70312 21.8109 4.71119 21.8316 4.72563 21.847C4.74007 21.8625 4.75974 21.8716 4.78051 21.8723H31.2074C31.2282 21.8716 31.2479 21.8625 31.2623 21.847C31.2767 21.8316 31.2848 21.8109 31.2848 21.7894C31.2848 21.7679 31.2767 21.7473 31.2623 21.7318C31.2479 21.7163 31.2282 21.7073 31.2074 21.7065Z" fill="#263238"/>
<path d="M31.2074 24.1392H4.78051C4.75974 24.1399 4.74007 24.1489 4.72563 24.1644C4.71119 24.1799 4.70312 24.2005 4.70312 24.222C4.70312 24.2435 4.71119 24.2642 4.72563 24.2797C4.74007 24.2951 4.75974 24.3042 4.78051 24.3049H31.2074C31.2282 24.3042 31.2479 24.2951 31.2623 24.2797C31.2767 24.2642 31.2848 24.2435 31.2848 24.222C31.2848 24.2005 31.2767 24.1799 31.2623 24.1644C31.2479 24.1489 31.2282 24.1399 31.2074 24.1392Z" fill="#263238"/>
<path d="M31.2074 26.5715H4.78051C4.75974 26.5723 4.74007 26.5813 4.72563 26.5968C4.71119 26.6122 4.70313 26.6329 4.70312 26.6544C4.70313 26.6759 4.71119 26.6966 4.72563 26.712C4.74007 26.7275 4.75974 26.7365 4.78051 26.7373H31.2074C31.2282 26.7365 31.2479 26.7275 31.2623 26.712C31.2767 26.6966 31.2848 26.6759 31.2848 26.6544C31.2848 26.6329 31.2767 26.6122 31.2623 26.5968C31.2479 26.5813 31.2282 26.5723 31.2074 26.5715Z" fill="#263238"/>
<path d="M15.9466 28.6965H4.78051C4.75974 28.6973 4.74007 28.7063 4.72563 28.7218C4.71119 28.7372 4.70313 28.7579 4.70312 28.7794C4.70313 28.8009 4.71119 28.8216 4.72563 28.837C4.74007 28.8525 4.75974 28.8615 4.78051 28.8623H15.9466C15.9674 28.8615 15.9871 28.8525 16.0015 28.837C16.0159 28.8216 16.024 28.8009 16.024 28.7794C16.024 28.7579 16.0159 28.7372 16.0015 28.7218C15.9871 28.7063 15.9674 28.6973 15.9466 28.6965Z" fill="#263238"/>
<path d="M31.2074 43.896H4.78051C4.75974 43.8967 4.74007 43.9058 4.72563 43.9212C4.71119 43.9367 4.70312 43.9574 4.70312 43.9789C4.70312 44.0004 4.71119 44.021 4.72563 44.0365C4.74007 44.052 4.75974 44.061 4.78051 44.0617H31.2074C31.2282 44.061 31.2479 44.052 31.2623 44.0365C31.2767 44.021 31.2848 44.0004 31.2848 43.9789C31.2848 43.9574 31.2767 43.9367 31.2623 43.9212C31.2479 43.9058 31.2282 43.8967 31.2074 43.896Z" fill="#263238"/>
<path d="M31.2074 48.3772H4.78051C4.75974 48.3779 4.74007 48.387 4.72563 48.4024C4.71119 48.4179 4.70313 48.4386 4.70312 48.4601C4.70313 48.4816 4.71119 48.5022 4.72563 48.5177C4.74007 48.5332 4.75974 48.5422 4.78051 48.5429H31.2074C31.2282 48.5422 31.2479 48.5332 31.2623 48.5177C31.2767 48.5022 31.2848 48.4816 31.2848 48.4601C31.2848 48.4386 31.2767 48.4179 31.2623 48.4024C31.2479 48.387 31.2282 48.3779 31.2074 48.3772Z" fill="#263238"/>
<path d="M31.2074 46.0298H4.78051C4.75974 46.0305 4.74007 46.0396 4.72563 46.055C4.71119 46.0705 4.70313 46.0912 4.70312 46.1127C4.70313 46.1342 4.71119 46.1548 4.72563 46.1703C4.74007 46.1857 4.75974 46.1948 4.78051 46.1955H31.2074C31.2282 46.1948 31.2479 46.1857 31.2623 46.1703C31.2767 46.1548 31.2848 46.1342 31.2848 46.1127C31.2848 46.0912 31.2767 46.0705 31.2623 46.055C31.2479 46.0396 31.2282 46.0305 31.2074 46.0298Z" fill="#263238"/>
<path d="M16.0365 50.6526H4.87035C4.84959 50.6533 4.82991 50.6624 4.81547 50.6778C4.80104 50.6933 4.79297 50.714 4.79297 50.7355C4.79297 50.757 4.80104 50.7776 4.81547 50.7931C4.82991 50.8085 4.84959 50.8176 4.87035 50.8183H16.0365C16.0572 50.8176 16.0769 50.8085 16.0913 50.7931C16.1058 50.7776 16.1138 50.757 16.1138 50.7355C16.1138 50.714 16.1058 50.6933 16.0913 50.6779C16.0769 50.6624 16.0572 50.6533 16.0365 50.6526Z" fill="#263238"/>
<path d="M10.4042 33.7253H5.01172V38.7524H10.4042V33.7253Z" fill="#0028A3"/>
<path d="M31.3403 36.1562H4.91332C4.89256 36.157 4.87288 36.166 4.85844 36.1815C4.84401 36.197 4.83594 36.2176 4.83594 36.2391C4.83594 36.2606 4.84401 36.2813 4.85844 36.2967C4.87288 36.3122 4.89256 36.3213 4.91332 36.322H31.3403C31.361 36.3213 31.3807 36.3122 31.3951 36.2967C31.4096 36.2813 31.4176 36.2606 31.4176 36.2391C31.4176 36.2176 31.4096 36.197 31.3951 36.1815C31.3807 36.166 31.361 36.157 31.3403 36.1562Z" fill="#263238"/>
<path d="M31.3403 33.688H4.91332C4.89256 33.6887 4.87288 33.6978 4.85844 33.7132C4.84401 33.7287 4.83594 33.7494 4.83594 33.7709C4.83594 33.7924 4.84401 33.813 4.85844 33.8285C4.87288 33.8439 4.89256 33.853 4.91332 33.8537H31.3403C31.361 33.853 31.3807 33.8439 31.3951 33.8285C31.4096 33.813 31.4176 33.7924 31.4176 33.7709C31.4176 33.7494 31.4096 33.7287 31.3951 33.7132C31.3807 33.6978 31.361 33.6887 31.3403 33.688Z" fill="#263238"/>
<path d="M31.2721 38.7231H4.91332C4.89256 38.7239 4.87288 38.7329 4.85844 38.7484C4.84401 38.7639 4.83594 38.7845 4.83594 38.806C4.83594 38.8275 4.84401 38.8482 4.85844 38.8636C4.87288 38.8791 4.89256 38.8882 4.91332 38.8889H31.2721C31.2928 38.8881 31.3125 38.8791 31.3269 38.8636C31.3414 38.8482 31.3494 38.8275 31.3494 38.806C31.3494 38.7845 31.3414 38.7639 31.3269 38.7484C31.3125 38.733 31.2928 38.7239 31.2721 38.7231Z" fill="#263238"/>
<path d="M4.9961 38.7678V33.7708C4.99539 33.7493 4.98664 33.7289 4.9717 33.714C4.95676 33.699 4.93679 33.6907 4.91602 33.6907C4.89524 33.6907 4.87528 33.699 4.86034 33.714C4.8454 33.7289 4.83665 33.7493 4.83594 33.7708V38.7678C4.83665 38.7893 4.8454 38.8096 4.86034 38.8246C4.87528 38.8395 4.89524 38.8478 4.91602 38.8478C4.93679 38.8478 4.95676 38.8395 4.9717 38.8246C4.98664 38.8096 4.99539 38.7893 4.9961 38.7678Z" fill="#263238"/>
<path d="M10.4453 38.7678V33.7708C10.4446 33.7493 10.4359 33.7289 10.4209 33.714C10.406 33.699 10.386 33.6907 10.3652 33.6907C10.3445 33.6907 10.3245 33.699 10.3096 33.714C10.2946 33.7289 10.2859 33.7493 10.2852 33.7708V38.7678C10.2859 38.7893 10.2946 38.8096 10.3096 38.8246C10.3245 38.8395 10.3445 38.8478 10.3652 38.8478C10.386 38.8478 10.406 38.8395 10.4209 38.8246C10.4359 38.8096 10.4446 38.7893 10.4453 38.7678Z" fill="#263238"/>
<path d="M25.6523 38.7678V33.7708C25.6516 33.7493 25.6429 33.7289 25.6279 33.714C25.613 33.699 25.593 33.6907 25.5723 33.6907C25.5515 33.6907 25.5315 33.699 25.5166 33.714C25.5016 33.7289 25.4929 33.7493 25.4922 33.7708V38.7678C25.4929 38.7893 25.5016 38.8096 25.5166 38.8246C25.5315 38.8395 25.5515 38.8478 25.5723 38.8478C25.593 38.8478 25.613 38.8395 25.6279 38.8246C25.6429 38.8096 25.6516 38.7893 25.6523 38.7678Z" fill="#263238"/>
<path d="M31.4219 38.7678V33.7708C31.4212 33.7493 31.4124 33.7289 31.3975 33.714C31.3825 33.699 31.3626 33.6907 31.3418 33.6907C31.321 33.6907 31.3011 33.699 31.2861 33.714C31.2712 33.7289 31.2624 33.7493 31.2617 33.7708V38.7678C31.2624 38.7893 31.2712 38.8096 31.2861 38.8246C31.3011 38.8395 31.321 38.8478 31.3418 38.8478C31.3626 38.8478 31.3825 38.8395 31.3975 38.8246C31.4124 38.8096 31.4212 38.7893 31.4219 38.7678Z" fill="#263238"/>
<path d="M42.0012 8.98656C41.123 8.94472 37.1176 9.16411 33.5391 10.625V19.8066C33.5391 19.8066 33.6136 24.8209 37.0431 27.869C40.4726 30.9171 42.1873 31.9567 42.1873 31.9567C42.1873 31.9567 43.4855 30.8628 46.9594 27.869C50.7582 24.5953 50.4634 19.8066 50.4634 19.8066V10.625C47.095 8.98196 42.8877 8.94998 42.0012 8.98656Z" fill="#0028A3"/>
<path opacity="0.3" d="M42.1214 30.281C40.6601 29.2065 39.2516 28.0569 37.9013 26.8366C35.0379 24.2917 34.8622 20.0016 34.8555 19.7897V11.5773C37.0923 10.8282 39.4208 10.4127 41.7708 10.3431C41.8387 10.3431 41.8963 10.3441 41.9421 10.3462L41.9985 10.3489L42.0549 10.3466C42.1452 10.3429 42.2745 10.3401 42.4376 10.3401C43.3723 10.3401 46.4283 10.4314 49.1495 11.5223V19.7914C49.1753 21.1255 48.9156 22.449 48.3891 23.667C47.8625 24.885 47.0821 25.9674 46.1038 26.8366C44.123 28.602 42.8384 29.6865 42.1214 30.281Z" fill="white"/>
<path d="M42.2671 22.354L38.2148 19.2311L39.2678 17.7678L41.985 19.8618L45.7186 15.2522L47.0697 16.4242L42.2671 22.354Z" fill="#0028A3"/>
<g opacity="0.3">
<path d="M42.2671 22.3538L38.2148 19.2308L39.2678 17.7676L41.985 19.8616L45.7186 15.252L47.0697 16.4239L42.2671 22.3538Z" fill="black"/>
</g>
<path opacity="0.3" d="M43.4888 10.7604C43.4888 10.7604 41.3746 22.6226 38.8301 24.466C36.2855 26.3094 35.573 21.8946 35.4712 20.4679C35.3694 19.0412 35.3207 12.6156 35.3959 12.1942C35.4712 11.7729 40.5371 10.3917 43.4888 10.7604Z" fill="white"/>
<path d="M5.05692 11.979V9.3398H5.99765C6.20298 9.3398 6.37308 9.37717 6.50796 9.45191C6.64284 9.52666 6.74379 9.62889 6.8108 9.75862C6.87781 9.88749 6.91132 10.0327 6.91132 10.1942C6.91132 10.3566 6.87738 10.5026 6.80951 10.6323C6.7425 10.7612 6.64113 10.8634 6.50539 10.939C6.3705 11.0138 6.20083 11.0512 5.99636 11.0512H5.34944V10.7135H5.96028C6.09 10.7135 6.19524 10.6912 6.276 10.6465C6.35676 10.601 6.41604 10.5391 6.45384 10.4609C6.49164 10.3828 6.51054 10.2938 6.51054 10.1942C6.51054 10.0945 6.49164 10.006 6.45384 9.92872C6.41604 9.8514 6.35633 9.79084 6.27471 9.74702C6.19396 9.70321 6.08743 9.6813 5.95512 9.6813H5.45512V11.979H5.05692ZM7.34721 11.979V9.9996H7.71964V10.314H7.74026C7.77634 10.2075 7.83991 10.1237 7.93098 10.0627C8.02291 10.0009 8.12686 9.96996 8.24284 9.96996C8.2669 9.96996 8.29525 9.97082 8.32789 9.97254C8.3614 9.97426 8.3876 9.9764 8.4065 9.97898V10.3475C8.39104 10.3432 8.36355 10.3385 8.32403 10.3334C8.28451 10.3274 8.24499 10.3243 8.20547 10.3243C8.1144 10.3243 8.03322 10.3437 7.96191 10.3823C7.89146 10.4201 7.83562 10.473 7.79438 10.5408C7.75314 10.6079 7.73253 10.6843 7.73253 10.7702V11.979H7.34721ZM9.52217 12.019C9.32715 12.019 9.15919 11.9773 9.0183 11.894C8.87826 11.8098 8.77002 11.6916 8.69355 11.5396C8.61795 11.3866 8.58015 11.2075 8.58015 11.0022C8.58015 10.7994 8.61795 10.6207 8.69355 10.4661C8.77002 10.3115 8.87655 10.1908 9.01315 10.104C9.1506 10.0172 9.31126 9.97383 9.49511 9.97383C9.60679 9.97383 9.71504 9.9923 9.81986 10.0292C9.92467 10.0662 10.0187 10.1242 10.1021 10.2032C10.1854 10.2822 10.2511 10.3849 10.2992 10.5112C10.3474 10.6366 10.3714 10.7891 10.3714 10.9687V11.1053H8.79794V10.8166H9.99383C9.99383 10.7152 9.97321 10.6255 9.93197 10.5473C9.89073 10.4682 9.83274 10.406 9.758 10.3604C9.68411 10.3149 9.59734 10.2921 9.49769 10.2921C9.38944 10.2921 9.29494 10.3188 9.21418 10.372C9.13428 10.4244 9.07242 10.4932 9.02861 10.5782C8.98565 10.6624 8.96418 10.7539 8.96418 10.8527V11.0782C8.96418 11.2105 8.98737 11.3231 9.03376 11.4159C9.08102 11.5086 9.14674 11.5795 9.23093 11.6285C9.31512 11.6766 9.41349 11.7007 9.52604 11.7007C9.59906 11.7007 9.66564 11.6903 9.72578 11.6697C9.78592 11.6482 9.8379 11.6165 9.88171 11.5744C9.92553 11.5323 9.95903 11.4803 9.98223 11.4184L10.3469 11.4842C10.3177 11.5915 10.2653 11.6856 10.1897 11.7664C10.115 11.8463 10.0209 11.9086 9.90748 11.9532C9.79494 11.997 9.6665 12.019 9.52217 12.019ZM10.7989 11.979V9.9996H11.1688V10.3218H11.1933C11.2345 10.2127 11.3019 10.1276 11.3956 10.0666C11.4892 10.0048 11.6013 9.97383 11.7319 9.97383C11.8642 9.97383 11.9751 10.0048 12.0644 10.0666C12.1546 10.1285 12.2212 10.2135 12.2641 10.3218H12.2848C12.332 10.2161 12.4072 10.1319 12.5103 10.0692C12.6134 10.0056 12.7362 9.97383 12.8788 9.97383C13.0584 9.97383 13.2049 10.0301 13.3183 10.1426C13.4325 10.2552 13.4897 10.4249 13.4897 10.6517V11.979H13.1044V10.6878C13.1044 10.5537 13.0679 10.4567 12.9948 10.3965C12.9218 10.3364 12.8346 10.3063 12.7332 10.3063C12.6078 10.3063 12.5103 10.345 12.4407 10.4223C12.3711 10.4987 12.3363 10.5971 12.3363 10.7174V11.979H11.9523V10.6633C11.9523 10.5559 11.9188 10.4695 11.8518 10.4042C11.7848 10.339 11.6976 10.3063 11.5902 10.3063C11.5171 10.3063 11.4497 10.3256 11.3878 10.3643C11.3269 10.4021 11.2775 10.4549 11.2397 10.5228C11.2027 10.5907 11.1842 10.6693 11.1842 10.7586V11.979H10.7989ZM14.0061 11.979V9.9996H14.3914V11.979H14.0061ZM14.2007 9.69418C14.1337 9.69418 14.0761 9.67185 14.028 9.62717C13.9808 9.58164 13.9571 9.52752 13.9571 9.4648C13.9571 9.40123 13.9808 9.3471 14.028 9.30243C14.0761 9.25689 14.1337 9.23413 14.2007 9.23413C14.2677 9.23413 14.3248 9.25689 14.3721 9.30243C14.4202 9.3471 14.4443 9.40123 14.4443 9.4648C14.4443 9.52752 14.4202 9.58164 14.3721 9.62717C14.3248 9.67185 14.2677 9.69418 14.2007 9.69418ZM16.1637 11.1581V9.9996H16.5503V11.979H16.1714V11.6362H16.1508C16.1053 11.7419 16.0322 11.8299 15.9317 11.9004C15.8321 11.97 15.7079 12.0048 15.5593 12.0048C15.4321 12.0048 15.3196 11.9769 15.2217 11.921C15.1246 11.8643 15.0481 11.7805 14.9923 11.6697C14.9373 11.5589 14.9098 11.4219 14.9098 11.2586V9.9996H15.2951V11.2122C15.2951 11.3471 15.3325 11.4545 15.4072 11.5344C15.482 11.6143 15.579 11.6543 15.6985 11.6543C15.7706 11.6543 15.8424 11.6362 15.9137 11.6001C15.9858 11.5641 16.0455 11.5095 16.0928 11.4365C16.1409 11.3634 16.1645 11.2707 16.1637 11.1581ZM17.068 11.979V9.9996H17.4379V10.3218H17.4623C17.5036 10.2127 17.571 10.1276 17.6647 10.0666C17.7583 10.0048 17.8704 9.97383 18.001 9.97383C18.1333 9.97383 18.2441 10.0048 18.3335 10.0666C18.4237 10.1285 18.4903 10.2135 18.5332 10.3218H18.5538C18.6011 10.2161 18.6763 10.1319 18.7794 10.0692C18.8825 10.0056 19.0053 9.97383 19.1479 9.97383C19.3275 9.97383 19.474 10.0301 19.5874 10.1426C19.7016 10.2552 19.7588 10.4249 19.7588 10.6517V11.979H19.3734V10.6878C19.3734 10.5537 19.3369 10.4567 19.2639 10.3965C19.1909 10.3364 19.1037 10.3063 19.0023 10.3063C18.8769 10.3063 18.7794 10.345 18.7098 10.4223C18.6402 10.4987 18.6054 10.5971 18.6054 10.7174V11.979H18.2214V10.6633C18.2214 10.5559 18.1879 10.4695 18.1208 10.4042C18.0538 10.339 17.9666 10.3063 17.8592 10.3063C17.7862 10.3063 17.7188 10.3256 17.6569 10.3643C17.5959 10.4021 17.5465 10.4549 17.5087 10.5228C17.4718 10.5907 17.4533 10.6693 17.4533 10.7586V11.979H17.068ZM22.1209 11.979H21.2665V9.3398H22.148C22.4065 9.3398 22.6286 9.39263 22.8142 9.49831C22.9998 9.60312 23.142 9.75389 23.2408 9.95063C23.3404 10.1465 23.3902 10.3815 23.3902 10.6555C23.3902 10.9305 23.34 11.1667 23.2395 11.3643C23.1398 11.5619 22.9955 11.714 22.8065 11.8205C22.6175 11.9262 22.3889 11.979 22.1209 11.979ZM21.6647 11.6311H22.099C22.3 11.6311 22.4671 11.5933 22.6003 11.5177C22.7334 11.4412 22.8331 11.3308 22.8993 11.1865C22.9654 11.0413 22.9985 10.8643 22.9985 10.6555C22.9985 10.4485 22.9654 10.2728 22.8993 10.1285C22.834 9.98414 22.7365 9.8746 22.6067 9.79986C22.477 9.72511 22.3159 9.68774 22.1235 9.68774H21.6647V11.6311ZM24.7076 12.019C24.5126 12.019 24.3446 11.9773 24.2037 11.894C24.0637 11.8098 23.9554 11.6916 23.879 11.5396C23.8034 11.3866 23.7656 11.2075 23.7656 11.0022C23.7656 10.7994 23.8034 10.6207 23.879 10.4661C23.9554 10.3115 24.062 10.1908 24.1986 10.104C24.336 10.0172 24.4967 9.97383 24.6805 9.97383C24.7922 9.97383 24.9005 9.9923 25.0053 10.0292C25.1101 10.0662 25.2042 10.1242 25.2875 10.2032C25.3708 10.2822 25.4365 10.3849 25.4847 10.5112C25.5328 10.6366 25.5568 10.7891 25.5568 10.9687V11.1053H23.9833V10.8166H25.1792C25.1792 10.7152 25.1586 10.6255 25.1174 10.5473C25.0761 10.4682 25.0182 10.406 24.9434 10.3604C24.8695 10.3149 24.7828 10.2921 24.6831 10.2921C24.5749 10.2921 24.4803 10.3188 24.3996 10.372C24.3197 10.4244 24.2578 10.4932 24.214 10.5782C24.1711 10.6624 24.1496 10.7539 24.1496 10.8527V11.0782C24.1496 11.2105 24.1728 11.3231 24.2192 11.4159C24.2664 11.5086 24.3322 11.5795 24.4163 11.6285C24.5005 11.6766 24.5989 11.7007 24.7115 11.7007C24.7845 11.7007 24.8511 11.6903 24.9112 11.6697C24.9713 11.6482 25.0233 11.6165 25.0671 11.5744C25.1109 11.5323 25.1444 11.4803 25.1676 11.4184L25.5323 11.4842C25.5031 11.5915 25.4507 11.6856 25.3751 11.7664C25.3004 11.8463 25.2063 11.9086 25.0929 11.9532C24.9804 11.997 24.8519 12.019 24.7076 12.019ZM26.9083 9.9996V10.3089H25.8271V9.9996H26.9083ZM26.1171 9.52537H26.5024V11.3978C26.5024 11.4726 26.5136 11.5288 26.5359 11.5666C26.5582 11.6036 26.587 11.6289 26.6222 11.6427C26.6583 11.6555 26.6974 11.662 26.7395 11.662C26.7704 11.662 26.7975 11.6598 26.8207 11.6555C26.8439 11.6513 26.8619 11.6478 26.8748 11.6452L26.9444 11.9635C26.9221 11.9721 26.8903 11.9807 26.849 11.9893C26.8078 11.9988 26.7563 12.0039 26.6944 12.0048C26.593 12.0065 26.4985 11.9885 26.4109 11.9507C26.3233 11.9129 26.2524 11.8544 26.1983 11.7754C26.1441 11.6964 26.1171 11.5971 26.1171 11.4777V9.52537ZM27.9106 12.0228C27.7852 12.0228 27.6717 11.9996 27.5704 11.9532C27.469 11.906 27.3887 11.8377 27.3294 11.7483C27.271 11.659 27.2418 11.5494 27.2418 11.4197C27.2418 11.308 27.2632 11.2161 27.3062 11.1439C27.3492 11.0718 27.4071 11.0146 27.4802 10.9725C27.5532 10.9305 27.6348 10.8987 27.725 10.8772C27.8152 10.8557 27.9071 10.8394 28.0008 10.8282C28.1193 10.8145 28.2156 10.8033 28.2895 10.7947C28.3633 10.7853 28.417 10.7702 28.4505 10.7496C28.484 10.729 28.5008 10.6955 28.5008 10.6491V10.6401C28.5008 10.5275 28.469 10.4403 28.4054 10.3785C28.3427 10.3166 28.2491 10.2857 28.1245 10.2857C27.9948 10.2857 27.8925 10.3145 27.8178 10.372C27.7439 10.4287 27.6928 10.4919 27.6644 10.5615L27.3023 10.479C27.3453 10.3587 27.408 10.2616 27.4905 10.1877C27.5738 10.113 27.6696 10.0589 27.7779 10.0254C27.8861 9.99101 27.9999 9.97383 28.1193 9.97383C28.1984 9.97383 28.2822 9.98328 28.3706 10.0022C28.46 10.0202 28.5433 10.0537 28.6206 10.1027C28.6988 10.1517 28.7628 10.2217 28.8127 10.3127C28.8625 10.403 28.8874 10.5202 28.8874 10.6646V11.979H28.5111V11.7084H28.4956C28.4707 11.7582 28.4334 11.8072 28.3835 11.8553C28.3337 11.9034 28.2697 11.9434 28.1915 11.9751C28.1133 12.0069 28.0197 12.0228 27.9106 12.0228ZM27.9943 11.7135C28.1009 11.7135 28.1919 11.6925 28.2675 11.6504C28.344 11.6083 28.402 11.5533 28.4415 11.4854C28.4819 11.4167 28.5021 11.3433 28.5021 11.2651V11.0099C28.4883 11.0237 28.4617 11.0366 28.4222 11.0486C28.3835 11.0597 28.3393 11.0696 28.2895 11.0782C28.2396 11.086 28.1911 11.0933 28.1438 11.1001C28.0966 11.1061 28.0571 11.1113 28.0253 11.1156C27.9505 11.125 27.8822 11.1409 27.8204 11.1633C27.7594 11.1856 27.7104 11.2178 27.6735 11.2599C27.6374 11.3012 27.6193 11.3561 27.6193 11.4249C27.6193 11.5202 27.6546 11.5924 27.725 11.6414C27.7955 11.6895 27.8852 11.7135 27.9943 11.7135ZM29.4006 11.979V9.9996H29.7859V11.979H29.4006ZM29.5952 9.69418C29.5282 9.69418 29.4706 9.67185 29.4225 9.62717C29.3753 9.58164 29.3516 9.52752 29.3516 9.4648C29.3516 9.40123 29.3753 9.3471 29.4225 9.30243C29.4706 9.25689 29.5282 9.23413 29.5952 9.23413C29.6622 9.23413 29.7193 9.25689 29.7666 9.30243C29.8147 9.3471 29.8388 9.40123 29.8388 9.4648C29.8388 9.52752 29.8147 9.58164 29.7666 9.62717C29.7193 9.67185 29.6622 9.69418 29.5952 9.69418ZM30.6896 9.3398V11.979H30.3043V9.3398H30.6896ZM32.6912 10.4829L32.342 10.5447C32.3274 10.5 32.3042 10.4575 32.2724 10.4171C32.2415 10.3768 32.1994 10.3437 32.1461 10.3179C32.0929 10.2921 32.0263 10.2792 31.9464 10.2792C31.8373 10.2792 31.7462 10.3037 31.6732 10.3527C31.6002 10.4008 31.5637 10.4631 31.5637 10.5396C31.5637 10.6057 31.5881 10.659 31.6371 10.6994C31.6861 10.7397 31.7651 10.7728 31.8742 10.7986L32.1887 10.8707C32.3708 10.9128 32.5065 10.9777 32.5959 11.0653C32.6852 11.153 32.7299 11.2668 32.7299 11.4068C32.7299 11.5254 32.6955 11.6311 32.6268 11.7238C32.5589 11.8158 32.464 11.8879 32.342 11.9403C32.2209 11.9927 32.0804 12.019 31.9206 12.019C31.699 12.019 31.5181 11.9717 31.3781 11.8772C31.238 11.7818 31.1521 11.6465 31.1203 11.4713L31.4928 11.4146C31.516 11.5116 31.5637 11.5851 31.6358 11.6349C31.708 11.6839 31.8021 11.7084 31.918 11.7084C32.0443 11.7084 32.1453 11.6822 32.2209 11.6298C32.2965 11.5765 32.3343 11.5116 32.3343 11.4352C32.3343 11.3733 32.3111 11.3214 32.2647 11.2793C32.2192 11.2372 32.1491 11.2054 32.0546 11.1839L31.7196 11.1104C31.5349 11.0683 31.3983 11.0013 31.3098 10.9094C31.2222 10.8175 31.1783 10.7011 31.1783 10.5602C31.1783 10.4433 31.211 10.3411 31.2763 10.2535C31.3416 10.1658 31.4318 10.0975 31.5469 10.0486C31.662 9.99874 31.7939 9.97383 31.9425 9.97383C32.1564 9.97383 32.3248 10.0202 32.4477 10.113C32.5705 10.2049 32.6517 10.3282 32.6912 10.4829Z" fill="#0028A3"/>
</svg>
