<svg width="71" height="57" viewBox="0 0 71 57" fill="none" xmlns="http://www.w3.org/2000/svg">
<path d="M31.4041 9.90423C31.66 9.60518 31.8444 9.2518 31.9433 8.8709C32.0599 8.3971 32.1218 7.91151 32.1278 7.42362C32.1164 6.99762 31.752 7.44275 31.606 7.71877C31.4601 7.99479 31.2918 8.30621 31.1022 8.16303C30.9126 8.01997 30.11 6.14096 29.8244 5.97249C29.5389 5.80394 29.5736 6.14845 29.5736 6.14845C29.5736 6.14845 29.3664 5.69739 29.1653 5.73077C29.113 5.73943 29.0057 5.84431 29.0679 6.06469C29.2078 6.56043 29.5551 7.58578 29.5551 7.58578C29.5364 7.52653 29.0173 6.29153 28.9154 6.11671C28.7822 5.88821 28.6029 5.84836 28.4729 5.9299C28.2878 6.0459 28.8792 7.59904 28.8584 7.68199C28.8584 7.68199 28.5478 6.77646 28.2701 6.72867C27.9924 6.68088 28.1568 7.26158 28.3991 7.7461C28.6211 8.19023 28.9404 9.11969 29.21 9.54931C29.5421 10.0787 29.8841 10.3596 30.465 10.2813C30.8053 10.2386 31.1288 10.1087 31.4041 9.90423Z" fill="#FFDAAF"/>
<path opacity="0.3" d="M29.6094 6.20239C29.7664 6.56807 29.9065 6.9404 30.0298 7.31939" stroke="black" stroke-width="0.074462" stroke-linecap="round" stroke-linejoin="round"/>
<path opacity="0.3" d="M28.9648 8.03781C29.371 7.71679 29.8624 7.52191 30.3783 7.47729" stroke="black" stroke-width="0.074462" stroke-linecap="round" stroke-linejoin="round"/>
<path opacity="0.3" d="M30.9693 8.38379C30.7893 8.49516 30.6539 8.66587 30.5864 8.86643C30.519 9.06699 30.5237 9.28481 30.5998 9.48227" stroke="black" stroke-width="0.074462" stroke-linecap="round" stroke-linejoin="round"/>
<path d="M30.0312 10.1276C30.0422 10.2677 31.0596 11.5623 30.9701 11.5623C30.8807 11.5623 32.092 11.0043 32.1274 10.931C32.1627 10.8577 31.1868 9.68213 31.1868 9.68213L30.0312 10.1276Z" fill="#FFDAAF"/>
<path d="M39.9019 12.0127L34.9954 14.8318C34.9954 14.8318 33.768 12.4296 33.4114 11.5392C33.1116 10.7908 32.0736 10.5041 32.0736 10.5041L31.6509 10.0315H31.5731L30.1406 10.7185L30.3529 11.2561C30.3529 11.2561 30.282 11.8943 30.1806 12.4675C30.0793 13.0406 32.8318 18.3748 33.3948 18.9133C33.8009 19.3017 35.0631 19.6281 35.7006 19.3406C37.9338 18.3338 41.2235 14.8318 41.2235 14.8318L39.9019 12.0127Z" fill="#263238"/>
<path opacity="0.4" d="M39.9019 12.0127L34.9954 14.8318C34.9954 14.8318 33.768 12.4296 33.4114 11.5392C33.1116 10.7908 32.0736 10.5041 32.0736 10.5041L31.6509 10.0315H31.5731L30.1406 10.7185L30.3529 11.2561C30.3529 11.2561 30.282 11.8943 30.1806 12.4675C30.0793 13.0406 32.8318 18.3748 33.3948 18.9133C33.8009 19.3017 35.0631 19.6281 35.7006 19.3406C37.9338 18.3338 41.2235 14.8318 41.2235 14.8318L39.9019 12.0127Z" fill="black"/>
<path d="M31.1775 52.5351C31.2154 52.4584 31.6594 51.6416 31.6562 51.6095L33.2865 48.2649L29.5829 47.1086L28.6074 51.3767C28.5472 51.5427 28.4481 51.6919 28.3182 51.8117C28.1884 51.9315 28.0318 52.0185 27.8614 52.0652C27.8614 52.0652 26.3154 52.8171 25.7397 52.6414C25.5423 52.573 25.3305 52.5568 25.125 52.5944C24.9194 52.6319 24.7271 52.722 24.5667 52.8559C24.4412 52.9557 24.3331 53.0756 24.247 53.2108C24.1491 53.3619 24.0812 53.5303 24.0469 53.7069L27.2839 54.8791C27.2839 54.8791 27.9513 54.994 28.1386 55.0393C28.305 55.1133 28.4528 55.2237 28.5711 55.3622L30.0837 55.9296C30.0837 55.9296 30.2051 55.6888 30.3811 55.3381L30.3816 55.3381C30.4609 55.1801 30.5512 54.9999 30.647 54.8096C31.0572 53.9931 31.0631 52.767 31.1775 52.5351Z" fill="#263238"/>
<path d="M40.5485 24.7817C40.2005 25.4016 28.5078 49.6679 28.5078 49.6679L32.5436 50.7493L36.081 43.8252L44.245 28.5641L40.5485 24.7817Z" fill="#1CB8CE"/>
<path opacity="0.5" d="M40.5485 24.7817C40.2005 25.4016 28.5078 49.6679 28.5078 49.6679L32.5436 50.7493L36.081 43.8252L44.245 28.5641L40.5485 24.7817Z" fill="black"/>
<path d="M15.3114 24.5928C15.2181 24.6549 14.0683 25.2763 14.2548 27.2335C14.4412 29.1908 15.3114 29.5947 15.3114 29.5947V24.5928Z" fill="#F8BC22"/>
<path d="M20.3323 28.6906C20.3323 28.6906 18.2919 29.8742 15.3086 29.5946V24.5927C15.3086 24.5927 17.9501 23.9092 19.9389 25.2141C21.6191 26.3164 20.3323 28.6906 20.3323 28.6906Z" fill="#263238"/>
<path opacity="0.3" d="M20.3323 28.6906C20.3323 28.6906 18.2919 29.8742 15.3086 29.5946V24.5927C15.3086 24.5927 17.9501 23.9092 19.9389 25.2141C21.6191 26.3164 20.3323 28.6906 20.3323 28.6906Z" fill="white"/>
<path d="M14.4102 22.8366C14.4102 22.8366 18.1973 21.3699 20.8856 23.3563C22.0039 24.1641 22.7795 25.3608 23.0598 26.7113L21.9727 27.7036L14.4102 22.8366Z" fill="#263238"/>
<path d="M70.0718 36.2031C70.0718 36.2031 70.2989 38.6179 70.1337 38.6179H69.5969L68.3789 36.2031" fill="#B97964"/>
<path d="M11.5317 45.9958L10.5742 45.4749L21.2995 25.7735L26.996 19.8577L27.7814 20.6134L22.1867 26.4234L11.5317 45.9958Z" fill="#263238"/>
<g opacity="0.3">
<path d="M11.5356 45.9956L10.5781 45.4747L21.3034 25.7732L26.9999 19.8574L27.7853 20.6132L22.1906 26.4232L11.5356 45.9956Z" fill="white"/>
</g>
<path d="M27.482 21.7044C28.3652 21.7044 29.0812 20.9886 29.0812 20.1056C29.0812 19.2226 28.3652 18.5068 27.482 18.5068C26.5988 18.5068 25.8828 19.2226 25.8828 20.1056C25.8828 20.9886 26.5988 21.7044 27.482 21.7044Z" fill="#263238"/>
<path d="M33.2545 48.6838C32.5787 48.6838 31.9481 48.6725 31.4023 48.6498C28.5312 48.5302 27.5012 47.5254 26.6737 46.7182C26.5345 46.5824 26.4031 46.4542 26.272 46.3407C25.3333 45.527 20.37 34.4336 18.8711 31.053L19.8678 30.6113C22.2642 36.0168 26.3178 44.845 26.9925 45.5232C27.1414 45.6519 27.2906 45.7974 27.4349 45.9382C28.1656 46.651 28.9938 47.4589 31.4476 47.561C34.796 47.7003 40.0672 47.3968 41.0061 47.0105C42.0191 46.5935 43.9326 44.0657 44.8521 42.8509C46.8856 40.1647 49.3345 36.294 49.359 36.2552L50.2806 36.8371C50.2559 36.8762 47.783 40.7851 45.7214 43.5085C44.1972 45.5221 42.6096 47.5289 41.4213 48.0182C40.3731 48.4496 36.3465 48.6838 33.2545 48.6838Z" fill="#263238"/>
<g opacity="0.3">
<path d="M33.2545 48.684C32.5787 48.684 31.9481 48.6727 31.4023 48.6501C28.5312 48.5305 27.5012 47.5257 26.6737 46.7184C26.5345 46.5827 26.4031 46.4545 26.272 46.3409C25.3333 45.5272 20.37 34.4338 18.8711 31.0532L19.8678 30.6116C22.2642 36.017 26.3178 44.8453 26.9925 45.5234C27.1414 45.6522 27.2906 45.7977 27.4349 45.9384C28.1656 46.6512 28.9938 47.4591 31.4476 47.5613C34.796 47.7005 40.0672 47.3971 41.0061 47.0108C42.0191 46.5938 43.9326 44.0659 44.8521 42.8511C46.8856 40.1649 49.3345 36.2943 49.359 36.2555L50.2806 36.8373C50.2559 36.8765 47.783 40.7853 45.7214 43.5087C44.1972 45.5223 42.6096 47.5292 41.4213 48.0184C40.3731 48.4499 36.3465 48.684 33.2545 48.684Z" fill="white"/>
</g>
<path d="M49.565 33.1242L48.5039 33.7947L56.3873 46.2645L57.4485 45.594L49.565 33.1242Z" fill="#263238"/>
<path d="M52.4489 35.5194C52.4489 35.5194 55.2083 34.0539 60.8542 35.2422C66.5002 36.4305 67.9436 40.9291 67.9436 40.9291H69.8963C69.8963 40.9291 68.7077 35.9637 62.3825 33.6295C57.0692 31.6688 55.2507 33.0353 53.68 33.4598C52.1093 33.8842 52.4489 35.5194 52.4489 35.5194Z" fill="#1CB8CE"/>
<path d="M33.5938 48.4225L36.5995 49.686C36.9564 49.836 37.3396 49.9133 37.7268 49.9133H57.7742V47.3347L41.9763 47.4959L33.5938 48.4225Z" fill="#263238"/>
<path d="M47.0275 34.3323C46.7812 34.3596 38.2739 34.3323 38.2739 34.3323C38.2739 34.3323 38.2464 39.1903 38.6042 39.4857C38.6904 39.5697 38.795 39.6323 38.9098 39.6685C39.0245 39.7047 39.1461 39.7135 39.2649 39.6941C39.2649 39.6941 39.5952 41.7934 41.8249 41.9018C44.0546 42.0102 44.6326 41.4328 45.3759 41.2674C46.1191 41.102 49.3335 36.3708 49.1714 35.9432C49.0094 35.5156 48.2662 34.1947 47.0275 34.3323Z" fill="#263238"/>
<path opacity="0.3" d="M47.0275 34.3323C46.7812 34.3596 38.2739 34.3323 38.2739 34.3323C38.2739 34.3323 38.2464 39.1903 38.6042 39.4857C38.6904 39.5697 38.795 39.6323 38.9098 39.6685C39.0245 39.7047 39.1461 39.7135 39.2649 39.6941C39.2649 39.6941 39.5952 41.7934 41.8249 41.9018C44.0546 42.0102 44.6326 41.4328 45.3759 41.2674C46.1191 41.102 49.3335 36.3708 49.1714 35.9432C49.0094 35.5156 48.2662 34.1947 47.0275 34.3323Z" fill="white"/>
<path d="M21.9172 25.719C22.057 25.6258 25.8767 26.7192 25.8767 26.7192L24.854 33.4593L26.6254 35.9432L30.6526 34.6978L32.0796 36.9039L31.5668 37.4209L32.3148 38.9567L33.851 37.4209V36.6243H38.5593L47.3232 36.6709L48.9081 37.9554L42.7548 45.7715L39.0986 46.2818L28.0264 42.9158C28.0264 42.9158 25.6465 37.137 23.5488 34.3223C21.451 31.5076 20.7984 32.9426 20.8001 32.9853L19.5781 30.0699L21.9638 25.952" fill="#263238"/>
<path opacity="0.3" d="M21.9172 25.719C22.057 25.6258 25.8767 26.7192 25.8767 26.7192L24.854 33.4593L26.6254 35.9432L30.6526 34.6978L32.0796 36.9039L31.5668 37.4209L32.3148 38.9567L33.851 37.4209V36.6243H38.5593L47.3232 36.6709L48.9081 37.9554L42.7548 45.7715L39.0986 46.2818L28.0264 42.9158C28.0264 42.9158 25.6465 37.137 23.5488 34.3223C21.451 31.5076 20.7984 32.9426 20.8001 32.9853L19.5781 30.0699L21.9638 25.952" fill="white"/>
<path d="M66.418 35.9763H68.5029L69.8036 38.8657H68.7095L66.418 35.9763Z" fill="#1CB8CE"/>
<path d="M52.4198 33.1912C52.5508 33.5949 54.6588 35.8601 54.6588 35.8601L52.4198 36.9699L50.4023 34.3223L52.4198 33.1912Z" fill="#263238"/>
<g opacity="0.3">
<path d="M49.5611 33.1237L48.5 33.7942L56.3834 46.264L57.4446 45.5935L49.5611 33.1237Z" fill="white"/>
</g>
<path opacity="0.3" d="M52.4198 33.1912C52.5508 33.5949 54.6588 35.8601 54.6588 35.8601L52.4198 36.9699L50.4023 34.3223L52.4198 33.1912Z" fill="white"/>
<path d="M14.8039 46.6119C15.2882 44.541 14.0015 42.4698 11.9301 41.9856C9.85874 41.5015 7.78695 42.7877 7.30266 44.8586C6.81837 46.9294 8.10498 49.0006 10.1764 49.4848C12.2478 49.9689 14.3196 48.6827 14.8039 46.6119Z" fill="#263238"/>
<path d="M58.2487 35.2419C56.1344 35.2419 54.0676 35.8687 52.3096 37.0431C50.5516 38.2174 49.1814 39.8865 48.3723 41.8393C47.5632 43.7921 47.3515 45.941 47.764 48.0141C48.1765 50.0872 49.1946 51.9914 50.6896 53.4861C52.1847 54.9807 54.0895 55.9985 56.1631 56.4109C58.2368 56.8233 60.3862 56.6116 62.3396 55.8028C64.2929 54.9939 65.9625 53.6241 67.1371 51.8666C68.3118 50.1091 68.9387 48.0428 68.9387 45.9291C68.9387 44.5257 68.6622 43.1359 68.125 41.8393C67.5878 40.5427 66.8004 39.3645 65.8077 38.3721C64.815 37.3797 63.6366 36.5925 62.3396 36.0555C61.0426 35.5184 59.6525 35.2419 58.2487 35.2419ZM58.2487 54.0495C56.6038 54.0495 54.9959 53.5619 53.6283 52.6483C52.2606 51.7347 51.1947 50.4362 50.5652 48.917C49.9357 47.3977 49.771 45.726 50.0919 44.1132C50.4128 42.5004 51.2049 41.019 52.368 39.8562C53.5311 38.6934 55.0129 37.9016 56.6262 37.5808C58.2394 37.2599 59.9116 37.4246 61.4312 38.0539C62.9509 38.6832 64.2497 39.7488 65.1636 41.1161C66.0774 42.4834 66.5652 44.0908 66.5652 45.7352C66.5652 46.8271 66.35 47.9082 65.9321 48.917C65.5142 49.9257 64.9016 50.8422 64.1293 51.6143C63.3571 52.3863 62.4403 52.9988 61.4313 53.4166C60.4222 53.8344 59.3408 54.0495 58.2487 54.0495Z" fill="#263238"/>
<path d="M61.9992 46.6119C62.4835 44.541 61.1969 42.4698 59.1255 41.9856C57.0541 41.5015 54.9823 42.7877 54.498 44.8586C54.0137 46.9294 55.3003 49.0006 57.3717 49.4848C59.4431 49.9689 61.5149 48.6827 61.9992 46.6119Z" fill="#263238"/>
<path opacity="0.7" d="M33.5938 48.4225L36.5995 49.686C36.9564 49.836 37.3396 49.9133 37.7268 49.9133H57.7742V47.3347L41.9763 47.4959L33.5938 48.4225Z" fill="white"/>
<path d="M42.8808 30.4517C42.8808 30.4517 38.7691 30.0452 39.6727 31.8069C40.5764 33.5686 42.429 34.6979 45.5918 34.6979C48.7547 34.6979 54.2219 34.2089 56.6618 32.9853C59.1018 31.7617 58.8307 30.2259 58.7403 28.7804C58.6499 27.3349 57.5203 26.8528 55.8937 27.7037C54.2671 28.5546 54.0143 28.5391 51.6464 29.187C49.1699 29.8645 45.5081 30.3638 42.8808 30.4517Z" fill="#263238"/>
<path d="M33.8783 47.5383C34.7497 47.4832 35.919 47.5112 36.7741 47.3347C37.6293 47.1582 38.5208 46.9336 39.1017 46.2819C39.6958 45.6154 39.8976 44.9149 40.0328 44.0325C40.1226 43.4455 39.88 42.5809 39.5472 42.0892C39.2718 41.7198 38.8703 41.4645 38.419 41.3718C37.9715 41.2818 37.5146 41.247 37.0586 41.2682C34.7857 41.2813 32.485 41.2978 30.2852 41.8698C29.3776 42.1059 28.4631 42.455 27.8056 43.1235C27.148 43.792 26.8103 44.8457 27.2017 45.6978C27.5507 46.4578 28.3637 46.8817 29.1446 47.1813C29.1446 47.1813 30.7177 47.7381 33.8783 47.5383Z" fill="#263238"/>
<g opacity="0.7">
<path d="M33.8744 47.5385C34.7458 47.4835 35.9151 47.5114 36.7702 47.335C37.6254 47.1585 38.5169 46.9338 39.0978 46.2821C39.6919 45.6157 39.8937 44.9151 40.0289 44.0327C40.1187 43.4458 39.8761 42.5812 39.5433 42.0894C39.2679 41.7201 38.8664 41.4648 38.4151 41.372C37.9676 41.2821 37.5107 41.2473 37.0547 41.2685C34.7818 41.2815 32.4811 41.298 30.2813 41.8701C29.3737 42.1061 28.4592 42.4552 27.8017 43.1237C27.1441 43.7922 26.8064 44.846 27.1978 45.6981C27.5468 46.458 28.3598 46.8819 29.1407 47.1815C29.1407 47.1815 30.7138 47.7383 33.8744 47.5385Z" fill="white"/>
</g>
<path d="M32.4139 44.8831C32.6619 43.8381 32.0156 42.79 30.9703 42.5421C29.925 42.2942 28.8766 42.9404 28.6287 43.9853C28.3807 45.0303 29.027 46.0784 30.0723 46.3263C31.1176 46.5742 32.166 45.9281 32.4139 44.8831Z" fill="#263238"/>
<path d="M37.9737 45.5136C38.8261 44.6615 38.8261 43.2799 37.9737 42.4278C37.1214 41.5757 35.7394 41.5757 34.8871 42.4278C34.0347 43.2799 34.0347 44.6615 34.8871 45.5136C35.7394 46.3657 37.1214 46.3657 37.9737 45.5136Z" fill="#263238"/>
<path d="M30.6675 27.0443C30.5312 27.023 21.6198 25.098 22.3645 30.8676C22.3645 30.8676 22.9975 33.8827 24.6357 34.2549C26.0199 34.5694 36.1229 34.3525 39.2228 34.2776C39.5369 34.2713 39.8443 34.1864 40.1171 34.0308C40.3899 33.8751 40.6193 33.6536 40.7845 33.3865L40.795 33.3692C41.1461 32.7913 41.1891 30.7764 39.6407 29.4531C37.3323 27.4803 32.6685 27.3572 30.6675 27.0443Z" fill="#1CB8CE"/>
<path d="M5.76624 36.6388L4.96484 35.5895C4.96484 35.5895 11.4308 32.0323 17.2081 35.5895C17.2081 35.5895 25.9355 40.6767 21.7439 50.9277L20.7565 50.421C20.7565 50.421 21.2254 47.3704 20.2306 43.2395C19.2359 39.1085 16.3664 36.5458 12.9612 36.0485C9.55604 35.5513 5.76624 36.6388 5.76624 36.6388Z" fill="#1CB8CE"/>
<path d="M11.0534 35.2419C8.93906 35.2419 6.87224 35.8687 5.11427 37.0431C3.35629 38.2174 1.98612 39.8865 1.17702 41.8393C0.367913 43.7921 0.156214 45.941 0.568693 48.0141C0.981172 50.0872 1.9993 51.9914 3.49433 53.4861C4.98937 54.9807 6.89416 55.9985 8.96782 56.4109C11.0415 56.8233 13.1909 56.6116 15.1443 55.8028C17.0976 54.9939 18.7672 53.6241 19.9418 51.8666C21.1165 50.1091 21.7434 48.0428 21.7434 45.9291C21.7434 43.0947 20.6172 40.3764 18.6124 38.3721C16.6076 36.3679 13.8885 35.2419 11.0534 35.2419ZM11.0534 54.0495C9.4085 54.0495 7.80059 53.5619 6.43294 52.6483C5.0653 51.7347 3.99935 50.4362 3.36989 48.917C2.74043 47.3977 2.57574 45.726 2.89663 44.1132C3.21752 42.5004 4.00959 41.019 5.17267 39.8562C6.33576 38.6934 7.81762 37.9016 9.43086 37.5808C11.0441 37.2599 12.7163 37.4246 14.2359 38.0539C15.7556 38.6832 17.0544 39.7488 17.9683 41.1161C18.8821 42.4834 19.3698 44.0908 19.3698 45.7352C19.3699 46.8271 19.1547 47.9082 18.7368 48.917C18.3189 49.9257 17.7063 50.8422 16.934 51.6143C16.1618 52.3863 15.2449 52.9988 14.2359 53.4166C13.2269 53.8344 12.1455 54.0495 11.0534 54.0495Z" fill="#263238"/>
<path d="M40.6459 9.32728C40.6459 9.32728 40.1195 8.27047 40.124 6.13101C40.1233 6.12893 40.0061 6.11268 40.0054 6.11058C40.0048 5.81174 40.0154 5.53237 40.031 5.28833C40.0311 5.2853 40.0309 5.28226 40.0303 5.2793L37.8086 7.72565C38.0537 8.33891 38.1781 9.62435 38.1911 10.1786C38.1911 10.1786 38.1184 11.21 39.3719 10.8937C40.2879 10.6626 40.6459 9.32728 40.6459 9.32728Z" fill="#FFDAAF"/>
<path opacity="0.2" d="M38.0156 8.62693L39.4699 7.82935C39.4679 8.3534 39.2048 9.04949 38.136 9.40741C38.1166 9.14447 38.0763 8.88349 38.0156 8.62693Z" fill="black"/>
<path d="M34.5957 3.59535C34.4574 4.31169 34.7401 5.71853 35.6532 5.14577C36.363 4.70061 35.5716 2.8558 35.0288 2.8178C34.8734 2.80692 34.6486 3.3212 34.5957 3.59535Z" fill="#263238"/>
<path d="M39.6699 3.96094C40.0411 5.71415 40.1911 6.71504 39.523 7.81087C38.518 9.45909 36.2308 9.18596 35.3968 7.54448C34.6462 6.06703 34.2645 3.42898 35.8088 2.34391C37.3301 1.27487 39.3863 2.62072 39.6699 3.96094Z" fill="#FFDAAF"/>
<path d="M39.7785 1.51301C38.6316 0.866717 36.5177 1.48157 35.9641 2.13225C35.8813 2.22947 37.476 2.60292 37.3822 2.59214L38.1078 2.66309C38.2056 2.61545 38.4372 2.68742 38.6191 2.98281C38.6191 2.98281 38.8054 4.8857 39.7465 5.4763C40.4185 4.94652 40.5518 4.58839 40.5923 3.91313C40.6527 2.90699 40.298 1.94992 39.7785 1.51301Z" fill="#020202"/>
<path d="M40.7098 5.24605C40.6931 5.46793 40.6325 5.68428 40.5316 5.88259C40.4307 6.08089 40.2914 6.25721 40.1218 6.40132C39.6645 6.78364 39.1859 6.43326 39.1036 5.87348C39.0296 5.36963 39.1782 4.56359 39.7379 4.39801C40.2894 4.23493 40.7459 4.69595 40.7098 5.24605Z" fill="#FFDAAF"/>
<path d="M37.6712 4.95396C37.7139 5.1319 37.6538 5.29795 37.537 5.32475C37.4202 5.35158 37.2908 5.229 37.2482 5.05099C37.2054 4.87302 37.2655 4.70701 37.3823 4.6802C37.4991 4.65338 37.6284 4.77594 37.6712 4.95396Z" fill="#263238"/>
<path d="M35.7493 5.46978C35.7921 5.64777 35.732 5.81375 35.6152 5.84061C35.4984 5.86742 35.369 5.74485 35.3263 5.56685C35.2835 5.38885 35.3436 5.22288 35.4604 5.19606C35.5773 5.16926 35.7066 5.29182 35.7493 5.46978Z" fill="#263238"/>
<path d="M36.1097 5.27881C36.1097 5.27881 35.7583 6.29836 35.6641 6.70181C35.9656 6.86615 36.3677 6.66058 36.3677 6.66058L36.1097 5.27881Z" fill="#D58745"/>
<path d="M37.5354 4.11715C37.523 4.12604 37.5085 4.1315 37.4933 4.13296C37.4782 4.13442 37.4629 4.13183 37.449 4.12547C37.3521 4.07798 37.2453 4.05388 37.1374 4.05509C37.0294 4.0563 36.9233 4.08279 36.8274 4.13244C36.8081 4.14447 36.7848 4.14842 36.7626 4.14343C36.7403 4.13844 36.721 4.12492 36.7086 4.10578C36.7026 4.09634 36.6985 4.08579 36.6966 4.07476C36.6947 4.06373 36.6949 4.05242 36.6974 4.04149C36.6998 4.03056 36.7044 4.02023 36.7109 4.01109C36.7174 4.00195 36.7256 3.99418 36.7351 3.98823C36.8552 3.92311 36.9891 3.88755 37.1256 3.88449C37.2622 3.88144 37.3975 3.91098 37.5204 3.97066C37.5306 3.97525 37.5399 3.98183 37.5476 3.99001C37.5553 3.99818 37.5613 4.0078 37.5652 4.01831C37.5692 4.02882 37.571 4.04001 37.5707 4.05123C37.5703 4.06246 37.5677 4.0735 37.5631 4.08372C37.5569 4.09708 37.5474 4.10861 37.5354 4.11715Z" fill="#263238"/>
<path opacity="0.2" d="M40.1915 4.86052C40.1412 4.81994 40.08 4.79525 40.0156 4.78958C39.9512 4.78392 39.8866 4.79753 39.8299 4.8287C39.7174 4.89379 39.6309 4.99594 39.5853 5.11769C39.5251 5.26109 39.5034 5.41767 39.5222 5.57202" stroke="black" stroke-width="0.074462" stroke-linecap="round" stroke-linejoin="round"/>
<path d="M38.0546 6.20068L36.7148 7.1528C36.8458 7.29534 36.9948 7.42018 37.1581 7.52416C37.2384 7.56924 37.3271 7.5974 37.4187 7.60691C37.5103 7.61642 37.6028 7.60707 37.6907 7.57945C37.8221 7.54439 37.9404 7.47156 38.0309 7.36998C38.1214 7.26841 38.1801 7.14253 38.1998 7.00794C38.2224 6.73082 38.1724 6.45259 38.0546 6.20068Z" fill="black"/>
<path d="M36.8203 7.07613C36.8203 7.07613 36.9778 7.23237 37.0794 7.23219C37.1809 7.23201 38.1498 6.47272 38.1498 6.47272L38.0522 6.20068L36.8203 7.07613Z" fill="white"/>
<path d="M37.4922 7.60933C37.4979 7.51179 37.5247 7.41664 37.5707 7.33043C37.6167 7.24422 37.6808 7.169 37.7587 7.10993C37.8799 6.99249 38.0389 6.92202 38.2073 6.91113C38.205 7.01297 38.1811 7.11316 38.1371 7.20505C38.0931 7.29695 38.0302 7.37846 37.9523 7.4442C37.8253 7.55529 37.6609 7.61428 37.4922 7.60933Z" fill="#DE5753"/>
<path d="M34.6154 4.94735C34.5999 4.94763 34.5846 4.94375 34.5712 4.9361C34.5577 4.92845 34.5465 4.91732 34.5388 4.90388C34.5311 4.89043 34.5271 4.87517 34.5274 4.85967C34.5276 4.84418 34.5319 4.82902 34.54 4.81579C34.6093 4.6994 34.7056 4.60138 34.8207 4.53001C34.9358 4.45864 35.0665 4.41603 35.2016 4.40577C35.2243 4.40556 35.2463 4.41432 35.2627 4.43014C35.279 4.44597 35.2885 4.46759 35.2891 4.49036C35.2894 4.50151 35.2875 4.51261 35.2834 4.52302C35.2794 4.53343 35.2734 4.54294 35.2657 4.55101C35.2579 4.55908 35.2487 4.56554 35.2385 4.57003C35.2283 4.57452 35.2173 4.57695 35.2061 4.57717C35.099 4.58558 34.9955 4.62008 34.9048 4.67766C34.8141 4.73524 34.7388 4.81414 34.6856 4.90748C34.6782 4.91945 34.6678 4.92936 34.6556 4.93633C34.6433 4.94329 34.6295 4.94708 34.6154 4.94735Z" fill="#263238"/>
<path d="M39.8031 47.1621C39.7853 47.075 39.6302 46.1232 39.6072 46.0989L38.8182 42.3206L35.0462 43.7252L36.9592 47.8448C37.0153 48.0192 37.0288 48.2046 36.9985 48.3853C36.9683 48.566 36.895 48.7368 36.785 48.8834C36.785 48.8834 35.9952 50.4821 35.4115 50.7038C35.2061 50.7731 35.0221 50.8943 34.8775 51.0557C34.7328 51.2171 34.6324 51.4131 34.5859 51.6248C34.5464 51.7864 34.534 51.9534 34.5493 52.119C34.5651 52.305 34.6164 52.4863 34.7005 52.6529L38.1001 51.5577C38.1001 51.5577 38.7205 51.228 38.9028 51.1461C39.0863 51.1011 39.2777 51.0977 39.4627 51.1361L41.0637 50.6405C41.0637 50.6405 41.0102 50.3659 40.9317 49.9665L40.9321 49.9661C40.8966 49.7862 40.8561 49.5811 40.8137 49.3642C40.6311 48.4341 39.8566 47.4248 39.8031 47.1621Z" fill="#263238"/>
<path d="M47.2512 22.1677L40.194 24.862L40.9641 26.5783C40.9641 26.5783 32.7709 30.5003 31.9102 32.9031C31.891 36.2064 35.5866 44.9082 36.3022 47.4595L41.064 46.2705C40.624 43.8265 37.9109 35.4076 37.9109 35.4076C38.517 34.53 38.346 34.3192 42.3528 32.7791C45.1092 31.7196 48.6024 30.1203 48.9858 29.6522C50.2386 28.1852 49.0018 24.4178 47.2512 22.1677Z" fill="#1CB8CE"/>
<path opacity="0.3" d="M47.2512 22.1677L40.194 24.862L40.9641 26.5783C40.9641 26.5783 32.7709 30.5003 31.9102 32.9031C31.891 36.2064 35.5866 44.9082 36.3022 47.4595L41.064 46.2705C40.624 43.8265 37.9109 35.4076 37.9109 35.4076C38.517 34.53 38.346 34.3192 42.3528 32.7791C45.1092 31.7196 48.6024 30.1203 48.9858 29.6522C50.2386 28.1852 49.0018 24.4178 47.2512 22.1677Z" fill="black"/>
<path d="M41.0369 8.68907C41.0369 8.68907 42.9551 9.57825 44.0688 10.8309C45.1826 12.0835 48.7094 19.9705 48.5238 21.0839C48.3382 22.1973 48.0995 23.0831 48.0995 23.0831L48.5929 23.9297L40.7042 26.3565L40.2967 25.7134C40.2967 25.7134 40.1707 25.9209 39.3354 24.5926C38.5001 23.2644 37.2165 15.2107 37.725 13.5921C37.8694 13.069 37.967 12.5341 38.0168 11.9937C38.0338 11.4244 37.9633 10.856 37.8078 10.3081L40.8721 6.90503L41.0369 8.68907Z" fill="#263238"/>
<path opacity="0.4" d="M38.4883 21.3209L38.7001 22.4594C38.7001 22.4594 41.4261 17.1931 40.46 15.2107L38.4883 21.3209Z" fill="black"/>
<path d="M31.3891 21.5306L29.3578 21.0704C29.1074 21.2029 28.8448 21.3113 28.5737 21.394C28.227 21.4844 28.104 21.591 27.5757 21.3164C27.5071 21.291 27.445 21.2507 27.3939 21.1985C27.3428 21.1462 27.304 21.0832 27.2802 21.0141C27.2564 20.9449 27.2483 20.8714 27.2565 20.7988C27.2646 20.7261 27.2888 20.6562 27.3273 20.594C26.9858 20.6486 26.9638 20.0981 26.9638 20.0981C26.5267 19.8055 26.8378 19.3503 26.8378 19.3503C26.8378 19.3503 27.1125 18.7857 27.35 18.6221C27.5874 18.4585 28.6083 18.643 28.6083 18.643L29.4354 19.278L31.794 19.3873C31.7885 19.4281 31.3891 21.5306 31.3891 21.5306Z" fill="#FFDAAF"/>
<path d="M38.4342 11.9954C38.4342 11.9954 37.6002 13.644 37.3062 14.868C37.0361 15.9921 35.9542 19.0219 35.9542 19.0219L29.506 19.1533L29.0742 21.2599C29.0742 21.2599 36.6738 23.0777 37.774 22.2376C38.8742 21.3975 39.3151 19.767 40.0776 18.0818C40.5304 17.0858 40.9094 16.0578 41.2115 15.0062C41.3638 14.4969 41.9345 12.1727 40.6791 11.3573C39.4238 10.5418 38.4342 11.9954 38.4342 11.9954Z" fill="#263238"/>
<path d="M41.1145 50.5568L33.9492 52.697L34.1974 53.5274L41.3626 51.3872L41.1145 50.5568Z" fill="#263238"/>
<path opacity="0.3" d="M41.1145 50.5568L33.9492 52.697L34.1974 53.5274L41.3626 51.3872L41.1145 50.5568Z" fill="white"/>
<path opacity="0.4" d="M38.2714 34.8755L36.5469 34.155C36.5469 34.155 38.8379 34.4526 38.7424 34.4205C38.6469 34.3883 38.2714 34.8755 38.2714 34.8755Z" fill="black"/>
<path d="M38.5722 2.44503C37.9894 1.78743 37.1699 0.779943 36.2996 0.658264C35.9077 0.583844 35.5035 0.608479 35.1236 0.72993C34.7437 0.85138 34.4002 1.0658 34.1242 1.35371C33.6241 1.84037 33.3892 2.04846 33.2797 2.25307C33.2208 2.35346 33.1917 2.46851 33.1957 2.58483C33.1997 2.70115 33.2367 2.81393 33.3023 2.91004C33.3378 2.95491 33.3825 2.99169 33.4333 3.01794C33.4842 3.04418 33.5401 3.05927 33.5972 3.06221C33.6544 3.06516 33.7115 3.05588 33.7648 3.035C33.818 3.01411 33.8663 2.98211 33.9062 2.94112C33.8536 2.9351 33.8004 2.94011 33.7499 2.95584C33.6994 2.97158 33.6527 2.99768 33.6129 3.03249C33.5731 3.06729 33.541 3.11003 33.5186 3.15796C33.4963 3.20589 33.4842 3.25796 33.4831 3.31084C33.4881 3.41816 33.5236 3.52183 33.5854 3.60973C33.6472 3.69763 33.7328 3.76613 33.8321 3.80721C34.0326 3.88616 34.2511 3.9077 34.4632 3.86941C35.8397 3.6896 37.2885 2.34319 38.6715 2.46245" fill="#020202"/>
<path opacity="0.4" d="M38.1522 12.5895C38.1522 12.5895 38.588 10.8003 40.5037 11.2578C40.5037 11.2578 39.5223 10.7325 38.7443 11.183C37.9664 11.6334 38.1522 12.5895 38.1522 12.5895Z" fill="black"/>
<path d="M28.7433 20.1053C28.7433 20.2622 28.6967 20.4156 28.6095 20.546C28.5223 20.6765 28.3984 20.7782 28.2534 20.8382C28.1084 20.8982 27.9489 20.914 27.7949 20.8833C27.641 20.8527 27.4996 20.7772 27.3887 20.6662C27.2777 20.5553 27.2021 20.4139 27.1715 20.2601C27.1409 20.1062 27.1566 19.9467 27.2166 19.8017C27.2767 19.6568 27.3784 19.5329 27.5089 19.4457C27.6394 19.3585 27.7928 19.312 27.9497 19.312C28.054 19.312 28.1571 19.3325 28.2534 19.3724C28.3497 19.4123 28.4372 19.4707 28.5108 19.5444C28.5845 19.618 28.643 19.7055 28.6829 19.8017C28.7227 19.898 28.7433 20.0011 28.7433 20.1053Z" fill="#263238"/>
<path opacity="0.3" d="M35.1815 4.40828C34.8815 4.48983 34.6004 4.62942 34.3542 4.81913C34.3237 4.84379 34.2986 4.87449 34.2805 4.9093C34.2623 4.9441 34.2516 4.98228 34.2489 5.02142C34.2263 5.35858 34.2136 6.31988 35.0363 6.21525C36.0055 6.09201 35.9845 5.34324 35.9966 4.89367C36.0088 4.44409 35.8587 4.20346 35.1815 4.40828Z" fill="#263238"/>
<path opacity="0.3" d="M36.8285 3.99894C37.2154 3.90836 37.6128 3.87059 38.0098 3.88665C38.0506 3.89493 38.0893 3.91117 38.1238 3.93444C38.1582 3.95771 38.1878 3.98756 38.2107 4.02226C38.4134 4.32522 38.7034 5.29406 37.9356 5.61057C37.0313 5.98337 36.7513 5.45032 36.4965 5.03731C36.2417 4.62431 36.1321 4.14878 36.8285 3.99894Z" fill="#263238"/>
<path d="M38.0938 4.04858L39.7354 4.39806" stroke="black" stroke-width="0.074462" stroke-linecap="round" stroke-linejoin="round"/>
<path d="M35.8203 4.58344C35.8987 4.49309 36.006 4.4328 36.124 4.41293C36.2419 4.39305 36.3631 4.41482 36.4667 4.4745" stroke="black" stroke-width="0.074462" stroke-linecap="round" stroke-linejoin="round"/>
<path d="M33.836 22.9827C30.2596 22.1722 29.0177 26.0814 29.0177 26.0814H27.8753C27.6464 26.0814 27.5895 26.2123 27.6036 26.3694C27.6215 26.518 27.6895 26.6561 27.7964 26.761C27.9033 26.8658 28.0427 26.9312 28.1917 26.9463L36.6846 27.9761C36.6846 27.9761 37.4124 23.7931 33.836 22.9827Z" fill="#0028A3"/>
<path opacity="0.3" d="M29.0156 26.0813C29.0156 26.0813 31.9031 26.2643 32.914 26.4239C33.925 26.5835 29.1173 25.8123 29.1173 25.8123L29.0156 26.0813Z" fill="black"/>
<path opacity="0.4" d="M48.0997 23.083C47.9701 23.1021 40.2969 25.7133 40.2969 25.7133" stroke="black" stroke-width="0.074462" stroke-miterlimit="10"/>
<path opacity="0.3" d="M27.6025 27.0257C27.6025 27.0257 24.2627 28.5637 24.1528 30.0364C24.0893 31.2277 24.1779 32.4223 24.4162 33.5913C24.4162 33.5913 22.0016 31.0332 23.0623 29.1787C24.1231 27.3241 27.1276 26.9379 27.6025 27.0257Z" fill="white"/>
<path opacity="0.3" d="M17.7857 29.0305L19.4308 25.9084L16.4766 29.4176L17.7857 29.0305Z" fill="black"/>
</svg>
